G04 #@! TF.GenerationSoftware,KiCad,Pcbnew,7.0.6*
G04 #@! TF.CreationDate,2023-08-06T21:35:15+02:00*
G04 #@! TF.ProjectId,AD9744_Test,41443937-3434-45f5-9465-73742e6b6963,rev?*
G04 #@! TF.SameCoordinates,Original*
G04 #@! TF.FileFunction,Legend,Top*
G04 #@! TF.FilePolarity,Positive*
%FSLAX46Y46*%
G04 Gerber Fmt 4.6, Leading zero omitted, Abs format (unit mm)*
G04 Created by KiCad (PCBNEW 7.0.6) date 2023-08-06 21:35:15*
%MOMM*%
%LPD*%
G01*
G04 APERTURE LIST*
%ADD10C,0.240000*%
%ADD11C,0.150000*%
%ADD12C,0.120000*%
G04 APERTURE END LIST*
D10*
X112273465Y-94779520D02*
X112444894Y-94836662D01*
X112444894Y-94836662D02*
X112730608Y-94836662D01*
X112730608Y-94836662D02*
X112844894Y-94779520D01*
X112844894Y-94779520D02*
X112902036Y-94722377D01*
X112902036Y-94722377D02*
X112959179Y-94608091D01*
X112959179Y-94608091D02*
X112959179Y-94493805D01*
X112959179Y-94493805D02*
X112902036Y-94379520D01*
X112902036Y-94379520D02*
X112844894Y-94322377D01*
X112844894Y-94322377D02*
X112730608Y-94265234D01*
X112730608Y-94265234D02*
X112502036Y-94208091D01*
X112502036Y-94208091D02*
X112387751Y-94150948D01*
X112387751Y-94150948D02*
X112330608Y-94093805D01*
X112330608Y-94093805D02*
X112273465Y-93979520D01*
X112273465Y-93979520D02*
X112273465Y-93865234D01*
X112273465Y-93865234D02*
X112330608Y-93750948D01*
X112330608Y-93750948D02*
X112387751Y-93693805D01*
X112387751Y-93693805D02*
X112502036Y-93636662D01*
X112502036Y-93636662D02*
X112787751Y-93636662D01*
X112787751Y-93636662D02*
X112959179Y-93693805D01*
X113473465Y-94836662D02*
X113473465Y-93636662D01*
X114673465Y-93693805D02*
X114559180Y-93636662D01*
X114559180Y-93636662D02*
X114387751Y-93636662D01*
X114387751Y-93636662D02*
X114216322Y-93693805D01*
X114216322Y-93693805D02*
X114102037Y-93808091D01*
X114102037Y-93808091D02*
X114044894Y-93922377D01*
X114044894Y-93922377D02*
X113987751Y-94150948D01*
X113987751Y-94150948D02*
X113987751Y-94322377D01*
X113987751Y-94322377D02*
X114044894Y-94550948D01*
X114044894Y-94550948D02*
X114102037Y-94665234D01*
X114102037Y-94665234D02*
X114216322Y-94779520D01*
X114216322Y-94779520D02*
X114387751Y-94836662D01*
X114387751Y-94836662D02*
X114502037Y-94836662D01*
X114502037Y-94836662D02*
X114673465Y-94779520D01*
X114673465Y-94779520D02*
X114730608Y-94722377D01*
X114730608Y-94722377D02*
X114730608Y-94322377D01*
X114730608Y-94322377D02*
X114502037Y-94322377D01*
X115244894Y-94836662D02*
X115244894Y-93636662D01*
X115244894Y-93636662D02*
X115930608Y-94836662D01*
X115930608Y-94836662D02*
X115930608Y-93636662D01*
D11*
X113700160Y-116932104D02*
X114176350Y-116932104D01*
X113604922Y-117217819D02*
X113938255Y-116217819D01*
X113938255Y-116217819D02*
X114271588Y-117217819D01*
X114604922Y-117217819D02*
X114604922Y-116217819D01*
X114604922Y-116217819D02*
X114843017Y-116217819D01*
X114843017Y-116217819D02*
X114985874Y-116265438D01*
X114985874Y-116265438D02*
X115081112Y-116360676D01*
X115081112Y-116360676D02*
X115128731Y-116455914D01*
X115128731Y-116455914D02*
X115176350Y-116646390D01*
X115176350Y-116646390D02*
X115176350Y-116789247D01*
X115176350Y-116789247D02*
X115128731Y-116979723D01*
X115128731Y-116979723D02*
X115081112Y-117074961D01*
X115081112Y-117074961D02*
X114985874Y-117170200D01*
X114985874Y-117170200D02*
X114843017Y-117217819D01*
X114843017Y-117217819D02*
X114604922Y-117217819D01*
X115652541Y-117217819D02*
X115843017Y-117217819D01*
X115843017Y-117217819D02*
X115938255Y-117170200D01*
X115938255Y-117170200D02*
X115985874Y-117122580D01*
X115985874Y-117122580D02*
X116081112Y-116979723D01*
X116081112Y-116979723D02*
X116128731Y-116789247D01*
X116128731Y-116789247D02*
X116128731Y-116408295D01*
X116128731Y-116408295D02*
X116081112Y-116313057D01*
X116081112Y-116313057D02*
X116033493Y-116265438D01*
X116033493Y-116265438D02*
X115938255Y-116217819D01*
X115938255Y-116217819D02*
X115747779Y-116217819D01*
X115747779Y-116217819D02*
X115652541Y-116265438D01*
X115652541Y-116265438D02*
X115604922Y-116313057D01*
X115604922Y-116313057D02*
X115557303Y-116408295D01*
X115557303Y-116408295D02*
X115557303Y-116646390D01*
X115557303Y-116646390D02*
X115604922Y-116741628D01*
X115604922Y-116741628D02*
X115652541Y-116789247D01*
X115652541Y-116789247D02*
X115747779Y-116836866D01*
X115747779Y-116836866D02*
X115938255Y-116836866D01*
X115938255Y-116836866D02*
X116033493Y-116789247D01*
X116033493Y-116789247D02*
X116081112Y-116741628D01*
X116081112Y-116741628D02*
X116128731Y-116646390D01*
X116462065Y-116217819D02*
X117128731Y-116217819D01*
X117128731Y-116217819D02*
X116700160Y-117217819D01*
X117938255Y-116551152D02*
X117938255Y-117217819D01*
X117700160Y-116170200D02*
X117462065Y-116884485D01*
X117462065Y-116884485D02*
X118081112Y-116884485D01*
X118890636Y-116551152D02*
X118890636Y-117217819D01*
X118652541Y-116170200D02*
X118414446Y-116884485D01*
X118414446Y-116884485D02*
X119033493Y-116884485D01*
X119176351Y-117313057D02*
X119938255Y-117313057D01*
X120033494Y-116217819D02*
X120604922Y-116217819D01*
X120319208Y-117217819D02*
X120319208Y-116217819D01*
X121319208Y-117170200D02*
X121223970Y-117217819D01*
X121223970Y-117217819D02*
X121033494Y-117217819D01*
X121033494Y-117217819D02*
X120938256Y-117170200D01*
X120938256Y-117170200D02*
X120890637Y-117074961D01*
X120890637Y-117074961D02*
X120890637Y-116694009D01*
X120890637Y-116694009D02*
X120938256Y-116598771D01*
X120938256Y-116598771D02*
X121033494Y-116551152D01*
X121033494Y-116551152D02*
X121223970Y-116551152D01*
X121223970Y-116551152D02*
X121319208Y-116598771D01*
X121319208Y-116598771D02*
X121366827Y-116694009D01*
X121366827Y-116694009D02*
X121366827Y-116789247D01*
X121366827Y-116789247D02*
X120890637Y-116884485D01*
X121747780Y-117170200D02*
X121843018Y-117217819D01*
X121843018Y-117217819D02*
X122033494Y-117217819D01*
X122033494Y-117217819D02*
X122128732Y-117170200D01*
X122128732Y-117170200D02*
X122176351Y-117074961D01*
X122176351Y-117074961D02*
X122176351Y-117027342D01*
X122176351Y-117027342D02*
X122128732Y-116932104D01*
X122128732Y-116932104D02*
X122033494Y-116884485D01*
X122033494Y-116884485D02*
X121890637Y-116884485D01*
X121890637Y-116884485D02*
X121795399Y-116836866D01*
X121795399Y-116836866D02*
X121747780Y-116741628D01*
X121747780Y-116741628D02*
X121747780Y-116694009D01*
X121747780Y-116694009D02*
X121795399Y-116598771D01*
X121795399Y-116598771D02*
X121890637Y-116551152D01*
X121890637Y-116551152D02*
X122033494Y-116551152D01*
X122033494Y-116551152D02*
X122128732Y-116598771D01*
X122462066Y-116551152D02*
X122843018Y-116551152D01*
X122604923Y-116217819D02*
X122604923Y-117074961D01*
X122604923Y-117074961D02*
X122652542Y-117170200D01*
X122652542Y-117170200D02*
X122747780Y-117217819D01*
X122747780Y-117217819D02*
X122843018Y-117217819D01*
D10*
X113340179Y-108044805D02*
X113225894Y-107987662D01*
X113225894Y-107987662D02*
X113054465Y-107987662D01*
X113054465Y-107987662D02*
X112883036Y-108044805D01*
X112883036Y-108044805D02*
X112768751Y-108159091D01*
X112768751Y-108159091D02*
X112711608Y-108273377D01*
X112711608Y-108273377D02*
X112654465Y-108501948D01*
X112654465Y-108501948D02*
X112654465Y-108673377D01*
X112654465Y-108673377D02*
X112711608Y-108901948D01*
X112711608Y-108901948D02*
X112768751Y-109016234D01*
X112768751Y-109016234D02*
X112883036Y-109130520D01*
X112883036Y-109130520D02*
X113054465Y-109187662D01*
X113054465Y-109187662D02*
X113168751Y-109187662D01*
X113168751Y-109187662D02*
X113340179Y-109130520D01*
X113340179Y-109130520D02*
X113397322Y-109073377D01*
X113397322Y-109073377D02*
X113397322Y-108673377D01*
X113397322Y-108673377D02*
X113168751Y-108673377D01*
X113911608Y-109187662D02*
X113911608Y-107987662D01*
X113911608Y-107987662D02*
X114597322Y-109187662D01*
X114597322Y-109187662D02*
X114597322Y-107987662D01*
X115168751Y-109187662D02*
X115168751Y-107987662D01*
X115168751Y-107987662D02*
X115454465Y-107987662D01*
X115454465Y-107987662D02*
X115625894Y-108044805D01*
X115625894Y-108044805D02*
X115740179Y-108159091D01*
X115740179Y-108159091D02*
X115797322Y-108273377D01*
X115797322Y-108273377D02*
X115854465Y-108501948D01*
X115854465Y-108501948D02*
X115854465Y-108673377D01*
X115854465Y-108673377D02*
X115797322Y-108901948D01*
X115797322Y-108901948D02*
X115740179Y-109016234D01*
X115740179Y-109016234D02*
X115625894Y-109130520D01*
X115625894Y-109130520D02*
X115454465Y-109187662D01*
X115454465Y-109187662D02*
X115168751Y-109187662D01*
D12*
X114099999Y-88781331D02*
X114099999Y-89209902D01*
X114099999Y-89209902D02*
X114071428Y-89295617D01*
X114071428Y-89295617D02*
X114014285Y-89352760D01*
X114014285Y-89352760D02*
X113928571Y-89381331D01*
X113928571Y-89381331D02*
X113871428Y-89381331D01*
X114328571Y-88781331D02*
X114699999Y-88781331D01*
X114699999Y-88781331D02*
X114499999Y-89009902D01*
X114499999Y-89009902D02*
X114585714Y-89009902D01*
X114585714Y-89009902D02*
X114642857Y-89038474D01*
X114642857Y-89038474D02*
X114671428Y-89067045D01*
X114671428Y-89067045D02*
X114699999Y-89124188D01*
X114699999Y-89124188D02*
X114699999Y-89267045D01*
X114699999Y-89267045D02*
X114671428Y-89324188D01*
X114671428Y-89324188D02*
X114642857Y-89352760D01*
X114642857Y-89352760D02*
X114585714Y-89381331D01*
X114585714Y-89381331D02*
X114414285Y-89381331D01*
X114414285Y-89381331D02*
X114357142Y-89352760D01*
X114357142Y-89352760D02*
X114328571Y-89324188D01*
X140927045Y-115688999D02*
X140927045Y-115888999D01*
X141241331Y-115888999D02*
X140641331Y-115888999D01*
X140641331Y-115888999D02*
X140641331Y-115603285D01*
X140927045Y-115174713D02*
X140955617Y-115088999D01*
X140955617Y-115088999D02*
X140984188Y-115060428D01*
X140984188Y-115060428D02*
X141041331Y-115031856D01*
X141041331Y-115031856D02*
X141127045Y-115031856D01*
X141127045Y-115031856D02*
X141184188Y-115060428D01*
X141184188Y-115060428D02*
X141212760Y-115088999D01*
X141212760Y-115088999D02*
X141241331Y-115146142D01*
X141241331Y-115146142D02*
X141241331Y-115374713D01*
X141241331Y-115374713D02*
X140641331Y-115374713D01*
X140641331Y-115374713D02*
X140641331Y-115174713D01*
X140641331Y-115174713D02*
X140669902Y-115117571D01*
X140669902Y-115117571D02*
X140698474Y-115088999D01*
X140698474Y-115088999D02*
X140755617Y-115060428D01*
X140755617Y-115060428D02*
X140812760Y-115060428D01*
X140812760Y-115060428D02*
X140869902Y-115088999D01*
X140869902Y-115088999D02*
X140898474Y-115117571D01*
X140898474Y-115117571D02*
X140927045Y-115174713D01*
X140927045Y-115174713D02*
X140927045Y-115374713D01*
X140698474Y-114803285D02*
X140669902Y-114774713D01*
X140669902Y-114774713D02*
X140641331Y-114717571D01*
X140641331Y-114717571D02*
X140641331Y-114574713D01*
X140641331Y-114574713D02*
X140669902Y-114517571D01*
X140669902Y-114517571D02*
X140698474Y-114488999D01*
X140698474Y-114488999D02*
X140755617Y-114460428D01*
X140755617Y-114460428D02*
X140812760Y-114460428D01*
X140812760Y-114460428D02*
X140898474Y-114488999D01*
X140898474Y-114488999D02*
X141241331Y-114831856D01*
X141241331Y-114831856D02*
X141241331Y-114460428D01*
X130803831Y-98778999D02*
X130518117Y-98978999D01*
X130803831Y-99121856D02*
X130203831Y-99121856D01*
X130203831Y-99121856D02*
X130203831Y-98893285D01*
X130203831Y-98893285D02*
X130232402Y-98836142D01*
X130232402Y-98836142D02*
X130260974Y-98807571D01*
X130260974Y-98807571D02*
X130318117Y-98778999D01*
X130318117Y-98778999D02*
X130403831Y-98778999D01*
X130403831Y-98778999D02*
X130460974Y-98807571D01*
X130460974Y-98807571D02*
X130489545Y-98836142D01*
X130489545Y-98836142D02*
X130518117Y-98893285D01*
X130518117Y-98893285D02*
X130518117Y-99121856D01*
X130203831Y-98578999D02*
X130203831Y-98178999D01*
X130203831Y-98178999D02*
X130803831Y-98436142D01*
X146170831Y-103087285D02*
X145885117Y-103287285D01*
X146170831Y-103430142D02*
X145570831Y-103430142D01*
X145570831Y-103430142D02*
X145570831Y-103201571D01*
X145570831Y-103201571D02*
X145599402Y-103144428D01*
X145599402Y-103144428D02*
X145627974Y-103115857D01*
X145627974Y-103115857D02*
X145685117Y-103087285D01*
X145685117Y-103087285D02*
X145770831Y-103087285D01*
X145770831Y-103087285D02*
X145827974Y-103115857D01*
X145827974Y-103115857D02*
X145856545Y-103144428D01*
X145856545Y-103144428D02*
X145885117Y-103201571D01*
X145885117Y-103201571D02*
X145885117Y-103430142D01*
X146170831Y-102830142D02*
X145570831Y-102830142D01*
X145570831Y-102830142D02*
X146170831Y-102487285D01*
X146170831Y-102487285D02*
X145570831Y-102487285D01*
X145770831Y-101944429D02*
X146170831Y-101944429D01*
X145542260Y-102087286D02*
X145970831Y-102230143D01*
X145970831Y-102230143D02*
X145970831Y-101858714D01*
X133245285Y-101906331D02*
X133645285Y-102506331D01*
X133645285Y-101906331D02*
X133245285Y-102506331D01*
X134188142Y-102506331D02*
X133845285Y-102506331D01*
X134016714Y-102506331D02*
X134016714Y-101906331D01*
X134016714Y-101906331D02*
X133959571Y-101992045D01*
X133959571Y-101992045D02*
X133902428Y-102049188D01*
X133902428Y-102049188D02*
X133845285Y-102077760D01*
X114099999Y-103005331D02*
X114099999Y-103433902D01*
X114099999Y-103433902D02*
X114071428Y-103519617D01*
X114071428Y-103519617D02*
X114014285Y-103576760D01*
X114014285Y-103576760D02*
X113928571Y-103605331D01*
X113928571Y-103605331D02*
X113871428Y-103605331D01*
X114642857Y-103205331D02*
X114642857Y-103605331D01*
X114499999Y-102976760D02*
X114357142Y-103405331D01*
X114357142Y-103405331D02*
X114728571Y-103405331D01*
X130803831Y-91920999D02*
X130518117Y-92120999D01*
X130803831Y-92263856D02*
X130203831Y-92263856D01*
X130203831Y-92263856D02*
X130203831Y-92035285D01*
X130203831Y-92035285D02*
X130232402Y-91978142D01*
X130232402Y-91978142D02*
X130260974Y-91949571D01*
X130260974Y-91949571D02*
X130318117Y-91920999D01*
X130318117Y-91920999D02*
X130403831Y-91920999D01*
X130403831Y-91920999D02*
X130460974Y-91949571D01*
X130460974Y-91949571D02*
X130489545Y-91978142D01*
X130489545Y-91978142D02*
X130518117Y-92035285D01*
X130518117Y-92035285D02*
X130518117Y-92263856D01*
X130403831Y-91406714D02*
X130803831Y-91406714D01*
X130175260Y-91549571D02*
X130603831Y-91692428D01*
X130603831Y-91692428D02*
X130603831Y-91320999D01*
X131829500Y-85107331D02*
X131629500Y-84821617D01*
X131486643Y-85107331D02*
X131486643Y-84507331D01*
X131486643Y-84507331D02*
X131715214Y-84507331D01*
X131715214Y-84507331D02*
X131772357Y-84535902D01*
X131772357Y-84535902D02*
X131800928Y-84564474D01*
X131800928Y-84564474D02*
X131829500Y-84621617D01*
X131829500Y-84621617D02*
X131829500Y-84707331D01*
X131829500Y-84707331D02*
X131800928Y-84764474D01*
X131800928Y-84764474D02*
X131772357Y-84793045D01*
X131772357Y-84793045D02*
X131715214Y-84821617D01*
X131715214Y-84821617D02*
X131486643Y-84821617D01*
X132343786Y-84507331D02*
X132229500Y-84507331D01*
X132229500Y-84507331D02*
X132172357Y-84535902D01*
X132172357Y-84535902D02*
X132143786Y-84564474D01*
X132143786Y-84564474D02*
X132086643Y-84650188D01*
X132086643Y-84650188D02*
X132058071Y-84764474D01*
X132058071Y-84764474D02*
X132058071Y-84993045D01*
X132058071Y-84993045D02*
X132086643Y-85050188D01*
X132086643Y-85050188D02*
X132115214Y-85078760D01*
X132115214Y-85078760D02*
X132172357Y-85107331D01*
X132172357Y-85107331D02*
X132286643Y-85107331D01*
X132286643Y-85107331D02*
X132343786Y-85078760D01*
X132343786Y-85078760D02*
X132372357Y-85050188D01*
X132372357Y-85050188D02*
X132400928Y-84993045D01*
X132400928Y-84993045D02*
X132400928Y-84850188D01*
X132400928Y-84850188D02*
X132372357Y-84793045D01*
X132372357Y-84793045D02*
X132343786Y-84764474D01*
X132343786Y-84764474D02*
X132286643Y-84735902D01*
X132286643Y-84735902D02*
X132172357Y-84735902D01*
X132172357Y-84735902D02*
X132115214Y-84764474D01*
X132115214Y-84764474D02*
X132086643Y-84793045D01*
X132086643Y-84793045D02*
X132058071Y-84850188D01*
X127281000Y-102957188D02*
X127252428Y-102985760D01*
X127252428Y-102985760D02*
X127166714Y-103014331D01*
X127166714Y-103014331D02*
X127109571Y-103014331D01*
X127109571Y-103014331D02*
X127023857Y-102985760D01*
X127023857Y-102985760D02*
X126966714Y-102928617D01*
X126966714Y-102928617D02*
X126938143Y-102871474D01*
X126938143Y-102871474D02*
X126909571Y-102757188D01*
X126909571Y-102757188D02*
X126909571Y-102671474D01*
X126909571Y-102671474D02*
X126938143Y-102557188D01*
X126938143Y-102557188D02*
X126966714Y-102500045D01*
X126966714Y-102500045D02*
X127023857Y-102442902D01*
X127023857Y-102442902D02*
X127109571Y-102414331D01*
X127109571Y-102414331D02*
X127166714Y-102414331D01*
X127166714Y-102414331D02*
X127252428Y-102442902D01*
X127252428Y-102442902D02*
X127281000Y-102471474D01*
X127481000Y-102414331D02*
X127852428Y-102414331D01*
X127852428Y-102414331D02*
X127652428Y-102642902D01*
X127652428Y-102642902D02*
X127738143Y-102642902D01*
X127738143Y-102642902D02*
X127795286Y-102671474D01*
X127795286Y-102671474D02*
X127823857Y-102700045D01*
X127823857Y-102700045D02*
X127852428Y-102757188D01*
X127852428Y-102757188D02*
X127852428Y-102900045D01*
X127852428Y-102900045D02*
X127823857Y-102957188D01*
X127823857Y-102957188D02*
X127795286Y-102985760D01*
X127795286Y-102985760D02*
X127738143Y-103014331D01*
X127738143Y-103014331D02*
X127566714Y-103014331D01*
X127566714Y-103014331D02*
X127509571Y-102985760D01*
X127509571Y-102985760D02*
X127481000Y-102957188D01*
X146170831Y-99277285D02*
X145885117Y-99477285D01*
X146170831Y-99620142D02*
X145570831Y-99620142D01*
X145570831Y-99620142D02*
X145570831Y-99391571D01*
X145570831Y-99391571D02*
X145599402Y-99334428D01*
X145599402Y-99334428D02*
X145627974Y-99305857D01*
X145627974Y-99305857D02*
X145685117Y-99277285D01*
X145685117Y-99277285D02*
X145770831Y-99277285D01*
X145770831Y-99277285D02*
X145827974Y-99305857D01*
X145827974Y-99305857D02*
X145856545Y-99334428D01*
X145856545Y-99334428D02*
X145885117Y-99391571D01*
X145885117Y-99391571D02*
X145885117Y-99620142D01*
X146170831Y-99020142D02*
X145570831Y-99020142D01*
X145570831Y-99020142D02*
X146170831Y-98677285D01*
X146170831Y-98677285D02*
X145570831Y-98677285D01*
X145570831Y-98448714D02*
X145570831Y-98077286D01*
X145570831Y-98077286D02*
X145799402Y-98277286D01*
X145799402Y-98277286D02*
X145799402Y-98191571D01*
X145799402Y-98191571D02*
X145827974Y-98134429D01*
X145827974Y-98134429D02*
X145856545Y-98105857D01*
X145856545Y-98105857D02*
X145913688Y-98077286D01*
X145913688Y-98077286D02*
X146056545Y-98077286D01*
X146056545Y-98077286D02*
X146113688Y-98105857D01*
X146113688Y-98105857D02*
X146142260Y-98134429D01*
X146142260Y-98134429D02*
X146170831Y-98191571D01*
X146170831Y-98191571D02*
X146170831Y-98363000D01*
X146170831Y-98363000D02*
X146142260Y-98420143D01*
X146142260Y-98420143D02*
X146113688Y-98448714D01*
X130803831Y-93698999D02*
X130518117Y-93898999D01*
X130803831Y-94041856D02*
X130203831Y-94041856D01*
X130203831Y-94041856D02*
X130203831Y-93813285D01*
X130203831Y-93813285D02*
X130232402Y-93756142D01*
X130232402Y-93756142D02*
X130260974Y-93727571D01*
X130260974Y-93727571D02*
X130318117Y-93698999D01*
X130318117Y-93698999D02*
X130403831Y-93698999D01*
X130403831Y-93698999D02*
X130460974Y-93727571D01*
X130460974Y-93727571D02*
X130489545Y-93756142D01*
X130489545Y-93756142D02*
X130518117Y-93813285D01*
X130518117Y-93813285D02*
X130518117Y-94041856D01*
X130460974Y-93356142D02*
X130432402Y-93413285D01*
X130432402Y-93413285D02*
X130403831Y-93441856D01*
X130403831Y-93441856D02*
X130346688Y-93470428D01*
X130346688Y-93470428D02*
X130318117Y-93470428D01*
X130318117Y-93470428D02*
X130260974Y-93441856D01*
X130260974Y-93441856D02*
X130232402Y-93413285D01*
X130232402Y-93413285D02*
X130203831Y-93356142D01*
X130203831Y-93356142D02*
X130203831Y-93241856D01*
X130203831Y-93241856D02*
X130232402Y-93184714D01*
X130232402Y-93184714D02*
X130260974Y-93156142D01*
X130260974Y-93156142D02*
X130318117Y-93127571D01*
X130318117Y-93127571D02*
X130346688Y-93127571D01*
X130346688Y-93127571D02*
X130403831Y-93156142D01*
X130403831Y-93156142D02*
X130432402Y-93184714D01*
X130432402Y-93184714D02*
X130460974Y-93241856D01*
X130460974Y-93241856D02*
X130460974Y-93356142D01*
X130460974Y-93356142D02*
X130489545Y-93413285D01*
X130489545Y-93413285D02*
X130518117Y-93441856D01*
X130518117Y-93441856D02*
X130575260Y-93470428D01*
X130575260Y-93470428D02*
X130689545Y-93470428D01*
X130689545Y-93470428D02*
X130746688Y-93441856D01*
X130746688Y-93441856D02*
X130775260Y-93413285D01*
X130775260Y-93413285D02*
X130803831Y-93356142D01*
X130803831Y-93356142D02*
X130803831Y-93241856D01*
X130803831Y-93241856D02*
X130775260Y-93184714D01*
X130775260Y-93184714D02*
X130746688Y-93156142D01*
X130746688Y-93156142D02*
X130689545Y-93127571D01*
X130689545Y-93127571D02*
X130575260Y-93127571D01*
X130575260Y-93127571D02*
X130518117Y-93156142D01*
X130518117Y-93156142D02*
X130489545Y-93184714D01*
X130489545Y-93184714D02*
X130460974Y-93241856D01*
X130803831Y-100683999D02*
X130518117Y-100883999D01*
X130803831Y-101026856D02*
X130203831Y-101026856D01*
X130203831Y-101026856D02*
X130203831Y-100798285D01*
X130203831Y-100798285D02*
X130232402Y-100741142D01*
X130232402Y-100741142D02*
X130260974Y-100712571D01*
X130260974Y-100712571D02*
X130318117Y-100683999D01*
X130318117Y-100683999D02*
X130403831Y-100683999D01*
X130403831Y-100683999D02*
X130460974Y-100712571D01*
X130460974Y-100712571D02*
X130489545Y-100741142D01*
X130489545Y-100741142D02*
X130518117Y-100798285D01*
X130518117Y-100798285D02*
X130518117Y-101026856D01*
X130203831Y-100141142D02*
X130203831Y-100426856D01*
X130203831Y-100426856D02*
X130489545Y-100455428D01*
X130489545Y-100455428D02*
X130460974Y-100426856D01*
X130460974Y-100426856D02*
X130432402Y-100369714D01*
X130432402Y-100369714D02*
X130432402Y-100226856D01*
X130432402Y-100226856D02*
X130460974Y-100169714D01*
X130460974Y-100169714D02*
X130489545Y-100141142D01*
X130489545Y-100141142D02*
X130546688Y-100112571D01*
X130546688Y-100112571D02*
X130689545Y-100112571D01*
X130689545Y-100112571D02*
X130746688Y-100141142D01*
X130746688Y-100141142D02*
X130775260Y-100169714D01*
X130775260Y-100169714D02*
X130803831Y-100226856D01*
X130803831Y-100226856D02*
X130803831Y-100369714D01*
X130803831Y-100369714D02*
X130775260Y-100426856D01*
X130775260Y-100426856D02*
X130746688Y-100455428D01*
X119351785Y-91457331D02*
X119151785Y-91171617D01*
X119008928Y-91457331D02*
X119008928Y-90857331D01*
X119008928Y-90857331D02*
X119237499Y-90857331D01*
X119237499Y-90857331D02*
X119294642Y-90885902D01*
X119294642Y-90885902D02*
X119323213Y-90914474D01*
X119323213Y-90914474D02*
X119351785Y-90971617D01*
X119351785Y-90971617D02*
X119351785Y-91057331D01*
X119351785Y-91057331D02*
X119323213Y-91114474D01*
X119323213Y-91114474D02*
X119294642Y-91143045D01*
X119294642Y-91143045D02*
X119237499Y-91171617D01*
X119237499Y-91171617D02*
X119008928Y-91171617D01*
X119923213Y-91457331D02*
X119580356Y-91457331D01*
X119751785Y-91457331D02*
X119751785Y-90857331D01*
X119751785Y-90857331D02*
X119694642Y-90943045D01*
X119694642Y-90943045D02*
X119637499Y-91000188D01*
X119637499Y-91000188D02*
X119580356Y-91028760D01*
X120494642Y-91457331D02*
X120151785Y-91457331D01*
X120323214Y-91457331D02*
X120323214Y-90857331D01*
X120323214Y-90857331D02*
X120266071Y-90943045D01*
X120266071Y-90943045D02*
X120208928Y-91000188D01*
X120208928Y-91000188D02*
X120151785Y-91028760D01*
X146194331Y-106398999D02*
X145908617Y-106598999D01*
X146194331Y-106741856D02*
X145594331Y-106741856D01*
X145594331Y-106741856D02*
X145594331Y-106513285D01*
X145594331Y-106513285D02*
X145622902Y-106456142D01*
X145622902Y-106456142D02*
X145651474Y-106427571D01*
X145651474Y-106427571D02*
X145708617Y-106398999D01*
X145708617Y-106398999D02*
X145794331Y-106398999D01*
X145794331Y-106398999D02*
X145851474Y-106427571D01*
X145851474Y-106427571D02*
X145880045Y-106456142D01*
X145880045Y-106456142D02*
X145908617Y-106513285D01*
X145908617Y-106513285D02*
X145908617Y-106741856D01*
X145651474Y-106170428D02*
X145622902Y-106141856D01*
X145622902Y-106141856D02*
X145594331Y-106084714D01*
X145594331Y-106084714D02*
X145594331Y-105941856D01*
X145594331Y-105941856D02*
X145622902Y-105884714D01*
X145622902Y-105884714D02*
X145651474Y-105856142D01*
X145651474Y-105856142D02*
X145708617Y-105827571D01*
X145708617Y-105827571D02*
X145765760Y-105827571D01*
X145765760Y-105827571D02*
X145851474Y-105856142D01*
X145851474Y-105856142D02*
X146194331Y-106198999D01*
X146194331Y-106198999D02*
X146194331Y-105827571D01*
X135215188Y-110208999D02*
X135243760Y-110237571D01*
X135243760Y-110237571D02*
X135272331Y-110323285D01*
X135272331Y-110323285D02*
X135272331Y-110380428D01*
X135272331Y-110380428D02*
X135243760Y-110466142D01*
X135243760Y-110466142D02*
X135186617Y-110523285D01*
X135186617Y-110523285D02*
X135129474Y-110551856D01*
X135129474Y-110551856D02*
X135015188Y-110580428D01*
X135015188Y-110580428D02*
X134929474Y-110580428D01*
X134929474Y-110580428D02*
X134815188Y-110551856D01*
X134815188Y-110551856D02*
X134758045Y-110523285D01*
X134758045Y-110523285D02*
X134700902Y-110466142D01*
X134700902Y-110466142D02*
X134672331Y-110380428D01*
X134672331Y-110380428D02*
X134672331Y-110323285D01*
X134672331Y-110323285D02*
X134700902Y-110237571D01*
X134700902Y-110237571D02*
X134729474Y-110208999D01*
X134872331Y-109694714D02*
X135272331Y-109694714D01*
X134643760Y-109837571D02*
X135072331Y-109980428D01*
X135072331Y-109980428D02*
X135072331Y-109608999D01*
X159632999Y-77919331D02*
X159632999Y-78347902D01*
X159632999Y-78347902D02*
X159604428Y-78433617D01*
X159604428Y-78433617D02*
X159547285Y-78490760D01*
X159547285Y-78490760D02*
X159461571Y-78519331D01*
X159461571Y-78519331D02*
X159404428Y-78519331D01*
X160232999Y-78519331D02*
X159890142Y-78519331D01*
X160061571Y-78519331D02*
X160061571Y-77919331D01*
X160061571Y-77919331D02*
X160004428Y-78005045D01*
X160004428Y-78005045D02*
X159947285Y-78062188D01*
X159947285Y-78062188D02*
X159890142Y-78090760D01*
X146170831Y-95467285D02*
X145885117Y-95667285D01*
X146170831Y-95810142D02*
X145570831Y-95810142D01*
X145570831Y-95810142D02*
X145570831Y-95581571D01*
X145570831Y-95581571D02*
X145599402Y-95524428D01*
X145599402Y-95524428D02*
X145627974Y-95495857D01*
X145627974Y-95495857D02*
X145685117Y-95467285D01*
X145685117Y-95467285D02*
X145770831Y-95467285D01*
X145770831Y-95467285D02*
X145827974Y-95495857D01*
X145827974Y-95495857D02*
X145856545Y-95524428D01*
X145856545Y-95524428D02*
X145885117Y-95581571D01*
X145885117Y-95581571D02*
X145885117Y-95810142D01*
X146170831Y-95210142D02*
X145570831Y-95210142D01*
X145570831Y-95210142D02*
X146170831Y-94867285D01*
X146170831Y-94867285D02*
X145570831Y-94867285D01*
X145627974Y-94610143D02*
X145599402Y-94581571D01*
X145599402Y-94581571D02*
X145570831Y-94524429D01*
X145570831Y-94524429D02*
X145570831Y-94381571D01*
X145570831Y-94381571D02*
X145599402Y-94324429D01*
X145599402Y-94324429D02*
X145627974Y-94295857D01*
X145627974Y-94295857D02*
X145685117Y-94267286D01*
X145685117Y-94267286D02*
X145742260Y-94267286D01*
X145742260Y-94267286D02*
X145827974Y-94295857D01*
X145827974Y-94295857D02*
X146170831Y-94638714D01*
X146170831Y-94638714D02*
X146170831Y-94267286D01*
X135890357Y-80789331D02*
X135690357Y-80503617D01*
X135547500Y-80789331D02*
X135547500Y-80189331D01*
X135547500Y-80189331D02*
X135776071Y-80189331D01*
X135776071Y-80189331D02*
X135833214Y-80217902D01*
X135833214Y-80217902D02*
X135861785Y-80246474D01*
X135861785Y-80246474D02*
X135890357Y-80303617D01*
X135890357Y-80303617D02*
X135890357Y-80389331D01*
X135890357Y-80389331D02*
X135861785Y-80446474D01*
X135861785Y-80446474D02*
X135833214Y-80475045D01*
X135833214Y-80475045D02*
X135776071Y-80503617D01*
X135776071Y-80503617D02*
X135547500Y-80503617D01*
X136061785Y-80189331D02*
X136261785Y-80789331D01*
X136261785Y-80789331D02*
X136461785Y-80189331D01*
X136976071Y-80789331D02*
X136633214Y-80789331D01*
X136804643Y-80789331D02*
X136804643Y-80189331D01*
X136804643Y-80189331D02*
X136747500Y-80275045D01*
X136747500Y-80275045D02*
X136690357Y-80332188D01*
X136690357Y-80332188D02*
X136633214Y-80360760D01*
X140927045Y-111878999D02*
X140927045Y-112078999D01*
X141241331Y-112078999D02*
X140641331Y-112078999D01*
X140641331Y-112078999D02*
X140641331Y-111793285D01*
X140927045Y-111364713D02*
X140955617Y-111278999D01*
X140955617Y-111278999D02*
X140984188Y-111250428D01*
X140984188Y-111250428D02*
X141041331Y-111221856D01*
X141041331Y-111221856D02*
X141127045Y-111221856D01*
X141127045Y-111221856D02*
X141184188Y-111250428D01*
X141184188Y-111250428D02*
X141212760Y-111278999D01*
X141212760Y-111278999D02*
X141241331Y-111336142D01*
X141241331Y-111336142D02*
X141241331Y-111564713D01*
X141241331Y-111564713D02*
X140641331Y-111564713D01*
X140641331Y-111564713D02*
X140641331Y-111364713D01*
X140641331Y-111364713D02*
X140669902Y-111307571D01*
X140669902Y-111307571D02*
X140698474Y-111278999D01*
X140698474Y-111278999D02*
X140755617Y-111250428D01*
X140755617Y-111250428D02*
X140812760Y-111250428D01*
X140812760Y-111250428D02*
X140869902Y-111278999D01*
X140869902Y-111278999D02*
X140898474Y-111307571D01*
X140898474Y-111307571D02*
X140927045Y-111364713D01*
X140927045Y-111364713D02*
X140927045Y-111564713D01*
X141241331Y-110650428D02*
X141241331Y-110993285D01*
X141241331Y-110821856D02*
X140641331Y-110821856D01*
X140641331Y-110821856D02*
X140727045Y-110878999D01*
X140727045Y-110878999D02*
X140784188Y-110936142D01*
X140784188Y-110936142D02*
X140812760Y-110993285D01*
X159632999Y-98609331D02*
X159632999Y-99037902D01*
X159632999Y-99037902D02*
X159604428Y-99123617D01*
X159604428Y-99123617D02*
X159547285Y-99180760D01*
X159547285Y-99180760D02*
X159461571Y-99209331D01*
X159461571Y-99209331D02*
X159404428Y-99209331D01*
X159890142Y-98666474D02*
X159918714Y-98637902D01*
X159918714Y-98637902D02*
X159975857Y-98609331D01*
X159975857Y-98609331D02*
X160118714Y-98609331D01*
X160118714Y-98609331D02*
X160175857Y-98637902D01*
X160175857Y-98637902D02*
X160204428Y-98666474D01*
X160204428Y-98666474D02*
X160232999Y-98723617D01*
X160232999Y-98723617D02*
X160232999Y-98780760D01*
X160232999Y-98780760D02*
X160204428Y-98866474D01*
X160204428Y-98866474D02*
X159861571Y-99209331D01*
X159861571Y-99209331D02*
X160232999Y-99209331D01*
X129186000Y-103014331D02*
X128986000Y-102728617D01*
X128843143Y-103014331D02*
X128843143Y-102414331D01*
X128843143Y-102414331D02*
X129071714Y-102414331D01*
X129071714Y-102414331D02*
X129128857Y-102442902D01*
X129128857Y-102442902D02*
X129157428Y-102471474D01*
X129157428Y-102471474D02*
X129186000Y-102528617D01*
X129186000Y-102528617D02*
X129186000Y-102614331D01*
X129186000Y-102614331D02*
X129157428Y-102671474D01*
X129157428Y-102671474D02*
X129128857Y-102700045D01*
X129128857Y-102700045D02*
X129071714Y-102728617D01*
X129071714Y-102728617D02*
X128843143Y-102728617D01*
X129757428Y-103014331D02*
X129414571Y-103014331D01*
X129586000Y-103014331D02*
X129586000Y-102414331D01*
X129586000Y-102414331D02*
X129528857Y-102500045D01*
X129528857Y-102500045D02*
X129471714Y-102557188D01*
X129471714Y-102557188D02*
X129414571Y-102585760D01*
X130803831Y-95762714D02*
X130518117Y-95962714D01*
X130803831Y-96105571D02*
X130203831Y-96105571D01*
X130203831Y-96105571D02*
X130203831Y-95877000D01*
X130203831Y-95877000D02*
X130232402Y-95819857D01*
X130232402Y-95819857D02*
X130260974Y-95791286D01*
X130260974Y-95791286D02*
X130318117Y-95762714D01*
X130318117Y-95762714D02*
X130403831Y-95762714D01*
X130403831Y-95762714D02*
X130460974Y-95791286D01*
X130460974Y-95791286D02*
X130489545Y-95819857D01*
X130489545Y-95819857D02*
X130518117Y-95877000D01*
X130518117Y-95877000D02*
X130518117Y-96105571D01*
X130803831Y-95191286D02*
X130803831Y-95534143D01*
X130803831Y-95362714D02*
X130203831Y-95362714D01*
X130203831Y-95362714D02*
X130289545Y-95419857D01*
X130289545Y-95419857D02*
X130346688Y-95477000D01*
X130346688Y-95477000D02*
X130375260Y-95534143D01*
X130203831Y-94819857D02*
X130203831Y-94762714D01*
X130203831Y-94762714D02*
X130232402Y-94705571D01*
X130232402Y-94705571D02*
X130260974Y-94677000D01*
X130260974Y-94677000D02*
X130318117Y-94648428D01*
X130318117Y-94648428D02*
X130432402Y-94619857D01*
X130432402Y-94619857D02*
X130575260Y-94619857D01*
X130575260Y-94619857D02*
X130689545Y-94648428D01*
X130689545Y-94648428D02*
X130746688Y-94677000D01*
X130746688Y-94677000D02*
X130775260Y-94705571D01*
X130775260Y-94705571D02*
X130803831Y-94762714D01*
X130803831Y-94762714D02*
X130803831Y-94819857D01*
X130803831Y-94819857D02*
X130775260Y-94877000D01*
X130775260Y-94877000D02*
X130746688Y-94905571D01*
X130746688Y-94905571D02*
X130689545Y-94934142D01*
X130689545Y-94934142D02*
X130575260Y-94962714D01*
X130575260Y-94962714D02*
X130432402Y-94962714D01*
X130432402Y-94962714D02*
X130318117Y-94934142D01*
X130318117Y-94934142D02*
X130260974Y-94905571D01*
X130260974Y-94905571D02*
X130232402Y-94877000D01*
X130232402Y-94877000D02*
X130203831Y-94819857D01*
X130803831Y-97000999D02*
X130518117Y-97200999D01*
X130803831Y-97343856D02*
X130203831Y-97343856D01*
X130203831Y-97343856D02*
X130203831Y-97115285D01*
X130203831Y-97115285D02*
X130232402Y-97058142D01*
X130232402Y-97058142D02*
X130260974Y-97029571D01*
X130260974Y-97029571D02*
X130318117Y-97000999D01*
X130318117Y-97000999D02*
X130403831Y-97000999D01*
X130403831Y-97000999D02*
X130460974Y-97029571D01*
X130460974Y-97029571D02*
X130489545Y-97058142D01*
X130489545Y-97058142D02*
X130518117Y-97115285D01*
X130518117Y-97115285D02*
X130518117Y-97343856D01*
X130803831Y-96715285D02*
X130803831Y-96600999D01*
X130803831Y-96600999D02*
X130775260Y-96543856D01*
X130775260Y-96543856D02*
X130746688Y-96515285D01*
X130746688Y-96515285D02*
X130660974Y-96458142D01*
X130660974Y-96458142D02*
X130546688Y-96429571D01*
X130546688Y-96429571D02*
X130318117Y-96429571D01*
X130318117Y-96429571D02*
X130260974Y-96458142D01*
X130260974Y-96458142D02*
X130232402Y-96486714D01*
X130232402Y-96486714D02*
X130203831Y-96543856D01*
X130203831Y-96543856D02*
X130203831Y-96658142D01*
X130203831Y-96658142D02*
X130232402Y-96715285D01*
X130232402Y-96715285D02*
X130260974Y-96743856D01*
X130260974Y-96743856D02*
X130318117Y-96772428D01*
X130318117Y-96772428D02*
X130460974Y-96772428D01*
X130460974Y-96772428D02*
X130518117Y-96743856D01*
X130518117Y-96743856D02*
X130546688Y-96715285D01*
X130546688Y-96715285D02*
X130575260Y-96658142D01*
X130575260Y-96658142D02*
X130575260Y-96543856D01*
X130575260Y-96543856D02*
X130546688Y-96486714D01*
X130546688Y-96486714D02*
X130518117Y-96458142D01*
X130518117Y-96458142D02*
X130460974Y-96429571D01*
X138711000Y-102506331D02*
X138511000Y-102220617D01*
X138368143Y-102506331D02*
X138368143Y-101906331D01*
X138368143Y-101906331D02*
X138596714Y-101906331D01*
X138596714Y-101906331D02*
X138653857Y-101934902D01*
X138653857Y-101934902D02*
X138682428Y-101963474D01*
X138682428Y-101963474D02*
X138711000Y-102020617D01*
X138711000Y-102020617D02*
X138711000Y-102106331D01*
X138711000Y-102106331D02*
X138682428Y-102163474D01*
X138682428Y-102163474D02*
X138653857Y-102192045D01*
X138653857Y-102192045D02*
X138596714Y-102220617D01*
X138596714Y-102220617D02*
X138368143Y-102220617D01*
X138911000Y-101906331D02*
X139282428Y-101906331D01*
X139282428Y-101906331D02*
X139082428Y-102134902D01*
X139082428Y-102134902D02*
X139168143Y-102134902D01*
X139168143Y-102134902D02*
X139225286Y-102163474D01*
X139225286Y-102163474D02*
X139253857Y-102192045D01*
X139253857Y-102192045D02*
X139282428Y-102249188D01*
X139282428Y-102249188D02*
X139282428Y-102392045D01*
X139282428Y-102392045D02*
X139253857Y-102449188D01*
X139253857Y-102449188D02*
X139225286Y-102477760D01*
X139225286Y-102477760D02*
X139168143Y-102506331D01*
X139168143Y-102506331D02*
X138996714Y-102506331D01*
X138996714Y-102506331D02*
X138939571Y-102477760D01*
X138939571Y-102477760D02*
X138911000Y-102449188D01*
X125631831Y-96596142D02*
X126117545Y-96596142D01*
X126117545Y-96596142D02*
X126174688Y-96567571D01*
X126174688Y-96567571D02*
X126203260Y-96539000D01*
X126203260Y-96539000D02*
X126231831Y-96481857D01*
X126231831Y-96481857D02*
X126231831Y-96367571D01*
X126231831Y-96367571D02*
X126203260Y-96310428D01*
X126203260Y-96310428D02*
X126174688Y-96281857D01*
X126174688Y-96281857D02*
X126117545Y-96253285D01*
X126117545Y-96253285D02*
X125631831Y-96253285D01*
X125688974Y-95996143D02*
X125660402Y-95967571D01*
X125660402Y-95967571D02*
X125631831Y-95910429D01*
X125631831Y-95910429D02*
X125631831Y-95767571D01*
X125631831Y-95767571D02*
X125660402Y-95710429D01*
X125660402Y-95710429D02*
X125688974Y-95681857D01*
X125688974Y-95681857D02*
X125746117Y-95653286D01*
X125746117Y-95653286D02*
X125803260Y-95653286D01*
X125803260Y-95653286D02*
X125888974Y-95681857D01*
X125888974Y-95681857D02*
X126231831Y-96024714D01*
X126231831Y-96024714D02*
X126231831Y-95653286D01*
X123415785Y-91457331D02*
X123215785Y-91171617D01*
X123072928Y-91457331D02*
X123072928Y-90857331D01*
X123072928Y-90857331D02*
X123301499Y-90857331D01*
X123301499Y-90857331D02*
X123358642Y-90885902D01*
X123358642Y-90885902D02*
X123387213Y-90914474D01*
X123387213Y-90914474D02*
X123415785Y-90971617D01*
X123415785Y-90971617D02*
X123415785Y-91057331D01*
X123415785Y-91057331D02*
X123387213Y-91114474D01*
X123387213Y-91114474D02*
X123358642Y-91143045D01*
X123358642Y-91143045D02*
X123301499Y-91171617D01*
X123301499Y-91171617D02*
X123072928Y-91171617D01*
X123987213Y-91457331D02*
X123644356Y-91457331D01*
X123815785Y-91457331D02*
X123815785Y-90857331D01*
X123815785Y-90857331D02*
X123758642Y-90943045D01*
X123758642Y-90943045D02*
X123701499Y-91000188D01*
X123701499Y-91000188D02*
X123644356Y-91028760D01*
X124215785Y-90914474D02*
X124244357Y-90885902D01*
X124244357Y-90885902D02*
X124301500Y-90857331D01*
X124301500Y-90857331D02*
X124444357Y-90857331D01*
X124444357Y-90857331D02*
X124501500Y-90885902D01*
X124501500Y-90885902D02*
X124530071Y-90914474D01*
X124530071Y-90914474D02*
X124558642Y-90971617D01*
X124558642Y-90971617D02*
X124558642Y-91028760D01*
X124558642Y-91028760D02*
X124530071Y-91114474D01*
X124530071Y-91114474D02*
X124187214Y-91457331D01*
X124187214Y-91457331D02*
X124558642Y-91457331D01*
X146170831Y-91657285D02*
X145885117Y-91857285D01*
X146170831Y-92000142D02*
X145570831Y-92000142D01*
X145570831Y-92000142D02*
X145570831Y-91771571D01*
X145570831Y-91771571D02*
X145599402Y-91714428D01*
X145599402Y-91714428D02*
X145627974Y-91685857D01*
X145627974Y-91685857D02*
X145685117Y-91657285D01*
X145685117Y-91657285D02*
X145770831Y-91657285D01*
X145770831Y-91657285D02*
X145827974Y-91685857D01*
X145827974Y-91685857D02*
X145856545Y-91714428D01*
X145856545Y-91714428D02*
X145885117Y-91771571D01*
X145885117Y-91771571D02*
X145885117Y-92000142D01*
X146170831Y-91400142D02*
X145570831Y-91400142D01*
X145570831Y-91400142D02*
X146170831Y-91057285D01*
X146170831Y-91057285D02*
X145570831Y-91057285D01*
X146170831Y-90457286D02*
X146170831Y-90800143D01*
X146170831Y-90628714D02*
X145570831Y-90628714D01*
X145570831Y-90628714D02*
X145656545Y-90685857D01*
X145656545Y-90685857D02*
X145713688Y-90743000D01*
X145713688Y-90743000D02*
X145742260Y-90800143D01*
X139347831Y-96723142D02*
X139833545Y-96723142D01*
X139833545Y-96723142D02*
X139890688Y-96694571D01*
X139890688Y-96694571D02*
X139919260Y-96666000D01*
X139919260Y-96666000D02*
X139947831Y-96608857D01*
X139947831Y-96608857D02*
X139947831Y-96494571D01*
X139947831Y-96494571D02*
X139919260Y-96437428D01*
X139919260Y-96437428D02*
X139890688Y-96408857D01*
X139890688Y-96408857D02*
X139833545Y-96380285D01*
X139833545Y-96380285D02*
X139347831Y-96380285D01*
X139947831Y-95780286D02*
X139947831Y-96123143D01*
X139947831Y-95951714D02*
X139347831Y-95951714D01*
X139347831Y-95951714D02*
X139433545Y-96008857D01*
X139433545Y-96008857D02*
X139490688Y-96066000D01*
X139490688Y-96066000D02*
X139519260Y-96123143D01*
X121383785Y-101363331D02*
X121183785Y-101077617D01*
X121040928Y-101363331D02*
X121040928Y-100763331D01*
X121040928Y-100763331D02*
X121269499Y-100763331D01*
X121269499Y-100763331D02*
X121326642Y-100791902D01*
X121326642Y-100791902D02*
X121355213Y-100820474D01*
X121355213Y-100820474D02*
X121383785Y-100877617D01*
X121383785Y-100877617D02*
X121383785Y-100963331D01*
X121383785Y-100963331D02*
X121355213Y-101020474D01*
X121355213Y-101020474D02*
X121326642Y-101049045D01*
X121326642Y-101049045D02*
X121269499Y-101077617D01*
X121269499Y-101077617D02*
X121040928Y-101077617D01*
X121955213Y-101363331D02*
X121612356Y-101363331D01*
X121783785Y-101363331D02*
X121783785Y-100763331D01*
X121783785Y-100763331D02*
X121726642Y-100849045D01*
X121726642Y-100849045D02*
X121669499Y-100906188D01*
X121669499Y-100906188D02*
X121612356Y-100934760D01*
X122155214Y-100763331D02*
X122526642Y-100763331D01*
X122526642Y-100763331D02*
X122326642Y-100991902D01*
X122326642Y-100991902D02*
X122412357Y-100991902D01*
X122412357Y-100991902D02*
X122469500Y-101020474D01*
X122469500Y-101020474D02*
X122498071Y-101049045D01*
X122498071Y-101049045D02*
X122526642Y-101106188D01*
X122526642Y-101106188D02*
X122526642Y-101249045D01*
X122526642Y-101249045D02*
X122498071Y-101306188D01*
X122498071Y-101306188D02*
X122469500Y-101334760D01*
X122469500Y-101334760D02*
X122412357Y-101363331D01*
X122412357Y-101363331D02*
X122240928Y-101363331D01*
X122240928Y-101363331D02*
X122183785Y-101334760D01*
X122183785Y-101334760D02*
X122155214Y-101306188D01*
X135215188Y-115288999D02*
X135243760Y-115317571D01*
X135243760Y-115317571D02*
X135272331Y-115403285D01*
X135272331Y-115403285D02*
X135272331Y-115460428D01*
X135272331Y-115460428D02*
X135243760Y-115546142D01*
X135243760Y-115546142D02*
X135186617Y-115603285D01*
X135186617Y-115603285D02*
X135129474Y-115631856D01*
X135129474Y-115631856D02*
X135015188Y-115660428D01*
X135015188Y-115660428D02*
X134929474Y-115660428D01*
X134929474Y-115660428D02*
X134815188Y-115631856D01*
X134815188Y-115631856D02*
X134758045Y-115603285D01*
X134758045Y-115603285D02*
X134700902Y-115546142D01*
X134700902Y-115546142D02*
X134672331Y-115460428D01*
X134672331Y-115460428D02*
X134672331Y-115403285D01*
X134672331Y-115403285D02*
X134700902Y-115317571D01*
X134700902Y-115317571D02*
X134729474Y-115288999D01*
X134672331Y-114774714D02*
X134672331Y-114888999D01*
X134672331Y-114888999D02*
X134700902Y-114946142D01*
X134700902Y-114946142D02*
X134729474Y-114974714D01*
X134729474Y-114974714D02*
X134815188Y-115031856D01*
X134815188Y-115031856D02*
X134929474Y-115060428D01*
X134929474Y-115060428D02*
X135158045Y-115060428D01*
X135158045Y-115060428D02*
X135215188Y-115031856D01*
X135215188Y-115031856D02*
X135243760Y-115003285D01*
X135243760Y-115003285D02*
X135272331Y-114946142D01*
X135272331Y-114946142D02*
X135272331Y-114831856D01*
X135272331Y-114831856D02*
X135243760Y-114774714D01*
X135243760Y-114774714D02*
X135215188Y-114746142D01*
X135215188Y-114746142D02*
X135158045Y-114717571D01*
X135158045Y-114717571D02*
X135015188Y-114717571D01*
X135015188Y-114717571D02*
X134958045Y-114746142D01*
X134958045Y-114746142D02*
X134929474Y-114774714D01*
X134929474Y-114774714D02*
X134900902Y-114831856D01*
X134900902Y-114831856D02*
X134900902Y-114946142D01*
X134900902Y-114946142D02*
X134929474Y-115003285D01*
X134929474Y-115003285D02*
X134958045Y-115031856D01*
X134958045Y-115031856D02*
X135015188Y-115060428D01*
G04 #@! TO.C,J3*
X112970000Y-90110000D02*
X114300000Y-90110000D01*
X112970000Y-91440000D02*
X112970000Y-90110000D01*
X112970000Y-92710000D02*
X112970000Y-92770000D01*
X112970000Y-92710000D02*
X115630000Y-92710000D01*
X112970000Y-92770000D02*
X115630000Y-92770000D01*
X115630000Y-92710000D02*
X115630000Y-92770000D01*
G04 #@! TO.C,FB2*
X138818252Y-115899000D02*
X138295748Y-115899000D01*
X138818252Y-114479000D02*
X138295748Y-114479000D01*
G04 #@! TO.C,R7*
X127991776Y-98156500D02*
X128501224Y-98156500D01*
X127991776Y-99201500D02*
X128501224Y-99201500D01*
G04 #@! TO.C,RN4*
X144013500Y-100953000D02*
X143213500Y-100953000D01*
X144013500Y-104393000D02*
X143213500Y-104393000D01*
G04 #@! TO.C,X1*
X131031000Y-102975000D02*
X131461000Y-102975000D01*
X131031000Y-106575000D02*
X131031000Y-102975000D01*
X131461000Y-106575000D02*
X131031000Y-106575000D01*
X131461000Y-106825000D02*
X131461000Y-106575000D01*
X133461000Y-102975000D02*
X134001000Y-102975000D01*
X133461000Y-106575000D02*
X133461000Y-106825000D01*
X134001000Y-106575000D02*
X133461000Y-106575000D01*
X136001000Y-102975000D02*
X136431000Y-102975000D01*
X136431000Y-102975000D02*
X136431000Y-106575000D01*
X136431000Y-106575000D02*
X136001000Y-106575000D01*
G04 #@! TO.C,J4*
X112970000Y-104334000D02*
X114300000Y-104334000D01*
X112970000Y-105664000D02*
X112970000Y-104334000D01*
X112970000Y-106934000D02*
X112970000Y-106994000D01*
X112970000Y-106934000D02*
X115630000Y-106934000D01*
X112970000Y-106994000D02*
X115630000Y-106994000D01*
X115630000Y-106934000D02*
X115630000Y-106994000D01*
G04 #@! TO.C,R4*
X127991776Y-91298500D02*
X128501224Y-91298500D01*
X127991776Y-92343500D02*
X128501224Y-92343500D01*
G04 #@! TO.C,R6*
X132452000Y-86740276D02*
X132452000Y-87249724D01*
X131407000Y-86740276D02*
X131407000Y-87249724D01*
G04 #@! TO.C,C3*
X127891000Y-104755733D02*
X127891000Y-105048267D01*
X126871000Y-104755733D02*
X126871000Y-105048267D01*
G04 #@! TO.C,RN3*
X144013500Y-97143000D02*
X143213500Y-97143000D01*
X144013500Y-100583000D02*
X143213500Y-100583000D01*
G04 #@! TO.C,R8*
X128501224Y-94121500D02*
X127991776Y-94121500D01*
X128501224Y-93076500D02*
X127991776Y-93076500D01*
G04 #@! TO.C,R5*
X128524724Y-101106500D02*
X128015276Y-101106500D01*
X128524724Y-100061500D02*
X128015276Y-100061500D01*
G04 #@! TO.C,R11*
X119992224Y-92851500D02*
X119482776Y-92851500D01*
X119992224Y-91806500D02*
X119482776Y-91806500D01*
G04 #@! TO.C,R2*
X143891724Y-106821500D02*
X143382276Y-106821500D01*
X143891724Y-105776500D02*
X143382276Y-105776500D01*
G04 #@! TO.C,C4*
X134125000Y-112369000D02*
X134125000Y-107849000D01*
X134125000Y-107849000D02*
X125890000Y-107849000D01*
X125890000Y-112369000D02*
X134125000Y-112369000D01*
G04 #@! TO.C,J1*
X152908000Y-79248000D02*
X154178000Y-79248000D01*
X152908000Y-80518000D02*
X152908000Y-79248000D01*
X155220929Y-82678000D02*
X155675071Y-82678000D01*
X155220929Y-83438000D02*
X155675071Y-83438000D01*
X155220929Y-85218000D02*
X155675071Y-85218000D01*
X155220929Y-85978000D02*
X155675071Y-85978000D01*
X155220929Y-87758000D02*
X155675071Y-87758000D01*
X155220929Y-88518000D02*
X155675071Y-88518000D01*
X155220929Y-90298000D02*
X155675071Y-90298000D01*
X155220929Y-91058000D02*
X155675071Y-91058000D01*
X155220929Y-92838000D02*
X155675071Y-92838000D01*
X155220929Y-93598000D02*
X155675071Y-93598000D01*
X155288000Y-80138000D02*
X155675071Y-80138000D01*
X155288000Y-80898000D02*
X155675071Y-80898000D01*
X157760929Y-80138000D02*
X158158000Y-80138000D01*
X157760929Y-80898000D02*
X158158000Y-80898000D01*
X157760929Y-82678000D02*
X158158000Y-82678000D01*
X157760929Y-83438000D02*
X158158000Y-83438000D01*
X157760929Y-85218000D02*
X158158000Y-85218000D01*
X157760929Y-85978000D02*
X158158000Y-85978000D01*
X157760929Y-87758000D02*
X158158000Y-87758000D01*
X157760929Y-88518000D02*
X158158000Y-88518000D01*
X157760929Y-90298000D02*
X158158000Y-90298000D01*
X157760929Y-91058000D02*
X158158000Y-91058000D01*
X157760929Y-92838000D02*
X158158000Y-92838000D01*
X157760929Y-93598000D02*
X158158000Y-93598000D01*
X158158000Y-79188000D02*
X158158000Y-94548000D01*
X158158000Y-81788000D02*
X160818000Y-81788000D01*
X158158000Y-84328000D02*
X160818000Y-84328000D01*
X158158000Y-86868000D02*
X160818000Y-86868000D01*
X158158000Y-89408000D02*
X160818000Y-89408000D01*
X158158000Y-91948000D02*
X160818000Y-91948000D01*
X158158000Y-94548000D02*
X160818000Y-94548000D01*
X160818000Y-79188000D02*
X158158000Y-79188000D01*
X160818000Y-80138000D02*
X166818000Y-80138000D01*
X160818000Y-80198000D02*
X166818000Y-80198000D01*
X160818000Y-80318000D02*
X166818000Y-80318000D01*
X160818000Y-80438000D02*
X166818000Y-80438000D01*
X160818000Y-80558000D02*
X166818000Y-80558000D01*
X160818000Y-80678000D02*
X166818000Y-80678000D01*
X160818000Y-80798000D02*
X166818000Y-80798000D01*
X160818000Y-82678000D02*
X166818000Y-82678000D01*
X160818000Y-85218000D02*
X166818000Y-85218000D01*
X160818000Y-87758000D02*
X166818000Y-87758000D01*
X160818000Y-90298000D02*
X166818000Y-90298000D01*
X160818000Y-92838000D02*
X166818000Y-92838000D01*
X160818000Y-94548000D02*
X160818000Y-79188000D01*
X166818000Y-80138000D02*
X166818000Y-80898000D01*
X166818000Y-80898000D02*
X160818000Y-80898000D01*
X166818000Y-82678000D02*
X166818000Y-83438000D01*
X166818000Y-83438000D02*
X160818000Y-83438000D01*
X166818000Y-85218000D02*
X166818000Y-85978000D01*
X166818000Y-85978000D02*
X160818000Y-85978000D01*
X166818000Y-87758000D02*
X166818000Y-88518000D01*
X166818000Y-88518000D02*
X160818000Y-88518000D01*
X166818000Y-90298000D02*
X166818000Y-91058000D01*
X166818000Y-91058000D02*
X160818000Y-91058000D01*
X166818000Y-92838000D02*
X166818000Y-93598000D01*
X166818000Y-93598000D02*
X160818000Y-93598000D01*
G04 #@! TO.C,RN2*
X144013500Y-93352000D02*
X143213500Y-93352000D01*
X144013500Y-96792000D02*
X143213500Y-96792000D01*
G04 #@! TO.C,RV1*
X138867500Y-86706000D02*
X138867500Y-82966000D01*
X138867500Y-86706000D02*
X138286500Y-86706000D01*
X138867500Y-82966000D02*
X137487500Y-82966000D01*
X136507500Y-86706000D02*
X135987500Y-86706000D01*
X135007500Y-82966000D02*
X133827500Y-82966000D01*
X134207500Y-86706000D02*
X133827500Y-86706000D01*
X133827500Y-86706000D02*
X133827500Y-82966000D01*
G04 #@! TO.C,FB1*
X138818252Y-112089000D02*
X138295748Y-112089000D01*
X138818252Y-110669000D02*
X138295748Y-110669000D01*
G04 #@! TO.C,J2*
X152908000Y-99938000D02*
X154178000Y-99938000D01*
X152908000Y-101208000D02*
X152908000Y-99938000D01*
X155220929Y-103368000D02*
X155675071Y-103368000D01*
X155220929Y-104128000D02*
X155675071Y-104128000D01*
X155220929Y-105908000D02*
X155675071Y-105908000D01*
X155220929Y-106668000D02*
X155675071Y-106668000D01*
X155220929Y-108448000D02*
X155675071Y-108448000D01*
X155220929Y-109208000D02*
X155675071Y-109208000D01*
X155220929Y-110988000D02*
X155675071Y-110988000D01*
X155220929Y-111748000D02*
X155675071Y-111748000D01*
X155220929Y-113528000D02*
X155675071Y-113528000D01*
X155220929Y-114288000D02*
X155675071Y-114288000D01*
X155288000Y-100828000D02*
X155675071Y-100828000D01*
X155288000Y-101588000D02*
X155675071Y-101588000D01*
X157760929Y-100828000D02*
X158158000Y-100828000D01*
X157760929Y-101588000D02*
X158158000Y-101588000D01*
X157760929Y-103368000D02*
X158158000Y-103368000D01*
X157760929Y-104128000D02*
X158158000Y-104128000D01*
X157760929Y-105908000D02*
X158158000Y-105908000D01*
X157760929Y-106668000D02*
X158158000Y-106668000D01*
X157760929Y-108448000D02*
X158158000Y-108448000D01*
X157760929Y-109208000D02*
X158158000Y-109208000D01*
X157760929Y-110988000D02*
X158158000Y-110988000D01*
X157760929Y-111748000D02*
X158158000Y-111748000D01*
X157760929Y-113528000D02*
X158158000Y-113528000D01*
X157760929Y-114288000D02*
X158158000Y-114288000D01*
X158158000Y-99878000D02*
X158158000Y-115238000D01*
X158158000Y-102478000D02*
X160818000Y-102478000D01*
X158158000Y-105018000D02*
X160818000Y-105018000D01*
X158158000Y-107558000D02*
X160818000Y-107558000D01*
X158158000Y-110098000D02*
X160818000Y-110098000D01*
X158158000Y-112638000D02*
X160818000Y-112638000D01*
X158158000Y-115238000D02*
X160818000Y-115238000D01*
X160818000Y-99878000D02*
X158158000Y-99878000D01*
X160818000Y-100828000D02*
X166818000Y-100828000D01*
X160818000Y-100888000D02*
X166818000Y-100888000D01*
X160818000Y-101008000D02*
X166818000Y-101008000D01*
X160818000Y-101128000D02*
X166818000Y-101128000D01*
X160818000Y-101248000D02*
X166818000Y-101248000D01*
X160818000Y-101368000D02*
X166818000Y-101368000D01*
X160818000Y-101488000D02*
X166818000Y-101488000D01*
X160818000Y-103368000D02*
X166818000Y-103368000D01*
X160818000Y-105908000D02*
X166818000Y-105908000D01*
X160818000Y-108448000D02*
X166818000Y-108448000D01*
X160818000Y-110988000D02*
X166818000Y-110988000D01*
X160818000Y-113528000D02*
X166818000Y-113528000D01*
X160818000Y-115238000D02*
X160818000Y-99878000D01*
X166818000Y-100828000D02*
X166818000Y-101588000D01*
X166818000Y-101588000D02*
X160818000Y-101588000D01*
X166818000Y-103368000D02*
X166818000Y-104128000D01*
X166818000Y-104128000D02*
X160818000Y-104128000D01*
X166818000Y-105908000D02*
X166818000Y-106668000D01*
X166818000Y-106668000D02*
X160818000Y-106668000D01*
X166818000Y-108448000D02*
X166818000Y-109208000D01*
X166818000Y-109208000D02*
X160818000Y-109208000D01*
X166818000Y-110988000D02*
X166818000Y-111748000D01*
X166818000Y-111748000D02*
X160818000Y-111748000D01*
X166818000Y-113528000D02*
X166818000Y-114288000D01*
X166818000Y-114288000D02*
X160818000Y-114288000D01*
G04 #@! TO.C,R1*
X129808500Y-104647276D02*
X129808500Y-105156724D01*
X128763500Y-104647276D02*
X128763500Y-105156724D01*
G04 #@! TO.C,R10*
X128501224Y-95899500D02*
X127991776Y-95899500D01*
X128501224Y-94854500D02*
X127991776Y-94854500D01*
G04 #@! TO.C,R9*
X128501224Y-97423500D02*
X127991776Y-97423500D01*
X128501224Y-96378500D02*
X127991776Y-96378500D01*
G04 #@! TO.C,R3*
X139065724Y-104027500D02*
X138556276Y-104027500D01*
X139065724Y-102982500D02*
X138556276Y-102982500D01*
G04 #@! TO.C,U2*
X121769500Y-98699000D02*
X125219500Y-98699000D01*
X121769500Y-98699000D02*
X119819500Y-98699000D01*
X121769500Y-93579000D02*
X123719500Y-93579000D01*
X121769500Y-93579000D02*
X119819500Y-93579000D01*
G04 #@! TO.C,R12*
X123546776Y-91806500D02*
X124056224Y-91806500D01*
X123546776Y-92851500D02*
X124056224Y-92851500D01*
G04 #@! TO.C,RN1*
X144013500Y-89523000D02*
X143213500Y-89523000D01*
X144013500Y-92963000D02*
X143213500Y-92963000D01*
G04 #@! TO.C,U1*
X137414500Y-101226000D02*
X137414500Y-100951000D01*
X137414500Y-100951000D02*
X138704500Y-100951000D01*
X137414500Y-91306000D02*
X137414500Y-91581000D01*
X135104500Y-101226000D02*
X137414500Y-101226000D01*
X135104500Y-101226000D02*
X132794500Y-101226000D01*
X135104500Y-91306000D02*
X137414500Y-91306000D01*
X135104500Y-91306000D02*
X132794500Y-91306000D01*
X132794500Y-101226000D02*
X132794500Y-100951000D01*
X132794500Y-91306000D02*
X132794500Y-91581000D01*
G04 #@! TO.C,R13*
X122024224Y-100344500D02*
X121514776Y-100344500D01*
X122024224Y-99299500D02*
X121514776Y-99299500D01*
G04 #@! TO.C,C6*
X134125000Y-117449000D02*
X134125000Y-112929000D01*
X134125000Y-112929000D02*
X125890000Y-112929000D01*
X125890000Y-117449000D02*
X134125000Y-117449000D01*
G04 #@! TD*
M02*
