%TF.GenerationSoftware,KiCad,Pcbnew,7.0.6*%
%TF.CreationDate,2023-08-06T21:35:20+02:00*%
%TF.ProjectId,AD9744_Test,41443937-3434-45f5-9465-73742e6b6963,rev?*%
%TF.SameCoordinates,Original*%
%TF.FileFunction,Drillmap*%
%TF.FilePolarity,Positive*%
%FSLAX45Y45*%
G04 Gerber Fmt 4.5, Leading zero omitted, Abs format (unit mm)*
G04 Created by KiCad (PCBNEW 7.0.6) date 2023-08-06 21:35:20*
%MOMM*%
%LPD*%
G01*
G04 APERTURE LIST*
%ADD10C,0.100000*%
%ADD11C,0.200000*%
%ADD12C,0.020000*%
%ADD13C,0.040000*%
G04 APERTURE END LIST*
D10*
X11050000Y-7500000D02*
X16050000Y-7500000D01*
X16050000Y-11900000D01*
X11050000Y-11900000D01*
X11050000Y-7500000D01*
D11*
D12*
X12461400Y-9296750D02*
X12481400Y-9316750D01*
X12481400Y-9296750D02*
X12461400Y-9316750D01*
X13335350Y-9324500D02*
X13355350Y-9344500D01*
X13355350Y-9324500D02*
X13335350Y-9344500D01*
D13*
X11765150Y-9232900D02*
G75*
G03*
X11765150Y-9232900I-20000J0D01*
G01*
X12080110Y-9636760D02*
G75*
G03*
X12080110Y-9636760I-20000J0D01*
G01*
X12616050Y-9423400D02*
G75*
G03*
X12616050Y-9423400I-20000J0D01*
G01*
X12628750Y-9182100D02*
G75*
G03*
X12628750Y-9182100I-20000J0D01*
G01*
X12628750Y-9867900D02*
G75*
G03*
X12628750Y-9867900I-20000J0D01*
G01*
X12669200Y-10058400D02*
G75*
G03*
X12669200Y-10058400I-20000J0D01*
G01*
X12859700Y-10896600D02*
G75*
G03*
X12859700Y-10896600I-20000J0D01*
G01*
X12859700Y-11010900D02*
G75*
G03*
X12859700Y-11010900I-20000J0D01*
G01*
X12859700Y-11125200D02*
G75*
G03*
X12859700Y-11125200I-20000J0D01*
G01*
X12859700Y-11404600D02*
G75*
G03*
X12859700Y-11404600I-20000J0D01*
G01*
X12859700Y-11518900D02*
G75*
G03*
X12859700Y-11518900I-20000J0D01*
G01*
X12859700Y-11645900D02*
G75*
G03*
X12859700Y-11645900I-20000J0D01*
G01*
X13088300Y-10896600D02*
G75*
G03*
X13088300Y-10896600I-20000J0D01*
G01*
X13088300Y-11010900D02*
G75*
G03*
X13088300Y-11010900I-20000J0D01*
G01*
X13088300Y-11125200D02*
G75*
G03*
X13088300Y-11125200I-20000J0D01*
G01*
X13088300Y-11404600D02*
G75*
G03*
X13088300Y-11404600I-20000J0D01*
G01*
X13088300Y-11518900D02*
G75*
G03*
X13088300Y-11518900I-20000J0D01*
G01*
X13088300Y-11645900D02*
G75*
G03*
X13088300Y-11645900I-20000J0D01*
G01*
X13395830Y-9791700D02*
G75*
G03*
X13395830Y-9791700I-20000J0D01*
G01*
X13416150Y-9525000D02*
G75*
G03*
X13416150Y-9525000I-20000J0D01*
G01*
X13520100Y-10045700D02*
G75*
G03*
X13520100Y-10045700I-20000J0D01*
G01*
X13538070Y-9794240D02*
G75*
G03*
X13538070Y-9794240I-20000J0D01*
G01*
X13647100Y-8407400D02*
G75*
G03*
X13647100Y-8407400I-20000J0D01*
G01*
X13748700Y-10604500D02*
G75*
G03*
X13748700Y-10604500I-20000J0D01*
G01*
D10*
X11430000Y-9094000D02*
X11430000Y-9194000D01*
X11380000Y-9144000D02*
X11480000Y-9144000D01*
X11430000Y-10516400D02*
X11430000Y-10616400D01*
X11380000Y-10566400D02*
X11480000Y-10566400D01*
X15417800Y-8001800D02*
X15417800Y-8101800D01*
X15367800Y-8051800D02*
X15467800Y-8051800D01*
X15417800Y-8255800D02*
X15417800Y-8355800D01*
X15367800Y-8305800D02*
X15467800Y-8305800D01*
X15417800Y-8509800D02*
X15417800Y-8609800D01*
X15367800Y-8559800D02*
X15467800Y-8559800D01*
X15417800Y-8763800D02*
X15417800Y-8863800D01*
X15367800Y-8813800D02*
X15467800Y-8813800D01*
X15417800Y-9017800D02*
X15417800Y-9117800D01*
X15367800Y-9067800D02*
X15467800Y-9067800D01*
X15417800Y-9271800D02*
X15417800Y-9371800D01*
X15367800Y-9321800D02*
X15467800Y-9321800D01*
X15417800Y-10070800D02*
X15417800Y-10170800D01*
X15367800Y-10120800D02*
X15467800Y-10120800D01*
X15417800Y-10324800D02*
X15417800Y-10424800D01*
X15367800Y-10374800D02*
X15467800Y-10374800D01*
X15417800Y-10578800D02*
X15417800Y-10678800D01*
X15367800Y-10628800D02*
X15467800Y-10628800D01*
X15417800Y-10832800D02*
X15417800Y-10932800D01*
X15367800Y-10882800D02*
X15467800Y-10882800D01*
X15417800Y-11086800D02*
X15417800Y-11186800D01*
X15367800Y-11136800D02*
X15467800Y-11136800D01*
X15417800Y-11340800D02*
X15417800Y-11440800D01*
X15367800Y-11390800D02*
X15467800Y-11390800D01*
X15671800Y-8001800D02*
X15671800Y-8101800D01*
X15621800Y-8051800D02*
X15721800Y-8051800D01*
X15671800Y-8255800D02*
X15671800Y-8355800D01*
X15621800Y-8305800D02*
X15721800Y-8305800D01*
X15671800Y-8509800D02*
X15671800Y-8609800D01*
X15621800Y-8559800D02*
X15721800Y-8559800D01*
X15671800Y-8763800D02*
X15671800Y-8863800D01*
X15621800Y-8813800D02*
X15721800Y-8813800D01*
X15671800Y-9017800D02*
X15671800Y-9117800D01*
X15621800Y-9067800D02*
X15721800Y-9067800D01*
X15671800Y-9271800D02*
X15671800Y-9371800D01*
X15621800Y-9321800D02*
X15721800Y-9321800D01*
X15671800Y-10070800D02*
X15671800Y-10170800D01*
X15621800Y-10120800D02*
X15721800Y-10120800D01*
X15671800Y-10324800D02*
X15671800Y-10424800D01*
X15621800Y-10374800D02*
X15721800Y-10374800D01*
X15671800Y-10578800D02*
X15671800Y-10678800D01*
X15621800Y-10628800D02*
X15721800Y-10628800D01*
X15671800Y-10832800D02*
X15671800Y-10932800D01*
X15621800Y-10882800D02*
X15721800Y-10882800D01*
X15671800Y-11086800D02*
X15671800Y-11186800D01*
X15621800Y-11136800D02*
X15721800Y-11136800D01*
X15671800Y-11340800D02*
X15671800Y-11440800D01*
X15621800Y-11390800D02*
X15721800Y-11390800D01*
D11*
X11305777Y-12216484D02*
X11305777Y-12016484D01*
X11305777Y-12016484D02*
X11353396Y-12016484D01*
X11353396Y-12016484D02*
X11381967Y-12026008D01*
X11381967Y-12026008D02*
X11401015Y-12045055D01*
X11401015Y-12045055D02*
X11410539Y-12064103D01*
X11410539Y-12064103D02*
X11420062Y-12102198D01*
X11420062Y-12102198D02*
X11420062Y-12130769D01*
X11420062Y-12130769D02*
X11410539Y-12168865D01*
X11410539Y-12168865D02*
X11401015Y-12187912D01*
X11401015Y-12187912D02*
X11381967Y-12206960D01*
X11381967Y-12206960D02*
X11353396Y-12216484D01*
X11353396Y-12216484D02*
X11305777Y-12216484D01*
X11505777Y-12216484D02*
X11505777Y-12083150D01*
X11505777Y-12121246D02*
X11515301Y-12102198D01*
X11515301Y-12102198D02*
X11524824Y-12092674D01*
X11524824Y-12092674D02*
X11543872Y-12083150D01*
X11543872Y-12083150D02*
X11562920Y-12083150D01*
X11629586Y-12216484D02*
X11629586Y-12083150D01*
X11629586Y-12016484D02*
X11620062Y-12026008D01*
X11620062Y-12026008D02*
X11629586Y-12035531D01*
X11629586Y-12035531D02*
X11639110Y-12026008D01*
X11639110Y-12026008D02*
X11629586Y-12016484D01*
X11629586Y-12016484D02*
X11629586Y-12035531D01*
X11753396Y-12216484D02*
X11734348Y-12206960D01*
X11734348Y-12206960D02*
X11724824Y-12187912D01*
X11724824Y-12187912D02*
X11724824Y-12016484D01*
X11858158Y-12216484D02*
X11839110Y-12206960D01*
X11839110Y-12206960D02*
X11829586Y-12187912D01*
X11829586Y-12187912D02*
X11829586Y-12016484D01*
X12086729Y-12216484D02*
X12086729Y-12016484D01*
X12086729Y-12016484D02*
X12153396Y-12159341D01*
X12153396Y-12159341D02*
X12220062Y-12016484D01*
X12220062Y-12016484D02*
X12220062Y-12216484D01*
X12401015Y-12216484D02*
X12401015Y-12111722D01*
X12401015Y-12111722D02*
X12391491Y-12092674D01*
X12391491Y-12092674D02*
X12372443Y-12083150D01*
X12372443Y-12083150D02*
X12334348Y-12083150D01*
X12334348Y-12083150D02*
X12315301Y-12092674D01*
X12401015Y-12206960D02*
X12381967Y-12216484D01*
X12381967Y-12216484D02*
X12334348Y-12216484D01*
X12334348Y-12216484D02*
X12315301Y-12206960D01*
X12315301Y-12206960D02*
X12305777Y-12187912D01*
X12305777Y-12187912D02*
X12305777Y-12168865D01*
X12305777Y-12168865D02*
X12315301Y-12149817D01*
X12315301Y-12149817D02*
X12334348Y-12140293D01*
X12334348Y-12140293D02*
X12381967Y-12140293D01*
X12381967Y-12140293D02*
X12401015Y-12130769D01*
X12496253Y-12083150D02*
X12496253Y-12283150D01*
X12496253Y-12092674D02*
X12515301Y-12083150D01*
X12515301Y-12083150D02*
X12553396Y-12083150D01*
X12553396Y-12083150D02*
X12572443Y-12092674D01*
X12572443Y-12092674D02*
X12581967Y-12102198D01*
X12581967Y-12102198D02*
X12591491Y-12121246D01*
X12591491Y-12121246D02*
X12591491Y-12178388D01*
X12591491Y-12178388D02*
X12581967Y-12197436D01*
X12581967Y-12197436D02*
X12572443Y-12206960D01*
X12572443Y-12206960D02*
X12553396Y-12216484D01*
X12553396Y-12216484D02*
X12515301Y-12216484D01*
X12515301Y-12216484D02*
X12496253Y-12206960D01*
X12677205Y-12197436D02*
X12686729Y-12206960D01*
X12686729Y-12206960D02*
X12677205Y-12216484D01*
X12677205Y-12216484D02*
X12667682Y-12206960D01*
X12667682Y-12206960D02*
X12677205Y-12197436D01*
X12677205Y-12197436D02*
X12677205Y-12216484D01*
X12677205Y-12092674D02*
X12686729Y-12102198D01*
X12686729Y-12102198D02*
X12677205Y-12111722D01*
X12677205Y-12111722D02*
X12667682Y-12102198D01*
X12667682Y-12102198D02*
X12677205Y-12092674D01*
X12677205Y-12092674D02*
X12677205Y-12111722D01*
D12*
X11025000Y-12535000D02*
X11045000Y-12555000D01*
X11045000Y-12535000D02*
X11025000Y-12555000D01*
D11*
X11343872Y-12436484D02*
X11362920Y-12436484D01*
X11362920Y-12436484D02*
X11381967Y-12446008D01*
X11381967Y-12446008D02*
X11391491Y-12455531D01*
X11391491Y-12455531D02*
X11401015Y-12474579D01*
X11401015Y-12474579D02*
X11410539Y-12512674D01*
X11410539Y-12512674D02*
X11410539Y-12560293D01*
X11410539Y-12560293D02*
X11401015Y-12598388D01*
X11401015Y-12598388D02*
X11391491Y-12617436D01*
X11391491Y-12617436D02*
X11381967Y-12626960D01*
X11381967Y-12626960D02*
X11362920Y-12636484D01*
X11362920Y-12636484D02*
X11343872Y-12636484D01*
X11343872Y-12636484D02*
X11324824Y-12626960D01*
X11324824Y-12626960D02*
X11315301Y-12617436D01*
X11315301Y-12617436D02*
X11305777Y-12598388D01*
X11305777Y-12598388D02*
X11296253Y-12560293D01*
X11296253Y-12560293D02*
X11296253Y-12512674D01*
X11296253Y-12512674D02*
X11305777Y-12474579D01*
X11305777Y-12474579D02*
X11315301Y-12455531D01*
X11315301Y-12455531D02*
X11324824Y-12446008D01*
X11324824Y-12446008D02*
X11343872Y-12436484D01*
X11496253Y-12617436D02*
X11505777Y-12626960D01*
X11505777Y-12626960D02*
X11496253Y-12636484D01*
X11496253Y-12636484D02*
X11486729Y-12626960D01*
X11486729Y-12626960D02*
X11496253Y-12617436D01*
X11496253Y-12617436D02*
X11496253Y-12636484D01*
X11581967Y-12455531D02*
X11591491Y-12446008D01*
X11591491Y-12446008D02*
X11610539Y-12436484D01*
X11610539Y-12436484D02*
X11658158Y-12436484D01*
X11658158Y-12436484D02*
X11677205Y-12446008D01*
X11677205Y-12446008D02*
X11686729Y-12455531D01*
X11686729Y-12455531D02*
X11696253Y-12474579D01*
X11696253Y-12474579D02*
X11696253Y-12493627D01*
X11696253Y-12493627D02*
X11686729Y-12522198D01*
X11686729Y-12522198D02*
X11572443Y-12636484D01*
X11572443Y-12636484D02*
X11696253Y-12636484D01*
X11820062Y-12436484D02*
X11839110Y-12436484D01*
X11839110Y-12436484D02*
X11858158Y-12446008D01*
X11858158Y-12446008D02*
X11867682Y-12455531D01*
X11867682Y-12455531D02*
X11877205Y-12474579D01*
X11877205Y-12474579D02*
X11886729Y-12512674D01*
X11886729Y-12512674D02*
X11886729Y-12560293D01*
X11886729Y-12560293D02*
X11877205Y-12598388D01*
X11877205Y-12598388D02*
X11867682Y-12617436D01*
X11867682Y-12617436D02*
X11858158Y-12626960D01*
X11858158Y-12626960D02*
X11839110Y-12636484D01*
X11839110Y-12636484D02*
X11820062Y-12636484D01*
X11820062Y-12636484D02*
X11801015Y-12626960D01*
X11801015Y-12626960D02*
X11791491Y-12617436D01*
X11791491Y-12617436D02*
X11781967Y-12598388D01*
X11781967Y-12598388D02*
X11772443Y-12560293D01*
X11772443Y-12560293D02*
X11772443Y-12512674D01*
X11772443Y-12512674D02*
X11781967Y-12474579D01*
X11781967Y-12474579D02*
X11791491Y-12455531D01*
X11791491Y-12455531D02*
X11801015Y-12446008D01*
X11801015Y-12446008D02*
X11820062Y-12436484D01*
X12010539Y-12436484D02*
X12029586Y-12436484D01*
X12029586Y-12436484D02*
X12048634Y-12446008D01*
X12048634Y-12446008D02*
X12058158Y-12455531D01*
X12058158Y-12455531D02*
X12067682Y-12474579D01*
X12067682Y-12474579D02*
X12077205Y-12512674D01*
X12077205Y-12512674D02*
X12077205Y-12560293D01*
X12077205Y-12560293D02*
X12067682Y-12598388D01*
X12067682Y-12598388D02*
X12058158Y-12617436D01*
X12058158Y-12617436D02*
X12048634Y-12626960D01*
X12048634Y-12626960D02*
X12029586Y-12636484D01*
X12029586Y-12636484D02*
X12010539Y-12636484D01*
X12010539Y-12636484D02*
X11991491Y-12626960D01*
X11991491Y-12626960D02*
X11981967Y-12617436D01*
X11981967Y-12617436D02*
X11972443Y-12598388D01*
X11972443Y-12598388D02*
X11962920Y-12560293D01*
X11962920Y-12560293D02*
X11962920Y-12512674D01*
X11962920Y-12512674D02*
X11972443Y-12474579D01*
X11972443Y-12474579D02*
X11981967Y-12455531D01*
X11981967Y-12455531D02*
X11991491Y-12446008D01*
X11991491Y-12446008D02*
X12010539Y-12436484D01*
X12162920Y-12636484D02*
X12162920Y-12503150D01*
X12162920Y-12522198D02*
X12172443Y-12512674D01*
X12172443Y-12512674D02*
X12191491Y-12503150D01*
X12191491Y-12503150D02*
X12220063Y-12503150D01*
X12220063Y-12503150D02*
X12239110Y-12512674D01*
X12239110Y-12512674D02*
X12248634Y-12531722D01*
X12248634Y-12531722D02*
X12248634Y-12636484D01*
X12248634Y-12531722D02*
X12258158Y-12512674D01*
X12258158Y-12512674D02*
X12277205Y-12503150D01*
X12277205Y-12503150D02*
X12305777Y-12503150D01*
X12305777Y-12503150D02*
X12324824Y-12512674D01*
X12324824Y-12512674D02*
X12334348Y-12531722D01*
X12334348Y-12531722D02*
X12334348Y-12636484D01*
X12429586Y-12636484D02*
X12429586Y-12503150D01*
X12429586Y-12522198D02*
X12439110Y-12512674D01*
X12439110Y-12512674D02*
X12458158Y-12503150D01*
X12458158Y-12503150D02*
X12486729Y-12503150D01*
X12486729Y-12503150D02*
X12505777Y-12512674D01*
X12505777Y-12512674D02*
X12515301Y-12531722D01*
X12515301Y-12531722D02*
X12515301Y-12636484D01*
X12515301Y-12531722D02*
X12524824Y-12512674D01*
X12524824Y-12512674D02*
X12543872Y-12503150D01*
X12543872Y-12503150D02*
X12572443Y-12503150D01*
X12572443Y-12503150D02*
X12591491Y-12512674D01*
X12591491Y-12512674D02*
X12601015Y-12531722D01*
X12601015Y-12531722D02*
X12601015Y-12636484D01*
X12991491Y-12426960D02*
X12820063Y-12684103D01*
X13248634Y-12436484D02*
X13267682Y-12436484D01*
X13267682Y-12436484D02*
X13286729Y-12446008D01*
X13286729Y-12446008D02*
X13296253Y-12455531D01*
X13296253Y-12455531D02*
X13305777Y-12474579D01*
X13305777Y-12474579D02*
X13315301Y-12512674D01*
X13315301Y-12512674D02*
X13315301Y-12560293D01*
X13315301Y-12560293D02*
X13305777Y-12598388D01*
X13305777Y-12598388D02*
X13296253Y-12617436D01*
X13296253Y-12617436D02*
X13286729Y-12626960D01*
X13286729Y-12626960D02*
X13267682Y-12636484D01*
X13267682Y-12636484D02*
X13248634Y-12636484D01*
X13248634Y-12636484D02*
X13229586Y-12626960D01*
X13229586Y-12626960D02*
X13220063Y-12617436D01*
X13220063Y-12617436D02*
X13210539Y-12598388D01*
X13210539Y-12598388D02*
X13201015Y-12560293D01*
X13201015Y-12560293D02*
X13201015Y-12512674D01*
X13201015Y-12512674D02*
X13210539Y-12474579D01*
X13210539Y-12474579D02*
X13220063Y-12455531D01*
X13220063Y-12455531D02*
X13229586Y-12446008D01*
X13229586Y-12446008D02*
X13248634Y-12436484D01*
X13401015Y-12617436D02*
X13410539Y-12626960D01*
X13410539Y-12626960D02*
X13401015Y-12636484D01*
X13401015Y-12636484D02*
X13391491Y-12626960D01*
X13391491Y-12626960D02*
X13401015Y-12617436D01*
X13401015Y-12617436D02*
X13401015Y-12636484D01*
X13534348Y-12436484D02*
X13553396Y-12436484D01*
X13553396Y-12436484D02*
X13572444Y-12446008D01*
X13572444Y-12446008D02*
X13581967Y-12455531D01*
X13581967Y-12455531D02*
X13591491Y-12474579D01*
X13591491Y-12474579D02*
X13601015Y-12512674D01*
X13601015Y-12512674D02*
X13601015Y-12560293D01*
X13601015Y-12560293D02*
X13591491Y-12598388D01*
X13591491Y-12598388D02*
X13581967Y-12617436D01*
X13581967Y-12617436D02*
X13572444Y-12626960D01*
X13572444Y-12626960D02*
X13553396Y-12636484D01*
X13553396Y-12636484D02*
X13534348Y-12636484D01*
X13534348Y-12636484D02*
X13515301Y-12626960D01*
X13515301Y-12626960D02*
X13505777Y-12617436D01*
X13505777Y-12617436D02*
X13496253Y-12598388D01*
X13496253Y-12598388D02*
X13486729Y-12560293D01*
X13486729Y-12560293D02*
X13486729Y-12512674D01*
X13486729Y-12512674D02*
X13496253Y-12474579D01*
X13496253Y-12474579D02*
X13505777Y-12455531D01*
X13505777Y-12455531D02*
X13515301Y-12446008D01*
X13515301Y-12446008D02*
X13534348Y-12436484D01*
X13724825Y-12436484D02*
X13743872Y-12436484D01*
X13743872Y-12436484D02*
X13762920Y-12446008D01*
X13762920Y-12446008D02*
X13772444Y-12455531D01*
X13772444Y-12455531D02*
X13781967Y-12474579D01*
X13781967Y-12474579D02*
X13791491Y-12512674D01*
X13791491Y-12512674D02*
X13791491Y-12560293D01*
X13791491Y-12560293D02*
X13781967Y-12598388D01*
X13781967Y-12598388D02*
X13772444Y-12617436D01*
X13772444Y-12617436D02*
X13762920Y-12626960D01*
X13762920Y-12626960D02*
X13743872Y-12636484D01*
X13743872Y-12636484D02*
X13724825Y-12636484D01*
X13724825Y-12636484D02*
X13705777Y-12626960D01*
X13705777Y-12626960D02*
X13696253Y-12617436D01*
X13696253Y-12617436D02*
X13686729Y-12598388D01*
X13686729Y-12598388D02*
X13677206Y-12560293D01*
X13677206Y-12560293D02*
X13677206Y-12512674D01*
X13677206Y-12512674D02*
X13686729Y-12474579D01*
X13686729Y-12474579D02*
X13696253Y-12455531D01*
X13696253Y-12455531D02*
X13705777Y-12446008D01*
X13705777Y-12446008D02*
X13724825Y-12436484D01*
X13858158Y-12436484D02*
X13991491Y-12436484D01*
X13991491Y-12436484D02*
X13905777Y-12636484D01*
X14077206Y-12636484D02*
X14115301Y-12636484D01*
X14115301Y-12636484D02*
X14134348Y-12626960D01*
X14134348Y-12626960D02*
X14143872Y-12617436D01*
X14143872Y-12617436D02*
X14162920Y-12588865D01*
X14162920Y-12588865D02*
X14172444Y-12550769D01*
X14172444Y-12550769D02*
X14172444Y-12474579D01*
X14172444Y-12474579D02*
X14162920Y-12455531D01*
X14162920Y-12455531D02*
X14153396Y-12446008D01*
X14153396Y-12446008D02*
X14134348Y-12436484D01*
X14134348Y-12436484D02*
X14096253Y-12436484D01*
X14096253Y-12436484D02*
X14077206Y-12446008D01*
X14077206Y-12446008D02*
X14067682Y-12455531D01*
X14067682Y-12455531D02*
X14058158Y-12474579D01*
X14058158Y-12474579D02*
X14058158Y-12522198D01*
X14058158Y-12522198D02*
X14067682Y-12541246D01*
X14067682Y-12541246D02*
X14077206Y-12550769D01*
X14077206Y-12550769D02*
X14096253Y-12560293D01*
X14096253Y-12560293D02*
X14134348Y-12560293D01*
X14134348Y-12560293D02*
X14153396Y-12550769D01*
X14153396Y-12550769D02*
X14162920Y-12541246D01*
X14162920Y-12541246D02*
X14172444Y-12522198D01*
X14248634Y-12436484D02*
X14248634Y-12474579D01*
X14324825Y-12436484D02*
X14324825Y-12474579D01*
X14620063Y-12712674D02*
X14610539Y-12703150D01*
X14610539Y-12703150D02*
X14591491Y-12674579D01*
X14591491Y-12674579D02*
X14581968Y-12655531D01*
X14581968Y-12655531D02*
X14572444Y-12626960D01*
X14572444Y-12626960D02*
X14562920Y-12579341D01*
X14562920Y-12579341D02*
X14562920Y-12541246D01*
X14562920Y-12541246D02*
X14572444Y-12493627D01*
X14572444Y-12493627D02*
X14581968Y-12465055D01*
X14581968Y-12465055D02*
X14591491Y-12446008D01*
X14591491Y-12446008D02*
X14610539Y-12417436D01*
X14610539Y-12417436D02*
X14620063Y-12407912D01*
X14686729Y-12455531D02*
X14696253Y-12446008D01*
X14696253Y-12446008D02*
X14715301Y-12436484D01*
X14715301Y-12436484D02*
X14762920Y-12436484D01*
X14762920Y-12436484D02*
X14781968Y-12446008D01*
X14781968Y-12446008D02*
X14791491Y-12455531D01*
X14791491Y-12455531D02*
X14801015Y-12474579D01*
X14801015Y-12474579D02*
X14801015Y-12493627D01*
X14801015Y-12493627D02*
X14791491Y-12522198D01*
X14791491Y-12522198D02*
X14677206Y-12636484D01*
X14677206Y-12636484D02*
X14801015Y-12636484D01*
X15039110Y-12636484D02*
X15039110Y-12436484D01*
X15124825Y-12636484D02*
X15124825Y-12531722D01*
X15124825Y-12531722D02*
X15115301Y-12512674D01*
X15115301Y-12512674D02*
X15096253Y-12503150D01*
X15096253Y-12503150D02*
X15067682Y-12503150D01*
X15067682Y-12503150D02*
X15048634Y-12512674D01*
X15048634Y-12512674D02*
X15039110Y-12522198D01*
X15248634Y-12636484D02*
X15229587Y-12626960D01*
X15229587Y-12626960D02*
X15220063Y-12617436D01*
X15220063Y-12617436D02*
X15210539Y-12598388D01*
X15210539Y-12598388D02*
X15210539Y-12541246D01*
X15210539Y-12541246D02*
X15220063Y-12522198D01*
X15220063Y-12522198D02*
X15229587Y-12512674D01*
X15229587Y-12512674D02*
X15248634Y-12503150D01*
X15248634Y-12503150D02*
X15277206Y-12503150D01*
X15277206Y-12503150D02*
X15296253Y-12512674D01*
X15296253Y-12512674D02*
X15305777Y-12522198D01*
X15305777Y-12522198D02*
X15315301Y-12541246D01*
X15315301Y-12541246D02*
X15315301Y-12598388D01*
X15315301Y-12598388D02*
X15305777Y-12617436D01*
X15305777Y-12617436D02*
X15296253Y-12626960D01*
X15296253Y-12626960D02*
X15277206Y-12636484D01*
X15277206Y-12636484D02*
X15248634Y-12636484D01*
X15429587Y-12636484D02*
X15410539Y-12626960D01*
X15410539Y-12626960D02*
X15401015Y-12607912D01*
X15401015Y-12607912D02*
X15401015Y-12436484D01*
X15581968Y-12626960D02*
X15562920Y-12636484D01*
X15562920Y-12636484D02*
X15524825Y-12636484D01*
X15524825Y-12636484D02*
X15505777Y-12626960D01*
X15505777Y-12626960D02*
X15496253Y-12607912D01*
X15496253Y-12607912D02*
X15496253Y-12531722D01*
X15496253Y-12531722D02*
X15505777Y-12512674D01*
X15505777Y-12512674D02*
X15524825Y-12503150D01*
X15524825Y-12503150D02*
X15562920Y-12503150D01*
X15562920Y-12503150D02*
X15581968Y-12512674D01*
X15581968Y-12512674D02*
X15591491Y-12531722D01*
X15591491Y-12531722D02*
X15591491Y-12550769D01*
X15591491Y-12550769D02*
X15496253Y-12569817D01*
X15667682Y-12626960D02*
X15686730Y-12636484D01*
X15686730Y-12636484D02*
X15724825Y-12636484D01*
X15724825Y-12636484D02*
X15743872Y-12626960D01*
X15743872Y-12626960D02*
X15753396Y-12607912D01*
X15753396Y-12607912D02*
X15753396Y-12598388D01*
X15753396Y-12598388D02*
X15743872Y-12579341D01*
X15743872Y-12579341D02*
X15724825Y-12569817D01*
X15724825Y-12569817D02*
X15696253Y-12569817D01*
X15696253Y-12569817D02*
X15677206Y-12560293D01*
X15677206Y-12560293D02*
X15667682Y-12541246D01*
X15667682Y-12541246D02*
X15667682Y-12531722D01*
X15667682Y-12531722D02*
X15677206Y-12512674D01*
X15677206Y-12512674D02*
X15696253Y-12503150D01*
X15696253Y-12503150D02*
X15724825Y-12503150D01*
X15724825Y-12503150D02*
X15743872Y-12512674D01*
X15820063Y-12712674D02*
X15829587Y-12703150D01*
X15829587Y-12703150D02*
X15848634Y-12674579D01*
X15848634Y-12674579D02*
X15858158Y-12655531D01*
X15858158Y-12655531D02*
X15867682Y-12626960D01*
X15867682Y-12626960D02*
X15877206Y-12579341D01*
X15877206Y-12579341D02*
X15877206Y-12541246D01*
X15877206Y-12541246D02*
X15867682Y-12493627D01*
X15867682Y-12493627D02*
X15858158Y-12465055D01*
X15858158Y-12465055D02*
X15848634Y-12446008D01*
X15848634Y-12446008D02*
X15829587Y-12417436D01*
X15829587Y-12417436D02*
X15820063Y-12407912D01*
D13*
X11045000Y-12809000D02*
G75*
G03*
X11045000Y-12809000I-20000J0D01*
G01*
D11*
X11343872Y-12700484D02*
X11362920Y-12700484D01*
X11362920Y-12700484D02*
X11381967Y-12710008D01*
X11381967Y-12710008D02*
X11391491Y-12719531D01*
X11391491Y-12719531D02*
X11401015Y-12738579D01*
X11401015Y-12738579D02*
X11410539Y-12776674D01*
X11410539Y-12776674D02*
X11410539Y-12824293D01*
X11410539Y-12824293D02*
X11401015Y-12862388D01*
X11401015Y-12862388D02*
X11391491Y-12881436D01*
X11391491Y-12881436D02*
X11381967Y-12890960D01*
X11381967Y-12890960D02*
X11362920Y-12900484D01*
X11362920Y-12900484D02*
X11343872Y-12900484D01*
X11343872Y-12900484D02*
X11324824Y-12890960D01*
X11324824Y-12890960D02*
X11315301Y-12881436D01*
X11315301Y-12881436D02*
X11305777Y-12862388D01*
X11305777Y-12862388D02*
X11296253Y-12824293D01*
X11296253Y-12824293D02*
X11296253Y-12776674D01*
X11296253Y-12776674D02*
X11305777Y-12738579D01*
X11305777Y-12738579D02*
X11315301Y-12719531D01*
X11315301Y-12719531D02*
X11324824Y-12710008D01*
X11324824Y-12710008D02*
X11343872Y-12700484D01*
X11496253Y-12881436D02*
X11505777Y-12890960D01*
X11505777Y-12890960D02*
X11496253Y-12900484D01*
X11496253Y-12900484D02*
X11486729Y-12890960D01*
X11486729Y-12890960D02*
X11496253Y-12881436D01*
X11496253Y-12881436D02*
X11496253Y-12900484D01*
X11677205Y-12767150D02*
X11677205Y-12900484D01*
X11629586Y-12690960D02*
X11581967Y-12833817D01*
X11581967Y-12833817D02*
X11705777Y-12833817D01*
X11820062Y-12700484D02*
X11839110Y-12700484D01*
X11839110Y-12700484D02*
X11858158Y-12710008D01*
X11858158Y-12710008D02*
X11867682Y-12719531D01*
X11867682Y-12719531D02*
X11877205Y-12738579D01*
X11877205Y-12738579D02*
X11886729Y-12776674D01*
X11886729Y-12776674D02*
X11886729Y-12824293D01*
X11886729Y-12824293D02*
X11877205Y-12862388D01*
X11877205Y-12862388D02*
X11867682Y-12881436D01*
X11867682Y-12881436D02*
X11858158Y-12890960D01*
X11858158Y-12890960D02*
X11839110Y-12900484D01*
X11839110Y-12900484D02*
X11820062Y-12900484D01*
X11820062Y-12900484D02*
X11801015Y-12890960D01*
X11801015Y-12890960D02*
X11791491Y-12881436D01*
X11791491Y-12881436D02*
X11781967Y-12862388D01*
X11781967Y-12862388D02*
X11772443Y-12824293D01*
X11772443Y-12824293D02*
X11772443Y-12776674D01*
X11772443Y-12776674D02*
X11781967Y-12738579D01*
X11781967Y-12738579D02*
X11791491Y-12719531D01*
X11791491Y-12719531D02*
X11801015Y-12710008D01*
X11801015Y-12710008D02*
X11820062Y-12700484D01*
X12010539Y-12700484D02*
X12029586Y-12700484D01*
X12029586Y-12700484D02*
X12048634Y-12710008D01*
X12048634Y-12710008D02*
X12058158Y-12719531D01*
X12058158Y-12719531D02*
X12067682Y-12738579D01*
X12067682Y-12738579D02*
X12077205Y-12776674D01*
X12077205Y-12776674D02*
X12077205Y-12824293D01*
X12077205Y-12824293D02*
X12067682Y-12862388D01*
X12067682Y-12862388D02*
X12058158Y-12881436D01*
X12058158Y-12881436D02*
X12048634Y-12890960D01*
X12048634Y-12890960D02*
X12029586Y-12900484D01*
X12029586Y-12900484D02*
X12010539Y-12900484D01*
X12010539Y-12900484D02*
X11991491Y-12890960D01*
X11991491Y-12890960D02*
X11981967Y-12881436D01*
X11981967Y-12881436D02*
X11972443Y-12862388D01*
X11972443Y-12862388D02*
X11962920Y-12824293D01*
X11962920Y-12824293D02*
X11962920Y-12776674D01*
X11962920Y-12776674D02*
X11972443Y-12738579D01*
X11972443Y-12738579D02*
X11981967Y-12719531D01*
X11981967Y-12719531D02*
X11991491Y-12710008D01*
X11991491Y-12710008D02*
X12010539Y-12700484D01*
X12162920Y-12900484D02*
X12162920Y-12767150D01*
X12162920Y-12786198D02*
X12172443Y-12776674D01*
X12172443Y-12776674D02*
X12191491Y-12767150D01*
X12191491Y-12767150D02*
X12220063Y-12767150D01*
X12220063Y-12767150D02*
X12239110Y-12776674D01*
X12239110Y-12776674D02*
X12248634Y-12795722D01*
X12248634Y-12795722D02*
X12248634Y-12900484D01*
X12248634Y-12795722D02*
X12258158Y-12776674D01*
X12258158Y-12776674D02*
X12277205Y-12767150D01*
X12277205Y-12767150D02*
X12305777Y-12767150D01*
X12305777Y-12767150D02*
X12324824Y-12776674D01*
X12324824Y-12776674D02*
X12334348Y-12795722D01*
X12334348Y-12795722D02*
X12334348Y-12900484D01*
X12429586Y-12900484D02*
X12429586Y-12767150D01*
X12429586Y-12786198D02*
X12439110Y-12776674D01*
X12439110Y-12776674D02*
X12458158Y-12767150D01*
X12458158Y-12767150D02*
X12486729Y-12767150D01*
X12486729Y-12767150D02*
X12505777Y-12776674D01*
X12505777Y-12776674D02*
X12515301Y-12795722D01*
X12515301Y-12795722D02*
X12515301Y-12900484D01*
X12515301Y-12795722D02*
X12524824Y-12776674D01*
X12524824Y-12776674D02*
X12543872Y-12767150D01*
X12543872Y-12767150D02*
X12572443Y-12767150D01*
X12572443Y-12767150D02*
X12591491Y-12776674D01*
X12591491Y-12776674D02*
X12601015Y-12795722D01*
X12601015Y-12795722D02*
X12601015Y-12900484D01*
X12991491Y-12690960D02*
X12820063Y-12948103D01*
X13248634Y-12700484D02*
X13267682Y-12700484D01*
X13267682Y-12700484D02*
X13286729Y-12710008D01*
X13286729Y-12710008D02*
X13296253Y-12719531D01*
X13296253Y-12719531D02*
X13305777Y-12738579D01*
X13305777Y-12738579D02*
X13315301Y-12776674D01*
X13315301Y-12776674D02*
X13315301Y-12824293D01*
X13315301Y-12824293D02*
X13305777Y-12862388D01*
X13305777Y-12862388D02*
X13296253Y-12881436D01*
X13296253Y-12881436D02*
X13286729Y-12890960D01*
X13286729Y-12890960D02*
X13267682Y-12900484D01*
X13267682Y-12900484D02*
X13248634Y-12900484D01*
X13248634Y-12900484D02*
X13229586Y-12890960D01*
X13229586Y-12890960D02*
X13220063Y-12881436D01*
X13220063Y-12881436D02*
X13210539Y-12862388D01*
X13210539Y-12862388D02*
X13201015Y-12824293D01*
X13201015Y-12824293D02*
X13201015Y-12776674D01*
X13201015Y-12776674D02*
X13210539Y-12738579D01*
X13210539Y-12738579D02*
X13220063Y-12719531D01*
X13220063Y-12719531D02*
X13229586Y-12710008D01*
X13229586Y-12710008D02*
X13248634Y-12700484D01*
X13401015Y-12881436D02*
X13410539Y-12890960D01*
X13410539Y-12890960D02*
X13401015Y-12900484D01*
X13401015Y-12900484D02*
X13391491Y-12890960D01*
X13391491Y-12890960D02*
X13401015Y-12881436D01*
X13401015Y-12881436D02*
X13401015Y-12900484D01*
X13534348Y-12700484D02*
X13553396Y-12700484D01*
X13553396Y-12700484D02*
X13572444Y-12710008D01*
X13572444Y-12710008D02*
X13581967Y-12719531D01*
X13581967Y-12719531D02*
X13591491Y-12738579D01*
X13591491Y-12738579D02*
X13601015Y-12776674D01*
X13601015Y-12776674D02*
X13601015Y-12824293D01*
X13601015Y-12824293D02*
X13591491Y-12862388D01*
X13591491Y-12862388D02*
X13581967Y-12881436D01*
X13581967Y-12881436D02*
X13572444Y-12890960D01*
X13572444Y-12890960D02*
X13553396Y-12900484D01*
X13553396Y-12900484D02*
X13534348Y-12900484D01*
X13534348Y-12900484D02*
X13515301Y-12890960D01*
X13515301Y-12890960D02*
X13505777Y-12881436D01*
X13505777Y-12881436D02*
X13496253Y-12862388D01*
X13496253Y-12862388D02*
X13486729Y-12824293D01*
X13486729Y-12824293D02*
X13486729Y-12776674D01*
X13486729Y-12776674D02*
X13496253Y-12738579D01*
X13496253Y-12738579D02*
X13505777Y-12719531D01*
X13505777Y-12719531D02*
X13515301Y-12710008D01*
X13515301Y-12710008D02*
X13534348Y-12700484D01*
X13791491Y-12900484D02*
X13677206Y-12900484D01*
X13734348Y-12900484D02*
X13734348Y-12700484D01*
X13734348Y-12700484D02*
X13715301Y-12729055D01*
X13715301Y-12729055D02*
X13696253Y-12748103D01*
X13696253Y-12748103D02*
X13677206Y-12757627D01*
X13972444Y-12700484D02*
X13877206Y-12700484D01*
X13877206Y-12700484D02*
X13867682Y-12795722D01*
X13867682Y-12795722D02*
X13877206Y-12786198D01*
X13877206Y-12786198D02*
X13896253Y-12776674D01*
X13896253Y-12776674D02*
X13943872Y-12776674D01*
X13943872Y-12776674D02*
X13962920Y-12786198D01*
X13962920Y-12786198D02*
X13972444Y-12795722D01*
X13972444Y-12795722D02*
X13981967Y-12814769D01*
X13981967Y-12814769D02*
X13981967Y-12862388D01*
X13981967Y-12862388D02*
X13972444Y-12881436D01*
X13972444Y-12881436D02*
X13962920Y-12890960D01*
X13962920Y-12890960D02*
X13943872Y-12900484D01*
X13943872Y-12900484D02*
X13896253Y-12900484D01*
X13896253Y-12900484D02*
X13877206Y-12890960D01*
X13877206Y-12890960D02*
X13867682Y-12881436D01*
X14048634Y-12700484D02*
X14181967Y-12700484D01*
X14181967Y-12700484D02*
X14096253Y-12900484D01*
X14248634Y-12700484D02*
X14248634Y-12738579D01*
X14324825Y-12700484D02*
X14324825Y-12738579D01*
X14620063Y-12976674D02*
X14610539Y-12967150D01*
X14610539Y-12967150D02*
X14591491Y-12938579D01*
X14591491Y-12938579D02*
X14581968Y-12919531D01*
X14581968Y-12919531D02*
X14572444Y-12890960D01*
X14572444Y-12890960D02*
X14562920Y-12843341D01*
X14562920Y-12843341D02*
X14562920Y-12805246D01*
X14562920Y-12805246D02*
X14572444Y-12757627D01*
X14572444Y-12757627D02*
X14581968Y-12729055D01*
X14581968Y-12729055D02*
X14591491Y-12710008D01*
X14591491Y-12710008D02*
X14610539Y-12681436D01*
X14610539Y-12681436D02*
X14620063Y-12671912D01*
X14686729Y-12719531D02*
X14696253Y-12710008D01*
X14696253Y-12710008D02*
X14715301Y-12700484D01*
X14715301Y-12700484D02*
X14762920Y-12700484D01*
X14762920Y-12700484D02*
X14781968Y-12710008D01*
X14781968Y-12710008D02*
X14791491Y-12719531D01*
X14791491Y-12719531D02*
X14801015Y-12738579D01*
X14801015Y-12738579D02*
X14801015Y-12757627D01*
X14801015Y-12757627D02*
X14791491Y-12786198D01*
X14791491Y-12786198D02*
X14677206Y-12900484D01*
X14677206Y-12900484D02*
X14801015Y-12900484D01*
X14972444Y-12767150D02*
X14972444Y-12900484D01*
X14924825Y-12690960D02*
X14877206Y-12833817D01*
X14877206Y-12833817D02*
X15001015Y-12833817D01*
X15229587Y-12900484D02*
X15229587Y-12700484D01*
X15315301Y-12900484D02*
X15315301Y-12795722D01*
X15315301Y-12795722D02*
X15305777Y-12776674D01*
X15305777Y-12776674D02*
X15286730Y-12767150D01*
X15286730Y-12767150D02*
X15258158Y-12767150D01*
X15258158Y-12767150D02*
X15239110Y-12776674D01*
X15239110Y-12776674D02*
X15229587Y-12786198D01*
X15439110Y-12900484D02*
X15420063Y-12890960D01*
X15420063Y-12890960D02*
X15410539Y-12881436D01*
X15410539Y-12881436D02*
X15401015Y-12862388D01*
X15401015Y-12862388D02*
X15401015Y-12805246D01*
X15401015Y-12805246D02*
X15410539Y-12786198D01*
X15410539Y-12786198D02*
X15420063Y-12776674D01*
X15420063Y-12776674D02*
X15439110Y-12767150D01*
X15439110Y-12767150D02*
X15467682Y-12767150D01*
X15467682Y-12767150D02*
X15486730Y-12776674D01*
X15486730Y-12776674D02*
X15496253Y-12786198D01*
X15496253Y-12786198D02*
X15505777Y-12805246D01*
X15505777Y-12805246D02*
X15505777Y-12862388D01*
X15505777Y-12862388D02*
X15496253Y-12881436D01*
X15496253Y-12881436D02*
X15486730Y-12890960D01*
X15486730Y-12890960D02*
X15467682Y-12900484D01*
X15467682Y-12900484D02*
X15439110Y-12900484D01*
X15620063Y-12900484D02*
X15601015Y-12890960D01*
X15601015Y-12890960D02*
X15591491Y-12871912D01*
X15591491Y-12871912D02*
X15591491Y-12700484D01*
X15772444Y-12890960D02*
X15753396Y-12900484D01*
X15753396Y-12900484D02*
X15715301Y-12900484D01*
X15715301Y-12900484D02*
X15696253Y-12890960D01*
X15696253Y-12890960D02*
X15686730Y-12871912D01*
X15686730Y-12871912D02*
X15686730Y-12795722D01*
X15686730Y-12795722D02*
X15696253Y-12776674D01*
X15696253Y-12776674D02*
X15715301Y-12767150D01*
X15715301Y-12767150D02*
X15753396Y-12767150D01*
X15753396Y-12767150D02*
X15772444Y-12776674D01*
X15772444Y-12776674D02*
X15781968Y-12795722D01*
X15781968Y-12795722D02*
X15781968Y-12814769D01*
X15781968Y-12814769D02*
X15686730Y-12833817D01*
X15858158Y-12890960D02*
X15877206Y-12900484D01*
X15877206Y-12900484D02*
X15915301Y-12900484D01*
X15915301Y-12900484D02*
X15934349Y-12890960D01*
X15934349Y-12890960D02*
X15943872Y-12871912D01*
X15943872Y-12871912D02*
X15943872Y-12862388D01*
X15943872Y-12862388D02*
X15934349Y-12843341D01*
X15934349Y-12843341D02*
X15915301Y-12833817D01*
X15915301Y-12833817D02*
X15886730Y-12833817D01*
X15886730Y-12833817D02*
X15867682Y-12824293D01*
X15867682Y-12824293D02*
X15858158Y-12805246D01*
X15858158Y-12805246D02*
X15858158Y-12795722D01*
X15858158Y-12795722D02*
X15867682Y-12776674D01*
X15867682Y-12776674D02*
X15886730Y-12767150D01*
X15886730Y-12767150D02*
X15915301Y-12767150D01*
X15915301Y-12767150D02*
X15934349Y-12776674D01*
X16010539Y-12976674D02*
X16020063Y-12967150D01*
X16020063Y-12967150D02*
X16039111Y-12938579D01*
X16039111Y-12938579D02*
X16048634Y-12919531D01*
X16048634Y-12919531D02*
X16058158Y-12890960D01*
X16058158Y-12890960D02*
X16067682Y-12843341D01*
X16067682Y-12843341D02*
X16067682Y-12805246D01*
X16067682Y-12805246D02*
X16058158Y-12757627D01*
X16058158Y-12757627D02*
X16048634Y-12729055D01*
X16048634Y-12729055D02*
X16039111Y-12710008D01*
X16039111Y-12710008D02*
X16020063Y-12681436D01*
X16020063Y-12681436D02*
X16010539Y-12671912D01*
D10*
X10995000Y-13023000D02*
X10995000Y-13123000D01*
X10945000Y-13073000D02*
X11045000Y-13073000D01*
D11*
X11410539Y-13164484D02*
X11296253Y-13164484D01*
X11353396Y-13164484D02*
X11353396Y-12964484D01*
X11353396Y-12964484D02*
X11334348Y-12993055D01*
X11334348Y-12993055D02*
X11315301Y-13012103D01*
X11315301Y-13012103D02*
X11296253Y-13021627D01*
X11496253Y-13145436D02*
X11505777Y-13154960D01*
X11505777Y-13154960D02*
X11496253Y-13164484D01*
X11496253Y-13164484D02*
X11486729Y-13154960D01*
X11486729Y-13154960D02*
X11496253Y-13145436D01*
X11496253Y-13145436D02*
X11496253Y-13164484D01*
X11629586Y-12964484D02*
X11648634Y-12964484D01*
X11648634Y-12964484D02*
X11667682Y-12974008D01*
X11667682Y-12974008D02*
X11677205Y-12983531D01*
X11677205Y-12983531D02*
X11686729Y-13002579D01*
X11686729Y-13002579D02*
X11696253Y-13040674D01*
X11696253Y-13040674D02*
X11696253Y-13088293D01*
X11696253Y-13088293D02*
X11686729Y-13126388D01*
X11686729Y-13126388D02*
X11677205Y-13145436D01*
X11677205Y-13145436D02*
X11667682Y-13154960D01*
X11667682Y-13154960D02*
X11648634Y-13164484D01*
X11648634Y-13164484D02*
X11629586Y-13164484D01*
X11629586Y-13164484D02*
X11610539Y-13154960D01*
X11610539Y-13154960D02*
X11601015Y-13145436D01*
X11601015Y-13145436D02*
X11591491Y-13126388D01*
X11591491Y-13126388D02*
X11581967Y-13088293D01*
X11581967Y-13088293D02*
X11581967Y-13040674D01*
X11581967Y-13040674D02*
X11591491Y-13002579D01*
X11591491Y-13002579D02*
X11601015Y-12983531D01*
X11601015Y-12983531D02*
X11610539Y-12974008D01*
X11610539Y-12974008D02*
X11629586Y-12964484D01*
X11820062Y-12964484D02*
X11839110Y-12964484D01*
X11839110Y-12964484D02*
X11858158Y-12974008D01*
X11858158Y-12974008D02*
X11867682Y-12983531D01*
X11867682Y-12983531D02*
X11877205Y-13002579D01*
X11877205Y-13002579D02*
X11886729Y-13040674D01*
X11886729Y-13040674D02*
X11886729Y-13088293D01*
X11886729Y-13088293D02*
X11877205Y-13126388D01*
X11877205Y-13126388D02*
X11867682Y-13145436D01*
X11867682Y-13145436D02*
X11858158Y-13154960D01*
X11858158Y-13154960D02*
X11839110Y-13164484D01*
X11839110Y-13164484D02*
X11820062Y-13164484D01*
X11820062Y-13164484D02*
X11801015Y-13154960D01*
X11801015Y-13154960D02*
X11791491Y-13145436D01*
X11791491Y-13145436D02*
X11781967Y-13126388D01*
X11781967Y-13126388D02*
X11772443Y-13088293D01*
X11772443Y-13088293D02*
X11772443Y-13040674D01*
X11772443Y-13040674D02*
X11781967Y-13002579D01*
X11781967Y-13002579D02*
X11791491Y-12983531D01*
X11791491Y-12983531D02*
X11801015Y-12974008D01*
X11801015Y-12974008D02*
X11820062Y-12964484D01*
X12010539Y-12964484D02*
X12029586Y-12964484D01*
X12029586Y-12964484D02*
X12048634Y-12974008D01*
X12048634Y-12974008D02*
X12058158Y-12983531D01*
X12058158Y-12983531D02*
X12067682Y-13002579D01*
X12067682Y-13002579D02*
X12077205Y-13040674D01*
X12077205Y-13040674D02*
X12077205Y-13088293D01*
X12077205Y-13088293D02*
X12067682Y-13126388D01*
X12067682Y-13126388D02*
X12058158Y-13145436D01*
X12058158Y-13145436D02*
X12048634Y-13154960D01*
X12048634Y-13154960D02*
X12029586Y-13164484D01*
X12029586Y-13164484D02*
X12010539Y-13164484D01*
X12010539Y-13164484D02*
X11991491Y-13154960D01*
X11991491Y-13154960D02*
X11981967Y-13145436D01*
X11981967Y-13145436D02*
X11972443Y-13126388D01*
X11972443Y-13126388D02*
X11962920Y-13088293D01*
X11962920Y-13088293D02*
X11962920Y-13040674D01*
X11962920Y-13040674D02*
X11972443Y-13002579D01*
X11972443Y-13002579D02*
X11981967Y-12983531D01*
X11981967Y-12983531D02*
X11991491Y-12974008D01*
X11991491Y-12974008D02*
X12010539Y-12964484D01*
X12162920Y-13164484D02*
X12162920Y-13031150D01*
X12162920Y-13050198D02*
X12172443Y-13040674D01*
X12172443Y-13040674D02*
X12191491Y-13031150D01*
X12191491Y-13031150D02*
X12220063Y-13031150D01*
X12220063Y-13031150D02*
X12239110Y-13040674D01*
X12239110Y-13040674D02*
X12248634Y-13059722D01*
X12248634Y-13059722D02*
X12248634Y-13164484D01*
X12248634Y-13059722D02*
X12258158Y-13040674D01*
X12258158Y-13040674D02*
X12277205Y-13031150D01*
X12277205Y-13031150D02*
X12305777Y-13031150D01*
X12305777Y-13031150D02*
X12324824Y-13040674D01*
X12324824Y-13040674D02*
X12334348Y-13059722D01*
X12334348Y-13059722D02*
X12334348Y-13164484D01*
X12429586Y-13164484D02*
X12429586Y-13031150D01*
X12429586Y-13050198D02*
X12439110Y-13040674D01*
X12439110Y-13040674D02*
X12458158Y-13031150D01*
X12458158Y-13031150D02*
X12486729Y-13031150D01*
X12486729Y-13031150D02*
X12505777Y-13040674D01*
X12505777Y-13040674D02*
X12515301Y-13059722D01*
X12515301Y-13059722D02*
X12515301Y-13164484D01*
X12515301Y-13059722D02*
X12524824Y-13040674D01*
X12524824Y-13040674D02*
X12543872Y-13031150D01*
X12543872Y-13031150D02*
X12572443Y-13031150D01*
X12572443Y-13031150D02*
X12591491Y-13040674D01*
X12591491Y-13040674D02*
X12601015Y-13059722D01*
X12601015Y-13059722D02*
X12601015Y-13164484D01*
X12991491Y-12954960D02*
X12820063Y-13212103D01*
X13248634Y-12964484D02*
X13267682Y-12964484D01*
X13267682Y-12964484D02*
X13286729Y-12974008D01*
X13286729Y-12974008D02*
X13296253Y-12983531D01*
X13296253Y-12983531D02*
X13305777Y-13002579D01*
X13305777Y-13002579D02*
X13315301Y-13040674D01*
X13315301Y-13040674D02*
X13315301Y-13088293D01*
X13315301Y-13088293D02*
X13305777Y-13126388D01*
X13305777Y-13126388D02*
X13296253Y-13145436D01*
X13296253Y-13145436D02*
X13286729Y-13154960D01*
X13286729Y-13154960D02*
X13267682Y-13164484D01*
X13267682Y-13164484D02*
X13248634Y-13164484D01*
X13248634Y-13164484D02*
X13229586Y-13154960D01*
X13229586Y-13154960D02*
X13220063Y-13145436D01*
X13220063Y-13145436D02*
X13210539Y-13126388D01*
X13210539Y-13126388D02*
X13201015Y-13088293D01*
X13201015Y-13088293D02*
X13201015Y-13040674D01*
X13201015Y-13040674D02*
X13210539Y-13002579D01*
X13210539Y-13002579D02*
X13220063Y-12983531D01*
X13220063Y-12983531D02*
X13229586Y-12974008D01*
X13229586Y-12974008D02*
X13248634Y-12964484D01*
X13401015Y-13145436D02*
X13410539Y-13154960D01*
X13410539Y-13154960D02*
X13401015Y-13164484D01*
X13401015Y-13164484D02*
X13391491Y-13154960D01*
X13391491Y-13154960D02*
X13401015Y-13145436D01*
X13401015Y-13145436D02*
X13401015Y-13164484D01*
X13534348Y-12964484D02*
X13553396Y-12964484D01*
X13553396Y-12964484D02*
X13572444Y-12974008D01*
X13572444Y-12974008D02*
X13581967Y-12983531D01*
X13581967Y-12983531D02*
X13591491Y-13002579D01*
X13591491Y-13002579D02*
X13601015Y-13040674D01*
X13601015Y-13040674D02*
X13601015Y-13088293D01*
X13601015Y-13088293D02*
X13591491Y-13126388D01*
X13591491Y-13126388D02*
X13581967Y-13145436D01*
X13581967Y-13145436D02*
X13572444Y-13154960D01*
X13572444Y-13154960D02*
X13553396Y-13164484D01*
X13553396Y-13164484D02*
X13534348Y-13164484D01*
X13534348Y-13164484D02*
X13515301Y-13154960D01*
X13515301Y-13154960D02*
X13505777Y-13145436D01*
X13505777Y-13145436D02*
X13496253Y-13126388D01*
X13496253Y-13126388D02*
X13486729Y-13088293D01*
X13486729Y-13088293D02*
X13486729Y-13040674D01*
X13486729Y-13040674D02*
X13496253Y-13002579D01*
X13496253Y-13002579D02*
X13505777Y-12983531D01*
X13505777Y-12983531D02*
X13515301Y-12974008D01*
X13515301Y-12974008D02*
X13534348Y-12964484D01*
X13667682Y-12964484D02*
X13791491Y-12964484D01*
X13791491Y-12964484D02*
X13724825Y-13040674D01*
X13724825Y-13040674D02*
X13753396Y-13040674D01*
X13753396Y-13040674D02*
X13772444Y-13050198D01*
X13772444Y-13050198D02*
X13781967Y-13059722D01*
X13781967Y-13059722D02*
X13791491Y-13078769D01*
X13791491Y-13078769D02*
X13791491Y-13126388D01*
X13791491Y-13126388D02*
X13781967Y-13145436D01*
X13781967Y-13145436D02*
X13772444Y-13154960D01*
X13772444Y-13154960D02*
X13753396Y-13164484D01*
X13753396Y-13164484D02*
X13696253Y-13164484D01*
X13696253Y-13164484D02*
X13677206Y-13154960D01*
X13677206Y-13154960D02*
X13667682Y-13145436D01*
X13886729Y-13164484D02*
X13924825Y-13164484D01*
X13924825Y-13164484D02*
X13943872Y-13154960D01*
X13943872Y-13154960D02*
X13953396Y-13145436D01*
X13953396Y-13145436D02*
X13972444Y-13116865D01*
X13972444Y-13116865D02*
X13981967Y-13078769D01*
X13981967Y-13078769D02*
X13981967Y-13002579D01*
X13981967Y-13002579D02*
X13972444Y-12983531D01*
X13972444Y-12983531D02*
X13962920Y-12974008D01*
X13962920Y-12974008D02*
X13943872Y-12964484D01*
X13943872Y-12964484D02*
X13905777Y-12964484D01*
X13905777Y-12964484D02*
X13886729Y-12974008D01*
X13886729Y-12974008D02*
X13877206Y-12983531D01*
X13877206Y-12983531D02*
X13867682Y-13002579D01*
X13867682Y-13002579D02*
X13867682Y-13050198D01*
X13867682Y-13050198D02*
X13877206Y-13069246D01*
X13877206Y-13069246D02*
X13886729Y-13078769D01*
X13886729Y-13078769D02*
X13905777Y-13088293D01*
X13905777Y-13088293D02*
X13943872Y-13088293D01*
X13943872Y-13088293D02*
X13962920Y-13078769D01*
X13962920Y-13078769D02*
X13972444Y-13069246D01*
X13972444Y-13069246D02*
X13981967Y-13050198D01*
X14153396Y-13031150D02*
X14153396Y-13164484D01*
X14105777Y-12954960D02*
X14058158Y-13097817D01*
X14058158Y-13097817D02*
X14181967Y-13097817D01*
X14248634Y-12964484D02*
X14248634Y-13002579D01*
X14324825Y-12964484D02*
X14324825Y-13002579D01*
X14620063Y-13240674D02*
X14610539Y-13231150D01*
X14610539Y-13231150D02*
X14591491Y-13202579D01*
X14591491Y-13202579D02*
X14581968Y-13183531D01*
X14581968Y-13183531D02*
X14572444Y-13154960D01*
X14572444Y-13154960D02*
X14562920Y-13107341D01*
X14562920Y-13107341D02*
X14562920Y-13069246D01*
X14562920Y-13069246D02*
X14572444Y-13021627D01*
X14572444Y-13021627D02*
X14581968Y-12993055D01*
X14581968Y-12993055D02*
X14591491Y-12974008D01*
X14591491Y-12974008D02*
X14610539Y-12945436D01*
X14610539Y-12945436D02*
X14620063Y-12935912D01*
X14686729Y-12983531D02*
X14696253Y-12974008D01*
X14696253Y-12974008D02*
X14715301Y-12964484D01*
X14715301Y-12964484D02*
X14762920Y-12964484D01*
X14762920Y-12964484D02*
X14781968Y-12974008D01*
X14781968Y-12974008D02*
X14791491Y-12983531D01*
X14791491Y-12983531D02*
X14801015Y-13002579D01*
X14801015Y-13002579D02*
X14801015Y-13021627D01*
X14801015Y-13021627D02*
X14791491Y-13050198D01*
X14791491Y-13050198D02*
X14677206Y-13164484D01*
X14677206Y-13164484D02*
X14801015Y-13164484D01*
X14972444Y-12964484D02*
X14934348Y-12964484D01*
X14934348Y-12964484D02*
X14915301Y-12974008D01*
X14915301Y-12974008D02*
X14905777Y-12983531D01*
X14905777Y-12983531D02*
X14886729Y-13012103D01*
X14886729Y-13012103D02*
X14877206Y-13050198D01*
X14877206Y-13050198D02*
X14877206Y-13126388D01*
X14877206Y-13126388D02*
X14886729Y-13145436D01*
X14886729Y-13145436D02*
X14896253Y-13154960D01*
X14896253Y-13154960D02*
X14915301Y-13164484D01*
X14915301Y-13164484D02*
X14953396Y-13164484D01*
X14953396Y-13164484D02*
X14972444Y-13154960D01*
X14972444Y-13154960D02*
X14981968Y-13145436D01*
X14981968Y-13145436D02*
X14991491Y-13126388D01*
X14991491Y-13126388D02*
X14991491Y-13078769D01*
X14991491Y-13078769D02*
X14981968Y-13059722D01*
X14981968Y-13059722D02*
X14972444Y-13050198D01*
X14972444Y-13050198D02*
X14953396Y-13040674D01*
X14953396Y-13040674D02*
X14915301Y-13040674D01*
X14915301Y-13040674D02*
X14896253Y-13050198D01*
X14896253Y-13050198D02*
X14886729Y-13059722D01*
X14886729Y-13059722D02*
X14877206Y-13078769D01*
X15229587Y-13164484D02*
X15229587Y-12964484D01*
X15315301Y-13164484D02*
X15315301Y-13059722D01*
X15315301Y-13059722D02*
X15305777Y-13040674D01*
X15305777Y-13040674D02*
X15286730Y-13031150D01*
X15286730Y-13031150D02*
X15258158Y-13031150D01*
X15258158Y-13031150D02*
X15239110Y-13040674D01*
X15239110Y-13040674D02*
X15229587Y-13050198D01*
X15439110Y-13164484D02*
X15420063Y-13154960D01*
X15420063Y-13154960D02*
X15410539Y-13145436D01*
X15410539Y-13145436D02*
X15401015Y-13126388D01*
X15401015Y-13126388D02*
X15401015Y-13069246D01*
X15401015Y-13069246D02*
X15410539Y-13050198D01*
X15410539Y-13050198D02*
X15420063Y-13040674D01*
X15420063Y-13040674D02*
X15439110Y-13031150D01*
X15439110Y-13031150D02*
X15467682Y-13031150D01*
X15467682Y-13031150D02*
X15486730Y-13040674D01*
X15486730Y-13040674D02*
X15496253Y-13050198D01*
X15496253Y-13050198D02*
X15505777Y-13069246D01*
X15505777Y-13069246D02*
X15505777Y-13126388D01*
X15505777Y-13126388D02*
X15496253Y-13145436D01*
X15496253Y-13145436D02*
X15486730Y-13154960D01*
X15486730Y-13154960D02*
X15467682Y-13164484D01*
X15467682Y-13164484D02*
X15439110Y-13164484D01*
X15620063Y-13164484D02*
X15601015Y-13154960D01*
X15601015Y-13154960D02*
X15591491Y-13135912D01*
X15591491Y-13135912D02*
X15591491Y-12964484D01*
X15772444Y-13154960D02*
X15753396Y-13164484D01*
X15753396Y-13164484D02*
X15715301Y-13164484D01*
X15715301Y-13164484D02*
X15696253Y-13154960D01*
X15696253Y-13154960D02*
X15686730Y-13135912D01*
X15686730Y-13135912D02*
X15686730Y-13059722D01*
X15686730Y-13059722D02*
X15696253Y-13040674D01*
X15696253Y-13040674D02*
X15715301Y-13031150D01*
X15715301Y-13031150D02*
X15753396Y-13031150D01*
X15753396Y-13031150D02*
X15772444Y-13040674D01*
X15772444Y-13040674D02*
X15781968Y-13059722D01*
X15781968Y-13059722D02*
X15781968Y-13078769D01*
X15781968Y-13078769D02*
X15686730Y-13097817D01*
X15858158Y-13154960D02*
X15877206Y-13164484D01*
X15877206Y-13164484D02*
X15915301Y-13164484D01*
X15915301Y-13164484D02*
X15934349Y-13154960D01*
X15934349Y-13154960D02*
X15943872Y-13135912D01*
X15943872Y-13135912D02*
X15943872Y-13126388D01*
X15943872Y-13126388D02*
X15934349Y-13107341D01*
X15934349Y-13107341D02*
X15915301Y-13097817D01*
X15915301Y-13097817D02*
X15886730Y-13097817D01*
X15886730Y-13097817D02*
X15867682Y-13088293D01*
X15867682Y-13088293D02*
X15858158Y-13069246D01*
X15858158Y-13069246D02*
X15858158Y-13059722D01*
X15858158Y-13059722D02*
X15867682Y-13040674D01*
X15867682Y-13040674D02*
X15886730Y-13031150D01*
X15886730Y-13031150D02*
X15915301Y-13031150D01*
X15915301Y-13031150D02*
X15934349Y-13040674D01*
X16010539Y-13240674D02*
X16020063Y-13231150D01*
X16020063Y-13231150D02*
X16039111Y-13202579D01*
X16039111Y-13202579D02*
X16048634Y-13183531D01*
X16048634Y-13183531D02*
X16058158Y-13154960D01*
X16058158Y-13154960D02*
X16067682Y-13107341D01*
X16067682Y-13107341D02*
X16067682Y-13069246D01*
X16067682Y-13069246D02*
X16058158Y-13021627D01*
X16058158Y-13021627D02*
X16048634Y-12993055D01*
X16048634Y-12993055D02*
X16039111Y-12974008D01*
X16039111Y-12974008D02*
X16020063Y-12945436D01*
X16020063Y-12945436D02*
X16010539Y-12935912D01*
M02*
