G04 #@! TF.GenerationSoftware,KiCad,Pcbnew,7.0.6*
G04 #@! TF.CreationDate,2023-08-06T21:35:14+02:00*
G04 #@! TF.ProjectId,AD9744_Test,41443937-3434-45f5-9465-73742e6b6963,rev?*
G04 #@! TF.SameCoordinates,Original*
G04 #@! TF.FileFunction,Copper,L2,Bot*
G04 #@! TF.FilePolarity,Positive*
%FSLAX46Y46*%
G04 Gerber Fmt 4.6, Leading zero omitted, Abs format (unit mm)*
G04 Created by KiCad (PCBNEW 7.0.6) date 2023-08-06 21:35:14*
%MOMM*%
%LPD*%
G01*
G04 APERTURE LIST*
G04 Aperture macros list*
%AMRoundRect*
0 Rectangle with rounded corners*
0 $1 Rounding radius*
0 $2 $3 $4 $5 $6 $7 $8 $9 X,Y pos of 4 corners*
0 Add a 4 corners polygon primitive as box body*
4,1,4,$2,$3,$4,$5,$6,$7,$8,$9,$2,$3,0*
0 Add four circle primitives for the rounded corners*
1,1,$1+$1,$2,$3*
1,1,$1+$1,$4,$5*
1,1,$1+$1,$6,$7*
1,1,$1+$1,$8,$9*
0 Add four rect primitives between the rounded corners*
20,1,$1+$1,$2,$3,$4,$5,0*
20,1,$1+$1,$4,$5,$6,$7,0*
20,1,$1+$1,$6,$7,$8,$9,0*
20,1,$1+$1,$8,$9,$2,$3,0*%
G04 Aperture macros list end*
G04 #@! TA.AperFunction,ComponentPad*
%ADD10R,1.700000X1.700000*%
G04 #@! TD*
G04 #@! TA.AperFunction,ComponentPad*
%ADD11O,1.700000X1.700000*%
G04 #@! TD*
G04 #@! TA.AperFunction,SMDPad,CuDef*
%ADD12RoundRect,0.237500X0.237500X-0.300000X0.237500X0.300000X-0.237500X0.300000X-0.237500X-0.300000X0*%
G04 #@! TD*
G04 #@! TA.AperFunction,SMDPad,CuDef*
%ADD13RoundRect,0.237500X-0.237500X0.300000X-0.237500X-0.300000X0.237500X-0.300000X0.237500X0.300000X0*%
G04 #@! TD*
G04 #@! TA.AperFunction,ViaPad*
%ADD14C,0.800000*%
G04 #@! TD*
G04 #@! TA.AperFunction,ViaPad*
%ADD15C,0.500000*%
G04 #@! TD*
G04 #@! TA.AperFunction,Conductor*
%ADD16C,0.762000*%
G04 #@! TD*
G04 #@! TA.AperFunction,Conductor*
%ADD17C,0.381000*%
G04 #@! TD*
G04 APERTURE END LIST*
D10*
G04 #@! TO.P,J3,1,Pin_1*
G04 #@! TO.N,Net-(J3-Pin_1)*
X114300000Y-91440000D03*
G04 #@! TD*
G04 #@! TO.P,J4,1,Pin_1*
G04 #@! TO.N,GND*
X114300000Y-105664000D03*
G04 #@! TD*
G04 #@! TO.P,J1,1,Pin_1*
G04 #@! TO.N,+3.3V*
X154178000Y-80518000D03*
D11*
G04 #@! TO.P,J1,2,Pin_2*
X156718000Y-80518000D03*
G04 #@! TO.P,J1,3,Pin_3*
G04 #@! TO.N,GND*
X154178000Y-83058000D03*
G04 #@! TO.P,J1,4,Pin_4*
X156718000Y-83058000D03*
G04 #@! TO.P,J1,5,Pin_5*
G04 #@! TO.N,/WFD1*
X154178000Y-85598000D03*
G04 #@! TO.P,J1,6,Pin_6*
G04 #@! TO.N,/WFD0*
X156718000Y-85598000D03*
G04 #@! TO.P,J1,7,Pin_7*
G04 #@! TO.N,/WFD3*
X154178000Y-88138000D03*
G04 #@! TO.P,J1,8,Pin_8*
G04 #@! TO.N,/WFD2*
X156718000Y-88138000D03*
G04 #@! TO.P,J1,9,Pin_9*
G04 #@! TO.N,/WFD5*
X154178000Y-90678000D03*
G04 #@! TO.P,J1,10,Pin_10*
G04 #@! TO.N,/WFD4*
X156718000Y-90678000D03*
G04 #@! TO.P,J1,11,Pin_11*
G04 #@! TO.N,/WFD7*
X154178000Y-93218000D03*
G04 #@! TO.P,J1,12,Pin_12*
G04 #@! TO.N,/WFD6*
X156718000Y-93218000D03*
G04 #@! TD*
D10*
G04 #@! TO.P,J2,1,Pin_1*
G04 #@! TO.N,+3.3V*
X154178000Y-101208000D03*
D11*
G04 #@! TO.P,J2,2,Pin_2*
X156718000Y-101208000D03*
G04 #@! TO.P,J2,3,Pin_3*
G04 #@! TO.N,GND*
X154178000Y-103748000D03*
G04 #@! TO.P,J2,4,Pin_4*
X156718000Y-103748000D03*
G04 #@! TO.P,J2,5,Pin_5*
G04 #@! TO.N,/WFD8*
X154178000Y-106288000D03*
G04 #@! TO.P,J2,6,Pin_6*
G04 #@! TO.N,/WFD9*
X156718000Y-106288000D03*
G04 #@! TO.P,J2,7,Pin_7*
G04 #@! TO.N,/WFD10*
X154178000Y-108828000D03*
G04 #@! TO.P,J2,8,Pin_8*
G04 #@! TO.N,/WFD11*
X156718000Y-108828000D03*
G04 #@! TO.P,J2,9,Pin_9*
G04 #@! TO.N,/WFD12*
X154178000Y-111368000D03*
G04 #@! TO.P,J2,10,Pin_10*
G04 #@! TO.N,/WFD13*
X156718000Y-111368000D03*
G04 #@! TO.P,J2,11,Pin_11*
G04 #@! TO.N,/WFCLK*
X154178000Y-113908000D03*
G04 #@! TO.P,J2,12,Pin_12*
G04 #@! TO.N,unconnected-(J2-Pin_12-Pad12)*
X156718000Y-113908000D03*
G04 #@! TD*
D12*
G04 #@! TO.P,C5,1*
G04 #@! TO.N,VDD*
X132183500Y-98525500D03*
G04 #@! TO.P,C5,2*
G04 #@! TO.N,GND*
X132183500Y-96800500D03*
G04 #@! TD*
D13*
G04 #@! TO.P,C7,1*
G04 #@! TO.N,Net-(U1-REFIO)*
X132183500Y-93498500D03*
G04 #@! TO.P,C7,2*
G04 #@! TO.N,GND*
X132183500Y-95223500D03*
G04 #@! TD*
D12*
G04 #@! TO.P,C8,1*
G04 #@! TO.N,VDD*
X119229500Y-97001500D03*
G04 #@! TO.P,C8,2*
G04 #@! TO.N,GND*
X119229500Y-95276500D03*
G04 #@! TD*
D13*
G04 #@! TO.P,C2,1*
G04 #@! TO.N,/D3V3*
X132183500Y-101626500D03*
G04 #@! TO.P,C2,2*
G04 #@! TO.N,GND*
X132183500Y-103351500D03*
G04 #@! TD*
G04 #@! TO.P,C1,1*
G04 #@! TO.N,/D3V3*
X134469500Y-101626500D03*
G04 #@! TO.P,C1,2*
G04 #@! TO.N,GND*
X134469500Y-103351500D03*
G04 #@! TD*
D14*
G04 #@! TO.N,VDD*
X133758300Y-97917000D03*
D15*
X124714000Y-93067500D03*
D14*
X130683000Y-116459000D03*
X130683000Y-114046000D03*
X120601100Y-96367600D03*
X130683000Y-115189000D03*
G04 #@! TO.N,GND*
X135180700Y-97942400D03*
X126087500Y-98679000D03*
X117451500Y-92329000D03*
X137287000Y-106045000D03*
X128397000Y-116459000D03*
X133961500Y-95250000D03*
X136271000Y-84074000D03*
X126087500Y-91821000D03*
X128397000Y-115189000D03*
X128397000Y-108966000D03*
X128397000Y-110109000D03*
X128397000Y-114046000D03*
X125960500Y-94234000D03*
X128397000Y-111252000D03*
G04 #@! TO.N,/D3V3*
X135001000Y-100457000D03*
X130683000Y-111252000D03*
X130683000Y-110109000D03*
X130683000Y-108966000D03*
X126492000Y-100584000D03*
D15*
G04 #@! TO.N,Net-(U1-REFIO)*
X133453500Y-93345000D03*
G04 #@! TD*
D16*
G04 #@! TO.N,VDD*
X124714000Y-93067500D02*
X124714000Y-96874500D01*
X119229500Y-97001500D02*
X120523000Y-97001500D01*
X131014000Y-98525500D02*
X132183500Y-98525500D01*
X124841000Y-97001500D02*
X129490000Y-97001500D01*
X129413000Y-117856000D02*
X122047000Y-117856000D01*
X119229500Y-115038500D02*
X119229500Y-97001500D01*
X120601100Y-96923400D02*
X120523000Y-97001500D01*
X129490000Y-97001500D02*
X131014000Y-98525500D01*
X133758300Y-97917000D02*
X133149800Y-98525500D01*
X133149800Y-98525500D02*
X132183500Y-98525500D01*
X124714000Y-96874500D02*
X124841000Y-97001500D01*
X122047000Y-117856000D02*
X119229500Y-115038500D01*
X120523000Y-97001500D02*
X124841000Y-97001500D01*
X130683000Y-116586000D02*
X129413000Y-117856000D01*
X130683000Y-116459000D02*
X130683000Y-116586000D01*
X120601100Y-96367600D02*
X120601100Y-96923400D01*
G04 #@! TO.N,/D3V3*
X135001000Y-100457000D02*
X134469500Y-100988500D01*
X134469500Y-101626500D02*
X132183500Y-101626500D01*
X127534500Y-101626500D02*
X126492000Y-100584000D01*
X130302000Y-101626500D02*
X132183500Y-101626500D01*
X130302000Y-108585000D02*
X130302000Y-101626500D01*
X134469500Y-100988500D02*
X134469500Y-101626500D01*
X130683000Y-108966000D02*
X130302000Y-108585000D01*
X130302000Y-101626500D02*
X127534500Y-101626500D01*
D17*
G04 #@! TO.N,Net-(U1-REFIO)*
X133453500Y-93345000D02*
X132337000Y-93345000D01*
X132337000Y-93345000D02*
X132183500Y-93498500D01*
G04 #@! TD*
G04 #@! TA.AperFunction,Conductor*
G04 #@! TO.N,GND*
G36*
X159764306Y-75518306D02*
G01*
X159981694Y-75735694D01*
X160000000Y-75779888D01*
X160000000Y-78479397D01*
X159981694Y-78523591D01*
X159937500Y-78541897D01*
X159902778Y-78531365D01*
X159883613Y-78518560D01*
X159883611Y-78518559D01*
X159875542Y-78515216D01*
X159840831Y-78500839D01*
X159839719Y-78500313D01*
X159839418Y-78500253D01*
X159740112Y-78480500D01*
X152679887Y-78480500D01*
X152663411Y-78483777D01*
X152580581Y-78500253D01*
X152536389Y-78518559D01*
X152536385Y-78518561D01*
X152452200Y-78574811D01*
X152234811Y-78792200D01*
X152178561Y-78876385D01*
X152178560Y-78876385D01*
X152160845Y-78919154D01*
X152160314Y-78920276D01*
X152140500Y-79019887D01*
X152140500Y-81381111D01*
X152140499Y-81381111D01*
X152160253Y-81480417D01*
X152173196Y-81511664D01*
X152178560Y-81524612D01*
X152234811Y-81608799D01*
X152452199Y-81826188D01*
X152536387Y-81882440D01*
X152579160Y-81900157D01*
X152580278Y-81900686D01*
X152580581Y-81900746D01*
X152580582Y-81900747D01*
X152679888Y-81920500D01*
X157920000Y-81920500D01*
X157964194Y-81938806D01*
X157982500Y-81983000D01*
X157982500Y-98865000D01*
X157964194Y-98909194D01*
X157920000Y-98927500D01*
X152552887Y-98927500D01*
X152536411Y-98930777D01*
X152453581Y-98947253D01*
X152409389Y-98965559D01*
X152409385Y-98965561D01*
X152325200Y-99021811D01*
X152107811Y-99239200D01*
X152051561Y-99323385D01*
X152051560Y-99323385D01*
X152033845Y-99366154D01*
X152033314Y-99367276D01*
X152013500Y-99466887D01*
X152013500Y-102082112D01*
X152013499Y-102082112D01*
X152033253Y-102181418D01*
X152039809Y-102197245D01*
X152051560Y-102225613D01*
X152067512Y-102249487D01*
X152086546Y-102277974D01*
X152107812Y-102309800D01*
X152325200Y-102527188D01*
X152409387Y-102583440D01*
X152452160Y-102601157D01*
X152453278Y-102601686D01*
X152453581Y-102601746D01*
X152453582Y-102601747D01*
X152552888Y-102621500D01*
X159740112Y-102621500D01*
X159740113Y-102621500D01*
X159839419Y-102601746D01*
X159883613Y-102583440D01*
X159902777Y-102570634D01*
X159949693Y-102561303D01*
X159989467Y-102587879D01*
X160000000Y-102622602D01*
X160000000Y-118220111D01*
X159981694Y-118264305D01*
X159764306Y-118481694D01*
X159720112Y-118500000D01*
X129800941Y-118500000D01*
X129756747Y-118481694D01*
X129738441Y-118437500D01*
X129756747Y-118393306D01*
X129769126Y-118383703D01*
X129770770Y-118382731D01*
X129805598Y-118362134D01*
X129823521Y-118344209D01*
X129830976Y-118337843D01*
X129851487Y-118322942D01*
X129851489Y-118322938D01*
X129851492Y-118322937D01*
X129866715Y-118304533D01*
X129882631Y-118285293D01*
X129884594Y-118283136D01*
X130541925Y-117625806D01*
X130586120Y-117607500D01*
X133832112Y-117607500D01*
X133832113Y-117607500D01*
X133931419Y-117587746D01*
X133975613Y-117569440D01*
X134059801Y-117513188D01*
X134277189Y-117295799D01*
X134333440Y-117211612D01*
X134351164Y-117168822D01*
X134351687Y-117167717D01*
X134351747Y-117167417D01*
X134371500Y-117068111D01*
X134371500Y-113908004D01*
X153068768Y-113908004D01*
X153087653Y-114111813D01*
X153087655Y-114111825D01*
X153143672Y-114308700D01*
X153143672Y-114308701D01*
X153234912Y-114491935D01*
X153234913Y-114491936D01*
X153234915Y-114491940D01*
X153358259Y-114655275D01*
X153358264Y-114655280D01*
X153358268Y-114655285D01*
X153460870Y-114748819D01*
X153509533Y-114793182D01*
X153509534Y-114793183D01*
X153509538Y-114793186D01*
X153683573Y-114900944D01*
X153874444Y-114974888D01*
X154075653Y-115012500D01*
X154075656Y-115012500D01*
X154280344Y-115012500D01*
X154280347Y-115012500D01*
X154481556Y-114974888D01*
X154672427Y-114900944D01*
X154846462Y-114793186D01*
X154997732Y-114655285D01*
X155121088Y-114491935D01*
X155212328Y-114308701D01*
X155268345Y-114111821D01*
X155287232Y-113908004D01*
X155608768Y-113908004D01*
X155627653Y-114111813D01*
X155627655Y-114111825D01*
X155683671Y-114308700D01*
X155683672Y-114308701D01*
X155774912Y-114491935D01*
X155774913Y-114491936D01*
X155774915Y-114491940D01*
X155898259Y-114655275D01*
X155898264Y-114655280D01*
X155898268Y-114655285D01*
X156000870Y-114748819D01*
X156049533Y-114793182D01*
X156049534Y-114793183D01*
X156049538Y-114793186D01*
X156223573Y-114900944D01*
X156414444Y-114974888D01*
X156615653Y-115012500D01*
X156615656Y-115012500D01*
X156820344Y-115012500D01*
X156820347Y-115012500D01*
X157021556Y-114974888D01*
X157212427Y-114900944D01*
X157386462Y-114793186D01*
X157537732Y-114655285D01*
X157661088Y-114491935D01*
X157752328Y-114308701D01*
X157808345Y-114111821D01*
X157827232Y-113908000D01*
X157808345Y-113704179D01*
X157752328Y-113507299D01*
X157661088Y-113324065D01*
X157661085Y-113324061D01*
X157661084Y-113324059D01*
X157537740Y-113160724D01*
X157537735Y-113160719D01*
X157537732Y-113160715D01*
X157436235Y-113068188D01*
X157386466Y-113022817D01*
X157386463Y-113022815D01*
X157386462Y-113022814D01*
X157212427Y-112915056D01*
X157212425Y-112915055D01*
X157156948Y-112893563D01*
X157021556Y-112841112D01*
X157021553Y-112841111D01*
X157021552Y-112841111D01*
X156820351Y-112803500D01*
X156820347Y-112803500D01*
X156615653Y-112803500D01*
X156615648Y-112803500D01*
X156414447Y-112841111D01*
X156414444Y-112841111D01*
X156414444Y-112841112D01*
X156389434Y-112850801D01*
X156223574Y-112915055D01*
X156049533Y-113022817D01*
X155898266Y-113160717D01*
X155898259Y-113160724D01*
X155774915Y-113324059D01*
X155774912Y-113324065D01*
X155683672Y-113507298D01*
X155627655Y-113704174D01*
X155627653Y-113704186D01*
X155608768Y-113907995D01*
X155608768Y-113908004D01*
X155287232Y-113908004D01*
X155287232Y-113908000D01*
X155268345Y-113704179D01*
X155212328Y-113507299D01*
X155121088Y-113324065D01*
X155121085Y-113324061D01*
X155121084Y-113324059D01*
X154997740Y-113160724D01*
X154997735Y-113160719D01*
X154997732Y-113160715D01*
X154896235Y-113068188D01*
X154846466Y-113022817D01*
X154846463Y-113022815D01*
X154846462Y-113022814D01*
X154672427Y-112915056D01*
X154672425Y-112915055D01*
X154616948Y-112893563D01*
X154481556Y-112841112D01*
X154481553Y-112841111D01*
X154481552Y-112841111D01*
X154280351Y-112803500D01*
X154280347Y-112803500D01*
X154075653Y-112803500D01*
X154075648Y-112803500D01*
X153874447Y-112841111D01*
X153874444Y-112841111D01*
X153874444Y-112841112D01*
X153849434Y-112850801D01*
X153683574Y-112915055D01*
X153509533Y-113022817D01*
X153358266Y-113160717D01*
X153358259Y-113160724D01*
X153234915Y-113324059D01*
X153234912Y-113324065D01*
X153143672Y-113507298D01*
X153087655Y-113704174D01*
X153087653Y-113704186D01*
X153068768Y-113907995D01*
X153068768Y-113908004D01*
X134371500Y-113908004D01*
X134371500Y-113563884D01*
X134351745Y-113464578D01*
X134333439Y-113420385D01*
X134277188Y-113336200D01*
X134078682Y-113137694D01*
X134060376Y-113093500D01*
X134078681Y-113049307D01*
X134277188Y-112850800D01*
X134333439Y-112766613D01*
X134351163Y-112723823D01*
X134351686Y-112722718D01*
X134351746Y-112722418D01*
X134371499Y-112623112D01*
X134371499Y-111368004D01*
X153068768Y-111368004D01*
X153087653Y-111571813D01*
X153087655Y-111571825D01*
X153143672Y-111768700D01*
X153143672Y-111768701D01*
X153234912Y-111951935D01*
X153234913Y-111951936D01*
X153234915Y-111951940D01*
X153358259Y-112115275D01*
X153358264Y-112115280D01*
X153358268Y-112115285D01*
X153460870Y-112208819D01*
X153509533Y-112253182D01*
X153509534Y-112253183D01*
X153509538Y-112253186D01*
X153683573Y-112360944D01*
X153874444Y-112434888D01*
X154075653Y-112472500D01*
X154075656Y-112472500D01*
X154280344Y-112472500D01*
X154280347Y-112472500D01*
X154481556Y-112434888D01*
X154672427Y-112360944D01*
X154846462Y-112253186D01*
X154997732Y-112115285D01*
X155121088Y-111951935D01*
X155212328Y-111768701D01*
X155268345Y-111571821D01*
X155287232Y-111368004D01*
X155608768Y-111368004D01*
X155627653Y-111571813D01*
X155627655Y-111571825D01*
X155683671Y-111768700D01*
X155683672Y-111768701D01*
X155774912Y-111951935D01*
X155774913Y-111951936D01*
X155774915Y-111951940D01*
X155898259Y-112115275D01*
X155898264Y-112115280D01*
X155898268Y-112115285D01*
X156000870Y-112208819D01*
X156049533Y-112253182D01*
X156049534Y-112253183D01*
X156049538Y-112253186D01*
X156223573Y-112360944D01*
X156414444Y-112434888D01*
X156615653Y-112472500D01*
X156615656Y-112472500D01*
X156820344Y-112472500D01*
X156820347Y-112472500D01*
X157021556Y-112434888D01*
X157212427Y-112360944D01*
X157386462Y-112253186D01*
X157537732Y-112115285D01*
X157661088Y-111951935D01*
X157752328Y-111768701D01*
X157808345Y-111571821D01*
X157827232Y-111368000D01*
X157808345Y-111164179D01*
X157752328Y-110967299D01*
X157661088Y-110784065D01*
X157661085Y-110784061D01*
X157661084Y-110784059D01*
X157537740Y-110620724D01*
X157537735Y-110620719D01*
X157537732Y-110620715D01*
X157442834Y-110534204D01*
X157386466Y-110482817D01*
X157386463Y-110482815D01*
X157386462Y-110482814D01*
X157212427Y-110375056D01*
X157212425Y-110375055D01*
X157156948Y-110353563D01*
X157021556Y-110301112D01*
X157021553Y-110301111D01*
X157021552Y-110301111D01*
X156820351Y-110263500D01*
X156820347Y-110263500D01*
X156615653Y-110263500D01*
X156615648Y-110263500D01*
X156414447Y-110301111D01*
X156223574Y-110375055D01*
X156049533Y-110482817D01*
X155898266Y-110620717D01*
X155898259Y-110620724D01*
X155774915Y-110784059D01*
X155774912Y-110784065D01*
X155683672Y-110967298D01*
X155627655Y-111164174D01*
X155627653Y-111164186D01*
X155608768Y-111367995D01*
X155608768Y-111368004D01*
X155287232Y-111368004D01*
X155287232Y-111368000D01*
X155268345Y-111164179D01*
X155212328Y-110967299D01*
X155121088Y-110784065D01*
X155121085Y-110784061D01*
X155121084Y-110784059D01*
X154997740Y-110620724D01*
X154997735Y-110620719D01*
X154997732Y-110620715D01*
X154902834Y-110534204D01*
X154846466Y-110482817D01*
X154846463Y-110482815D01*
X154846462Y-110482814D01*
X154672427Y-110375056D01*
X154672425Y-110375055D01*
X154616948Y-110353563D01*
X154481556Y-110301112D01*
X154481553Y-110301111D01*
X154481552Y-110301111D01*
X154280351Y-110263500D01*
X154280347Y-110263500D01*
X154075653Y-110263500D01*
X154075648Y-110263500D01*
X153874447Y-110301111D01*
X153683574Y-110375055D01*
X153509533Y-110482817D01*
X153358266Y-110620717D01*
X153358259Y-110620724D01*
X153234915Y-110784059D01*
X153234912Y-110784065D01*
X153143672Y-110967298D01*
X153087655Y-111164174D01*
X153087653Y-111164186D01*
X153068768Y-111367995D01*
X153068768Y-111368004D01*
X134371499Y-111368004D01*
X134371499Y-108828004D01*
X153068768Y-108828004D01*
X153087653Y-109031813D01*
X153087655Y-109031825D01*
X153143672Y-109228700D01*
X153143672Y-109228701D01*
X153234912Y-109411935D01*
X153234913Y-109411936D01*
X153234915Y-109411940D01*
X153358259Y-109575275D01*
X153358264Y-109575280D01*
X153358268Y-109575285D01*
X153460870Y-109668819D01*
X153509533Y-109713182D01*
X153509534Y-109713183D01*
X153509538Y-109713186D01*
X153683573Y-109820944D01*
X153874444Y-109894888D01*
X154075653Y-109932500D01*
X154075656Y-109932500D01*
X154280344Y-109932500D01*
X154280347Y-109932500D01*
X154481556Y-109894888D01*
X154672427Y-109820944D01*
X154846462Y-109713186D01*
X154997732Y-109575285D01*
X155121088Y-109411935D01*
X155212328Y-109228701D01*
X155268345Y-109031821D01*
X155287232Y-108828004D01*
X155608768Y-108828004D01*
X155627653Y-109031813D01*
X155627655Y-109031825D01*
X155683672Y-109228700D01*
X155683672Y-109228701D01*
X155774912Y-109411935D01*
X155774913Y-109411936D01*
X155774915Y-109411940D01*
X155898259Y-109575275D01*
X155898264Y-109575280D01*
X155898268Y-109575285D01*
X156000870Y-109668819D01*
X156049533Y-109713182D01*
X156049534Y-109713183D01*
X156049538Y-109713186D01*
X156223573Y-109820944D01*
X156414444Y-109894888D01*
X156615653Y-109932500D01*
X156615656Y-109932500D01*
X156820344Y-109932500D01*
X156820347Y-109932500D01*
X157021556Y-109894888D01*
X157212427Y-109820944D01*
X157386462Y-109713186D01*
X157537732Y-109575285D01*
X157661088Y-109411935D01*
X157752328Y-109228701D01*
X157808345Y-109031821D01*
X157827232Y-108828000D01*
X157808345Y-108624179D01*
X157752328Y-108427299D01*
X157661088Y-108244065D01*
X157661085Y-108244061D01*
X157661084Y-108244059D01*
X157537740Y-108080724D01*
X157537735Y-108080719D01*
X157537732Y-108080715D01*
X157404641Y-107959386D01*
X157386466Y-107942817D01*
X157386463Y-107942815D01*
X157386462Y-107942814D01*
X157212427Y-107835056D01*
X157212425Y-107835055D01*
X157156948Y-107813563D01*
X157021556Y-107761112D01*
X157021553Y-107761111D01*
X157021552Y-107761111D01*
X156820351Y-107723500D01*
X156820347Y-107723500D01*
X156615653Y-107723500D01*
X156615648Y-107723500D01*
X156414447Y-107761111D01*
X156223574Y-107835055D01*
X156049533Y-107942817D01*
X155913677Y-108066667D01*
X155901520Y-108077751D01*
X155898266Y-108080717D01*
X155898259Y-108080724D01*
X155774915Y-108244059D01*
X155774912Y-108244065D01*
X155683672Y-108427298D01*
X155627655Y-108624174D01*
X155627653Y-108624186D01*
X155608768Y-108827995D01*
X155608768Y-108828004D01*
X155287232Y-108828004D01*
X155287232Y-108828000D01*
X155268345Y-108624179D01*
X155212328Y-108427299D01*
X155121088Y-108244065D01*
X155121085Y-108244061D01*
X155121084Y-108244059D01*
X154997740Y-108080724D01*
X154997735Y-108080719D01*
X154997732Y-108080715D01*
X154864641Y-107959386D01*
X154846466Y-107942817D01*
X154846463Y-107942815D01*
X154846462Y-107942814D01*
X154672427Y-107835056D01*
X154672425Y-107835055D01*
X154616948Y-107813563D01*
X154481556Y-107761112D01*
X154481553Y-107761111D01*
X154481552Y-107761111D01*
X154280351Y-107723500D01*
X154280347Y-107723500D01*
X154075653Y-107723500D01*
X154075648Y-107723500D01*
X153874447Y-107761111D01*
X153683574Y-107835055D01*
X153509533Y-107942817D01*
X153373677Y-108066667D01*
X153361520Y-108077751D01*
X153358266Y-108080717D01*
X153358259Y-108080724D01*
X153234915Y-108244059D01*
X153234912Y-108244065D01*
X153143672Y-108427298D01*
X153087655Y-108624174D01*
X153087653Y-108624186D01*
X153068768Y-108827995D01*
X153068768Y-108828004D01*
X134371499Y-108828004D01*
X134371499Y-108102886D01*
X134351745Y-108003580D01*
X134333439Y-107959386D01*
X134277187Y-107875199D01*
X134059800Y-107657812D01*
X133975613Y-107601560D01*
X133932831Y-107583839D01*
X133931719Y-107583313D01*
X133931418Y-107583253D01*
X133832112Y-107563500D01*
X131000000Y-107563500D01*
X130955806Y-107545194D01*
X130937500Y-107501000D01*
X130937500Y-106288004D01*
X153068768Y-106288004D01*
X153087653Y-106491813D01*
X153087655Y-106491825D01*
X153128003Y-106633630D01*
X153143672Y-106688701D01*
X153234912Y-106871935D01*
X153234913Y-106871936D01*
X153234915Y-106871940D01*
X153358259Y-107035275D01*
X153358264Y-107035280D01*
X153358268Y-107035285D01*
X153460870Y-107128819D01*
X153509533Y-107173182D01*
X153509534Y-107173183D01*
X153509538Y-107173186D01*
X153683573Y-107280944D01*
X153874444Y-107354888D01*
X154075653Y-107392500D01*
X154075656Y-107392500D01*
X154280344Y-107392500D01*
X154280347Y-107392500D01*
X154481556Y-107354888D01*
X154672427Y-107280944D01*
X154846462Y-107173186D01*
X154997732Y-107035285D01*
X155121088Y-106871935D01*
X155212328Y-106688701D01*
X155268345Y-106491821D01*
X155287232Y-106288004D01*
X155608768Y-106288004D01*
X155627653Y-106491813D01*
X155627655Y-106491825D01*
X155668003Y-106633630D01*
X155683672Y-106688701D01*
X155774912Y-106871935D01*
X155774913Y-106871936D01*
X155774915Y-106871940D01*
X155898259Y-107035275D01*
X155898264Y-107035280D01*
X155898268Y-107035285D01*
X156000870Y-107128819D01*
X156049533Y-107173182D01*
X156049534Y-107173183D01*
X156049538Y-107173186D01*
X156223573Y-107280944D01*
X156414444Y-107354888D01*
X156615653Y-107392500D01*
X156615656Y-107392500D01*
X156820344Y-107392500D01*
X156820347Y-107392500D01*
X157021556Y-107354888D01*
X157212427Y-107280944D01*
X157386462Y-107173186D01*
X157537732Y-107035285D01*
X157661088Y-106871935D01*
X157752328Y-106688701D01*
X157808345Y-106491821D01*
X157827232Y-106288000D01*
X157808787Y-106088952D01*
X157808346Y-106084186D01*
X157808344Y-106084174D01*
X157782914Y-105994798D01*
X157752328Y-105887299D01*
X157661088Y-105704065D01*
X157661085Y-105704061D01*
X157661084Y-105704059D01*
X157537740Y-105540724D01*
X157537735Y-105540719D01*
X157537732Y-105540715D01*
X157442781Y-105454156D01*
X157386466Y-105402817D01*
X157386463Y-105402815D01*
X157386462Y-105402814D01*
X157212427Y-105295056D01*
X157212425Y-105295055D01*
X157156948Y-105273563D01*
X157021556Y-105221112D01*
X157021553Y-105221111D01*
X157021552Y-105221111D01*
X156820351Y-105183500D01*
X156820347Y-105183500D01*
X156615653Y-105183500D01*
X156615648Y-105183500D01*
X156414447Y-105221111D01*
X156223574Y-105295055D01*
X156049533Y-105402817D01*
X155898266Y-105540717D01*
X155898259Y-105540724D01*
X155774915Y-105704059D01*
X155774912Y-105704065D01*
X155683672Y-105887298D01*
X155627655Y-106084174D01*
X155627653Y-106084186D01*
X155608768Y-106287995D01*
X155608768Y-106288004D01*
X155287232Y-106288004D01*
X155287232Y-106288000D01*
X155268787Y-106088952D01*
X155268346Y-106084186D01*
X155268344Y-106084174D01*
X155242914Y-105994798D01*
X155212328Y-105887299D01*
X155121088Y-105704065D01*
X155121085Y-105704061D01*
X155121084Y-105704059D01*
X154997740Y-105540724D01*
X154997735Y-105540719D01*
X154997732Y-105540715D01*
X154902781Y-105454156D01*
X154846466Y-105402817D01*
X154846463Y-105402815D01*
X154846462Y-105402814D01*
X154672427Y-105295056D01*
X154672425Y-105295055D01*
X154616948Y-105273563D01*
X154481556Y-105221112D01*
X154481553Y-105221111D01*
X154481552Y-105221111D01*
X154280351Y-105183500D01*
X154280347Y-105183500D01*
X154075653Y-105183500D01*
X154075648Y-105183500D01*
X153874447Y-105221111D01*
X153683574Y-105295055D01*
X153509533Y-105402817D01*
X153358266Y-105540717D01*
X153358259Y-105540724D01*
X153234915Y-105704059D01*
X153234912Y-105704065D01*
X153143672Y-105887298D01*
X153087655Y-106084174D01*
X153087653Y-106084186D01*
X153068768Y-106287995D01*
X153068768Y-106288004D01*
X130937500Y-106288004D01*
X130937500Y-103478500D01*
X131581500Y-103478500D01*
X131581500Y-103686091D01*
X131591823Y-103756942D01*
X131645250Y-103866231D01*
X131731268Y-103952249D01*
X131840557Y-104005676D01*
X131911409Y-104016000D01*
X132056499Y-104016000D01*
X132056500Y-103478500D01*
X132310500Y-103478500D01*
X132310500Y-104016000D01*
X132455591Y-104016000D01*
X132526442Y-104005676D01*
X132635731Y-103952249D01*
X132721749Y-103866231D01*
X132775176Y-103756942D01*
X132785500Y-103686091D01*
X132785500Y-103478500D01*
X133867500Y-103478500D01*
X133867500Y-103686091D01*
X133877823Y-103756942D01*
X133931250Y-103866231D01*
X134017268Y-103952249D01*
X134126557Y-104005676D01*
X134197409Y-104016000D01*
X134342500Y-104016000D01*
X134342500Y-103478500D01*
X134596500Y-103478500D01*
X134596500Y-104016000D01*
X134741591Y-104016000D01*
X134812442Y-104005676D01*
X134921731Y-103952249D01*
X134998980Y-103875000D01*
X153208782Y-103875000D01*
X153215136Y-103939523D01*
X153271004Y-104123692D01*
X153361720Y-104293412D01*
X153361728Y-104293423D01*
X153483812Y-104442184D01*
X153483815Y-104442187D01*
X153632576Y-104564271D01*
X153632587Y-104564279D01*
X153802307Y-104654995D01*
X153986476Y-104710863D01*
X154051000Y-104717217D01*
X154051000Y-104234881D01*
X154142237Y-104248000D01*
X154213763Y-104248000D01*
X154305000Y-104234881D01*
X154305000Y-104717217D01*
X154369523Y-104710863D01*
X154553692Y-104654995D01*
X154723412Y-104564279D01*
X154723423Y-104564271D01*
X154872184Y-104442187D01*
X154872187Y-104442184D01*
X154994271Y-104293423D01*
X154994279Y-104293412D01*
X155084995Y-104123692D01*
X155140863Y-103939523D01*
X155147218Y-103875000D01*
X155748782Y-103875000D01*
X155755136Y-103939523D01*
X155811004Y-104123692D01*
X155901720Y-104293412D01*
X155901728Y-104293423D01*
X156023812Y-104442184D01*
X156023815Y-104442187D01*
X156172576Y-104564271D01*
X156172587Y-104564279D01*
X156342307Y-104654995D01*
X156526476Y-104710863D01*
X156591000Y-104717217D01*
X156591000Y-104234881D01*
X156682237Y-104248000D01*
X156753763Y-104248000D01*
X156845000Y-104234881D01*
X156845000Y-104717217D01*
X156909523Y-104710863D01*
X157093692Y-104654995D01*
X157263412Y-104564279D01*
X157263423Y-104564271D01*
X157412184Y-104442187D01*
X157412187Y-104442184D01*
X157534271Y-104293423D01*
X157534279Y-104293412D01*
X157624995Y-104123692D01*
X157680863Y-103939523D01*
X157687218Y-103875000D01*
X157201818Y-103875000D01*
X157218000Y-103819889D01*
X157218000Y-103676111D01*
X157201818Y-103621000D01*
X157687217Y-103621000D01*
X157680863Y-103556476D01*
X157624995Y-103372307D01*
X157534279Y-103202587D01*
X157534271Y-103202576D01*
X157412187Y-103053815D01*
X157412184Y-103053812D01*
X157263423Y-102931728D01*
X157263412Y-102931720D01*
X157093692Y-102841004D01*
X156909524Y-102785136D01*
X156845000Y-102778780D01*
X156845000Y-103261118D01*
X156753763Y-103248000D01*
X156682237Y-103248000D01*
X156591000Y-103261118D01*
X156591000Y-102778780D01*
X156590999Y-102778780D01*
X156526475Y-102785136D01*
X156342307Y-102841004D01*
X156172587Y-102931720D01*
X156172576Y-102931728D01*
X156023815Y-103053812D01*
X156023812Y-103053815D01*
X155901728Y-103202576D01*
X155901720Y-103202587D01*
X155811004Y-103372307D01*
X155755136Y-103556476D01*
X155748782Y-103621000D01*
X156234182Y-103621000D01*
X156218000Y-103676111D01*
X156218000Y-103819889D01*
X156234182Y-103875000D01*
X155748782Y-103875000D01*
X155147218Y-103875000D01*
X154661818Y-103875000D01*
X154678000Y-103819889D01*
X154678000Y-103676111D01*
X154661818Y-103621000D01*
X155147217Y-103621000D01*
X155140863Y-103556476D01*
X155084995Y-103372307D01*
X154994279Y-103202587D01*
X154994271Y-103202576D01*
X154872187Y-103053815D01*
X154872184Y-103053812D01*
X154723423Y-102931728D01*
X154723412Y-102931720D01*
X154553692Y-102841004D01*
X154369524Y-102785136D01*
X154305000Y-102778780D01*
X154305000Y-103261118D01*
X154213763Y-103248000D01*
X154142237Y-103248000D01*
X154051000Y-103261118D01*
X154051000Y-102778781D01*
X154050999Y-102778780D01*
X153986475Y-102785136D01*
X153802307Y-102841004D01*
X153632587Y-102931720D01*
X153632576Y-102931728D01*
X153483815Y-103053812D01*
X153483812Y-103053815D01*
X153361728Y-103202576D01*
X153361720Y-103202587D01*
X153271004Y-103372307D01*
X153215136Y-103556476D01*
X153208782Y-103621000D01*
X153694182Y-103621000D01*
X153678000Y-103676111D01*
X153678000Y-103819889D01*
X153694182Y-103875000D01*
X153208782Y-103875000D01*
X134998980Y-103875000D01*
X135007749Y-103866231D01*
X135061176Y-103756942D01*
X135071500Y-103686091D01*
X135071500Y-103478500D01*
X134596500Y-103478500D01*
X134342500Y-103478500D01*
X133867500Y-103478500D01*
X132785500Y-103478500D01*
X132310500Y-103478500D01*
X132056500Y-103478500D01*
X131581500Y-103478500D01*
X130937500Y-103478500D01*
X130937500Y-103224500D01*
X131581500Y-103224500D01*
X132056500Y-103224500D01*
X132056499Y-103224499D01*
X132056500Y-102687000D01*
X132310500Y-102687000D01*
X132310500Y-103224500D01*
X132785500Y-103224500D01*
X133867500Y-103224500D01*
X134342500Y-103224500D01*
X134342500Y-102687000D01*
X134596500Y-102687000D01*
X134596500Y-103224500D01*
X135071500Y-103224500D01*
X135071500Y-103016908D01*
X135061176Y-102946057D01*
X135007749Y-102836768D01*
X134921731Y-102750750D01*
X134812442Y-102697323D01*
X134741591Y-102687000D01*
X134596500Y-102687000D01*
X134342500Y-102687000D01*
X134197409Y-102687000D01*
X134126557Y-102697323D01*
X134017268Y-102750750D01*
X133931250Y-102836768D01*
X133877823Y-102946057D01*
X133867500Y-103016908D01*
X133867500Y-103224500D01*
X132785500Y-103224500D01*
X132785500Y-103016908D01*
X132775176Y-102946057D01*
X132721749Y-102836768D01*
X132635731Y-102750750D01*
X132526442Y-102697323D01*
X132455591Y-102687000D01*
X132310500Y-102687000D01*
X132056500Y-102687000D01*
X131911409Y-102687000D01*
X131840557Y-102697323D01*
X131731268Y-102750750D01*
X131645250Y-102836768D01*
X131591823Y-102946057D01*
X131581500Y-103016908D01*
X131581500Y-103224500D01*
X130937500Y-103224500D01*
X130937500Y-102324500D01*
X130955806Y-102280306D01*
X131000000Y-102262000D01*
X131552664Y-102262000D01*
X131589483Y-102277251D01*
X131590948Y-102275295D01*
X131594525Y-102277972D01*
X131594526Y-102277974D01*
X131707785Y-102362758D01*
X131840343Y-102412200D01*
X131898943Y-102418500D01*
X132468056Y-102418499D01*
X132526657Y-102412200D01*
X132659215Y-102362758D01*
X132772474Y-102277974D01*
X132772474Y-102277972D01*
X132776052Y-102275295D01*
X132777516Y-102277251D01*
X132814336Y-102262000D01*
X133838664Y-102262000D01*
X133875483Y-102277251D01*
X133876948Y-102275295D01*
X133880525Y-102277972D01*
X133880526Y-102277974D01*
X133993785Y-102362758D01*
X134126343Y-102412200D01*
X134184943Y-102418500D01*
X134754056Y-102418499D01*
X134812657Y-102412200D01*
X134945215Y-102362758D01*
X135058474Y-102277974D01*
X135143258Y-102164715D01*
X135192700Y-102032157D01*
X135199000Y-101973557D01*
X135198999Y-101279444D01*
X135192700Y-101220843D01*
X135191305Y-101217103D01*
X135193007Y-101169299D01*
X135205665Y-101151065D01*
X135330092Y-101026639D01*
X135345233Y-101015498D01*
X135375529Y-100999599D01*
X135494498Y-100894201D01*
X135584787Y-100763395D01*
X135641149Y-100614782D01*
X135645941Y-100575318D01*
X135660307Y-100457003D01*
X135660307Y-100456996D01*
X135641150Y-100299225D01*
X135641148Y-100299214D01*
X135584787Y-100150605D01*
X135494500Y-100019801D01*
X135494496Y-100019797D01*
X135375531Y-99914402D01*
X135375529Y-99914400D01*
X135234794Y-99840537D01*
X135080474Y-99802500D01*
X135080471Y-99802500D01*
X134921529Y-99802500D01*
X134921525Y-99802500D01*
X134767205Y-99840537D01*
X134626470Y-99914400D01*
X134626468Y-99914402D01*
X134507503Y-100019797D01*
X134507496Y-100019805D01*
X134439494Y-100118323D01*
X134432252Y-100127013D01*
X134074621Y-100484644D01*
X134063926Y-100493214D01*
X134061199Y-100494945D01*
X134061198Y-100494945D01*
X134013073Y-100546192D01*
X133991866Y-100567400D01*
X133991855Y-100567412D01*
X133986621Y-100574159D01*
X133984711Y-100576395D01*
X133951284Y-100611991D01*
X133951279Y-100611998D01*
X133939070Y-100634206D01*
X133933688Y-100642400D01*
X133918150Y-100662431D01*
X133918149Y-100662433D01*
X133898756Y-100707249D01*
X133897460Y-100709894D01*
X133873929Y-100752698D01*
X133873929Y-100752700D01*
X133867627Y-100777245D01*
X133864452Y-100786522D01*
X133854382Y-100809792D01*
X133846744Y-100858019D01*
X133846147Y-100860902D01*
X133834000Y-100908216D01*
X133833999Y-100908221D01*
X133833999Y-100928503D01*
X133815691Y-100972696D01*
X133771499Y-100991000D01*
X132814336Y-100991000D01*
X132777516Y-100975748D01*
X132776052Y-100977705D01*
X132772474Y-100975027D01*
X132772474Y-100975026D01*
X132659215Y-100890242D01*
X132659213Y-100890241D01*
X132659211Y-100890240D01*
X132526658Y-100840800D01*
X132468057Y-100834500D01*
X131898951Y-100834500D01*
X131898934Y-100834501D01*
X131840343Y-100840800D01*
X131840338Y-100840801D01*
X131707788Y-100890240D01*
X131707783Y-100890243D01*
X131656674Y-100928503D01*
X131594526Y-100975026D01*
X131594525Y-100975027D01*
X131590948Y-100977705D01*
X131589483Y-100975748D01*
X131552664Y-100991000D01*
X130367981Y-100991000D01*
X130356270Y-100989893D01*
X130342221Y-100987213D01*
X130342219Y-100987213D01*
X130283005Y-100990938D01*
X130281042Y-100991000D01*
X127823621Y-100991000D01*
X127779427Y-100972694D01*
X127060749Y-100254016D01*
X127053507Y-100245326D01*
X126985500Y-100146801D01*
X126985496Y-100146797D01*
X126866531Y-100041402D01*
X126866529Y-100041400D01*
X126725794Y-99967537D01*
X126571474Y-99929500D01*
X126571471Y-99929500D01*
X126412529Y-99929500D01*
X126412525Y-99929500D01*
X126258205Y-99967537D01*
X126117470Y-100041400D01*
X126117468Y-100041402D01*
X125998503Y-100146797D01*
X125998499Y-100146801D01*
X125908212Y-100277605D01*
X125851851Y-100426214D01*
X125851849Y-100426225D01*
X125832692Y-100583996D01*
X125832692Y-100584003D01*
X125851849Y-100741774D01*
X125851851Y-100741785D01*
X125908212Y-100890394D01*
X125998499Y-101021198D01*
X125998503Y-101021202D01*
X126117472Y-101126600D01*
X126117474Y-101126601D01*
X126147762Y-101142497D01*
X126162912Y-101153644D01*
X127030642Y-102021375D01*
X127039217Y-102032078D01*
X127040942Y-102034797D01*
X127040945Y-102034800D01*
X127040947Y-102034803D01*
X127092193Y-102082926D01*
X127113406Y-102104139D01*
X127120154Y-102109373D01*
X127122389Y-102111282D01*
X127157996Y-102144719D01*
X127157997Y-102144720D01*
X127180206Y-102156929D01*
X127188403Y-102162313D01*
X127208434Y-102177850D01*
X127253255Y-102197245D01*
X127255896Y-102198538D01*
X127298697Y-102222069D01*
X127298699Y-102222069D01*
X127298700Y-102222070D01*
X127304339Y-102223517D01*
X127323249Y-102228373D01*
X127332519Y-102231546D01*
X127355792Y-102241617D01*
X127404034Y-102249257D01*
X127406895Y-102249848D01*
X127454218Y-102262000D01*
X127479569Y-102262000D01*
X127489344Y-102262769D01*
X127514380Y-102266735D01*
X127544985Y-102263841D01*
X127563006Y-102262139D01*
X127565948Y-102262000D01*
X129604000Y-102262000D01*
X129648194Y-102280306D01*
X129666500Y-102324500D01*
X129666500Y-108071595D01*
X129665299Y-108083788D01*
X129661500Y-108102887D01*
X129661500Y-112623112D01*
X129661499Y-112623112D01*
X129681253Y-112722418D01*
X129694197Y-112753665D01*
X129699560Y-112766613D01*
X129724207Y-112803500D01*
X129755811Y-112850799D01*
X129954317Y-113049305D01*
X129972623Y-113093499D01*
X129954317Y-113137693D01*
X129755809Y-113336201D01*
X129699559Y-113420387D01*
X129681253Y-113464582D01*
X129661500Y-113563886D01*
X129661499Y-113563887D01*
X129661499Y-116682879D01*
X129643193Y-116727073D01*
X129168073Y-117202194D01*
X129123879Y-117220500D01*
X122336121Y-117220500D01*
X122291927Y-117202194D01*
X119883305Y-114793572D01*
X119864999Y-114749378D01*
X119865000Y-97699500D01*
X119883306Y-97655306D01*
X119927500Y-97637000D01*
X120442718Y-97637000D01*
X120445939Y-97637000D01*
X120459573Y-97638504D01*
X120462719Y-97639208D01*
X120462719Y-97639207D01*
X120462720Y-97639208D01*
X120532985Y-97637000D01*
X124760718Y-97637000D01*
X124786068Y-97637000D01*
X124795843Y-97637769D01*
X124820879Y-97641735D01*
X124852299Y-97638764D01*
X124869506Y-97637139D01*
X124872448Y-97637000D01*
X129200880Y-97637000D01*
X129245074Y-97655306D01*
X130510141Y-98920373D01*
X130518719Y-98931080D01*
X130520447Y-98933803D01*
X130571709Y-98981941D01*
X130592899Y-99003132D01*
X130592909Y-99003141D01*
X130596816Y-99006171D01*
X130599652Y-99008371D01*
X130601885Y-99010279D01*
X130613708Y-99021381D01*
X130637494Y-99043717D01*
X130637496Y-99043718D01*
X130637497Y-99043719D01*
X130659708Y-99055930D01*
X130667904Y-99061313D01*
X130687933Y-99076849D01*
X130719611Y-99090557D01*
X130732760Y-99096248D01*
X130735394Y-99097538D01*
X130761063Y-99111649D01*
X130778198Y-99121070D01*
X130790252Y-99124164D01*
X130802749Y-99127373D01*
X130812019Y-99130546D01*
X130835292Y-99140617D01*
X130883534Y-99148257D01*
X130886395Y-99148848D01*
X130933718Y-99161000D01*
X130959068Y-99161000D01*
X130968843Y-99161769D01*
X130993879Y-99165735D01*
X131025299Y-99162764D01*
X131042506Y-99161139D01*
X131045448Y-99161000D01*
X131552664Y-99161000D01*
X131589483Y-99176251D01*
X131590948Y-99174295D01*
X131594525Y-99176972D01*
X131594526Y-99176974D01*
X131707785Y-99261758D01*
X131840343Y-99311200D01*
X131898943Y-99317500D01*
X132468056Y-99317499D01*
X132526657Y-99311200D01*
X132659215Y-99261758D01*
X132772474Y-99176974D01*
X132772474Y-99176972D01*
X132776052Y-99174295D01*
X132777516Y-99176251D01*
X132814336Y-99161000D01*
X133072739Y-99161000D01*
X133086373Y-99162504D01*
X133089519Y-99163208D01*
X133089519Y-99163207D01*
X133089520Y-99163208D01*
X133159785Y-99161000D01*
X133189778Y-99161000D01*
X133189783Y-99161000D01*
X133198270Y-99159927D01*
X133201177Y-99159699D01*
X133250005Y-99158165D01*
X133274350Y-99151091D01*
X133283951Y-99149103D01*
X133309099Y-99145927D01*
X133309102Y-99145926D01*
X133309103Y-99145926D01*
X133330803Y-99137333D01*
X133354520Y-99127942D01*
X133357269Y-99127001D01*
X133404193Y-99113369D01*
X133426017Y-99100461D01*
X133434817Y-99096150D01*
X133458388Y-99086819D01*
X133497907Y-99058105D01*
X133500341Y-99056505D01*
X133542398Y-99031634D01*
X133560321Y-99013709D01*
X133567776Y-99007343D01*
X133573564Y-99003138D01*
X133588287Y-98992442D01*
X133588289Y-98992438D01*
X133588292Y-98992437D01*
X133610525Y-98965560D01*
X133619430Y-98954795D01*
X133621394Y-98952636D01*
X134087392Y-98486639D01*
X134102533Y-98475498D01*
X134132829Y-98459599D01*
X134251798Y-98354201D01*
X134342087Y-98223395D01*
X134398449Y-98074782D01*
X134417607Y-97917000D01*
X134412714Y-97876705D01*
X134398450Y-97759225D01*
X134398448Y-97759214D01*
X134342087Y-97610605D01*
X134251800Y-97479801D01*
X134251796Y-97479797D01*
X134132831Y-97374402D01*
X134132829Y-97374400D01*
X133992094Y-97300537D01*
X133837774Y-97262500D01*
X133837771Y-97262500D01*
X133678829Y-97262500D01*
X133678825Y-97262500D01*
X133524505Y-97300537D01*
X133383770Y-97374400D01*
X133383768Y-97374402D01*
X133264803Y-97479797D01*
X133264796Y-97479805D01*
X133196792Y-97578326D01*
X133189550Y-97587016D01*
X132904873Y-97871694D01*
X132860679Y-97890000D01*
X132814336Y-97890000D01*
X132777516Y-97874748D01*
X132776052Y-97876705D01*
X132772474Y-97874027D01*
X132772474Y-97874026D01*
X132659215Y-97789242D01*
X132659213Y-97789241D01*
X132659211Y-97789240D01*
X132526658Y-97739800D01*
X132468057Y-97733500D01*
X131898951Y-97733500D01*
X131898934Y-97733501D01*
X131840343Y-97739800D01*
X131840338Y-97739801D01*
X131707788Y-97789240D01*
X131707783Y-97789243D01*
X131652967Y-97830277D01*
X131594526Y-97874026D01*
X131594525Y-97874027D01*
X131590948Y-97876705D01*
X131589483Y-97874748D01*
X131552664Y-97890000D01*
X131303121Y-97890000D01*
X131258927Y-97871694D01*
X130314733Y-96927500D01*
X131581500Y-96927500D01*
X131581500Y-97135091D01*
X131591823Y-97205942D01*
X131645250Y-97315231D01*
X131731268Y-97401249D01*
X131840557Y-97454676D01*
X131911409Y-97465000D01*
X132056499Y-97465000D01*
X132056500Y-96927500D01*
X132310500Y-96927500D01*
X132310500Y-97465000D01*
X132455591Y-97465000D01*
X132526442Y-97454676D01*
X132635731Y-97401249D01*
X132721749Y-97315231D01*
X132775176Y-97205942D01*
X132785500Y-97135091D01*
X132785500Y-96927500D01*
X132310500Y-96927500D01*
X132056500Y-96927500D01*
X131581500Y-96927500D01*
X130314733Y-96927500D01*
X130060733Y-96673500D01*
X131581500Y-96673500D01*
X132056499Y-96673500D01*
X132056500Y-96136000D01*
X132310500Y-96136000D01*
X132310500Y-96673500D01*
X132785500Y-96673500D01*
X132785500Y-96465908D01*
X132775176Y-96395057D01*
X132721749Y-96285768D01*
X132635731Y-96199750D01*
X132526442Y-96146323D01*
X132455591Y-96136000D01*
X132310500Y-96136000D01*
X132056500Y-96136000D01*
X131911409Y-96136000D01*
X131840557Y-96146323D01*
X131731268Y-96199750D01*
X131645250Y-96285768D01*
X131591823Y-96395057D01*
X131581500Y-96465908D01*
X131581500Y-96673500D01*
X130060733Y-96673500D01*
X129993857Y-96606624D01*
X129985279Y-96595917D01*
X129983552Y-96593196D01*
X129980608Y-96590431D01*
X129932306Y-96545073D01*
X129911094Y-96523861D01*
X129911089Y-96523857D01*
X129904344Y-96518624D01*
X129902105Y-96516712D01*
X129866508Y-96483285D01*
X129866506Y-96483283D01*
X129866501Y-96483280D01*
X129844293Y-96471071D01*
X129836098Y-96465688D01*
X129816067Y-96450150D01*
X129816066Y-96450149D01*
X129816064Y-96450148D01*
X129771232Y-96430747D01*
X129768587Y-96429451D01*
X129725803Y-96405930D01*
X129706678Y-96401020D01*
X129701253Y-96399627D01*
X129691978Y-96396452D01*
X129668708Y-96386383D01*
X129620459Y-96378740D01*
X129617576Y-96378143D01*
X129615189Y-96377530D01*
X129570282Y-96366000D01*
X129570279Y-96366000D01*
X129544932Y-96366000D01*
X129535156Y-96365230D01*
X129530866Y-96364550D01*
X129510122Y-96361264D01*
X129461494Y-96365861D01*
X129458552Y-96366000D01*
X125412000Y-96366000D01*
X125367806Y-96347694D01*
X125349500Y-96303500D01*
X125349500Y-95350500D01*
X131581500Y-95350500D01*
X131581500Y-95558091D01*
X131591823Y-95628942D01*
X131645250Y-95738231D01*
X131731268Y-95824249D01*
X131840557Y-95877676D01*
X131911409Y-95888000D01*
X132056499Y-95888000D01*
X132056500Y-95350500D01*
X132310500Y-95350500D01*
X132310500Y-95888000D01*
X132455591Y-95888000D01*
X132526442Y-95877676D01*
X132635731Y-95824249D01*
X132721749Y-95738231D01*
X132775176Y-95628942D01*
X132785500Y-95558091D01*
X132785500Y-95350500D01*
X132310500Y-95350500D01*
X132056500Y-95350500D01*
X131581500Y-95350500D01*
X125349500Y-95350500D01*
X125349500Y-95096500D01*
X131581500Y-95096500D01*
X132056500Y-95096500D01*
X132056499Y-95096499D01*
X132056500Y-94559000D01*
X132310500Y-94559000D01*
X132310500Y-95096500D01*
X132785500Y-95096500D01*
X132785500Y-94888908D01*
X132775176Y-94818057D01*
X132721749Y-94708768D01*
X132635731Y-94622750D01*
X132526442Y-94569323D01*
X132455591Y-94559000D01*
X132310500Y-94559000D01*
X132056500Y-94559000D01*
X131911409Y-94559000D01*
X131840557Y-94569323D01*
X131731268Y-94622750D01*
X131645250Y-94708768D01*
X131591823Y-94818057D01*
X131581500Y-94888908D01*
X131581500Y-95096500D01*
X125349500Y-95096500D01*
X125349500Y-93845548D01*
X131454000Y-93845548D01*
X131454001Y-93845565D01*
X131460300Y-93904156D01*
X131460301Y-93904161D01*
X131509740Y-94036711D01*
X131509741Y-94036713D01*
X131509742Y-94036715D01*
X131594526Y-94149974D01*
X131707785Y-94234758D01*
X131840343Y-94284200D01*
X131898943Y-94290500D01*
X132468056Y-94290499D01*
X132526657Y-94284200D01*
X132659215Y-94234758D01*
X132772474Y-94149974D01*
X132857258Y-94036715D01*
X132906700Y-93904157D01*
X132912971Y-93845819D01*
X132935897Y-93803835D01*
X132975114Y-93790000D01*
X133194429Y-93790000D01*
X133228219Y-93799922D01*
X133234308Y-93803835D01*
X133241768Y-93808629D01*
X133380961Y-93849499D01*
X133380963Y-93849500D01*
X133380964Y-93849500D01*
X133526037Y-93849500D01*
X133526037Y-93849499D01*
X133665232Y-93808629D01*
X133711035Y-93779192D01*
X133787273Y-93730198D01*
X133882274Y-93620561D01*
X133882277Y-93620558D01*
X133942542Y-93488596D01*
X133963188Y-93345000D01*
X133944929Y-93218004D01*
X153068768Y-93218004D01*
X153087653Y-93421813D01*
X153087655Y-93421825D01*
X153106654Y-93488597D01*
X153143672Y-93618701D01*
X153234912Y-93801935D01*
X153234913Y-93801936D01*
X153234915Y-93801940D01*
X153358259Y-93965275D01*
X153358264Y-93965280D01*
X153358268Y-93965285D01*
X153436623Y-94036715D01*
X153509533Y-94103182D01*
X153509534Y-94103183D01*
X153509538Y-94103186D01*
X153683573Y-94210944D01*
X153874444Y-94284888D01*
X154075653Y-94322500D01*
X154075656Y-94322500D01*
X154280344Y-94322500D01*
X154280347Y-94322500D01*
X154481556Y-94284888D01*
X154672427Y-94210944D01*
X154846462Y-94103186D01*
X154997732Y-93965285D01*
X155043895Y-93904156D01*
X155121084Y-93801940D01*
X155121083Y-93801940D01*
X155121088Y-93801935D01*
X155212328Y-93618701D01*
X155268345Y-93421821D01*
X155287232Y-93218004D01*
X155608768Y-93218004D01*
X155627653Y-93421813D01*
X155627655Y-93421825D01*
X155646654Y-93488597D01*
X155683672Y-93618701D01*
X155774912Y-93801935D01*
X155774913Y-93801936D01*
X155774915Y-93801940D01*
X155898259Y-93965275D01*
X155898264Y-93965280D01*
X155898268Y-93965285D01*
X155976623Y-94036715D01*
X156049533Y-94103182D01*
X156049534Y-94103183D01*
X156049538Y-94103186D01*
X156223573Y-94210944D01*
X156414444Y-94284888D01*
X156615653Y-94322500D01*
X156615656Y-94322500D01*
X156820344Y-94322500D01*
X156820347Y-94322500D01*
X157021556Y-94284888D01*
X157212427Y-94210944D01*
X157386462Y-94103186D01*
X157537732Y-93965285D01*
X157583895Y-93904156D01*
X157661084Y-93801940D01*
X157661083Y-93801940D01*
X157661088Y-93801935D01*
X157752328Y-93618701D01*
X157808345Y-93421821D01*
X157827232Y-93218000D01*
X157825694Y-93201405D01*
X157808346Y-93014186D01*
X157808344Y-93014174D01*
X157770650Y-92881694D01*
X157752328Y-92817299D01*
X157661088Y-92634065D01*
X157661085Y-92634061D01*
X157661084Y-92634059D01*
X157537740Y-92470724D01*
X157537735Y-92470719D01*
X157537732Y-92470715D01*
X157442834Y-92384204D01*
X157386466Y-92332817D01*
X157386463Y-92332815D01*
X157386462Y-92332814D01*
X157212427Y-92225056D01*
X157212425Y-92225055D01*
X157156948Y-92203563D01*
X157021556Y-92151112D01*
X157021553Y-92151111D01*
X157021552Y-92151111D01*
X156820351Y-92113500D01*
X156820347Y-92113500D01*
X156615653Y-92113500D01*
X156615648Y-92113500D01*
X156414447Y-92151111D01*
X156223574Y-92225055D01*
X156049533Y-92332817D01*
X155898266Y-92470717D01*
X155898259Y-92470724D01*
X155774915Y-92634059D01*
X155774912Y-92634065D01*
X155683672Y-92817298D01*
X155627655Y-93014174D01*
X155627653Y-93014186D01*
X155608768Y-93217995D01*
X155608768Y-93218004D01*
X155287232Y-93218004D01*
X155287232Y-93218000D01*
X155285694Y-93201405D01*
X155268346Y-93014186D01*
X155268344Y-93014174D01*
X155230650Y-92881694D01*
X155212328Y-92817299D01*
X155121088Y-92634065D01*
X155121085Y-92634061D01*
X155121084Y-92634059D01*
X154997740Y-92470724D01*
X154997735Y-92470719D01*
X154997732Y-92470715D01*
X154902834Y-92384204D01*
X154846466Y-92332817D01*
X154846463Y-92332815D01*
X154846462Y-92332814D01*
X154672427Y-92225056D01*
X154672425Y-92225055D01*
X154616948Y-92203563D01*
X154481556Y-92151112D01*
X154481553Y-92151111D01*
X154481552Y-92151111D01*
X154280351Y-92113500D01*
X154280347Y-92113500D01*
X154075653Y-92113500D01*
X154075648Y-92113500D01*
X153874447Y-92151111D01*
X153683574Y-92225055D01*
X153509533Y-92332817D01*
X153358266Y-92470717D01*
X153358259Y-92470724D01*
X153234915Y-92634059D01*
X153234912Y-92634065D01*
X153143672Y-92817298D01*
X153087655Y-93014174D01*
X153087653Y-93014186D01*
X153068768Y-93217995D01*
X153068768Y-93218004D01*
X133944929Y-93218004D01*
X133942542Y-93201404D01*
X133882277Y-93069442D01*
X133845949Y-93027517D01*
X133787273Y-92959801D01*
X133665236Y-92881373D01*
X133665227Y-92881369D01*
X133526038Y-92840500D01*
X133526036Y-92840500D01*
X133380964Y-92840500D01*
X133380962Y-92840500D01*
X133241772Y-92881369D01*
X133241763Y-92881373D01*
X133228219Y-92890078D01*
X133194429Y-92900000D01*
X132843415Y-92900000D01*
X132799221Y-92881694D01*
X132793381Y-92874955D01*
X132772474Y-92847026D01*
X132659215Y-92762242D01*
X132659213Y-92762241D01*
X132659211Y-92762240D01*
X132526658Y-92712800D01*
X132468057Y-92706500D01*
X131898951Y-92706500D01*
X131898934Y-92706501D01*
X131840343Y-92712800D01*
X131840338Y-92712801D01*
X131707788Y-92762240D01*
X131707783Y-92762243D01*
X131594526Y-92847026D01*
X131509743Y-92960283D01*
X131509740Y-92960288D01*
X131460300Y-93092841D01*
X131454000Y-93151435D01*
X131454000Y-93845548D01*
X125349500Y-93845548D01*
X125349500Y-93027517D01*
X125341007Y-92960288D01*
X125334427Y-92908201D01*
X125275319Y-92758912D01*
X125180942Y-92629013D01*
X125180939Y-92629010D01*
X125180938Y-92629009D01*
X125057227Y-92526667D01*
X125057226Y-92526666D01*
X125057224Y-92526665D01*
X124911941Y-92458300D01*
X124807072Y-92438295D01*
X124754222Y-92428213D01*
X124754219Y-92428212D01*
X124593972Y-92438295D01*
X124441267Y-92487911D01*
X124305696Y-92573947D01*
X124195785Y-92690991D01*
X124195780Y-92690998D01*
X124118431Y-92831695D01*
X124114495Y-92847026D01*
X124078500Y-92987218D01*
X124078500Y-92987220D01*
X124078500Y-92987221D01*
X124078500Y-96303500D01*
X124060194Y-96347694D01*
X124016000Y-96366000D01*
X121315583Y-96366000D01*
X121271389Y-96347694D01*
X121253539Y-96311033D01*
X121241250Y-96209825D01*
X121241248Y-96209814D01*
X121184887Y-96061205D01*
X121094600Y-95930401D01*
X121094596Y-95930397D01*
X120975631Y-95825002D01*
X120975629Y-95825000D01*
X120834894Y-95751137D01*
X120680574Y-95713100D01*
X120680571Y-95713100D01*
X120521629Y-95713100D01*
X120521625Y-95713100D01*
X120367305Y-95751137D01*
X120226570Y-95825000D01*
X120226568Y-95825002D01*
X120107603Y-95930397D01*
X120107599Y-95930401D01*
X120017312Y-96061205D01*
X119960951Y-96209814D01*
X119960949Y-96209825D01*
X119948661Y-96311033D01*
X119925162Y-96352699D01*
X119886617Y-96366000D01*
X119860336Y-96366000D01*
X119823516Y-96350748D01*
X119822052Y-96352705D01*
X119818474Y-96350027D01*
X119818474Y-96350026D01*
X119705215Y-96265242D01*
X119705213Y-96265241D01*
X119705211Y-96265240D01*
X119572658Y-96215800D01*
X119514057Y-96209500D01*
X118944951Y-96209500D01*
X118944934Y-96209501D01*
X118886343Y-96215800D01*
X118886338Y-96215801D01*
X118753788Y-96265240D01*
X118753783Y-96265243D01*
X118640526Y-96350026D01*
X118555743Y-96463283D01*
X118555740Y-96463288D01*
X118506300Y-96595841D01*
X118500000Y-96654435D01*
X118500000Y-97348548D01*
X118500001Y-97348565D01*
X118506300Y-97407156D01*
X118506301Y-97407161D01*
X118555740Y-97539711D01*
X118555742Y-97539715D01*
X118581534Y-97574170D01*
X118593999Y-97611624D01*
X118594000Y-114961439D01*
X118592495Y-114975072D01*
X118591792Y-114978216D01*
X118591791Y-114978222D01*
X118594000Y-115048485D01*
X118594000Y-115078488D01*
X118595069Y-115086960D01*
X118595300Y-115089892D01*
X118596834Y-115138702D01*
X118603907Y-115163051D01*
X118605895Y-115172649D01*
X118609073Y-115197800D01*
X118627049Y-115243203D01*
X118628003Y-115245989D01*
X118641630Y-115292892D01*
X118641631Y-115292893D01*
X118654536Y-115314715D01*
X118658845Y-115323509D01*
X118668181Y-115347088D01*
X118668182Y-115347090D01*
X118696888Y-115386601D01*
X118698505Y-115389062D01*
X118723366Y-115431098D01*
X118723370Y-115431102D01*
X118741282Y-115449014D01*
X118747652Y-115456471D01*
X118762558Y-115476987D01*
X118800193Y-115508122D01*
X118802360Y-115510093D01*
X120360377Y-117068110D01*
X121543142Y-118250875D01*
X121551717Y-118261578D01*
X121553442Y-118264297D01*
X121553445Y-118264300D01*
X121553447Y-118264303D01*
X121604693Y-118312426D01*
X121625906Y-118333639D01*
X121632654Y-118338873D01*
X121634889Y-118340782D01*
X121670494Y-118374217D01*
X121670499Y-118374219D01*
X121670498Y-118374219D01*
X121685981Y-118382731D01*
X121715889Y-118420063D01*
X121710640Y-118467610D01*
X121673308Y-118497518D01*
X121655871Y-118500000D01*
X111279888Y-118500000D01*
X111235694Y-118481694D01*
X111018306Y-118264306D01*
X111000000Y-118220112D01*
X111000000Y-106526507D01*
X113322999Y-106526507D01*
X113330369Y-106563553D01*
X113330369Y-106563554D01*
X113358438Y-106605561D01*
X113400446Y-106633630D01*
X113437493Y-106641000D01*
X114173000Y-106641000D01*
X114173000Y-106150881D01*
X114264237Y-106164000D01*
X114335763Y-106164000D01*
X114426999Y-106150881D01*
X114427000Y-106641000D01*
X115162507Y-106641000D01*
X115199553Y-106633630D01*
X115199554Y-106633630D01*
X115241561Y-106605561D01*
X115269630Y-106563554D01*
X115269630Y-106563553D01*
X115277000Y-106526507D01*
X115277000Y-105791000D01*
X114783818Y-105791000D01*
X114800000Y-105735889D01*
X114800000Y-105592111D01*
X114783818Y-105537000D01*
X115277000Y-105537000D01*
X115277000Y-104801492D01*
X115269630Y-104764446D01*
X115269630Y-104764445D01*
X115241561Y-104722438D01*
X115199553Y-104694369D01*
X115162507Y-104687000D01*
X114427000Y-104687000D01*
X114426999Y-105177118D01*
X114335763Y-105164000D01*
X114264237Y-105164000D01*
X114173000Y-105177118D01*
X114173000Y-104687000D01*
X113437493Y-104687000D01*
X113400446Y-104694369D01*
X113400445Y-104694369D01*
X113358438Y-104722438D01*
X113330369Y-104764445D01*
X113330369Y-104764446D01*
X113323000Y-104801492D01*
X113323000Y-105537000D01*
X113816182Y-105537000D01*
X113800000Y-105592111D01*
X113800000Y-105735889D01*
X113816182Y-105791000D01*
X113323000Y-105791000D01*
X113323000Y-106526507D01*
X113322999Y-106526507D01*
X111000000Y-106526507D01*
X111000000Y-95403500D01*
X118627500Y-95403500D01*
X118627500Y-95611091D01*
X118637823Y-95681942D01*
X118691250Y-95791231D01*
X118777268Y-95877249D01*
X118886557Y-95930676D01*
X118957409Y-95941000D01*
X119102500Y-95941000D01*
X119356499Y-95941000D01*
X119501591Y-95941000D01*
X119572442Y-95930676D01*
X119681731Y-95877249D01*
X119767749Y-95791231D01*
X119821176Y-95681942D01*
X119831500Y-95611091D01*
X119831500Y-95403500D01*
X119356500Y-95403500D01*
X119356499Y-95941000D01*
X119102500Y-95941000D01*
X119102500Y-95403500D01*
X118627500Y-95403500D01*
X111000000Y-95403500D01*
X111000000Y-95149500D01*
X118627500Y-95149500D01*
X119102500Y-95149500D01*
X119356499Y-95149500D01*
X119831500Y-95149500D01*
X119831500Y-94941908D01*
X119821176Y-94871057D01*
X119767749Y-94761768D01*
X119681731Y-94675750D01*
X119572442Y-94622323D01*
X119501591Y-94612000D01*
X119356500Y-94612000D01*
X119356499Y-95149500D01*
X119102500Y-95149500D01*
X119102500Y-94612000D01*
X118957409Y-94612000D01*
X118886557Y-94622323D01*
X118777268Y-94675750D01*
X118691250Y-94761768D01*
X118637823Y-94871057D01*
X118627500Y-94941908D01*
X118627500Y-95149500D01*
X111000000Y-95149500D01*
X111000000Y-92315064D01*
X113195500Y-92315064D01*
X113195501Y-92315068D01*
X113210265Y-92389299D01*
X113210267Y-92389303D01*
X113266515Y-92473484D01*
X113350697Y-92529733D01*
X113350699Y-92529734D01*
X113424933Y-92544500D01*
X115175066Y-92544499D01*
X115249301Y-92529734D01*
X115333484Y-92473484D01*
X115389734Y-92389301D01*
X115404500Y-92315067D01*
X115404499Y-90678004D01*
X153068768Y-90678004D01*
X153087653Y-90881813D01*
X153087655Y-90881825D01*
X153143672Y-91078701D01*
X153234912Y-91261935D01*
X153234913Y-91261936D01*
X153234915Y-91261940D01*
X153358259Y-91425275D01*
X153358264Y-91425280D01*
X153358268Y-91425285D01*
X153460870Y-91518819D01*
X153509533Y-91563182D01*
X153509534Y-91563183D01*
X153509538Y-91563186D01*
X153683573Y-91670944D01*
X153874444Y-91744888D01*
X154075653Y-91782500D01*
X154075656Y-91782500D01*
X154280344Y-91782500D01*
X154280347Y-91782500D01*
X154481556Y-91744888D01*
X154672427Y-91670944D01*
X154846462Y-91563186D01*
X154997732Y-91425285D01*
X155121088Y-91261935D01*
X155212328Y-91078701D01*
X155268345Y-90881821D01*
X155287232Y-90678004D01*
X155608768Y-90678004D01*
X155627653Y-90881813D01*
X155627655Y-90881825D01*
X155683671Y-91078701D01*
X155683672Y-91078701D01*
X155774912Y-91261935D01*
X155774913Y-91261936D01*
X155774915Y-91261940D01*
X155898259Y-91425275D01*
X155898264Y-91425280D01*
X155898268Y-91425285D01*
X156000870Y-91518819D01*
X156049533Y-91563182D01*
X156049534Y-91563183D01*
X156049538Y-91563186D01*
X156223573Y-91670944D01*
X156414444Y-91744888D01*
X156615653Y-91782500D01*
X156615656Y-91782500D01*
X156820344Y-91782500D01*
X156820347Y-91782500D01*
X157021556Y-91744888D01*
X157212427Y-91670944D01*
X157386462Y-91563186D01*
X157537732Y-91425285D01*
X157661088Y-91261935D01*
X157752328Y-91078701D01*
X157808345Y-90881821D01*
X157827232Y-90678000D01*
X157808345Y-90474179D01*
X157752328Y-90277299D01*
X157661088Y-90094065D01*
X157661085Y-90094061D01*
X157661084Y-90094059D01*
X157537740Y-89930724D01*
X157537735Y-89930719D01*
X157537732Y-89930715D01*
X157442834Y-89844204D01*
X157386466Y-89792817D01*
X157386463Y-89792815D01*
X157386462Y-89792814D01*
X157212427Y-89685056D01*
X157212425Y-89685055D01*
X157156948Y-89663563D01*
X157021556Y-89611112D01*
X157021553Y-89611111D01*
X157021552Y-89611111D01*
X156820351Y-89573500D01*
X156820347Y-89573500D01*
X156615653Y-89573500D01*
X156615648Y-89573500D01*
X156414447Y-89611111D01*
X156223574Y-89685055D01*
X156049533Y-89792817D01*
X155898266Y-89930717D01*
X155898259Y-89930724D01*
X155774915Y-90094059D01*
X155774912Y-90094065D01*
X155683672Y-90277298D01*
X155627655Y-90474174D01*
X155627653Y-90474186D01*
X155608768Y-90677995D01*
X155608768Y-90678004D01*
X155287232Y-90678004D01*
X155287232Y-90678000D01*
X155268345Y-90474179D01*
X155212328Y-90277299D01*
X155121088Y-90094065D01*
X155121085Y-90094061D01*
X155121084Y-90094059D01*
X154997740Y-89930724D01*
X154997735Y-89930719D01*
X154997732Y-89930715D01*
X154902834Y-89844204D01*
X154846466Y-89792817D01*
X154846463Y-89792815D01*
X154846462Y-89792814D01*
X154672427Y-89685056D01*
X154672425Y-89685055D01*
X154616948Y-89663563D01*
X154481556Y-89611112D01*
X154481553Y-89611111D01*
X154481552Y-89611111D01*
X154280351Y-89573500D01*
X154280347Y-89573500D01*
X154075653Y-89573500D01*
X154075648Y-89573500D01*
X153874447Y-89611111D01*
X153683574Y-89685055D01*
X153509533Y-89792817D01*
X153358266Y-89930717D01*
X153358259Y-89930724D01*
X153234915Y-90094059D01*
X153234912Y-90094065D01*
X153143672Y-90277298D01*
X153087655Y-90474174D01*
X153087653Y-90474186D01*
X153068768Y-90677995D01*
X153068768Y-90678004D01*
X115404499Y-90678004D01*
X115404499Y-90564934D01*
X115389734Y-90490699D01*
X115378692Y-90474174D01*
X115333484Y-90406515D01*
X115249302Y-90350266D01*
X115249300Y-90350265D01*
X115175067Y-90335500D01*
X113424935Y-90335500D01*
X113424931Y-90335501D01*
X113350700Y-90350265D01*
X113350696Y-90350267D01*
X113266515Y-90406515D01*
X113210266Y-90490697D01*
X113210265Y-90490699D01*
X113195500Y-90564932D01*
X113195500Y-92315064D01*
X111000000Y-92315064D01*
X111000000Y-88138004D01*
X153068768Y-88138004D01*
X153087653Y-88341813D01*
X153087655Y-88341825D01*
X153143672Y-88538701D01*
X153234912Y-88721935D01*
X153234913Y-88721936D01*
X153234915Y-88721940D01*
X153358259Y-88885275D01*
X153358264Y-88885280D01*
X153358268Y-88885285D01*
X153460870Y-88978819D01*
X153509533Y-89023182D01*
X153509534Y-89023183D01*
X153509538Y-89023186D01*
X153683573Y-89130944D01*
X153874444Y-89204888D01*
X154075653Y-89242500D01*
X154075656Y-89242500D01*
X154280344Y-89242500D01*
X154280347Y-89242500D01*
X154481556Y-89204888D01*
X154672427Y-89130944D01*
X154846462Y-89023186D01*
X154997732Y-88885285D01*
X155121088Y-88721935D01*
X155212328Y-88538701D01*
X155268345Y-88341821D01*
X155287232Y-88138004D01*
X155608768Y-88138004D01*
X155627653Y-88341813D01*
X155627655Y-88341825D01*
X155683671Y-88538701D01*
X155683672Y-88538701D01*
X155774912Y-88721935D01*
X155774913Y-88721936D01*
X155774915Y-88721940D01*
X155898259Y-88885275D01*
X155898264Y-88885280D01*
X155898268Y-88885285D01*
X156000870Y-88978819D01*
X156049533Y-89023182D01*
X156049534Y-89023183D01*
X156049538Y-89023186D01*
X156223573Y-89130944D01*
X156414444Y-89204888D01*
X156615653Y-89242500D01*
X156615656Y-89242500D01*
X156820344Y-89242500D01*
X156820347Y-89242500D01*
X157021556Y-89204888D01*
X157212427Y-89130944D01*
X157386462Y-89023186D01*
X157537732Y-88885285D01*
X157661088Y-88721935D01*
X157752328Y-88538701D01*
X157808345Y-88341821D01*
X157827232Y-88138000D01*
X157808345Y-87934179D01*
X157752328Y-87737299D01*
X157661088Y-87554065D01*
X157661085Y-87554061D01*
X157661084Y-87554059D01*
X157537740Y-87390724D01*
X157537735Y-87390719D01*
X157537732Y-87390715D01*
X157442834Y-87304204D01*
X157386466Y-87252817D01*
X157386463Y-87252815D01*
X157386462Y-87252814D01*
X157212427Y-87145056D01*
X157212425Y-87145055D01*
X157156948Y-87123563D01*
X157021556Y-87071112D01*
X157021553Y-87071111D01*
X157021552Y-87071111D01*
X156820351Y-87033500D01*
X156820347Y-87033500D01*
X156615653Y-87033500D01*
X156615648Y-87033500D01*
X156414447Y-87071111D01*
X156223574Y-87145055D01*
X156049533Y-87252817D01*
X155898266Y-87390717D01*
X155898259Y-87390724D01*
X155774915Y-87554059D01*
X155774912Y-87554065D01*
X155683672Y-87737298D01*
X155627655Y-87934174D01*
X155627653Y-87934186D01*
X155608768Y-88137995D01*
X155608768Y-88138004D01*
X155287232Y-88138004D01*
X155287232Y-88138000D01*
X155268345Y-87934179D01*
X155212328Y-87737299D01*
X155121088Y-87554065D01*
X155121085Y-87554061D01*
X155121084Y-87554059D01*
X154997740Y-87390724D01*
X154997735Y-87390719D01*
X154997732Y-87390715D01*
X154902834Y-87304204D01*
X154846466Y-87252817D01*
X154846463Y-87252815D01*
X154846462Y-87252814D01*
X154672427Y-87145056D01*
X154672425Y-87145055D01*
X154616948Y-87123563D01*
X154481556Y-87071112D01*
X154481553Y-87071111D01*
X154481552Y-87071111D01*
X154280351Y-87033500D01*
X154280347Y-87033500D01*
X154075653Y-87033500D01*
X154075648Y-87033500D01*
X153874447Y-87071111D01*
X153683574Y-87145055D01*
X153509533Y-87252817D01*
X153358266Y-87390717D01*
X153358259Y-87390724D01*
X153234915Y-87554059D01*
X153234912Y-87554065D01*
X153143672Y-87737298D01*
X153087655Y-87934174D01*
X153087653Y-87934186D01*
X153068768Y-88137995D01*
X153068768Y-88138004D01*
X111000000Y-88138004D01*
X111000000Y-85598004D01*
X153068768Y-85598004D01*
X153087653Y-85801813D01*
X153087655Y-85801825D01*
X153143672Y-85998701D01*
X153234912Y-86181935D01*
X153234913Y-86181936D01*
X153234915Y-86181940D01*
X153358259Y-86345275D01*
X153358264Y-86345280D01*
X153358268Y-86345285D01*
X153460870Y-86438819D01*
X153509533Y-86483182D01*
X153509534Y-86483183D01*
X153509538Y-86483186D01*
X153683573Y-86590944D01*
X153874444Y-86664888D01*
X154075653Y-86702500D01*
X154075656Y-86702500D01*
X154280344Y-86702500D01*
X154280347Y-86702500D01*
X154481556Y-86664888D01*
X154672427Y-86590944D01*
X154846462Y-86483186D01*
X154997732Y-86345285D01*
X155121088Y-86181935D01*
X155212328Y-85998701D01*
X155268345Y-85801821D01*
X155287232Y-85598004D01*
X155608768Y-85598004D01*
X155627653Y-85801813D01*
X155627655Y-85801825D01*
X155683671Y-85998701D01*
X155683672Y-85998701D01*
X155774912Y-86181935D01*
X155774913Y-86181936D01*
X155774915Y-86181940D01*
X155898259Y-86345275D01*
X155898264Y-86345280D01*
X155898268Y-86345285D01*
X156000870Y-86438819D01*
X156049533Y-86483182D01*
X156049534Y-86483183D01*
X156049538Y-86483186D01*
X156223573Y-86590944D01*
X156414444Y-86664888D01*
X156615653Y-86702500D01*
X156615656Y-86702500D01*
X156820344Y-86702500D01*
X156820347Y-86702500D01*
X157021556Y-86664888D01*
X157212427Y-86590944D01*
X157386462Y-86483186D01*
X157537732Y-86345285D01*
X157661088Y-86181935D01*
X157752328Y-85998701D01*
X157808345Y-85801821D01*
X157827232Y-85598000D01*
X157808345Y-85394179D01*
X157752328Y-85197299D01*
X157661088Y-85014065D01*
X157661085Y-85014061D01*
X157661084Y-85014059D01*
X157537740Y-84850724D01*
X157537735Y-84850719D01*
X157537732Y-84850715D01*
X157442834Y-84764204D01*
X157386466Y-84712817D01*
X157386463Y-84712815D01*
X157386462Y-84712814D01*
X157212427Y-84605056D01*
X157212425Y-84605055D01*
X157156948Y-84583563D01*
X157021556Y-84531112D01*
X157021553Y-84531111D01*
X157021552Y-84531111D01*
X156820351Y-84493500D01*
X156820347Y-84493500D01*
X156615653Y-84493500D01*
X156615648Y-84493500D01*
X156414447Y-84531111D01*
X156223574Y-84605055D01*
X156049533Y-84712817D01*
X155898266Y-84850717D01*
X155898259Y-84850724D01*
X155774915Y-85014059D01*
X155774912Y-85014065D01*
X155683672Y-85197298D01*
X155627655Y-85394174D01*
X155627653Y-85394186D01*
X155608768Y-85597995D01*
X155608768Y-85598004D01*
X155287232Y-85598004D01*
X155287232Y-85598000D01*
X155268345Y-85394179D01*
X155212328Y-85197299D01*
X155121088Y-85014065D01*
X155121085Y-85014061D01*
X155121084Y-85014059D01*
X154997740Y-84850724D01*
X154997735Y-84850719D01*
X154997732Y-84850715D01*
X154902834Y-84764204D01*
X154846466Y-84712817D01*
X154846463Y-84712815D01*
X154846462Y-84712814D01*
X154672427Y-84605056D01*
X154672425Y-84605055D01*
X154616948Y-84583563D01*
X154481556Y-84531112D01*
X154481553Y-84531111D01*
X154481552Y-84531111D01*
X154280351Y-84493500D01*
X154280347Y-84493500D01*
X154075653Y-84493500D01*
X154075648Y-84493500D01*
X153874447Y-84531111D01*
X153683574Y-84605055D01*
X153509533Y-84712817D01*
X153358266Y-84850717D01*
X153358259Y-84850724D01*
X153234915Y-85014059D01*
X153234912Y-85014065D01*
X153143672Y-85197298D01*
X153087655Y-85394174D01*
X153087653Y-85394186D01*
X153068768Y-85597995D01*
X153068768Y-85598004D01*
X111000000Y-85598004D01*
X111000000Y-83185000D01*
X153208782Y-83185000D01*
X153215136Y-83249523D01*
X153271004Y-83433692D01*
X153361720Y-83603412D01*
X153361728Y-83603423D01*
X153483812Y-83752184D01*
X153483815Y-83752187D01*
X153632576Y-83874271D01*
X153632587Y-83874279D01*
X153802307Y-83964995D01*
X153986476Y-84020863D01*
X154051000Y-84027217D01*
X154051000Y-83544881D01*
X154142237Y-83558000D01*
X154213763Y-83558000D01*
X154305000Y-83544881D01*
X154305000Y-84027217D01*
X154369523Y-84020863D01*
X154553692Y-83964995D01*
X154723412Y-83874279D01*
X154723423Y-83874271D01*
X154872184Y-83752187D01*
X154872187Y-83752184D01*
X154994271Y-83603423D01*
X154994279Y-83603412D01*
X155084995Y-83433692D01*
X155140863Y-83249523D01*
X155147218Y-83185000D01*
X155748782Y-83185000D01*
X155755136Y-83249523D01*
X155811004Y-83433692D01*
X155901720Y-83603412D01*
X155901728Y-83603423D01*
X156023812Y-83752184D01*
X156023815Y-83752187D01*
X156172576Y-83874271D01*
X156172587Y-83874279D01*
X156342307Y-83964995D01*
X156526476Y-84020863D01*
X156591000Y-84027217D01*
X156591000Y-83544881D01*
X156682237Y-83558000D01*
X156753763Y-83558000D01*
X156845000Y-83544881D01*
X156845000Y-84027217D01*
X156909523Y-84020863D01*
X157093692Y-83964995D01*
X157263412Y-83874279D01*
X157263423Y-83874271D01*
X157412184Y-83752187D01*
X157412187Y-83752184D01*
X157534271Y-83603423D01*
X157534279Y-83603412D01*
X157624995Y-83433692D01*
X157680863Y-83249523D01*
X157687218Y-83185000D01*
X157201818Y-83185000D01*
X157218000Y-83129889D01*
X157218000Y-82986111D01*
X157201818Y-82931000D01*
X157687217Y-82931000D01*
X157680863Y-82866476D01*
X157624995Y-82682307D01*
X157534279Y-82512587D01*
X157534271Y-82512576D01*
X157412187Y-82363815D01*
X157412184Y-82363812D01*
X157263423Y-82241728D01*
X157263412Y-82241720D01*
X157093692Y-82151004D01*
X156909524Y-82095136D01*
X156845000Y-82088780D01*
X156845000Y-82571118D01*
X156753763Y-82558000D01*
X156682237Y-82558000D01*
X156591000Y-82571118D01*
X156591000Y-82088780D01*
X156590999Y-82088780D01*
X156526475Y-82095136D01*
X156342307Y-82151004D01*
X156172587Y-82241720D01*
X156172576Y-82241728D01*
X156023815Y-82363812D01*
X156023812Y-82363815D01*
X155901728Y-82512576D01*
X155901720Y-82512587D01*
X155811004Y-82682307D01*
X155755136Y-82866476D01*
X155748782Y-82931000D01*
X156234182Y-82931000D01*
X156218000Y-82986111D01*
X156218000Y-83129889D01*
X156234182Y-83185000D01*
X155748782Y-83185000D01*
X155147218Y-83185000D01*
X154661818Y-83185000D01*
X154678000Y-83129889D01*
X154678000Y-82986111D01*
X154661818Y-82931000D01*
X155147217Y-82931000D01*
X155140863Y-82866476D01*
X155084995Y-82682307D01*
X154994279Y-82512587D01*
X154994271Y-82512576D01*
X154872187Y-82363815D01*
X154872184Y-82363812D01*
X154723423Y-82241728D01*
X154723412Y-82241720D01*
X154553692Y-82151004D01*
X154369524Y-82095136D01*
X154305000Y-82088780D01*
X154305000Y-82571118D01*
X154213763Y-82558000D01*
X154142237Y-82558000D01*
X154051000Y-82571118D01*
X154051000Y-82088781D01*
X154050999Y-82088780D01*
X153986475Y-82095136D01*
X153802307Y-82151004D01*
X153632587Y-82241720D01*
X153632576Y-82241728D01*
X153483815Y-82363812D01*
X153483812Y-82363815D01*
X153361728Y-82512576D01*
X153361720Y-82512587D01*
X153271004Y-82682307D01*
X153215136Y-82866476D01*
X153208782Y-82931000D01*
X153694182Y-82931000D01*
X153678000Y-82986111D01*
X153678000Y-83129889D01*
X153694182Y-83185000D01*
X153208782Y-83185000D01*
X111000000Y-83185000D01*
X111000000Y-75779887D01*
X111018305Y-75735694D01*
X111235694Y-75518306D01*
X111279888Y-75500000D01*
X159720112Y-75500000D01*
X159764306Y-75518306D01*
G37*
G04 #@! TD.AperFunction*
G04 #@! TD*
G04 #@! TA.AperFunction,Conductor*
G04 #@! TO.N,+3.3V*
G36*
X159784306Y-78758306D02*
G01*
X160001694Y-78975694D01*
X160020000Y-79019888D01*
X160020000Y-102082111D01*
X160001694Y-102126305D01*
X159784306Y-102343694D01*
X159740112Y-102362000D01*
X152552888Y-102362000D01*
X152508694Y-102343694D01*
X152291306Y-102126306D01*
X152273000Y-102082112D01*
X152273000Y-102070507D01*
X153200999Y-102070507D01*
X153208369Y-102107553D01*
X153208369Y-102107554D01*
X153236438Y-102149561D01*
X153278446Y-102177630D01*
X153315493Y-102185000D01*
X154051000Y-102185000D01*
X154051000Y-101694881D01*
X154142237Y-101708000D01*
X154213763Y-101708000D01*
X154304999Y-101694882D01*
X154304999Y-102184999D01*
X154305000Y-102185000D01*
X155040507Y-102185000D01*
X155077553Y-102177630D01*
X155077554Y-102177630D01*
X155119561Y-102149561D01*
X155147630Y-102107554D01*
X155147630Y-102107553D01*
X155155000Y-102070507D01*
X155155000Y-101335000D01*
X155748782Y-101335000D01*
X155755136Y-101399523D01*
X155811004Y-101583692D01*
X155901720Y-101753412D01*
X155901728Y-101753423D01*
X156023812Y-101902184D01*
X156023815Y-101902187D01*
X156172576Y-102024271D01*
X156172587Y-102024279D01*
X156342307Y-102114995D01*
X156526476Y-102170863D01*
X156591000Y-102177217D01*
X156591000Y-101694881D01*
X156682237Y-101708000D01*
X156753763Y-101708000D01*
X156845000Y-101694881D01*
X156845000Y-102177217D01*
X156909523Y-102170863D01*
X157093692Y-102114995D01*
X157263412Y-102024279D01*
X157263423Y-102024271D01*
X157412184Y-101902187D01*
X157412187Y-101902184D01*
X157534271Y-101753423D01*
X157534279Y-101753412D01*
X157624995Y-101583692D01*
X157680863Y-101399523D01*
X157687218Y-101335000D01*
X157201818Y-101335000D01*
X157218000Y-101279889D01*
X157218000Y-101136111D01*
X157201818Y-101081000D01*
X157687217Y-101081000D01*
X157680863Y-101016476D01*
X157624995Y-100832307D01*
X157534279Y-100662587D01*
X157534271Y-100662576D01*
X157412187Y-100513815D01*
X157412184Y-100513812D01*
X157263423Y-100391728D01*
X157263412Y-100391720D01*
X157093692Y-100301004D01*
X156909524Y-100245136D01*
X156845000Y-100238780D01*
X156845000Y-100721118D01*
X156753763Y-100708000D01*
X156682237Y-100708000D01*
X156591000Y-100721118D01*
X156591000Y-100238780D01*
X156590999Y-100238780D01*
X156526475Y-100245136D01*
X156342307Y-100301004D01*
X156172587Y-100391720D01*
X156172576Y-100391728D01*
X156023815Y-100513812D01*
X156023812Y-100513815D01*
X155901728Y-100662576D01*
X155901720Y-100662587D01*
X155811004Y-100832307D01*
X155755136Y-101016476D01*
X155748782Y-101081000D01*
X156234182Y-101081000D01*
X156218000Y-101136111D01*
X156218000Y-101279889D01*
X156234182Y-101335000D01*
X155748782Y-101335000D01*
X155155000Y-101335000D01*
X154661818Y-101335000D01*
X154678000Y-101279889D01*
X154678000Y-101136111D01*
X154661818Y-101081000D01*
X155155000Y-101081000D01*
X155155000Y-100345492D01*
X155147630Y-100308446D01*
X155147630Y-100308445D01*
X155119561Y-100266438D01*
X155077553Y-100238369D01*
X155040507Y-100231000D01*
X154305000Y-100231000D01*
X154304999Y-100721117D01*
X154213763Y-100708000D01*
X154142237Y-100708000D01*
X154051000Y-100721118D01*
X154051000Y-100231000D01*
X153315493Y-100231000D01*
X153278446Y-100238369D01*
X153278445Y-100238369D01*
X153236438Y-100266438D01*
X153208369Y-100308445D01*
X153208369Y-100308446D01*
X153201000Y-100345492D01*
X153201000Y-101081000D01*
X153694182Y-101081000D01*
X153678000Y-101136111D01*
X153678000Y-101279889D01*
X153694182Y-101335000D01*
X153201000Y-101335000D01*
X153201000Y-102070507D01*
X153200999Y-102070507D01*
X152273000Y-102070507D01*
X152273000Y-99466888D01*
X152291306Y-99422694D01*
X152508694Y-99205306D01*
X152552888Y-99187000D01*
X157988000Y-99187000D01*
X158242000Y-99187000D01*
X158242000Y-81661000D01*
X157988000Y-81661000D01*
X152679888Y-81661000D01*
X152635694Y-81642694D01*
X152418306Y-81425305D01*
X152400000Y-81381111D01*
X152400000Y-81380507D01*
X153200999Y-81380507D01*
X153208369Y-81417553D01*
X153208369Y-81417554D01*
X153236438Y-81459561D01*
X153278446Y-81487630D01*
X153315493Y-81495000D01*
X154051000Y-81495000D01*
X154051000Y-81004881D01*
X154142237Y-81018000D01*
X154213763Y-81018000D01*
X154304999Y-81004882D01*
X154304999Y-81494999D01*
X154305000Y-81495000D01*
X155040507Y-81495000D01*
X155077553Y-81487630D01*
X155077554Y-81487630D01*
X155119561Y-81459561D01*
X155147630Y-81417554D01*
X155147630Y-81417553D01*
X155155000Y-81380507D01*
X155155000Y-80645000D01*
X155748782Y-80645000D01*
X155755136Y-80709523D01*
X155811004Y-80893692D01*
X155901720Y-81063412D01*
X155901728Y-81063423D01*
X156023812Y-81212184D01*
X156023815Y-81212187D01*
X156172576Y-81334271D01*
X156172587Y-81334279D01*
X156342307Y-81424995D01*
X156526476Y-81480863D01*
X156591000Y-81487217D01*
X156591000Y-81004881D01*
X156682237Y-81018000D01*
X156753763Y-81018000D01*
X156845000Y-81004881D01*
X156845000Y-81487217D01*
X156909523Y-81480863D01*
X157093692Y-81424995D01*
X157263412Y-81334279D01*
X157263423Y-81334271D01*
X157412184Y-81212187D01*
X157412187Y-81212184D01*
X157534271Y-81063423D01*
X157534279Y-81063412D01*
X157624995Y-80893692D01*
X157680863Y-80709523D01*
X157687218Y-80645000D01*
X157201818Y-80645000D01*
X157218000Y-80589889D01*
X157218000Y-80446111D01*
X157201818Y-80391000D01*
X157687217Y-80391000D01*
X157680863Y-80326476D01*
X157624995Y-80142307D01*
X157534279Y-79972587D01*
X157534271Y-79972576D01*
X157412187Y-79823815D01*
X157412184Y-79823812D01*
X157263423Y-79701728D01*
X157263412Y-79701720D01*
X157093692Y-79611004D01*
X156909524Y-79555136D01*
X156845000Y-79548780D01*
X156845000Y-80031118D01*
X156753763Y-80018000D01*
X156682237Y-80018000D01*
X156591000Y-80031118D01*
X156591000Y-79548780D01*
X156590999Y-79548780D01*
X156526475Y-79555136D01*
X156342307Y-79611004D01*
X156172587Y-79701720D01*
X156172576Y-79701728D01*
X156023815Y-79823812D01*
X156023812Y-79823815D01*
X155901728Y-79972576D01*
X155901720Y-79972587D01*
X155811004Y-80142307D01*
X155755136Y-80326476D01*
X155748782Y-80391000D01*
X156234182Y-80391000D01*
X156218000Y-80446111D01*
X156218000Y-80589889D01*
X156234182Y-80645000D01*
X155748782Y-80645000D01*
X155155000Y-80645000D01*
X154661818Y-80645000D01*
X154678000Y-80589889D01*
X154678000Y-80446111D01*
X154661818Y-80391000D01*
X155155000Y-80391000D01*
X155155000Y-79655492D01*
X155147630Y-79618446D01*
X155147630Y-79618445D01*
X155119561Y-79576438D01*
X155077553Y-79548369D01*
X155040507Y-79541000D01*
X154305000Y-79541000D01*
X154304999Y-80031117D01*
X154213763Y-80018000D01*
X154142237Y-80018000D01*
X154051000Y-80031118D01*
X154051000Y-79541000D01*
X153315493Y-79541000D01*
X153278446Y-79548369D01*
X153278445Y-79548369D01*
X153236438Y-79576438D01*
X153208369Y-79618445D01*
X153208369Y-79618446D01*
X153201000Y-79655492D01*
X153201000Y-80391000D01*
X153694182Y-80391000D01*
X153678000Y-80446111D01*
X153678000Y-80589889D01*
X153694182Y-80645000D01*
X153201000Y-80645000D01*
X153201000Y-81380507D01*
X153200999Y-81380507D01*
X152400000Y-81380507D01*
X152400000Y-79019888D01*
X152418306Y-78975694D01*
X152635694Y-78758306D01*
X152679888Y-78740000D01*
X159740112Y-78740000D01*
X159784306Y-78758306D01*
G37*
G04 #@! TD.AperFunction*
G04 #@! TD*
G04 #@! TA.AperFunction,Conductor*
G04 #@! TO.N,VDD*
G36*
X133876306Y-113302306D02*
G01*
X134093694Y-113519694D01*
X134112000Y-113563887D01*
X134112000Y-117068111D01*
X134093694Y-117112305D01*
X133876306Y-117329694D01*
X133832112Y-117348000D01*
X130200888Y-117348000D01*
X130156694Y-117329694D01*
X129939306Y-117112306D01*
X129921000Y-117068112D01*
X129921000Y-113563887D01*
X129939305Y-113519694D01*
X130156693Y-113302306D01*
X130200888Y-113284000D01*
X133832112Y-113284000D01*
X133876306Y-113302306D01*
G37*
G04 #@! TD.AperFunction*
G04 #@! TD*
G04 #@! TA.AperFunction,Conductor*
G04 #@! TO.N,/D3V3*
G36*
X133876306Y-107841306D02*
G01*
X134093693Y-108058693D01*
X134111999Y-108102887D01*
X134111999Y-112623112D01*
X134093693Y-112667306D01*
X133876306Y-112884694D01*
X133832112Y-112903000D01*
X130200888Y-112903000D01*
X130156694Y-112884694D01*
X129939306Y-112667306D01*
X129921000Y-112623112D01*
X129921000Y-108102888D01*
X129939306Y-108058694D01*
X130156694Y-107841306D01*
X130200888Y-107823000D01*
X133832112Y-107823000D01*
X133876306Y-107841306D01*
G37*
G04 #@! TD.AperFunction*
G04 #@! TD*
M02*
