M48
; DRILL file {KiCad 7.0.6} date Sun 06 Aug 2023 09:35:20 PM CEST
; FORMAT={-:-/ absolute / inch / decimal}
; #@! TF.CreationDate,2023-08-06T21:35:20+02:00
; #@! TF.GenerationSoftware,Kicad,Pcbnew,7.0.6
; #@! TF.FileFunction,Plated,1,2,PTH
FMAT,2
INCH
; #@! TA.AperFunction,Plated,PTH,ViaDrill
T1C0.0079
; #@! TA.AperFunction,Plated,PTH,ViaDrill
T2C0.0157
; #@! TA.AperFunction,Plated,PTH,ComponentDrill
T3C0.0394
%
G90
G05
T1
X4.91Y-3.6641
X5.2541Y-3.675
T2
X4.6241Y-3.635
X4.7481Y-3.794
X4.9591Y-3.71
X4.9641Y-3.615
X4.9641Y-3.885
X4.98Y-3.96
X5.055Y-4.29
X5.055Y-4.335
X5.055Y-4.38
X5.055Y-4.49
X5.055Y-4.535
X5.055Y-4.585
X5.145Y-4.29
X5.145Y-4.335
X5.145Y-4.38
X5.145Y-4.49
X5.145Y-4.535
X5.145Y-4.585
X5.2661Y-3.855
X5.2741Y-3.75
X5.315Y-3.955
X5.3221Y-3.856
X5.365Y-3.31
X5.405Y-4.175
T3
X4.5Y-3.6
X4.5Y-4.16
X6.07Y-3.17
X6.07Y-3.27
X6.07Y-3.37
X6.07Y-3.47
X6.07Y-3.57
X6.07Y-3.67
X6.07Y-3.9846
X6.07Y-4.0846
X6.07Y-4.1846
X6.07Y-4.2846
X6.07Y-4.3846
X6.07Y-4.4846
X6.17Y-3.17
X6.17Y-3.27
X6.17Y-3.37
X6.17Y-3.47
X6.17Y-3.57
X6.17Y-3.67
X6.17Y-3.9846
X6.17Y-4.0846
X6.17Y-4.1846
X6.17Y-4.2846
X6.17Y-4.3846
X6.17Y-4.4846
T0
M30
