%TF.GenerationSoftware,KiCad,Pcbnew,7.0.6*%
%TF.CreationDate,2023-08-06T21:35:20+02:00*%
%TF.ProjectId,AD9744_Test,41443937-3434-45f5-9465-73742e6b6963,rev?*%
%TF.SameCoordinates,Original*%
%TF.FileFunction,Drillmap*%
%TF.FilePolarity,Positive*%
%FSLAX45Y45*%
G04 Gerber Fmt 4.5, Leading zero omitted, Abs format (unit mm)*
G04 Created by KiCad (PCBNEW 7.0.6) date 2023-08-06 21:35:20*
%MOMM*%
%LPD*%
G01*
G04 APERTURE LIST*
%ADD10C,0.100000*%
%ADD11C,0.200000*%
G04 APERTURE END LIST*
D10*
X11050000Y-7500000D02*
X16050000Y-7500000D01*
X16050000Y-11900000D01*
X11050000Y-11900000D01*
X11050000Y-7500000D01*
D11*
X11305777Y-12216484D02*
X11305777Y-12016484D01*
X11305777Y-12016484D02*
X11353396Y-12016484D01*
X11353396Y-12016484D02*
X11381967Y-12026008D01*
X11381967Y-12026008D02*
X11401015Y-12045055D01*
X11401015Y-12045055D02*
X11410539Y-12064103D01*
X11410539Y-12064103D02*
X11420062Y-12102198D01*
X11420062Y-12102198D02*
X11420062Y-12130769D01*
X11420062Y-12130769D02*
X11410539Y-12168865D01*
X11410539Y-12168865D02*
X11401015Y-12187912D01*
X11401015Y-12187912D02*
X11381967Y-12206960D01*
X11381967Y-12206960D02*
X11353396Y-12216484D01*
X11353396Y-12216484D02*
X11305777Y-12216484D01*
X11505777Y-12216484D02*
X11505777Y-12083150D01*
X11505777Y-12121246D02*
X11515301Y-12102198D01*
X11515301Y-12102198D02*
X11524824Y-12092674D01*
X11524824Y-12092674D02*
X11543872Y-12083150D01*
X11543872Y-12083150D02*
X11562920Y-12083150D01*
X11629586Y-12216484D02*
X11629586Y-12083150D01*
X11629586Y-12016484D02*
X11620062Y-12026008D01*
X11620062Y-12026008D02*
X11629586Y-12035531D01*
X11629586Y-12035531D02*
X11639110Y-12026008D01*
X11639110Y-12026008D02*
X11629586Y-12016484D01*
X11629586Y-12016484D02*
X11629586Y-12035531D01*
X11753396Y-12216484D02*
X11734348Y-12206960D01*
X11734348Y-12206960D02*
X11724824Y-12187912D01*
X11724824Y-12187912D02*
X11724824Y-12016484D01*
X11858158Y-12216484D02*
X11839110Y-12206960D01*
X11839110Y-12206960D02*
X11829586Y-12187912D01*
X11829586Y-12187912D02*
X11829586Y-12016484D01*
X12086729Y-12216484D02*
X12086729Y-12016484D01*
X12086729Y-12016484D02*
X12153396Y-12159341D01*
X12153396Y-12159341D02*
X12220062Y-12016484D01*
X12220062Y-12016484D02*
X12220062Y-12216484D01*
X12401015Y-12216484D02*
X12401015Y-12111722D01*
X12401015Y-12111722D02*
X12391491Y-12092674D01*
X12391491Y-12092674D02*
X12372443Y-12083150D01*
X12372443Y-12083150D02*
X12334348Y-12083150D01*
X12334348Y-12083150D02*
X12315301Y-12092674D01*
X12401015Y-12206960D02*
X12381967Y-12216484D01*
X12381967Y-12216484D02*
X12334348Y-12216484D01*
X12334348Y-12216484D02*
X12315301Y-12206960D01*
X12315301Y-12206960D02*
X12305777Y-12187912D01*
X12305777Y-12187912D02*
X12305777Y-12168865D01*
X12305777Y-12168865D02*
X12315301Y-12149817D01*
X12315301Y-12149817D02*
X12334348Y-12140293D01*
X12334348Y-12140293D02*
X12381967Y-12140293D01*
X12381967Y-12140293D02*
X12401015Y-12130769D01*
X12496253Y-12083150D02*
X12496253Y-12283150D01*
X12496253Y-12092674D02*
X12515301Y-12083150D01*
X12515301Y-12083150D02*
X12553396Y-12083150D01*
X12553396Y-12083150D02*
X12572443Y-12092674D01*
X12572443Y-12092674D02*
X12581967Y-12102198D01*
X12581967Y-12102198D02*
X12591491Y-12121246D01*
X12591491Y-12121246D02*
X12591491Y-12178388D01*
X12591491Y-12178388D02*
X12581967Y-12197436D01*
X12581967Y-12197436D02*
X12572443Y-12206960D01*
X12572443Y-12206960D02*
X12553396Y-12216484D01*
X12553396Y-12216484D02*
X12515301Y-12216484D01*
X12515301Y-12216484D02*
X12496253Y-12206960D01*
X12677205Y-12197436D02*
X12686729Y-12206960D01*
X12686729Y-12206960D02*
X12677205Y-12216484D01*
X12677205Y-12216484D02*
X12667682Y-12206960D01*
X12667682Y-12206960D02*
X12677205Y-12197436D01*
X12677205Y-12197436D02*
X12677205Y-12216484D01*
X12677205Y-12092674D02*
X12686729Y-12102198D01*
X12686729Y-12102198D02*
X12677205Y-12111722D01*
X12677205Y-12111722D02*
X12667682Y-12102198D01*
X12667682Y-12102198D02*
X12677205Y-12092674D01*
X12677205Y-12092674D02*
X12677205Y-12111722D01*
M02*
