G04 #@! TF.GenerationSoftware,KiCad,Pcbnew,7.0.6*
G04 #@! TF.CreationDate,2023-08-06T21:35:14+02:00*
G04 #@! TF.ProjectId,AD9744_Test,41443937-3434-45f5-9465-73742e6b6963,rev?*
G04 #@! TF.SameCoordinates,Original*
G04 #@! TF.FileFunction,Copper,L1,Top*
G04 #@! TF.FilePolarity,Positive*
%FSLAX46Y46*%
G04 Gerber Fmt 4.6, Leading zero omitted, Abs format (unit mm)*
G04 Created by KiCad (PCBNEW 7.0.6) date 2023-08-06 21:35:14*
%MOMM*%
%LPD*%
G01*
G04 APERTURE LIST*
G04 Aperture macros list*
%AMRoundRect*
0 Rectangle with rounded corners*
0 $1 Rounding radius*
0 $2 $3 $4 $5 $6 $7 $8 $9 X,Y pos of 4 corners*
0 Add a 4 corners polygon primitive as box body*
4,1,4,$2,$3,$4,$5,$6,$7,$8,$9,$2,$3,0*
0 Add four circle primitives for the rounded corners*
1,1,$1+$1,$2,$3*
1,1,$1+$1,$4,$5*
1,1,$1+$1,$6,$7*
1,1,$1+$1,$8,$9*
0 Add four rect primitives between the rounded corners*
20,1,$1+$1,$2,$3,$4,$5,0*
20,1,$1+$1,$4,$5,$6,$7,0*
20,1,$1+$1,$6,$7,$8,$9,0*
20,1,$1+$1,$8,$9,$2,$3,0*%
G04 Aperture macros list end*
G04 #@! TA.AperFunction,ComponentPad*
%ADD10R,1.700000X1.700000*%
G04 #@! TD*
G04 #@! TA.AperFunction,SMDPad,CuDef*
%ADD11RoundRect,0.250000X0.325000X0.450000X-0.325000X0.450000X-0.325000X-0.450000X0.325000X-0.450000X0*%
G04 #@! TD*
G04 #@! TA.AperFunction,SMDPad,CuDef*
%ADD12RoundRect,0.237500X-0.250000X-0.237500X0.250000X-0.237500X0.250000X0.237500X-0.250000X0.237500X0*%
G04 #@! TD*
G04 #@! TA.AperFunction,SMDPad,CuDef*
%ADD13R,0.900000X0.400000*%
G04 #@! TD*
G04 #@! TA.AperFunction,SMDPad,CuDef*
%ADD14R,1.600000X1.500000*%
G04 #@! TD*
G04 #@! TA.AperFunction,SMDPad,CuDef*
%ADD15RoundRect,0.237500X-0.237500X0.250000X-0.237500X-0.250000X0.237500X-0.250000X0.237500X0.250000X0*%
G04 #@! TD*
G04 #@! TA.AperFunction,SMDPad,CuDef*
%ADD16RoundRect,0.237500X-0.237500X0.300000X-0.237500X-0.300000X0.237500X-0.300000X0.237500X0.300000X0*%
G04 #@! TD*
G04 #@! TA.AperFunction,SMDPad,CuDef*
%ADD17RoundRect,0.237500X0.250000X0.237500X-0.250000X0.237500X-0.250000X-0.237500X0.250000X-0.237500X0*%
G04 #@! TD*
G04 #@! TA.AperFunction,SMDPad,CuDef*
%ADD18RoundRect,0.250000X0.875000X1.025000X-0.875000X1.025000X-0.875000X-1.025000X0.875000X-1.025000X0*%
G04 #@! TD*
G04 #@! TA.AperFunction,ComponentPad*
%ADD19O,1.700000X1.700000*%
G04 #@! TD*
G04 #@! TA.AperFunction,SMDPad,CuDef*
%ADD20R,1.300000X1.900000*%
G04 #@! TD*
G04 #@! TA.AperFunction,SMDPad,CuDef*
%ADD21R,2.000000X1.900000*%
G04 #@! TD*
G04 #@! TA.AperFunction,SMDPad,CuDef*
%ADD22RoundRect,0.150000X0.825000X0.150000X-0.825000X0.150000X-0.825000X-0.150000X0.825000X-0.150000X0*%
G04 #@! TD*
G04 #@! TA.AperFunction,SMDPad,CuDef*
%ADD23RoundRect,0.100000X0.637500X0.100000X-0.637500X0.100000X-0.637500X-0.100000X0.637500X-0.100000X0*%
G04 #@! TD*
G04 #@! TA.AperFunction,ViaPad*
%ADD24C,0.800000*%
G04 #@! TD*
G04 #@! TA.AperFunction,ViaPad*
%ADD25C,0.500000*%
G04 #@! TD*
G04 #@! TA.AperFunction,Conductor*
%ADD26C,0.254000*%
G04 #@! TD*
G04 #@! TA.AperFunction,Conductor*
%ADD27C,0.508000*%
G04 #@! TD*
G04 #@! TA.AperFunction,Conductor*
%ADD28C,0.381000*%
G04 #@! TD*
G04 #@! TA.AperFunction,Conductor*
%ADD29C,0.127000*%
G04 #@! TD*
G04 APERTURE END LIST*
D10*
G04 #@! TO.P,J3,1,Pin_1*
G04 #@! TO.N,Net-(J3-Pin_1)*
X114300000Y-91440000D03*
G04 #@! TD*
D11*
G04 #@! TO.P,FB2,1*
G04 #@! TO.N,+3.3V*
X139582000Y-115189000D03*
G04 #@! TO.P,FB2,2*
G04 #@! TO.N,VDD*
X137532000Y-115189000D03*
G04 #@! TD*
D12*
G04 #@! TO.P,R7,1*
G04 #@! TO.N,GND*
X127334000Y-98679000D03*
G04 #@! TO.P,R7,2*
G04 #@! TO.N,Net-(U1-IOUTA)*
X129159000Y-98679000D03*
G04 #@! TD*
D13*
G04 #@! TO.P,RN4,1,R1.1*
G04 #@! TO.N,Net-(RN4-R1.1)*
X142763500Y-101473000D03*
G04 #@! TO.P,RN4,2,R2.1*
G04 #@! TO.N,Net-(RN4-R2.1)*
X142763500Y-102273000D03*
G04 #@! TO.P,RN4,3,R3.1*
G04 #@! TO.N,unconnected-(RN4-R3.1-Pad3)*
X142763500Y-103073000D03*
G04 #@! TO.P,RN4,4,R4.1*
G04 #@! TO.N,unconnected-(RN4-R4.1-Pad4)*
X142763500Y-103873000D03*
G04 #@! TO.P,RN4,5,R4.2*
G04 #@! TO.N,unconnected-(RN4-R4.2-Pad5)*
X144463500Y-103873000D03*
G04 #@! TO.P,RN4,6,R3.2*
G04 #@! TO.N,unconnected-(RN4-R3.2-Pad6)*
X144463500Y-103073000D03*
G04 #@! TO.P,RN4,7,R2.2*
G04 #@! TO.N,/WFD13*
X144463500Y-102273000D03*
G04 #@! TO.P,RN4,8,R1.2*
G04 #@! TO.N,/WFD12*
X144463500Y-101473000D03*
G04 #@! TD*
D14*
G04 #@! TO.P,X1,1,~{ST}*
G04 #@! TO.N,Net-(X1-~{ST})*
X132461000Y-105875000D03*
G04 #@! TO.P,X1,2,GND*
G04 #@! TO.N,GND*
X135001000Y-105875000D03*
G04 #@! TO.P,X1,3,OUT*
G04 #@! TO.N,Net-(X1-OUT)*
X135001000Y-103675000D03*
G04 #@! TO.P,X1,4,VCC*
G04 #@! TO.N,/D3V3*
X132461000Y-103675000D03*
G04 #@! TD*
D10*
G04 #@! TO.P,J4,1,Pin_1*
G04 #@! TO.N,GND*
X114300000Y-105664000D03*
G04 #@! TD*
D12*
G04 #@! TO.P,R4,1*
G04 #@! TO.N,GND*
X127334000Y-91821000D03*
G04 #@! TO.P,R4,2*
G04 #@! TO.N,Net-(U1-REFLO)*
X129159000Y-91821000D03*
G04 #@! TD*
D15*
G04 #@! TO.P,R6,1*
G04 #@! TO.N,GND*
X131929500Y-86082500D03*
G04 #@! TO.P,R6,2*
G04 #@! TO.N,Net-(U1-FS_ADJ)*
X131929500Y-87907500D03*
G04 #@! TD*
D16*
G04 #@! TO.P,C3,1*
G04 #@! TO.N,/D3V3*
X127381000Y-104039500D03*
G04 #@! TO.P,C3,2*
G04 #@! TO.N,GND*
X127381000Y-105764500D03*
G04 #@! TD*
D13*
G04 #@! TO.P,RN3,1,R1.1*
G04 #@! TO.N,Net-(RN3-R1.1)*
X142763500Y-97663000D03*
G04 #@! TO.P,RN3,2,R2.1*
G04 #@! TO.N,Net-(RN3-R2.1)*
X142763500Y-98463000D03*
G04 #@! TO.P,RN3,3,R3.1*
G04 #@! TO.N,Net-(RN3-R3.1)*
X142763500Y-99263000D03*
G04 #@! TO.P,RN3,4,R4.1*
G04 #@! TO.N,Net-(RN3-R4.1)*
X142763500Y-100063000D03*
G04 #@! TO.P,RN3,5,R4.2*
G04 #@! TO.N,/WFD11*
X144463500Y-100063000D03*
G04 #@! TO.P,RN3,6,R3.2*
G04 #@! TO.N,/WFD10*
X144463500Y-99263000D03*
G04 #@! TO.P,RN3,7,R2.2*
G04 #@! TO.N,/WFD9*
X144463500Y-98463000D03*
G04 #@! TO.P,RN3,8,R1.2*
G04 #@! TO.N,/WFD8*
X144463500Y-97663000D03*
G04 #@! TD*
D17*
G04 #@! TO.P,R8,1*
G04 #@! TO.N,Net-(U1-IOUTB)*
X129159000Y-93599000D03*
G04 #@! TO.P,R8,2*
G04 #@! TO.N,GND*
X127334000Y-93599000D03*
G04 #@! TD*
G04 #@! TO.P,R5,1*
G04 #@! TO.N,Net-(U1-MODE)*
X129182500Y-100584000D03*
G04 #@! TO.P,R5,2*
G04 #@! TO.N,/D3V3*
X127357500Y-100584000D03*
G04 #@! TD*
G04 #@! TO.P,R11,1*
G04 #@! TO.N,Net-(U2-+)*
X120650000Y-92329000D03*
G04 #@! TO.P,R11,2*
G04 #@! TO.N,GND*
X118825000Y-92329000D03*
G04 #@! TD*
G04 #@! TO.P,R2,1*
G04 #@! TO.N,/WFCLK*
X144549500Y-106299000D03*
G04 #@! TO.P,R2,2*
G04 #@! TO.N,Net-(X1-OUT)*
X142724500Y-106299000D03*
G04 #@! TD*
D18*
G04 #@! TO.P,C4,1*
G04 #@! TO.N,/D3V3*
X132740000Y-110109000D03*
G04 #@! TO.P,C4,2*
G04 #@! TO.N,GND*
X126340000Y-110109000D03*
G04 #@! TD*
D10*
G04 #@! TO.P,J1,1,Pin_1*
G04 #@! TO.N,+3.3V*
X154178000Y-80518000D03*
D19*
G04 #@! TO.P,J1,2,Pin_2*
X156718000Y-80518000D03*
G04 #@! TO.P,J1,3,Pin_3*
G04 #@! TO.N,GND*
X154178000Y-83058000D03*
G04 #@! TO.P,J1,4,Pin_4*
X156718000Y-83058000D03*
G04 #@! TO.P,J1,5,Pin_5*
G04 #@! TO.N,/WFD1*
X154178000Y-85598000D03*
G04 #@! TO.P,J1,6,Pin_6*
G04 #@! TO.N,/WFD0*
X156718000Y-85598000D03*
G04 #@! TO.P,J1,7,Pin_7*
G04 #@! TO.N,/WFD3*
X154178000Y-88138000D03*
G04 #@! TO.P,J1,8,Pin_8*
G04 #@! TO.N,/WFD2*
X156718000Y-88138000D03*
G04 #@! TO.P,J1,9,Pin_9*
G04 #@! TO.N,/WFD5*
X154178000Y-90678000D03*
G04 #@! TO.P,J1,10,Pin_10*
G04 #@! TO.N,/WFD4*
X156718000Y-90678000D03*
G04 #@! TO.P,J1,11,Pin_11*
G04 #@! TO.N,/WFD7*
X154178000Y-93218000D03*
G04 #@! TO.P,J1,12,Pin_12*
G04 #@! TO.N,/WFD6*
X156718000Y-93218000D03*
G04 #@! TD*
D13*
G04 #@! TO.P,RN2,1,R1.1*
G04 #@! TO.N,Net-(RN2-R1.1)*
X142763500Y-93872000D03*
G04 #@! TO.P,RN2,2,R2.1*
G04 #@! TO.N,Net-(RN2-R2.1)*
X142763500Y-94672000D03*
G04 #@! TO.P,RN2,3,R3.1*
G04 #@! TO.N,Net-(RN2-R3.1)*
X142763500Y-95472000D03*
G04 #@! TO.P,RN2,4,R4.1*
G04 #@! TO.N,Net-(RN2-R4.1)*
X142763500Y-96272000D03*
G04 #@! TO.P,RN2,5,R4.2*
G04 #@! TO.N,/WFD7*
X144463500Y-96272000D03*
G04 #@! TO.P,RN2,6,R3.2*
G04 #@! TO.N,/WFD6*
X144463500Y-95472000D03*
G04 #@! TO.P,RN2,7,R2.2*
G04 #@! TO.N,/WFD5*
X144463500Y-94672000D03*
G04 #@! TO.P,RN2,8,R1.2*
G04 #@! TO.N,/WFD4*
X144463500Y-93872000D03*
G04 #@! TD*
D20*
G04 #@! TO.P,RV1,1,1*
G04 #@! TO.N,Net-(U1-FS_ADJ)*
X135097500Y-87386000D03*
D21*
G04 #@! TO.P,RV1,2,2*
G04 #@! TO.N,GND*
X136247500Y-82286000D03*
D20*
G04 #@! TO.P,RV1,3,3*
X137397500Y-87386000D03*
G04 #@! TD*
D11*
G04 #@! TO.P,FB1,1*
G04 #@! TO.N,+3.3V*
X139582000Y-111379000D03*
G04 #@! TO.P,FB1,2*
G04 #@! TO.N,/D3V3*
X137532000Y-111379000D03*
G04 #@! TD*
D10*
G04 #@! TO.P,J2,1,Pin_1*
G04 #@! TO.N,+3.3V*
X154178000Y-101208000D03*
D19*
G04 #@! TO.P,J2,2,Pin_2*
X156718000Y-101208000D03*
G04 #@! TO.P,J2,3,Pin_3*
G04 #@! TO.N,GND*
X154178000Y-103748000D03*
G04 #@! TO.P,J2,4,Pin_4*
X156718000Y-103748000D03*
G04 #@! TO.P,J2,5,Pin_5*
G04 #@! TO.N,/WFD8*
X154178000Y-106288000D03*
G04 #@! TO.P,J2,6,Pin_6*
G04 #@! TO.N,/WFD9*
X156718000Y-106288000D03*
G04 #@! TO.P,J2,7,Pin_7*
G04 #@! TO.N,/WFD10*
X154178000Y-108828000D03*
G04 #@! TO.P,J2,8,Pin_8*
G04 #@! TO.N,/WFD11*
X156718000Y-108828000D03*
G04 #@! TO.P,J2,9,Pin_9*
G04 #@! TO.N,/WFD12*
X154178000Y-111368000D03*
G04 #@! TO.P,J2,10,Pin_10*
G04 #@! TO.N,/WFD13*
X156718000Y-111368000D03*
G04 #@! TO.P,J2,11,Pin_11*
G04 #@! TO.N,/WFCLK*
X154178000Y-113908000D03*
G04 #@! TO.P,J2,12,Pin_12*
G04 #@! TO.N,unconnected-(J2-Pin_12-Pad12)*
X156718000Y-113908000D03*
G04 #@! TD*
D15*
G04 #@! TO.P,R1,1*
G04 #@! TO.N,/D3V3*
X129286000Y-103989500D03*
G04 #@! TO.P,R1,2*
G04 #@! TO.N,Net-(X1-~{ST})*
X129286000Y-105814500D03*
G04 #@! TD*
D17*
G04 #@! TO.P,R10,1*
G04 #@! TO.N,Net-(U1-IOUTB)*
X129159000Y-95377000D03*
G04 #@! TO.P,R10,2*
G04 #@! TO.N,Net-(U2-+)*
X127334000Y-95377000D03*
G04 #@! TD*
G04 #@! TO.P,R9,1*
G04 #@! TO.N,Net-(U1-IOUTA)*
X129159000Y-96901000D03*
G04 #@! TO.P,R9,2*
G04 #@! TO.N,Net-(U2--)*
X127334000Y-96901000D03*
G04 #@! TD*
G04 #@! TO.P,R3,1*
G04 #@! TO.N,Net-(U1-CLK)*
X139723500Y-103505000D03*
G04 #@! TO.P,R3,2*
G04 #@! TO.N,Net-(X1-OUT)*
X137898500Y-103505000D03*
G04 #@! TD*
D22*
G04 #@! TO.P,U2,1,NC*
G04 #@! TO.N,unconnected-(U2-NC-Pad1)*
X124244500Y-98044000D03*
G04 #@! TO.P,U2,2,-*
G04 #@! TO.N,Net-(U2--)*
X124244500Y-96774000D03*
G04 #@! TO.P,U2,3,+*
G04 #@! TO.N,Net-(U2-+)*
X124244500Y-95504000D03*
G04 #@! TO.P,U2,4,V-*
G04 #@! TO.N,GND*
X124244500Y-94234000D03*
G04 #@! TO.P,U2,5,NC*
G04 #@! TO.N,unconnected-(U2-NC-Pad5)*
X119294500Y-94234000D03*
G04 #@! TO.P,U2,6*
G04 #@! TO.N,Net-(J3-Pin_1)*
X119294500Y-95504000D03*
G04 #@! TO.P,U2,7,V+*
G04 #@! TO.N,VDD*
X119294500Y-96774000D03*
G04 #@! TO.P,U2,8,NC*
G04 #@! TO.N,unconnected-(U2-NC-Pad8)*
X119294500Y-98044000D03*
G04 #@! TD*
D12*
G04 #@! TO.P,R12,1*
G04 #@! TO.N,Net-(U2-+)*
X122889000Y-92329000D03*
G04 #@! TO.P,R12,2*
G04 #@! TO.N,VDD*
X124714000Y-92329000D03*
G04 #@! TD*
D13*
G04 #@! TO.P,RN1,1,R1.1*
G04 #@! TO.N,Net-(RN1-R1.1)*
X142763500Y-90043000D03*
G04 #@! TO.P,RN1,2,R2.1*
G04 #@! TO.N,Net-(RN1-R2.1)*
X142763500Y-90843000D03*
G04 #@! TO.P,RN1,3,R3.1*
G04 #@! TO.N,Net-(RN1-R3.1)*
X142763500Y-91643000D03*
G04 #@! TO.P,RN1,4,R4.1*
G04 #@! TO.N,Net-(RN1-R4.1)*
X142763500Y-92443000D03*
G04 #@! TO.P,RN1,5,R4.2*
G04 #@! TO.N,/WFD3*
X144463500Y-92443000D03*
G04 #@! TO.P,RN1,6,R3.2*
G04 #@! TO.N,/WFD2*
X144463500Y-91643000D03*
G04 #@! TO.P,RN1,7,R2.2*
G04 #@! TO.N,/WFD1*
X144463500Y-90843000D03*
G04 #@! TO.P,RN1,8,R1.2*
G04 #@! TO.N,/WFD0*
X144463500Y-90043000D03*
G04 #@! TD*
D23*
G04 #@! TO.P,U1,1,D13*
G04 #@! TO.N,Net-(RN4-R2.1)*
X137967000Y-100491000D03*
G04 #@! TO.P,U1,2,D12*
G04 #@! TO.N,Net-(RN4-R1.1)*
X137967000Y-99841000D03*
G04 #@! TO.P,U1,3,D11*
G04 #@! TO.N,Net-(RN3-R4.1)*
X137967000Y-99191000D03*
G04 #@! TO.P,U1,4,D10*
G04 #@! TO.N,Net-(RN3-R3.1)*
X137967000Y-98541000D03*
G04 #@! TO.P,U1,5,D9*
G04 #@! TO.N,Net-(RN3-R2.1)*
X137967000Y-97891000D03*
G04 #@! TO.P,U1,6,D8*
G04 #@! TO.N,Net-(RN3-R1.1)*
X137967000Y-97241000D03*
G04 #@! TO.P,U1,7,D7*
G04 #@! TO.N,Net-(RN2-R4.1)*
X137967000Y-96591000D03*
G04 #@! TO.P,U1,8,D6*
G04 #@! TO.N,Net-(RN2-R3.1)*
X137967000Y-95941000D03*
G04 #@! TO.P,U1,9,D5*
G04 #@! TO.N,Net-(RN2-R2.1)*
X137967000Y-95291000D03*
G04 #@! TO.P,U1,10,D4*
G04 #@! TO.N,Net-(RN2-R1.1)*
X137967000Y-94641000D03*
G04 #@! TO.P,U1,11,D3*
G04 #@! TO.N,Net-(RN1-R4.1)*
X137967000Y-93991000D03*
G04 #@! TO.P,U1,12,D2*
G04 #@! TO.N,Net-(RN1-R3.1)*
X137967000Y-93341000D03*
G04 #@! TO.P,U1,13,D1*
G04 #@! TO.N,Net-(RN1-R2.1)*
X137967000Y-92691000D03*
G04 #@! TO.P,U1,14,D0*
G04 #@! TO.N,Net-(RN1-R1.1)*
X137967000Y-92041000D03*
G04 #@! TO.P,U1,15,SLEEP*
G04 #@! TO.N,unconnected-(U1-SLEEP-Pad15)*
X132242000Y-92041000D03*
G04 #@! TO.P,U1,16,REFLO*
G04 #@! TO.N,Net-(U1-REFLO)*
X132242000Y-92691000D03*
G04 #@! TO.P,U1,17,REFIO*
G04 #@! TO.N,Net-(U1-REFIO)*
X132242000Y-93341000D03*
G04 #@! TO.P,U1,18,FS_ADJ*
G04 #@! TO.N,Net-(U1-FS_ADJ)*
X132242000Y-93991000D03*
G04 #@! TO.P,U1,19*
G04 #@! TO.N,N/C*
X132242000Y-94641000D03*
G04 #@! TO.P,U1,20,AGND*
G04 #@! TO.N,GND*
X132242000Y-95291000D03*
G04 #@! TO.P,U1,21,IOUTB*
G04 #@! TO.N,Net-(U1-IOUTB)*
X132242000Y-95941000D03*
G04 #@! TO.P,U1,22,IOUTA*
G04 #@! TO.N,Net-(U1-IOUTA)*
X132242000Y-96591000D03*
G04 #@! TO.P,U1,23*
G04 #@! TO.N,N/C*
X132242000Y-97241000D03*
G04 #@! TO.P,U1,24,AVDD*
G04 #@! TO.N,VDD*
X132242000Y-97891000D03*
G04 #@! TO.P,U1,25,MODE*
G04 #@! TO.N,Net-(U1-MODE)*
X132242000Y-98541000D03*
G04 #@! TO.P,U1,26,DGND*
G04 #@! TO.N,GND*
X132242000Y-99191000D03*
G04 #@! TO.P,U1,27,DVDD*
G04 #@! TO.N,/D3V3*
X132242000Y-99841000D03*
G04 #@! TO.P,U1,28,CLK*
G04 #@! TO.N,Net-(U1-CLK)*
X132242000Y-100491000D03*
G04 #@! TD*
D17*
G04 #@! TO.P,R13,1*
G04 #@! TO.N,Net-(U2--)*
X122682000Y-99822000D03*
G04 #@! TO.P,R13,2*
G04 #@! TO.N,Net-(J3-Pin_1)*
X120857000Y-99822000D03*
G04 #@! TD*
D18*
G04 #@! TO.P,C6,1*
G04 #@! TO.N,VDD*
X132740000Y-115189000D03*
G04 #@! TO.P,C6,2*
G04 #@! TO.N,GND*
X126340000Y-115189000D03*
G04 #@! TD*
D24*
G04 #@! TO.N,VDD*
X133758300Y-97917000D03*
D25*
X124714000Y-93067500D03*
D24*
X130683000Y-116459000D03*
X130683000Y-114046000D03*
X120601100Y-96367600D03*
X130683000Y-115189000D03*
G04 #@! TO.N,GND*
X135180700Y-97942400D03*
X126087500Y-98679000D03*
X117451500Y-92329000D03*
X137287000Y-106045000D03*
X128397000Y-116459000D03*
X133961500Y-95250000D03*
X136271000Y-84074000D03*
X126087500Y-91821000D03*
X128397000Y-115189000D03*
X128397000Y-108966000D03*
X128397000Y-110109000D03*
X128397000Y-114046000D03*
X125960500Y-94234000D03*
X128397000Y-111252000D03*
G04 #@! TO.N,/D3V3*
X135001000Y-100457000D03*
X130683000Y-111252000D03*
X130683000Y-110109000D03*
X130683000Y-108966000D03*
X126492000Y-100584000D03*
D25*
G04 #@! TO.N,Net-(U1-REFIO)*
X133453500Y-93345000D03*
G04 #@! TD*
D26*
G04 #@! TO.N,VDD*
X130683000Y-115189000D02*
X130683000Y-116459000D01*
X132740000Y-115189000D02*
X130683000Y-115189000D01*
X130683000Y-115189000D02*
X130683000Y-114046000D01*
D27*
X120194700Y-96774000D02*
X119294500Y-96774000D01*
X120601100Y-96367600D02*
X120194700Y-96774000D01*
D28*
X133758300Y-97917000D02*
X133732300Y-97891000D01*
X133732300Y-97891000D02*
X132242000Y-97891000D01*
D27*
X124714000Y-93067500D02*
X124714000Y-92329000D01*
D29*
G04 #@! TO.N,GND*
X135001000Y-105875000D02*
X137117000Y-105875000D01*
D28*
X132242000Y-99191000D02*
X133576500Y-99191000D01*
X132242000Y-95291000D02*
X133920500Y-95291000D01*
D29*
X128397000Y-110109000D02*
X128397000Y-108966000D01*
D28*
X124244500Y-94234000D02*
X125960500Y-94234000D01*
D29*
X128397000Y-115189000D02*
X128397000Y-116459000D01*
X126340000Y-110109000D02*
X128397000Y-110109000D01*
X137117000Y-105875000D02*
X137287000Y-106045000D01*
X128397000Y-110109000D02*
X128397000Y-111252000D01*
D28*
X133576500Y-99191000D02*
X133834500Y-98933000D01*
X134190100Y-98933000D02*
X135180700Y-97942400D01*
D29*
X127334000Y-98679000D02*
X126087500Y-98679000D01*
X136247500Y-84050500D02*
X136271000Y-84074000D01*
X136247500Y-82286000D02*
X136247500Y-84050500D01*
X127334000Y-91821000D02*
X126087500Y-91821000D01*
X128397000Y-115189000D02*
X128397000Y-114046000D01*
D28*
X133920500Y-95291000D02*
X133961500Y-95250000D01*
D29*
X126340000Y-115189000D02*
X128397000Y-115189000D01*
D28*
X133834500Y-98933000D02*
X134190100Y-98933000D01*
D29*
X118825000Y-92329000D02*
X117451500Y-92329000D01*
D27*
G04 #@! TO.N,/D3V3*
X129236000Y-104039500D02*
X129286000Y-103989500D01*
X132146500Y-103989500D02*
X132461000Y-103675000D01*
D26*
X130683000Y-110109000D02*
X130683000Y-111252000D01*
X132740000Y-110109000D02*
X130683000Y-110109000D01*
D27*
X127381000Y-104039500D02*
X127381000Y-100607500D01*
X127381000Y-100607500D02*
X127357500Y-100584000D01*
D26*
X130683000Y-110109000D02*
X130683000Y-108966000D01*
D28*
X135001000Y-100457000D02*
X134385000Y-99841000D01*
X134385000Y-99841000D02*
X132242000Y-99841000D01*
D27*
X129286000Y-103989500D02*
X132146500Y-103989500D01*
X127381000Y-104039500D02*
X129236000Y-104039500D01*
D28*
G04 #@! TO.N,Net-(U1-REFIO)*
X132242000Y-93341000D02*
X133449500Y-93341000D01*
X133449500Y-93341000D02*
X133453500Y-93345000D01*
D26*
G04 #@! TO.N,Net-(U1-IOUTB)*
X129897500Y-95377000D02*
X129159000Y-95377000D01*
X129159000Y-95377000D02*
X129159000Y-93599000D01*
X130461500Y-95941000D02*
X129897500Y-95377000D01*
X132242000Y-95941000D02*
X130461500Y-95941000D01*
G04 #@! TO.N,Net-(U1-IOUTA)*
X129159000Y-96901000D02*
X129159000Y-98679000D01*
X130175000Y-96901000D02*
X129159000Y-96901000D01*
X130485000Y-96591000D02*
X130175000Y-96901000D01*
X132242000Y-96591000D02*
X130485000Y-96591000D01*
D29*
G04 #@! TO.N,/WFD0*
X148427077Y-86014256D02*
X148677455Y-86264634D01*
X147121818Y-88209179D02*
X147121819Y-88209181D01*
X150342018Y-85595744D02*
X149593804Y-84847530D01*
X149066363Y-85875727D02*
X149066364Y-85875727D01*
X148288545Y-86653545D02*
X148288546Y-86653545D01*
X149204894Y-85236439D02*
X149455272Y-85486817D01*
X146732909Y-88209181D02*
X146732910Y-88209181D01*
X150621999Y-85097910D02*
X150730925Y-85206836D01*
X147899636Y-87431361D02*
X147899637Y-87431360D01*
X147649258Y-86403167D02*
X147649259Y-86403166D01*
X150622000Y-85097910D02*
X150621999Y-85097910D01*
X147649259Y-86792074D02*
X147899637Y-87042452D01*
X156718000Y-85598000D02*
X155575000Y-84455000D01*
X146093680Y-87958859D02*
X146093680Y-87958860D01*
X147510728Y-87431363D02*
X147260388Y-87181023D01*
X148427076Y-85625349D02*
X148427077Y-85625348D01*
X150730925Y-85595744D02*
X150730926Y-85595744D01*
X146871479Y-87569931D02*
X147121818Y-87820270D01*
X146093680Y-88347768D02*
X146344000Y-88598088D01*
X146344001Y-88986997D02*
X146344000Y-88986997D01*
X148677455Y-86653542D02*
X148677455Y-86653545D01*
X146871479Y-87181022D02*
X146871479Y-87181023D01*
X148677454Y-86653543D02*
X148677455Y-86653542D01*
X150876000Y-84455000D02*
X150622000Y-84709000D01*
X149455272Y-85875725D02*
X149455273Y-85875727D01*
X149204893Y-85236439D02*
X149204894Y-85236439D01*
X146344000Y-88986997D02*
X145288000Y-90043000D01*
X147121819Y-88209179D02*
X147121818Y-88209179D01*
X155575000Y-84455000D02*
X150876000Y-84455000D01*
X146732910Y-88209181D02*
X146482589Y-87958860D01*
X149204896Y-84847530D02*
X149204894Y-84847530D01*
X147510727Y-87431363D02*
X147510728Y-87431363D01*
X148288546Y-86653545D02*
X148038167Y-86403166D01*
X149066364Y-85875727D02*
X148815985Y-85625348D01*
X149455271Y-85875726D02*
X149455272Y-85875725D01*
X145288000Y-90043000D02*
X144463500Y-90043000D01*
X147899637Y-87431360D02*
X147899637Y-87431363D01*
X150730935Y-85595754D02*
G75*
G03*
X150730925Y-85206836I-194435J194454D01*
G01*
X148815954Y-85625379D02*
G75*
G03*
X148427076Y-85625349I-194454J-194421D01*
G01*
X147121794Y-88209154D02*
G75*
G03*
X147121818Y-87820270I-194394J194454D01*
G01*
X150622046Y-84709046D02*
G75*
G03*
X150622001Y-85097909I194454J-194454D01*
G01*
X150342018Y-85595744D02*
G75*
G03*
X150730926Y-85595744I194454J194452D01*
G01*
X147260355Y-87181056D02*
G75*
G03*
X146871479Y-87181022I-194455J-194444D01*
G01*
X148677466Y-86653555D02*
G75*
G03*
X148677455Y-86264634I-194466J194455D01*
G01*
X146732910Y-88209180D02*
G75*
G03*
X147121818Y-88209180I194454J194454D01*
G01*
X147649239Y-86403146D02*
G75*
G03*
X147649259Y-86792074I194461J-194454D01*
G01*
X146482555Y-87958894D02*
G75*
G03*
X146093680Y-87958859I-194455J-194406D01*
G01*
X147510728Y-87431362D02*
G75*
G03*
X147899636Y-87431362I194454J194454D01*
G01*
X149455299Y-85875754D02*
G75*
G03*
X149455271Y-85486818I-194499J194454D01*
G01*
X149066364Y-85875726D02*
G75*
G03*
X149455272Y-85875726I194454J194454D01*
G01*
X146343958Y-88986954D02*
G75*
G03*
X146344000Y-88598088I-194458J194454D01*
G01*
X146093666Y-87958846D02*
G75*
G03*
X146093680Y-88347768I194434J-194454D01*
G01*
X149204909Y-84847545D02*
G75*
G03*
X149204893Y-85236439I194391J-194455D01*
G01*
X148427076Y-85625347D02*
G75*
G03*
X148427078Y-86014255I194424J-194453D01*
G01*
X148038154Y-86403179D02*
G75*
G03*
X147649258Y-86403167I-194454J-194421D01*
G01*
X148288546Y-86653544D02*
G75*
G03*
X148677454Y-86653544I194454J194454D01*
G01*
X146871503Y-87181047D02*
G75*
G03*
X146871480Y-87569930I194397J-194453D01*
G01*
X149593803Y-84847531D02*
G75*
G03*
X149204897Y-84847531I-194453J-194455D01*
G01*
X147899630Y-87431355D02*
G75*
G03*
X147899637Y-87042452I-194430J194455D01*
G01*
G04 #@! TO.N,/WFD1*
X146994128Y-88758361D02*
X146994129Y-88758360D01*
X146994129Y-89041202D02*
X147262541Y-89309614D01*
X149525284Y-87329713D02*
X149525285Y-87329712D01*
X146696854Y-90158143D02*
X146696855Y-90158145D01*
X146012000Y-90843000D02*
X144463500Y-90843000D01*
X146979697Y-89592459D02*
X146979698Y-89592459D01*
X145862728Y-90172546D02*
X146131168Y-90440986D01*
X149822627Y-86212843D02*
X149822628Y-86212843D01*
X149808127Y-86764029D02*
X149808128Y-86764029D01*
X148959598Y-87895399D02*
X148959599Y-87895401D01*
X149525285Y-87329712D02*
X149525285Y-87329715D01*
X149822629Y-85930000D02*
X149822628Y-85930000D01*
X146414012Y-90158145D02*
X146145571Y-89889704D01*
X146979698Y-89592459D02*
X146711262Y-89324023D01*
X148111069Y-88461087D02*
X148111070Y-88461087D01*
X148691230Y-87061345D02*
X148691230Y-87061346D01*
X149256929Y-86778514D02*
X149525285Y-87046870D01*
X146428420Y-89324023D02*
X146428419Y-89324023D01*
X146131168Y-90723829D02*
X146012000Y-90843000D01*
X147262541Y-89592456D02*
X147262541Y-89592459D01*
X149242442Y-87329715D02*
X148974073Y-87061346D01*
X147545383Y-89026773D02*
X147545384Y-89026773D01*
X147559830Y-88475531D02*
X147828227Y-88743928D01*
X150090969Y-86764028D02*
X150090970Y-86764027D01*
X151207877Y-86749564D02*
X151207877Y-86749563D01*
X149808128Y-86764029D02*
X149539771Y-86495672D01*
X148676755Y-87895401D02*
X148676756Y-87895401D01*
X149242441Y-87329715D02*
X149242442Y-87329715D01*
X149822628Y-86212843D02*
X150090970Y-86481185D01*
X148125530Y-87909859D02*
X148393913Y-88178242D01*
X148691230Y-87344188D02*
X148959598Y-87612556D01*
X150656659Y-86481187D02*
X150105472Y-85930000D01*
X147545384Y-89026773D02*
X147276971Y-88758360D01*
X150939499Y-86198344D02*
X151207876Y-86466721D01*
X150925035Y-86749563D02*
X150656659Y-86481187D01*
X154178000Y-85598000D02*
X151257000Y-85598000D01*
X146428419Y-89606865D02*
X146696854Y-89875300D01*
X145862729Y-89889704D02*
X145862728Y-89889704D01*
X146696854Y-90158142D02*
X146696854Y-90158143D01*
X146131168Y-90723828D02*
X146131168Y-90723829D01*
X148111070Y-88461087D02*
X147842672Y-88192689D01*
X148125529Y-87627018D02*
X148125530Y-87627017D01*
X147559829Y-88192690D02*
X147559830Y-88192689D01*
X151257000Y-85598000D02*
X150939500Y-85915500D01*
X150090970Y-86764027D02*
X150090971Y-86764029D01*
X147828226Y-89026771D02*
X147828227Y-89026770D01*
X150939500Y-86198344D02*
X150939499Y-86198344D01*
X149256928Y-86495673D02*
X149256929Y-86495672D01*
X147262540Y-89592457D02*
X147262541Y-89592456D01*
X147828227Y-89026770D02*
X147828227Y-89026773D01*
X149822630Y-85930000D02*
X149822629Y-85930000D01*
X148393913Y-88461084D02*
X148393913Y-88461087D01*
X148676756Y-87895401D02*
X148408372Y-87627017D01*
X148959599Y-87895399D02*
X148959598Y-87895399D01*
X148393912Y-88461085D02*
X148393913Y-88461084D01*
X146414011Y-90158145D02*
X146414012Y-90158145D01*
X146696832Y-90158120D02*
G75*
G03*
X146696853Y-89875301I-141432J141420D01*
G01*
X149822606Y-85929978D02*
G75*
G03*
X149822627Y-86212843I141394J-141422D01*
G01*
X147277021Y-88758310D02*
G75*
G03*
X146994128Y-88758361I-141421J-141490D01*
G01*
X147559820Y-88192679D02*
G75*
G03*
X147559830Y-88475531I141480J-141421D01*
G01*
X146145570Y-89889705D02*
G75*
G03*
X145862730Y-89889705I-141420J-141422D01*
G01*
X149539820Y-86495623D02*
G75*
G03*
X149256929Y-86495674I-141420J-141477D01*
G01*
X148959621Y-87895421D02*
G75*
G03*
X148959598Y-87612556I-141421J141421D01*
G01*
X148408421Y-87626968D02*
G75*
G03*
X148125529Y-87627018I-141421J-141432D01*
G01*
X149256937Y-86495680D02*
G75*
G03*
X149256930Y-86778513I141463J-141420D01*
G01*
X146994148Y-88758379D02*
G75*
G03*
X146994129Y-89041202I141452J-141421D01*
G01*
X149808128Y-86764028D02*
G75*
G03*
X150090970Y-86764028I141421J141421D01*
G01*
X149242442Y-87329714D02*
G75*
G03*
X149525284Y-87329714I141421J141421D01*
G01*
X149525293Y-87329722D02*
G75*
G03*
X149525285Y-87046870I-141393J141422D01*
G01*
X146131160Y-90723820D02*
G75*
G03*
X146131167Y-90440987I-141460J141420D01*
G01*
X150105471Y-85930001D02*
G75*
G03*
X149822631Y-85930001I-141420J-141422D01*
G01*
X147545384Y-89026772D02*
G75*
G03*
X147828226Y-89026772I141421J141421D01*
G01*
X145862703Y-89889679D02*
G75*
G03*
X145862728Y-90172546I141497J-141421D01*
G01*
X146428375Y-89323979D02*
G75*
G03*
X146428419Y-89606865I141425J-141421D01*
G01*
X148393949Y-88461122D02*
G75*
G03*
X148393913Y-88178242I-141449J141422D01*
G01*
X147828177Y-89026722D02*
G75*
G03*
X147828227Y-88743928I-141377J141422D01*
G01*
X147262504Y-89592421D02*
G75*
G03*
X147262540Y-89309615I-141404J141421D01*
G01*
X151207833Y-86749520D02*
G75*
G03*
X151207875Y-86466722I-141333J141420D01*
G01*
X147842721Y-88192640D02*
G75*
G03*
X147559829Y-88192690I-141421J-141460D01*
G01*
X148111070Y-88461086D02*
G75*
G03*
X148393912Y-88461086I141421J141421D01*
G01*
X146711261Y-89324024D02*
G75*
G03*
X146428421Y-89324024I-141420J-141422D01*
G01*
X146979698Y-89592458D02*
G75*
G03*
X147262540Y-89592458I141421J141421D01*
G01*
X150939479Y-85915479D02*
G75*
G03*
X150939501Y-86198343I141421J-141421D01*
G01*
X148691264Y-87061380D02*
G75*
G03*
X148691231Y-87344187I141436J-141420D01*
G01*
X146414012Y-90158144D02*
G75*
G03*
X146696854Y-90158144I141421J141421D01*
G01*
X148676756Y-87895400D02*
G75*
G03*
X148959598Y-87895400I141421J141421D01*
G01*
X148974122Y-87061297D02*
G75*
G03*
X148691230Y-87061345I-141422J-141503D01*
G01*
X150090962Y-86764021D02*
G75*
G03*
X150090969Y-86481186I-141462J141421D01*
G01*
X148125492Y-87626979D02*
G75*
G03*
X148125530Y-87909859I141508J-141421D01*
G01*
X150925035Y-86749563D02*
G75*
G03*
X151207877Y-86749563I141421J141419D01*
G01*
G04 #@! TO.N,/WFD2*
X150938802Y-87758400D02*
X150385619Y-87205217D01*
X149666006Y-88712993D02*
X149666006Y-88712994D01*
X151257000Y-87440200D02*
X151256999Y-87440200D01*
X149029608Y-89349389D02*
X149029609Y-89349390D01*
X147120418Y-91258581D02*
X146736000Y-91643000D01*
X149984203Y-88076597D02*
X149984204Y-88076597D01*
X149029609Y-89349390D02*
X149029609Y-89349391D01*
X150302403Y-88076596D02*
X150302403Y-88076597D01*
X151256999Y-87440200D02*
X151421262Y-87604463D01*
X148075013Y-89985788D02*
X147840037Y-89750812D01*
X148393212Y-89985787D02*
X148393212Y-89985788D01*
X148158229Y-89432606D02*
X148393211Y-89667588D01*
X148711409Y-89349391D02*
X148711410Y-89349391D01*
X149984204Y-88076597D02*
X149749221Y-87841614D01*
X151103064Y-87922662D02*
X150938802Y-87758400D01*
X151421262Y-87922661D02*
X151421262Y-87922662D01*
X149347806Y-88712994D02*
X149347807Y-88712994D01*
X150067421Y-87205217D02*
X150067420Y-87205217D01*
X147521839Y-90069010D02*
X147756814Y-90303985D01*
X150067420Y-87523415D02*
X150302402Y-87758397D01*
X148393211Y-89985786D02*
X148393212Y-89985787D01*
X150302402Y-88076595D02*
X150302403Y-88076596D01*
X147756815Y-90622184D02*
X147756815Y-90622185D01*
X146885435Y-90705400D02*
X147120417Y-90940382D01*
X155448000Y-86868000D02*
X151511000Y-86868000D01*
X149666005Y-88712992D02*
X149666006Y-88712993D01*
X149347807Y-88712994D02*
X149112824Y-88478011D01*
X156718000Y-88138000D02*
X155448000Y-86868000D01*
X148794626Y-88796209D02*
X149029608Y-89031191D01*
X147438616Y-90622185D02*
X147203633Y-90387202D01*
X148075012Y-89985788D02*
X148075013Y-89985788D01*
X147120417Y-91258580D02*
X147120418Y-91258581D01*
X147756814Y-90622183D02*
X147756815Y-90622184D01*
X149431023Y-88159812D02*
X149666005Y-88394794D01*
X146736000Y-91643000D02*
X144463500Y-91643000D01*
X147438615Y-90622185D02*
X147438616Y-90622185D01*
X148711410Y-89349391D02*
X148476427Y-89114408D01*
X151511000Y-86868000D02*
X151257000Y-87122000D01*
X151103065Y-87922661D02*
G75*
G03*
X151421261Y-87922661I159098J159098D01*
G01*
X148711409Y-89349391D02*
G75*
G03*
X149029609Y-89349391I159100J159101D01*
G01*
X149112823Y-88478012D02*
G75*
G03*
X148794627Y-88478012I-159098J-159098D01*
G01*
X147438615Y-90622185D02*
G75*
G03*
X147756815Y-90622185I159100J159101D01*
G01*
X150385618Y-87205218D02*
G75*
G03*
X150067422Y-87205218I-159098J-159098D01*
G01*
X147120436Y-91258599D02*
G75*
G03*
X147120417Y-90940382I-159136J159099D01*
G01*
X149431010Y-87841601D02*
G75*
G03*
X149431023Y-88159812I159090J-159099D01*
G01*
X151421300Y-87922699D02*
G75*
G03*
X151421262Y-87604463I-159100J159099D01*
G01*
X149984203Y-88076597D02*
G75*
G03*
X150302403Y-88076597I159100J159101D01*
G01*
X149666012Y-88712999D02*
G75*
G03*
X149666005Y-88394794I-159112J159099D01*
G01*
X148075012Y-89985788D02*
G75*
G03*
X148393212Y-89985788I159100J159101D01*
G01*
X147756829Y-90622198D02*
G75*
G03*
X147756813Y-90303986I-159129J159098D01*
G01*
X150302405Y-88076598D02*
G75*
G03*
X150302401Y-87758398I-159105J159098D01*
G01*
X148794616Y-88478001D02*
G75*
G03*
X148794626Y-88796209I159084J-159099D01*
G01*
X149029618Y-89349399D02*
G75*
G03*
X149029608Y-89031191I-159118J159099D01*
G01*
X149347806Y-88712994D02*
G75*
G03*
X149666006Y-88712994I159100J159101D01*
G01*
X149749220Y-87841615D02*
G75*
G03*
X149431024Y-87841615I-159098J-159098D01*
G01*
X147840036Y-89750813D02*
G75*
G03*
X147521840Y-89750813I-159098J-159098D01*
G01*
X146885434Y-90387201D02*
G75*
G03*
X146885435Y-90705400I159066J-159099D01*
G01*
X148393224Y-89985799D02*
G75*
G03*
X148393211Y-89667588I-159124J159099D01*
G01*
X148158222Y-89114401D02*
G75*
G03*
X148158229Y-89432606I159078J-159099D01*
G01*
X147203632Y-90387203D02*
G75*
G03*
X146885436Y-90387203I-159098J-159098D01*
G01*
X150067405Y-87205202D02*
G75*
G03*
X150067421Y-87523414I159095J-159098D01*
G01*
X151257000Y-87122000D02*
G75*
G03*
X151257000Y-87440200I159100J-159100D01*
G01*
X147521829Y-89750802D02*
G75*
G03*
X147521840Y-90069009I159071J-159098D01*
G01*
X148476426Y-89114409D02*
G75*
G03*
X148158230Y-89114409I-159098J-159098D01*
G01*
G04 #@! TO.N,/WFD3*
X148711409Y-91064588D02*
X148711410Y-91064589D01*
X150900221Y-89357855D02*
X150900221Y-89357856D01*
X148393211Y-91064590D02*
X148221517Y-90892896D01*
X150938800Y-88519000D02*
X150938801Y-88519000D01*
X148706354Y-92332328D02*
X148706352Y-92332331D01*
X146208000Y-92443000D02*
X146208000Y-93210831D01*
X146208000Y-92175150D02*
X146208000Y-92443000D01*
X149984203Y-89791794D02*
X149984204Y-89791795D01*
X148711410Y-91064589D02*
X148711410Y-91064590D01*
X150938801Y-88519000D02*
X150767101Y-88347300D01*
X149666005Y-89791796D02*
X149494305Y-89620096D01*
X150620601Y-88837197D02*
X150900222Y-89116818D01*
X147108000Y-92668000D02*
X147108000Y-93210831D01*
X148075011Y-91382787D02*
X148706354Y-92014130D01*
X147756813Y-92019188D02*
X147333000Y-92443000D01*
X149812510Y-89301903D02*
X149984203Y-89473596D01*
X146658000Y-92668000D02*
X146658000Y-92175150D01*
X148539710Y-90574691D02*
X148711409Y-90746390D01*
X145533000Y-92443000D02*
X145147837Y-92443000D01*
X150582023Y-89435017D02*
X150582022Y-89435019D01*
X149347806Y-90428191D02*
X149347807Y-90428192D01*
X154178000Y-88138000D02*
X151638000Y-88138000D01*
X149176107Y-89938294D02*
X149347806Y-90109993D01*
X149029607Y-90428193D02*
X149029608Y-90428193D01*
X150448903Y-88347300D02*
X150448902Y-88347300D01*
X150582022Y-89435019D02*
X150130709Y-88983705D01*
X149666004Y-89791796D02*
X149666005Y-89791796D01*
X148393210Y-91064590D02*
X148393211Y-91064590D01*
X147903318Y-91211094D02*
X148075011Y-91382787D01*
X147903319Y-90892896D02*
X147903318Y-90892896D01*
X145758000Y-93210831D02*
X145758000Y-92668000D01*
X149347807Y-90428192D02*
X149347807Y-90428193D01*
X150900221Y-89357856D02*
X150823060Y-89435018D01*
X150448902Y-88665498D02*
X150620601Y-88837197D01*
X149029608Y-90428193D02*
X148857908Y-90256493D01*
X147756814Y-92019189D02*
X147756813Y-92019188D01*
X149812511Y-88983705D02*
X149812510Y-88983705D01*
X145147837Y-92443000D02*
X144463500Y-92443000D01*
X148388154Y-92332331D02*
X148075012Y-92019189D01*
X146658000Y-93210831D02*
X146658000Y-92668000D01*
X151638000Y-88138000D02*
X151257000Y-88519000D01*
X149984204Y-89791795D02*
X149984204Y-89791796D01*
X148706325Y-92332299D02*
G75*
G03*
X148706354Y-92014130I-159025J159099D01*
G01*
X150581982Y-89435058D02*
G75*
G03*
X150823059Y-89435017I120518J120558D01*
G01*
X148711419Y-91064598D02*
G75*
G03*
X148711408Y-90746391I-159119J159098D01*
G01*
X148221516Y-90892897D02*
G75*
G03*
X147903320Y-90892897I-159098J-159098D01*
G01*
X147333000Y-92443000D02*
G75*
G03*
X147108000Y-92668000I0J-225000D01*
G01*
X149494304Y-89620097D02*
G75*
G03*
X149176108Y-89620097I-159098J-159098D01*
G01*
X148075011Y-92019190D02*
G75*
G03*
X147756815Y-92019190I-159098J-159098D01*
G01*
X145983000Y-93435800D02*
G75*
G03*
X146208000Y-93210831I0J225000D01*
G01*
X149812506Y-88983701D02*
G75*
G03*
X149812510Y-89301903I159094J-159099D01*
G01*
X150130708Y-88983706D02*
G75*
G03*
X149812512Y-88983706I-159098J-159098D01*
G01*
X145757969Y-93210831D02*
G75*
G03*
X145983000Y-93435831I225031J31D01*
G01*
X148393210Y-91064590D02*
G75*
G03*
X148711410Y-91064590I159100J159101D01*
G01*
X147903323Y-90892901D02*
G75*
G03*
X147903318Y-91211094I159077J-159099D01*
G01*
X148388155Y-92332330D02*
G75*
G03*
X148706351Y-92332330I159098J159098D01*
G01*
X149347814Y-90428199D02*
G75*
G03*
X149347806Y-90109993I-159114J159099D01*
G01*
X146433000Y-91950200D02*
G75*
G03*
X146208000Y-92175150I0J-225000D01*
G01*
X146658050Y-92175150D02*
G75*
G03*
X146433000Y-91950150I-225050J-50D01*
G01*
X145758000Y-92668000D02*
G75*
G03*
X145533000Y-92443000I-225000J0D01*
G01*
X146883000Y-93435800D02*
G75*
G03*
X147108000Y-93210831I0J225000D01*
G01*
X146657969Y-93210831D02*
G75*
G03*
X146883000Y-93435831I225031J31D01*
G01*
X150767100Y-88347301D02*
G75*
G03*
X150448904Y-88347301I-159098J-159098D01*
G01*
X149984208Y-89791799D02*
G75*
G03*
X149984203Y-89473596I-159108J159099D01*
G01*
X149029607Y-90428193D02*
G75*
G03*
X149347807Y-90428193I159100J159101D01*
G01*
X150448903Y-88347301D02*
G75*
G03*
X150448902Y-88665498I159097J-159099D01*
G01*
X148539719Y-90256502D02*
G75*
G03*
X148539711Y-90574690I159081J-159098D01*
G01*
X149176112Y-89620101D02*
G75*
G03*
X149176107Y-89938294I159088J-159099D01*
G01*
X148857907Y-90256494D02*
G75*
G03*
X148539711Y-90256494I-159098J-159098D01*
G01*
X150900185Y-89357819D02*
G75*
G03*
X150900222Y-89116818I-120485J120519D01*
G01*
X150938800Y-88519000D02*
G75*
G03*
X151257000Y-88519000I159100J159101D01*
G01*
X149666004Y-89791796D02*
G75*
G03*
X149984204Y-89791796I159100J159101D01*
G01*
G04 #@! TO.N,/WFD4*
X151160701Y-90266299D02*
X150692717Y-89798315D01*
X149092413Y-92334590D02*
X149092412Y-92334589D01*
X150041086Y-91692271D02*
X149887909Y-91539094D01*
X150842502Y-90584496D02*
X150995680Y-90737674D01*
X150206106Y-91220892D02*
X150359285Y-91374071D01*
X156718000Y-90678000D02*
X155448000Y-89408000D01*
X151664050Y-90769651D02*
X151319801Y-90425402D01*
X149754860Y-92360636D02*
X149754858Y-92360639D01*
X151160701Y-90266302D02*
X151160701Y-90266299D01*
X151982250Y-90769648D02*
X151982248Y-90769651D01*
X150677482Y-91055873D02*
X150677482Y-91055872D01*
X149569710Y-91857288D02*
X149754860Y-92042438D01*
X149101722Y-91389300D02*
X149569710Y-91857288D01*
X149887909Y-91539091D02*
X149419920Y-91071102D01*
X150995680Y-91044026D02*
X150983834Y-91055873D01*
X149738123Y-90752909D02*
X150206106Y-91220892D01*
X151982250Y-90769649D02*
X151982250Y-90769648D01*
X150677482Y-91055872D02*
X150056321Y-90434711D01*
X147555000Y-93872000D02*
X144463500Y-93872000D01*
X151637999Y-90107200D02*
X151982249Y-90451450D01*
X155448000Y-89408000D02*
X152019000Y-89408000D01*
X150374519Y-90116513D02*
X150842502Y-90584496D01*
X150995679Y-91044027D02*
X150995680Y-91044026D01*
X149101721Y-91071103D02*
X149101722Y-91071102D01*
X150359285Y-91680427D02*
X150347442Y-91692271D01*
X152019000Y-89408000D02*
X151638000Y-89789000D01*
X149887909Y-91539094D02*
X149887909Y-91539091D01*
X149436660Y-92360639D02*
X149410611Y-92334590D01*
X149092412Y-92334589D02*
X147555000Y-93872000D01*
X151638000Y-90107200D02*
X151637999Y-90107200D01*
X151319801Y-90425402D02*
X151160701Y-90266302D01*
X150359236Y-91680377D02*
G75*
G03*
X150359284Y-91374072I-153136J153177D01*
G01*
X151982199Y-90769598D02*
G75*
G03*
X151982248Y-90451451I-158999J159098D01*
G01*
X149436661Y-92360638D02*
G75*
G03*
X149754857Y-92360638I159098J159098D01*
G01*
X149754823Y-92360599D02*
G75*
G03*
X149754860Y-92042438I-159023J159099D01*
G01*
X149410610Y-92334591D02*
G75*
G03*
X149092414Y-92334591I-159098J-159098D01*
G01*
X150995629Y-91043977D02*
G75*
G03*
X150995680Y-90737674I-153129J153177D01*
G01*
X150692716Y-89798316D02*
G75*
G03*
X150374520Y-89798316I-159098J-159098D01*
G01*
X149101722Y-91071102D02*
G75*
G03*
X149101723Y-91389299I159078J-159098D01*
G01*
X150056320Y-90434712D02*
G75*
G03*
X149738124Y-90434712I-159098J-159098D01*
G01*
X150374505Y-89798301D02*
G75*
G03*
X150374519Y-90116513I159095J-159099D01*
G01*
X150677483Y-91055872D02*
G75*
G03*
X150983833Y-91055872I153175J153174D01*
G01*
X151664051Y-90769650D02*
G75*
G03*
X151982247Y-90769650I159098J159098D01*
G01*
X151638000Y-89789000D02*
G75*
G03*
X151638000Y-90107200I159100J-159100D01*
G01*
X149419899Y-91071123D02*
G75*
G03*
X149101721Y-91071103I-159099J-159077D01*
G01*
X149738113Y-90434701D02*
G75*
G03*
X149738123Y-90752909I159087J-159099D01*
G01*
X150041086Y-91692271D02*
G75*
G03*
X150347442Y-91692271I153178J153179D01*
G01*
G04 #@! TO.N,/WFD5*
X149395490Y-93936508D02*
X149950409Y-94491429D01*
X148971224Y-94360777D02*
X148660000Y-94672000D01*
X150944295Y-92656882D02*
X150466891Y-92179477D01*
X148010000Y-94872000D02*
X148010000Y-94956791D01*
X149618406Y-92745210D02*
X149618407Y-92745209D01*
X148660000Y-94672000D02*
X148210000Y-94672000D01*
X152654000Y-90678000D02*
X152082500Y-91249500D01*
X151576759Y-92157971D02*
X151375395Y-91956607D01*
X147010000Y-94672000D02*
X145901930Y-94672000D01*
X147610000Y-94872000D02*
X147610000Y-94387232D01*
X151227139Y-92643211D02*
X151213469Y-92656882D01*
X151375395Y-91956607D02*
X151032576Y-91613788D01*
X154178000Y-90678000D02*
X152654000Y-90678000D01*
X150095741Y-93774513D02*
X150095740Y-93774515D01*
X149812898Y-93788232D02*
X149678335Y-93653669D01*
X151799656Y-91249500D02*
X151799657Y-91249500D01*
X148971226Y-94360778D02*
X148971224Y-94360777D01*
X151092550Y-92239447D02*
X151227139Y-92374037D01*
X149618407Y-93028051D02*
X149961177Y-93370821D01*
X150184048Y-92462319D02*
X150526863Y-92805134D01*
X147210000Y-94387232D02*
X147210000Y-94472000D01*
X151799657Y-91249500D02*
X151598271Y-91048114D01*
X151859600Y-92157972D02*
X151859601Y-92157971D01*
X149667566Y-94774274D02*
X149667564Y-94774275D01*
X150095740Y-93774515D02*
X150082024Y-93788232D01*
X150944294Y-92656881D02*
X150944295Y-92656882D01*
X150378585Y-93222545D02*
X150244022Y-93087982D01*
X148971225Y-94360778D02*
X148971226Y-94360778D01*
X149052728Y-93593746D02*
X149395490Y-93936508D01*
X147610000Y-94956791D02*
X147610000Y-94872000D01*
X151516813Y-91532341D02*
X151859601Y-91875129D01*
X150661428Y-93208826D02*
X150661427Y-93208828D01*
X150526863Y-92805134D02*
X150661428Y-92939700D01*
X151315429Y-91048114D02*
X151315428Y-91048114D01*
X150244022Y-93087982D02*
X149901249Y-92745209D01*
X150749734Y-91613788D02*
X150749733Y-91613788D01*
X149667564Y-94774275D02*
X149254068Y-94360779D01*
X151227138Y-92643212D02*
X151227139Y-92643211D01*
X149961177Y-93370821D02*
X150095741Y-93505387D01*
X150184048Y-92179476D02*
X150184048Y-92179477D01*
X151315428Y-91330956D02*
X151516813Y-91532341D01*
X149950408Y-94774272D02*
X149950408Y-94774273D01*
X150749733Y-91896630D02*
X151092550Y-92239447D01*
X149950408Y-94774273D02*
X149950408Y-94774274D01*
X150661427Y-93208828D02*
X150647711Y-93222545D01*
X145901930Y-94672000D02*
X144463500Y-94672000D01*
X149052727Y-93310905D02*
X149052728Y-93310904D01*
X149678335Y-93653669D02*
X149335570Y-93310904D01*
X150184050Y-92179479D02*
G75*
G03*
X150184048Y-92462319I141450J-141421D01*
G01*
X147410000Y-94187200D02*
G75*
G03*
X147210000Y-94387232I0J-200000D01*
G01*
X151859549Y-92157921D02*
G75*
G03*
X151859600Y-91875130I-141349J141421D01*
G01*
X151227114Y-92643188D02*
G75*
G03*
X151227139Y-92374037I-134614J134588D01*
G01*
X151799657Y-91249499D02*
G75*
G03*
X152082499Y-91249499I141421J141421D01*
G01*
X149901221Y-92745237D02*
G75*
G03*
X149618406Y-92745210I-141421J-141363D01*
G01*
X151598270Y-91048115D02*
G75*
G03*
X151315430Y-91048115I-141420J-141422D01*
G01*
X151032575Y-91613789D02*
G75*
G03*
X150749735Y-91613789I-141420J-141422D01*
G01*
X150661465Y-93208863D02*
G75*
G03*
X150661428Y-92939700I-134565J134563D01*
G01*
X151576759Y-92157971D02*
G75*
G03*
X151859601Y-92157971I141421J141419D01*
G01*
X147010000Y-94672000D02*
G75*
G03*
X147210000Y-94472000I0J200000D01*
G01*
X149254022Y-94360825D02*
G75*
G03*
X148971225Y-94360778I-141422J-141375D01*
G01*
X150466922Y-92179446D02*
G75*
G03*
X150184048Y-92179476I-141422J-141454D01*
G01*
X147609968Y-94387232D02*
G75*
G03*
X147410000Y-94187232I-199968J32D01*
G01*
X150095791Y-93774563D02*
G75*
G03*
X150095741Y-93505387I-134591J134563D01*
G01*
X150749724Y-91613779D02*
G75*
G03*
X150749733Y-91896630I141476J-141421D01*
G01*
X147810000Y-95156800D02*
G75*
G03*
X148010000Y-94956791I0J200000D01*
G01*
X149812899Y-93788231D02*
G75*
G03*
X150082023Y-93788231I134562J134558D01*
G01*
X149618378Y-92745180D02*
G75*
G03*
X149618408Y-93028050I141422J-141420D01*
G01*
X147610009Y-94956791D02*
G75*
G03*
X147810000Y-95156791I199991J-9D01*
G01*
X149667566Y-94774274D02*
G75*
G03*
X149950408Y-94774274I141421J141419D01*
G01*
X150944312Y-92656863D02*
G75*
G03*
X151213469Y-92656882I134588J134563D01*
G01*
X149950358Y-94774222D02*
G75*
G03*
X149950409Y-94491429I-141358J141422D01*
G01*
X150378586Y-93222544D02*
G75*
G03*
X150647710Y-93222544I134562J134558D01*
G01*
X151315393Y-91048079D02*
G75*
G03*
X151315428Y-91330956I141507J-141421D01*
G01*
X149335521Y-93310953D02*
G75*
G03*
X149052727Y-93310905I-141421J-141347D01*
G01*
X149052703Y-93310879D02*
G75*
G03*
X149052728Y-93593746I141497J-141421D01*
G01*
X148210000Y-94672000D02*
G75*
G03*
X148010000Y-94872000I0J-200000D01*
G01*
G04 #@! TO.N,/WFD6*
X155448000Y-91948000D02*
X153416000Y-91948000D01*
X152780999Y-92865844D02*
X152967283Y-93052128D01*
X152781000Y-92865844D02*
X152780999Y-92865844D01*
X150473343Y-93952307D02*
X150473344Y-93952307D01*
X152543015Y-94042071D02*
X152543014Y-94042073D01*
X151604737Y-92820950D02*
X152073892Y-93290105D01*
X150473344Y-93952307D02*
X150801096Y-94280059D01*
X152543014Y-94042073D02*
X152543015Y-94042073D01*
X151694497Y-94607774D02*
X151694498Y-94607772D01*
X151977341Y-94607771D02*
X151977340Y-94607773D01*
X156718000Y-93218000D02*
X155448000Y-91948000D01*
X152260172Y-94042074D02*
X152260171Y-94042074D01*
X150801096Y-94562901D02*
X150801096Y-94562902D01*
X150473345Y-93669464D02*
X150473344Y-93669464D01*
X151604738Y-92538108D02*
X151604737Y-92538108D01*
X152260171Y-94042074D02*
X151321893Y-93103795D01*
X150473345Y-93669463D02*
X150473345Y-93669464D01*
X149892000Y-95472000D02*
X144463500Y-95472000D01*
X152073892Y-93290105D02*
X152543015Y-93759229D01*
X151039051Y-93103795D02*
X151039050Y-93103795D01*
X151039050Y-93386637D02*
X151508205Y-93855792D01*
X151694498Y-94607772D02*
X150756188Y-93669464D01*
X152498158Y-93148687D02*
X151887580Y-92538108D01*
X152967282Y-93334971D02*
X152967283Y-93334970D01*
X151977340Y-94607772D02*
X151977341Y-94607771D01*
X151508205Y-93855792D02*
X151977341Y-94324929D01*
X150801096Y-94562902D02*
X149892000Y-95472000D01*
X152684441Y-93334970D02*
X152498158Y-93148687D01*
X153416000Y-91948000D02*
X152781000Y-92583000D01*
X152780979Y-92582979D02*
G75*
G03*
X152781001Y-92865843I141421J-141421D01*
G01*
X151694480Y-94607791D02*
G75*
G03*
X151977339Y-94607772I141420J141391D01*
G01*
X150756221Y-93669431D02*
G75*
G03*
X150473346Y-93669464I-141421J-141469D01*
G01*
X151039034Y-93103779D02*
G75*
G03*
X151039050Y-93386637I141466J-141421D01*
G01*
X151977290Y-94607722D02*
G75*
G03*
X151977341Y-94324929I-141390J141422D01*
G01*
X150473358Y-93669478D02*
G75*
G03*
X150473343Y-93952307I141442J-141422D01*
G01*
X151321892Y-93103796D02*
G75*
G03*
X151039052Y-93103796I-141420J-141422D01*
G01*
X152684441Y-93334970D02*
G75*
G03*
X152967283Y-93334970I141421J141426D01*
G01*
X151604708Y-92538080D02*
G75*
G03*
X151604737Y-92820950I141492J-141420D01*
G01*
X151887579Y-92538109D02*
G75*
G03*
X151604739Y-92538109I-141420J-141422D01*
G01*
X152967232Y-93334921D02*
G75*
G03*
X152967282Y-93052129I-141332J141421D01*
G01*
X152543065Y-94042121D02*
G75*
G03*
X152543015Y-93759229I-141465J141421D01*
G01*
X150801115Y-94562920D02*
G75*
G03*
X150801095Y-94280060I-141415J141420D01*
G01*
X152260179Y-94042067D02*
G75*
G03*
X152543015Y-94042073I141421J141367D01*
G01*
G04 #@! TO.N,/WFD7*
X149196000Y-96272000D02*
X149196000Y-97057399D01*
X146396000Y-97057399D02*
X146396000Y-96472000D01*
X146396000Y-96472000D02*
X146396000Y-95986594D01*
X145996000Y-96472000D02*
X145996000Y-97057399D01*
X147996000Y-96272000D02*
X147996000Y-95986594D01*
X149596000Y-97057399D02*
X149596000Y-96472000D01*
X147996000Y-97057425D02*
X147996000Y-96272000D01*
X147596000Y-96272000D02*
X147596000Y-97057425D01*
X148396000Y-96272000D02*
X148396000Y-97057399D01*
X148796000Y-97057399D02*
X148796000Y-96272000D01*
X144463500Y-96272000D02*
X145796000Y-96272000D01*
X147196000Y-96272000D02*
X147196000Y-95986594D01*
X147596000Y-95986594D02*
X147596000Y-96272000D01*
X146796000Y-96272000D02*
X146796000Y-97057399D01*
X147196000Y-97057399D02*
X147196000Y-96272000D01*
X146796000Y-95986594D02*
X146796000Y-96272000D01*
X149196000Y-95986571D02*
X149196000Y-96272000D01*
X149796000Y-96272000D02*
X150472258Y-96272000D01*
X151124000Y-96272000D02*
X154178000Y-93218000D01*
X148796000Y-96272000D02*
X148796000Y-95986571D01*
X148396000Y-95986594D02*
X148396000Y-96272000D01*
X150472258Y-96272000D02*
X151124000Y-96272000D01*
X149196029Y-95986571D02*
G75*
G03*
X148996000Y-95786571I-200029J-29D01*
G01*
X147595975Y-97057425D02*
G75*
G03*
X147796000Y-97257425I200025J25D01*
G01*
X148996000Y-95786600D02*
G75*
G03*
X148796000Y-95986571I0J-200000D01*
G01*
X147596006Y-95986594D02*
G75*
G03*
X147396000Y-95786594I-200006J-6D01*
G01*
X149396000Y-97257400D02*
G75*
G03*
X149596000Y-97057399I0J200000D01*
G01*
X148196000Y-95786600D02*
G75*
G03*
X147996000Y-95986594I0J-200000D01*
G01*
X149796000Y-96272000D02*
G75*
G03*
X149596000Y-96472000I0J-200000D01*
G01*
X147796000Y-97257400D02*
G75*
G03*
X147996000Y-97057425I0J200000D01*
G01*
X147396000Y-95786600D02*
G75*
G03*
X147196000Y-95986594I0J-200000D01*
G01*
X148396001Y-97057399D02*
G75*
G03*
X148596000Y-97257399I199999J-1D01*
G01*
X148596000Y-97257400D02*
G75*
G03*
X148796000Y-97057399I0J200000D01*
G01*
X149196001Y-97057399D02*
G75*
G03*
X149396000Y-97257399I199999J-1D01*
G01*
X145996000Y-96472000D02*
G75*
G03*
X145796000Y-96272000I-200000J0D01*
G01*
X145996001Y-97057399D02*
G75*
G03*
X146196000Y-97257399I199999J-1D01*
G01*
X148396006Y-95986594D02*
G75*
G03*
X148196000Y-95786594I-200006J-6D01*
G01*
X146996000Y-97257400D02*
G75*
G03*
X147196000Y-97057399I0J200000D01*
G01*
X146196000Y-97257400D02*
G75*
G03*
X146396000Y-97057399I0J200000D01*
G01*
X146596000Y-95786600D02*
G75*
G03*
X146396000Y-95986594I0J-200000D01*
G01*
X146796006Y-95986594D02*
G75*
G03*
X146596000Y-95786594I-200006J-6D01*
G01*
X146796001Y-97057399D02*
G75*
G03*
X146996000Y-97257399I199999J-1D01*
G01*
G04 #@! TO.N,/WFD8*
X150108883Y-98927883D02*
X149886290Y-99150475D01*
X150108881Y-98927881D02*
X150108883Y-98927883D01*
X151346318Y-100165318D02*
X151346317Y-100165318D01*
X150239843Y-99504027D02*
X150239843Y-99504028D01*
X151427491Y-99023483D02*
X151427493Y-99023484D01*
X152146000Y-105664000D02*
X152770000Y-106288000D01*
X150770194Y-100387889D02*
X150992764Y-100165318D01*
X150416642Y-100387889D02*
X150416641Y-100387889D01*
X149568101Y-98761557D02*
X150366832Y-97962823D01*
X150720387Y-98316378D02*
X150108881Y-98927881D01*
X144463500Y-97663000D02*
X148844000Y-97663000D01*
X148844000Y-97663000D02*
X149225000Y-98044000D01*
X149214549Y-98761557D02*
X149214548Y-98761557D01*
X152770000Y-106288000D02*
X154178000Y-106288000D01*
X149568101Y-98761556D02*
X149568101Y-98761557D01*
X149886291Y-99504028D02*
X149886290Y-99504028D01*
X150720385Y-98316377D02*
X150720387Y-98316378D01*
X149225000Y-98397553D02*
X149214548Y-98408004D01*
X149224999Y-98397553D02*
X149225000Y-98397553D01*
X150239843Y-99504028D02*
X151073938Y-98669929D01*
X150720388Y-97962825D02*
X150720386Y-97962824D01*
X150815987Y-99634987D02*
X150815989Y-99634989D01*
X150815989Y-99634989D02*
X150416641Y-100034336D01*
X151427493Y-99023484D02*
X150815987Y-99634987D01*
X152146000Y-100965000D02*
X152146000Y-105664000D01*
X150770194Y-100387888D02*
X150770194Y-100387889D01*
X151427494Y-98669931D02*
X151427492Y-98669930D01*
X151346317Y-100165318D02*
X152146000Y-100965000D01*
X150720379Y-97962834D02*
G75*
G03*
X150366832Y-97962823I-176779J-176766D01*
G01*
X151427485Y-99023477D02*
G75*
G03*
X151427492Y-98669930I-176785J176777D01*
G01*
X151427479Y-98669946D02*
G75*
G03*
X151073938Y-98669929I-176779J-176754D01*
G01*
X150720385Y-98316377D02*
G75*
G03*
X150720386Y-97962824I-176785J176777D01*
G01*
X149886339Y-99150524D02*
G75*
G03*
X149886291Y-99504028I176761J-176776D01*
G01*
X149214569Y-98408025D02*
G75*
G03*
X149214550Y-98761556I176731J-176775D01*
G01*
X150416624Y-100387906D02*
G75*
G03*
X150770194Y-100387888I176776J176806D01*
G01*
X151346318Y-100165318D02*
G75*
G03*
X150992764Y-100165318I-176777J-176778D01*
G01*
X149886324Y-99503994D02*
G75*
G03*
X150239843Y-99504027I176776J176694D01*
G01*
X149225022Y-98397576D02*
G75*
G03*
X149224999Y-98044001I-176822J176776D01*
G01*
X149214524Y-98761581D02*
G75*
G03*
X149568101Y-98761556I176776J176781D01*
G01*
X150416629Y-100034324D02*
G75*
G03*
X150416642Y-100387889I176771J-176776D01*
G01*
G04 #@! TO.N,/WFD9*
X152654000Y-107569000D02*
X155437000Y-107569000D01*
X147358000Y-98463000D02*
X147828000Y-98933000D01*
X149895514Y-100365659D02*
X149895515Y-100365658D01*
X148553544Y-100540905D02*
X148553545Y-100540905D01*
X149895515Y-100365658D02*
X149772540Y-100488630D01*
X149895516Y-99976751D02*
X149895515Y-99976750D01*
X148164650Y-99763073D02*
X148164649Y-99763074D01*
X149117705Y-99587835D02*
X149117706Y-99587834D01*
X147775742Y-99763075D02*
X147775741Y-99763074D01*
X148942454Y-100540904D02*
X148942453Y-100540905D01*
X149117706Y-99587834D02*
X148553545Y-100151996D01*
X151511000Y-106426000D02*
X152654000Y-107569000D01*
X148164649Y-99763074D02*
X148728796Y-99198925D01*
X148942453Y-100540905D02*
X149506605Y-99976748D01*
X149772541Y-100877540D02*
X151511000Y-102616000D01*
X149772539Y-100877539D02*
X149772541Y-100877540D01*
X155437000Y-107569000D02*
X156718000Y-106288000D01*
X144463500Y-98463000D02*
X147358000Y-98463000D01*
X149117707Y-99198926D02*
X149117706Y-99198926D01*
X147828000Y-99321908D02*
X147775741Y-99374166D01*
X151511000Y-102616000D02*
X151511000Y-106426000D01*
X147827999Y-99321909D02*
X147828000Y-99321908D01*
X147828045Y-99321955D02*
G75*
G03*
X147828000Y-98933000I-194545J194455D01*
G01*
X148553547Y-100540903D02*
G75*
G03*
X148942453Y-100540903I194453J194503D01*
G01*
X149117756Y-99198877D02*
G75*
G03*
X148728796Y-99198925I-194456J-194523D01*
G01*
X149117725Y-99587855D02*
G75*
G03*
X149117706Y-99198926I-194425J194455D01*
G01*
X149772556Y-100488646D02*
G75*
G03*
X149772540Y-100877538I194444J-194454D01*
G01*
X149895510Y-100365655D02*
G75*
G03*
X149895515Y-99976750I-194410J194455D01*
G01*
X147775721Y-99374146D02*
G75*
G03*
X147775742Y-99763075I194479J-194454D01*
G01*
X148553594Y-100152045D02*
G75*
G03*
X148553544Y-100540905I194406J-194455D01*
G01*
X149895557Y-99976710D02*
G75*
G03*
X149506605Y-99976748I-194457J-194490D01*
G01*
X147775746Y-99763069D02*
G75*
G03*
X148164650Y-99763073I194454J194469D01*
G01*
G04 #@! TO.N,/WFD10*
X150749000Y-106098000D02*
X150929780Y-106098000D01*
X151754000Y-108828000D02*
X154178000Y-108828000D01*
X150287052Y-102067525D02*
X150287053Y-102067524D01*
X150929780Y-106698000D02*
X150929779Y-106698000D01*
X149084971Y-102703921D02*
X150004209Y-101784680D01*
X149721370Y-101501841D02*
X148802129Y-102421078D01*
X151110559Y-106278779D02*
X151110559Y-106517221D01*
X148590000Y-101501842D02*
X148519289Y-101572552D01*
X150929774Y-104828774D02*
X150929775Y-104828774D01*
X150749000Y-107823000D02*
X151754000Y-108828000D01*
X144463500Y-99263000D02*
X146634000Y-99263000D01*
X148589999Y-101501843D02*
X148590000Y-101501842D01*
X150929775Y-105498000D02*
X150929774Y-105498000D01*
X150368523Y-105688238D02*
X150368523Y-105907762D01*
X150558761Y-106098000D02*
X150749000Y-106098000D01*
X150004210Y-102633209D02*
X150749000Y-103378000D01*
X146634000Y-99263000D02*
X148590000Y-101219000D01*
X148802132Y-101855394D02*
X148802131Y-101855395D01*
X149084972Y-102703920D02*
X149084971Y-102703921D01*
X148802131Y-101855395D02*
X149438526Y-101218997D01*
X150929774Y-105498000D02*
X150558761Y-105498000D01*
X148802128Y-102703921D02*
X148802129Y-102703921D01*
X148519288Y-101855395D02*
X148519289Y-101855395D01*
X150749000Y-106878779D02*
X150749000Y-107048000D01*
X150287053Y-102067524D02*
X150004209Y-102350365D01*
X149721371Y-101219000D02*
X149721370Y-101218999D01*
X150287054Y-101784683D02*
X150287053Y-101784682D01*
X150004208Y-102633208D02*
X150004210Y-102633209D01*
X150749000Y-103378000D02*
X150749000Y-104648000D01*
X149721369Y-101501842D02*
X149721370Y-101501841D01*
X151110549Y-105009548D02*
X151110549Y-105317226D01*
X150749000Y-107048000D02*
X150749000Y-107823000D01*
X150929780Y-106697959D02*
G75*
G03*
X151110559Y-106517221I20J180759D01*
G01*
X151110526Y-105009548D02*
G75*
G03*
X150929775Y-104828774I-180726J48D01*
G01*
X148589977Y-101501821D02*
G75*
G03*
X148589999Y-101219001I-141377J141421D01*
G01*
X149721349Y-101501822D02*
G75*
G03*
X149721370Y-101218999I-141449J141422D01*
G01*
X149721324Y-101219047D02*
G75*
G03*
X149438526Y-101218997I-141424J-141353D01*
G01*
X150287024Y-101784713D02*
G75*
G03*
X150004209Y-101784680I-141424J-141387D01*
G01*
X150749026Y-104648000D02*
G75*
G03*
X150929774Y-104828774I180774J0D01*
G01*
X150287049Y-102067522D02*
G75*
G03*
X150287053Y-101784682I-141449J141422D01*
G01*
X150558761Y-105497923D02*
G75*
G03*
X150368523Y-105688238I39J-190277D01*
G01*
X150368600Y-105907762D02*
G75*
G03*
X150558761Y-106098000I190200J-38D01*
G01*
X150004223Y-102350379D02*
G75*
G03*
X150004209Y-102633207I141377J-141421D01*
G01*
X148802129Y-102421078D02*
G75*
G03*
X148802128Y-102703921I141471J-141422D01*
G01*
X148802080Y-102703970D02*
G75*
G03*
X149084971Y-102703919I141420J141470D01*
G01*
X151110600Y-106278779D02*
G75*
G03*
X150929780Y-106098000I-180800J-21D01*
G01*
X150929775Y-105497949D02*
G75*
G03*
X151110549Y-105317226I25J180749D01*
G01*
X148519316Y-101572579D02*
G75*
G03*
X148519289Y-101855394I141384J-141421D01*
G01*
X148519279Y-101855405D02*
G75*
G03*
X148802132Y-101855394I141421J141405D01*
G01*
X150929779Y-106698000D02*
G75*
G03*
X150749000Y-106878779I21J-180800D01*
G01*
G04 #@! TO.N,/WFD11*
X148367632Y-102647633D02*
X149987000Y-104267000D01*
X147890857Y-102735501D02*
X147978724Y-102647633D01*
X147113099Y-101957624D02*
X147113098Y-101957625D01*
X145783000Y-100063000D02*
X146812000Y-101092000D01*
X148367633Y-102647634D02*
X148367632Y-102647633D01*
X148137302Y-101322331D02*
X148137302Y-101322330D01*
X144463500Y-100063000D02*
X145783000Y-100063000D01*
X148137302Y-101711238D02*
X147501949Y-102346592D01*
X155437000Y-110109000D02*
X156718000Y-108828000D01*
X149987000Y-104267000D02*
X149987000Y-108966000D01*
X147113098Y-101957625D02*
X147748392Y-101322329D01*
X146724191Y-101957626D02*
X146724190Y-101957625D01*
X146812000Y-101480908D02*
X146724190Y-101568717D01*
X151130000Y-110109000D02*
X155437000Y-110109000D01*
X149987000Y-108966000D02*
X151130000Y-110109000D01*
X146811999Y-101480909D02*
X146812000Y-101480908D01*
X147501949Y-102735500D02*
X147501949Y-102735501D01*
X148137301Y-101711239D02*
X148137302Y-101711238D01*
X147890858Y-102735500D02*
X147890857Y-102735501D01*
X148367655Y-102647612D02*
G75*
G03*
X147978724Y-102647633I-194455J-194488D01*
G01*
X146724146Y-101957669D02*
G75*
G03*
X147113099Y-101957624I194454J194469D01*
G01*
X148137255Y-101322378D02*
G75*
G03*
X147748393Y-101322330I-194455J-194422D01*
G01*
X147501947Y-102735503D02*
G75*
G03*
X147890857Y-102735499I194453J194503D01*
G01*
X148137316Y-101711254D02*
G75*
G03*
X148137301Y-101322331I-194516J194454D01*
G01*
X146812045Y-101480955D02*
G75*
G03*
X146812000Y-101092000I-194545J194455D01*
G01*
X147501904Y-102346547D02*
G75*
G03*
X147501950Y-102735499I194496J-194453D01*
G01*
X146724220Y-101568747D02*
G75*
G03*
X146724192Y-101957625I194380J-194453D01*
G01*
G04 #@! TO.N,/WFD12*
X149006549Y-108455000D02*
X149352000Y-108455000D01*
X149492278Y-108055000D02*
X149352000Y-108055000D01*
X149632556Y-108595278D02*
X149632556Y-108714722D01*
X149621549Y-106949548D02*
X149621549Y-107120226D01*
X149352000Y-110109000D02*
X149670198Y-110427198D01*
X149006549Y-107655000D02*
X149352000Y-107655000D01*
X150235882Y-110992882D02*
X150235881Y-110992881D01*
X149670197Y-110710041D02*
X149670198Y-110710040D01*
X149352000Y-105156000D02*
X149352000Y-106680000D01*
X149352000Y-109855000D02*
X149352000Y-110109000D01*
X149632556Y-107795278D02*
X149632556Y-107914722D01*
X149352000Y-107655000D02*
X149492278Y-107655000D01*
X149352000Y-109255000D02*
X149747450Y-109255000D01*
X149486774Y-107255000D02*
X149006549Y-107255000D01*
X145669000Y-101473000D02*
X149352000Y-105156000D01*
X150235881Y-110992881D02*
X150611000Y-111368000D01*
X149638050Y-111307871D02*
X149953039Y-110992881D01*
X149352000Y-108855000D02*
X149006548Y-108855000D01*
X149638051Y-111307870D02*
X149638050Y-111307871D01*
X144463500Y-101473000D02*
X145669000Y-101473000D01*
X149006548Y-109255000D02*
X149352000Y-109255000D01*
X149352000Y-108055000D02*
X149006549Y-108055000D01*
X149670198Y-110710040D02*
X149355208Y-111025029D01*
X149747450Y-109655000D02*
X149552000Y-109655000D01*
X149352000Y-108455000D02*
X149492278Y-108455000D01*
X149486774Y-106814774D02*
X149486775Y-106814774D01*
X149492278Y-108855000D02*
X149352000Y-108855000D01*
X149486775Y-107255000D02*
X149486774Y-107255000D01*
X150611000Y-111368000D02*
X154178000Y-111368000D01*
X149355209Y-111307872D02*
X149355208Y-111307871D01*
X149352026Y-106680000D02*
G75*
G03*
X149486774Y-106814774I134774J0D01*
G01*
X149006548Y-108855048D02*
G75*
G03*
X148806548Y-109055000I-48J-199952D01*
G01*
X149747450Y-109655050D02*
G75*
G03*
X149947450Y-109455000I-50J200050D01*
G01*
X149006549Y-107254949D02*
G75*
G03*
X148806549Y-107455000I51J-200051D01*
G01*
X148806500Y-109055000D02*
G75*
G03*
X149006548Y-109255000I200000J0D01*
G01*
X149670177Y-110710021D02*
G75*
G03*
X149670197Y-110427199I-141377J141421D01*
G01*
X149632600Y-108595278D02*
G75*
G03*
X149492278Y-108455000I-140300J-22D01*
G01*
X149621526Y-106949548D02*
G75*
G03*
X149486775Y-106814774I-134726J48D01*
G01*
X148806600Y-108255000D02*
G75*
G03*
X149006549Y-108455000I200000J0D01*
G01*
X149552000Y-109655000D02*
G75*
G03*
X149352000Y-109855000I0J-200000D01*
G01*
X149355179Y-111307900D02*
G75*
G03*
X149638051Y-111307870I141421J141500D01*
G01*
X149492278Y-108054956D02*
G75*
G03*
X149632556Y-107914722I22J140256D01*
G01*
X149006549Y-108054949D02*
G75*
G03*
X148806549Y-108255000I51J-200051D01*
G01*
X149947400Y-109455000D02*
G75*
G03*
X149747450Y-109255000I-200000J0D01*
G01*
X149486775Y-107254949D02*
G75*
G03*
X149621549Y-107120226I25J134749D01*
G01*
X148806600Y-107455000D02*
G75*
G03*
X149006549Y-107655000I200000J0D01*
G01*
X149355158Y-111024979D02*
G75*
G03*
X149355209Y-111307872I141442J-141421D01*
G01*
X150235922Y-110992842D02*
G75*
G03*
X149953039Y-110992881I-141422J-141458D01*
G01*
X149492278Y-108854956D02*
G75*
G03*
X149632556Y-108714722I22J140256D01*
G01*
X149632600Y-107795278D02*
G75*
G03*
X149492278Y-107655000I-140300J-22D01*
G01*
G04 #@! TO.N,/WFD13*
X151281000Y-112076350D02*
X151281000Y-112349000D01*
X150455801Y-112649000D02*
X150241000Y-112649000D01*
X150241000Y-112649000D02*
X148463000Y-110871000D01*
X148463000Y-105410000D02*
X145326000Y-102273000D01*
X151881000Y-112949000D02*
X151881000Y-112076350D01*
X148463000Y-110871000D02*
X148463000Y-105410000D01*
X151881000Y-113221651D02*
X151881000Y-112949000D01*
X156718000Y-111368000D02*
X155437000Y-112649000D01*
X150981000Y-112649000D02*
X150455801Y-112649000D01*
X152481000Y-112949000D02*
X152481000Y-113221651D01*
X145326000Y-102273000D02*
X144463500Y-102273000D01*
X155437000Y-112649000D02*
X152781000Y-112649000D01*
X151881050Y-112076350D02*
G75*
G03*
X151581000Y-111776350I-300050J-50D01*
G01*
X152181000Y-113521700D02*
G75*
G03*
X152481000Y-113221651I0J300000D01*
G01*
X150981000Y-112649000D02*
G75*
G03*
X151281000Y-112349000I0J300000D01*
G01*
X152781000Y-112649000D02*
G75*
G03*
X152481000Y-112949000I0J-300000D01*
G01*
X151881049Y-113221651D02*
G75*
G03*
X152181000Y-113521651I299951J-49D01*
G01*
X151581000Y-111776400D02*
G75*
G03*
X151281000Y-112076350I0J-300000D01*
G01*
G04 #@! TO.N,/WFCLK*
X148674262Y-111877634D02*
X148309949Y-112241948D01*
X146604843Y-110474000D02*
X147120000Y-110474000D01*
X148674261Y-111877635D02*
X148674262Y-111877634D01*
X147238581Y-112464790D02*
X147238580Y-112464789D01*
X147520000Y-109674000D02*
X147885162Y-109674000D01*
X147521422Y-112464789D02*
X148391418Y-111594791D01*
X148087087Y-113030490D02*
X148087086Y-113030491D01*
X147521423Y-112464788D02*
X147521422Y-112464789D01*
X147804245Y-113030492D02*
X147804244Y-113030491D01*
X147602842Y-111252000D02*
X147825690Y-111029153D01*
X147520000Y-110074000D02*
X146604843Y-110074000D01*
X147885162Y-110074000D02*
X147520000Y-110074000D01*
X148108531Y-111311995D02*
X148108532Y-111311994D01*
X148734209Y-112666209D02*
X148734209Y-112666210D01*
X148108532Y-111311994D02*
X147238580Y-112181947D01*
X148674262Y-111594793D02*
X148674262Y-111594792D01*
X148309949Y-112241948D02*
X148309947Y-112241947D01*
X147320000Y-110674000D02*
X147320000Y-111252000D01*
X145288000Y-106299000D02*
X147320000Y-108331000D01*
X148734209Y-112666210D02*
X149976000Y-113908000D01*
X148087086Y-113030491D02*
X148451366Y-112666210D01*
X144549500Y-106299000D02*
X145288000Y-106299000D01*
X149976000Y-113908000D02*
X154178000Y-113908000D01*
X147320000Y-108331000D02*
X147320000Y-109474000D01*
X148108532Y-111029153D02*
X148108532Y-111029152D01*
X147602843Y-111251999D02*
X147602842Y-111252000D01*
X148309947Y-112241947D02*
X147804244Y-112747649D01*
X147319979Y-111252021D02*
G75*
G03*
X147602843Y-111251999I141421J141421D01*
G01*
X148674248Y-111877622D02*
G75*
G03*
X148674262Y-111594792I-141448J141422D01*
G01*
X148674223Y-111594832D02*
G75*
G03*
X148391418Y-111594791I-141423J-141368D01*
G01*
X147238579Y-112464790D02*
G75*
G03*
X147521423Y-112464788I141421J141390D01*
G01*
X147320000Y-109474000D02*
G75*
G03*
X147520000Y-109674000I200000J0D01*
G01*
X147804274Y-112747679D02*
G75*
G03*
X147804245Y-113030492I141426J-141421D01*
G01*
X146604843Y-110074043D02*
G75*
G03*
X146404843Y-110274000I-43J-199957D01*
G01*
X148108532Y-111029153D02*
G75*
G03*
X147825690Y-111029153I-141421J-141419D01*
G01*
X147885162Y-110073962D02*
G75*
G03*
X148085162Y-109874000I38J199962D01*
G01*
X147238612Y-112181979D02*
G75*
G03*
X147238581Y-112464790I141388J-141421D01*
G01*
X148108558Y-111312022D02*
G75*
G03*
X148108532Y-111029152I-141458J141422D01*
G01*
X146404800Y-110274000D02*
G75*
G03*
X146604843Y-110474000I200000J0D01*
G01*
X147804279Y-113030456D02*
G75*
G03*
X148087087Y-113030490I141421J141356D01*
G01*
X147320000Y-110674000D02*
G75*
G03*
X147120000Y-110474000I-200000J0D01*
G01*
X148734220Y-112666198D02*
G75*
G03*
X148451367Y-112666211I-141420J-141402D01*
G01*
X148085200Y-109874000D02*
G75*
G03*
X147885162Y-109674000I-200000J0D01*
G01*
D26*
G04 #@! TO.N,Net-(J3-Pin_1)*
X121159900Y-95504000D02*
X121617100Y-95961200D01*
X119294500Y-95504000D02*
X115570000Y-95504000D01*
X114300000Y-94234000D02*
X114300000Y-91440000D01*
X121617100Y-95961200D02*
X121617100Y-97180400D01*
X121617100Y-97180400D02*
X120857000Y-97940500D01*
X120857000Y-97940500D02*
X120857000Y-99822000D01*
X119294500Y-95504000D02*
X121159900Y-95504000D01*
X115570000Y-95504000D02*
X114300000Y-94234000D01*
G04 #@! TO.N,Net-(U1-REFLO)*
X132242000Y-92691000D02*
X130767500Y-92691000D01*
X130767500Y-92691000D02*
X129897500Y-91821000D01*
X129897500Y-91821000D02*
X129159000Y-91821000D01*
G04 #@! TO.N,Net-(U1-MODE)*
X131202000Y-98541000D02*
X132242000Y-98541000D01*
X129182500Y-100560500D02*
X131202000Y-98541000D01*
X129182500Y-100584000D02*
X129182500Y-100560500D01*
G04 #@! TO.N,Net-(U1-FS_ADJ)*
X133430000Y-87907500D02*
X131929500Y-87907500D01*
X132242000Y-93991000D02*
X134482000Y-93991000D01*
X134482000Y-93991000D02*
X135097500Y-93375500D01*
X135097500Y-87386000D02*
X133951500Y-87386000D01*
X135097500Y-93375500D02*
X135097500Y-87386000D01*
X133951500Y-87386000D02*
X133430000Y-87907500D01*
G04 #@! TO.N,Net-(U2--)*
X122658500Y-97155000D02*
X122658500Y-99798500D01*
X123039500Y-96774000D02*
X122658500Y-97155000D01*
X124244500Y-96774000D02*
X127207000Y-96774000D01*
X127207000Y-96774000D02*
X127334000Y-96901000D01*
X124244500Y-96774000D02*
X123039500Y-96774000D01*
X122658500Y-99798500D02*
X122682000Y-99822000D01*
G04 #@! TO.N,Net-(U2-+)*
X122912500Y-94869000D02*
X122912500Y-92352500D01*
X122912500Y-92352500D02*
X122889000Y-92329000D01*
X124244500Y-95504000D02*
X123547500Y-95504000D01*
X120650000Y-92329000D02*
X122889000Y-92329000D01*
X123547500Y-95504000D02*
X122912500Y-94869000D01*
X124244500Y-95504000D02*
X127207000Y-95504000D01*
X127207000Y-95504000D02*
X127334000Y-95377000D01*
D29*
G04 #@! TO.N,Net-(RN1-R1.1)*
X141200500Y-90043000D02*
X142763500Y-90043000D01*
X139202500Y-92041000D02*
X141200500Y-90043000D01*
X137967000Y-92041000D02*
X139202500Y-92041000D01*
G04 #@! TO.N,Net-(RN1-R2.1)*
X137967000Y-92691000D02*
X139822500Y-92691000D01*
X141670500Y-90843000D02*
X142763500Y-90843000D01*
X139822500Y-92691000D02*
X141670500Y-90843000D01*
G04 #@! TO.N,Net-(RN1-R3.1)*
X141632500Y-91643000D02*
X142763500Y-91643000D01*
X137967000Y-93341000D02*
X139934500Y-93341000D01*
X139934500Y-93341000D02*
X141632500Y-91643000D01*
G04 #@! TO.N,Net-(RN1-R4.1)*
X140300500Y-93991000D02*
X141848500Y-92443000D01*
X137967000Y-93991000D02*
X140300500Y-93991000D01*
X141848500Y-92443000D02*
X142763500Y-92443000D01*
G04 #@! TO.N,Net-(RN2-R1.1)*
X141689500Y-93872000D02*
X142763500Y-93872000D01*
X140068500Y-94641000D02*
X140368500Y-94641000D01*
X140368500Y-94641000D02*
X140920500Y-94641000D01*
X139468500Y-94341000D02*
X139768500Y-94341000D01*
X137967000Y-94641000D02*
X139168500Y-94641000D01*
X140920500Y-94641000D02*
X141689500Y-93872000D01*
X139468500Y-94341000D02*
G75*
G03*
X139318500Y-94491000I0J-150000D01*
G01*
X139918500Y-94491000D02*
G75*
G03*
X139768500Y-94341000I-150000J0D01*
G01*
X139918500Y-94491000D02*
G75*
G03*
X140068500Y-94641000I150000J0D01*
G01*
X139168500Y-94641000D02*
G75*
G03*
X139318500Y-94491000I0J150000D01*
G01*
G04 #@! TO.N,Net-(RN2-R2.1)*
X141905500Y-94672000D02*
X142763500Y-94672000D01*
X139468500Y-94991000D02*
X139768500Y-94991000D01*
X137967000Y-95291000D02*
X139168500Y-95291000D01*
X140068500Y-95291000D02*
X140368500Y-95291000D01*
X141286500Y-95291000D02*
X141905500Y-94672000D01*
X140368500Y-95291000D02*
X141286500Y-95291000D01*
X139918500Y-95141000D02*
G75*
G03*
X140068500Y-95291000I150000J0D01*
G01*
X139168500Y-95291000D02*
G75*
G03*
X139318500Y-95141000I0J150000D01*
G01*
X139918500Y-95141000D02*
G75*
G03*
X139768500Y-94991000I-150000J0D01*
G01*
X139468500Y-94991000D02*
G75*
G03*
X139318500Y-95141000I0J-150000D01*
G01*
G04 #@! TO.N,Net-(RN2-R3.1)*
X141235350Y-95941000D02*
X141568500Y-95941000D01*
X142121500Y-95472000D02*
X142763500Y-95472000D01*
X141652500Y-95941000D02*
X142121500Y-95472000D01*
X140035350Y-95941000D02*
X140368500Y-95941000D01*
X139301925Y-95807575D02*
X139301925Y-95807574D01*
X141568500Y-95941000D02*
X141652500Y-95941000D01*
X137967000Y-95941000D02*
X139168500Y-95941000D01*
X139435350Y-95674149D02*
X139768500Y-95674149D01*
X140501925Y-95807575D02*
X140501925Y-95807574D01*
X141101925Y-95807574D02*
X141101925Y-95807575D01*
X140635350Y-95674149D02*
X140968500Y-95674149D01*
X139901925Y-95807574D02*
X139901925Y-95807575D01*
X139435350Y-95674225D02*
G75*
G03*
X139301925Y-95807574I-50J-133375D01*
G01*
X139168500Y-95941025D02*
G75*
G03*
X139301925Y-95807575I0J133425D01*
G01*
X139901951Y-95807574D02*
G75*
G03*
X139768500Y-95674149I-133451J-26D01*
G01*
X141101900Y-95807575D02*
G75*
G03*
X141235350Y-95941000I133400J-25D01*
G01*
X140368500Y-95941025D02*
G75*
G03*
X140501925Y-95807575I0J133425D01*
G01*
X141101951Y-95807574D02*
G75*
G03*
X140968500Y-95674149I-133451J-26D01*
G01*
X139901900Y-95807575D02*
G75*
G03*
X140035350Y-95941000I133400J-25D01*
G01*
X140635350Y-95674225D02*
G75*
G03*
X140501925Y-95807574I-50J-133375D01*
G01*
G04 #@! TO.N,Net-(RN2-R4.1)*
X141764500Y-96591000D02*
X142083500Y-96272000D01*
X139915524Y-96443975D02*
X139915524Y-96443976D01*
X141568500Y-96591000D02*
X141764500Y-96591000D01*
X140662586Y-96296914D02*
X140968500Y-96296914D01*
X140062548Y-96591000D02*
X140368500Y-96591000D01*
X139315524Y-96443976D02*
X139315524Y-96443975D01*
X141262586Y-96591000D02*
X141568500Y-96591000D01*
X137967000Y-96591000D02*
X139168500Y-96591000D01*
X142083500Y-96272000D02*
X142763500Y-96272000D01*
X139462548Y-96296951D02*
X139768500Y-96296951D01*
X140368500Y-96591043D02*
G75*
G03*
X140515543Y-96443957I0J147043D01*
G01*
X139915500Y-96443976D02*
G75*
G03*
X140062548Y-96591000I147000J-24D01*
G01*
X139462548Y-96297024D02*
G75*
G03*
X139315524Y-96443975I-48J-146976D01*
G01*
X141115600Y-96443957D02*
G75*
G03*
X141262586Y-96591000I147000J-43D01*
G01*
X141115586Y-96443957D02*
G75*
G03*
X140968500Y-96296914I-147086J-43D01*
G01*
X139168500Y-96591024D02*
G75*
G03*
X139315524Y-96443976I0J147024D01*
G01*
X140662586Y-96296943D02*
G75*
G03*
X140515543Y-96443957I14J-147057D01*
G01*
X139915549Y-96443975D02*
G75*
G03*
X139768500Y-96296951I-147049J-25D01*
G01*
G04 #@! TO.N,Net-(RN3-R1.1)*
X140495500Y-97241000D02*
X141794500Y-97241000D01*
X140195500Y-97241000D02*
X140495500Y-97241000D01*
X141794500Y-97241000D02*
X142216500Y-97663000D01*
X142216500Y-97663000D02*
X142763500Y-97663000D01*
X139595500Y-96941000D02*
X139895500Y-96941000D01*
X137967000Y-97241000D02*
X139295500Y-97241000D01*
X140045500Y-97091000D02*
G75*
G03*
X139895500Y-96941000I-150000J0D01*
G01*
X139295500Y-97241000D02*
G75*
G03*
X139445500Y-97091000I0J150000D01*
G01*
X140045500Y-97091000D02*
G75*
G03*
X140195500Y-97241000I150000J0D01*
G01*
X139595500Y-96941000D02*
G75*
G03*
X139445500Y-97091000I0J-150000D01*
G01*
G04 #@! TO.N,Net-(RN3-R2.1)*
X141047500Y-97891000D02*
X141619500Y-98463000D01*
X139377352Y-98099852D02*
X139714074Y-98099852D01*
X141619500Y-98463000D02*
X142763500Y-98463000D01*
X140422936Y-97891000D02*
X140668500Y-97891000D01*
X139818500Y-97995426D02*
X139818500Y-97891000D01*
X139922936Y-97682127D02*
X140214064Y-97682127D01*
X137967000Y-97891000D02*
X139168500Y-97891000D01*
X139818500Y-97891000D02*
X139818500Y-97786563D01*
X140668500Y-97891000D02*
X141047500Y-97891000D01*
X140318500Y-97786563D02*
X140318500Y-97786564D01*
X139714074Y-98099800D02*
G75*
G03*
X139818500Y-97995426I26J104400D01*
G01*
X139272900Y-97995426D02*
G75*
G03*
X139168500Y-97891000I-104400J26D01*
G01*
X139272948Y-97995426D02*
G75*
G03*
X139377352Y-98099852I104452J26D01*
G01*
X140318573Y-97786563D02*
G75*
G03*
X140214064Y-97682127I-104473J-37D01*
G01*
X139922936Y-97682200D02*
G75*
G03*
X139818500Y-97786563I-36J-104400D01*
G01*
X140318500Y-97786564D02*
G75*
G03*
X140422936Y-97891000I104400J-36D01*
G01*
G04 #@! TO.N,Net-(RN3-R3.1)*
X137967000Y-98541000D02*
X139041500Y-98541000D01*
X139341500Y-98841000D02*
X139491500Y-98841000D01*
X139791500Y-98541000D02*
X139941500Y-98541000D01*
X139941500Y-98541000D02*
X140554500Y-98541000D01*
X140554500Y-98541000D02*
X141276500Y-99263000D01*
X141276500Y-99263000D02*
X142763500Y-99263000D01*
X139791500Y-98541000D02*
G75*
G03*
X139641500Y-98691000I0J-150000D01*
G01*
X139191500Y-98691000D02*
G75*
G03*
X139041500Y-98541000I-150000J0D01*
G01*
X139191500Y-98691000D02*
G75*
G03*
X139341500Y-98841000I150000J0D01*
G01*
X139491500Y-98841000D02*
G75*
G03*
X139641500Y-98691000I0J150000D01*
G01*
G04 #@! TO.N,Net-(RN3-R4.1)*
X141062500Y-100063000D02*
X140552500Y-100063000D01*
X141125052Y-100063000D02*
X141062500Y-100063000D01*
X141768776Y-100256724D02*
X141768776Y-100256725D01*
X140552500Y-100063000D02*
X139680500Y-99191000D01*
X141575052Y-100450449D02*
X141512500Y-100450449D01*
X142763500Y-100063000D02*
X141962500Y-100063000D01*
X139680500Y-99191000D02*
X137967000Y-99191000D01*
X141318776Y-100256725D02*
X141318776Y-100256724D01*
X141318751Y-100256725D02*
G75*
G03*
X141512500Y-100450449I193749J25D01*
G01*
X141962500Y-100062976D02*
G75*
G03*
X141768776Y-100256724I0J-193724D01*
G01*
X141318800Y-100256724D02*
G75*
G03*
X141125052Y-100063000I-193700J24D01*
G01*
X141575052Y-100450376D02*
G75*
G03*
X141768776Y-100256725I48J193676D01*
G01*
G04 #@! TO.N,Net-(RN4-R1.1)*
X139441500Y-99841000D02*
X137967000Y-99841000D01*
X142763500Y-101473000D02*
X141073500Y-101473000D01*
X141073500Y-101473000D02*
X139441500Y-99841000D01*
G04 #@! TO.N,Net-(RN4-R2.1)*
X142763500Y-102273000D02*
X140730500Y-102273000D01*
X140730500Y-102273000D02*
X138948500Y-100491000D01*
X138948500Y-100491000D02*
X137967000Y-100491000D01*
G04 #@! TO.N,Net-(U1-CLK)*
X138811000Y-101981000D02*
X135128000Y-101981000D01*
X139723500Y-103505000D02*
X139723500Y-102893500D01*
X133604000Y-100457000D02*
X132276000Y-100457000D01*
X135128000Y-101981000D02*
X133604000Y-100457000D01*
X139723500Y-102893500D02*
X138811000Y-101981000D01*
X132276000Y-100457000D02*
X132242000Y-100491000D01*
D28*
G04 #@! TO.N,Net-(X1-~{ST})*
X129346500Y-105875000D02*
X129286000Y-105814500D01*
X132461000Y-105875000D02*
X129346500Y-105875000D01*
D29*
G04 #@! TO.N,Net-(X1-OUT)*
X139192000Y-106299000D02*
X137898500Y-105005500D01*
X137898500Y-105005500D02*
X137898500Y-103505000D01*
X142724500Y-106299000D02*
X139192000Y-106299000D01*
D26*
X135001000Y-103675000D02*
X137728500Y-103675000D01*
X137728500Y-103675000D02*
X137898500Y-103505000D01*
G04 #@! TD*
G04 #@! TA.AperFunction,Conductor*
G04 #@! TO.N,GND*
G36*
X159764306Y-75518306D02*
G01*
X159981694Y-75735694D01*
X160000000Y-75779887D01*
X160000000Y-78335766D01*
X159981694Y-78379960D01*
X159937500Y-78398266D01*
X159913582Y-78393508D01*
X159888022Y-78382921D01*
X159865613Y-78374443D01*
X159865608Y-78374442D01*
X159740112Y-78353500D01*
X152679888Y-78353500D01*
X152655939Y-78354242D01*
X152531972Y-78382922D01*
X152531971Y-78382923D01*
X152487785Y-78401227D01*
X152465944Y-78411076D01*
X152465942Y-78411077D01*
X152362396Y-78485010D01*
X152145009Y-78702397D01*
X152128599Y-78719856D01*
X152128593Y-78719864D01*
X152061228Y-78827783D01*
X152061227Y-78827785D01*
X152061225Y-78827789D01*
X152042922Y-78871979D01*
X152042920Y-78871983D01*
X152034442Y-78894388D01*
X152013500Y-79019885D01*
X152013500Y-81254112D01*
X152014242Y-81278060D01*
X152042922Y-81402025D01*
X152061227Y-81446215D01*
X152071077Y-81468053D01*
X152071080Y-81468059D01*
X152145008Y-81571602D01*
X152362396Y-81788991D01*
X152373821Y-81799727D01*
X152379856Y-81805399D01*
X152420715Y-81830905D01*
X152487783Y-81872772D01*
X152531979Y-81891079D01*
X152554386Y-81899556D01*
X152554387Y-81899556D01*
X152554392Y-81899558D01*
X152679888Y-81920500D01*
X152679894Y-81920500D01*
X153169242Y-81920500D01*
X153169247Y-81920500D01*
X153281441Y-81903858D01*
X153316164Y-81893325D01*
X153325677Y-81890304D01*
X153325677Y-81890303D01*
X153325683Y-81890302D01*
X153438199Y-81830906D01*
X153496195Y-81769197D01*
X153539802Y-81749530D01*
X153541739Y-81749500D01*
X154811569Y-81749500D01*
X154855763Y-81767806D01*
X154860086Y-81772600D01*
X154873397Y-81788991D01*
X154886721Y-81805399D01*
X154927582Y-81830906D01*
X154994648Y-81872772D01*
X155038844Y-81891079D01*
X155061251Y-81899556D01*
X155061252Y-81899556D01*
X155061257Y-81899558D01*
X155186753Y-81920500D01*
X155186759Y-81920500D01*
X156296722Y-81920500D01*
X156296726Y-81920500D01*
X156353432Y-81916318D01*
X156366659Y-81914356D01*
X156371569Y-81913628D01*
X156371570Y-81913627D01*
X156371575Y-81913627D01*
X156449771Y-81893502D01*
X156560066Y-81830075D01*
X156597043Y-81799728D01*
X156631834Y-81767366D01*
X156676661Y-81750669D01*
X156679844Y-81750865D01*
X156703539Y-81752938D01*
X156717999Y-81754204D01*
X156718000Y-81754204D01*
X156759332Y-81750587D01*
X156804952Y-81764970D01*
X156813296Y-81773450D01*
X156839237Y-81805394D01*
X156839243Y-81805400D01*
X156947169Y-81872772D01*
X156991365Y-81891079D01*
X157013772Y-81899556D01*
X157013773Y-81899556D01*
X157013778Y-81899558D01*
X157139274Y-81920500D01*
X157793000Y-81920500D01*
X157837194Y-81938806D01*
X157855500Y-81983000D01*
X157855500Y-84877239D01*
X157837194Y-84921433D01*
X157793000Y-84939739D01*
X157748806Y-84921433D01*
X157741803Y-84913087D01*
X157664986Y-84803381D01*
X157512618Y-84651013D01*
X157343885Y-84532866D01*
X157336102Y-84527416D01*
X157336100Y-84527415D01*
X157336102Y-84527415D01*
X157140805Y-84436347D01*
X157140803Y-84436346D01*
X156932677Y-84380579D01*
X156932661Y-84380576D01*
X156718002Y-84361796D01*
X156717998Y-84361796D01*
X156503338Y-84380576D01*
X156503322Y-84380579D01*
X156295203Y-84436344D01*
X156295197Y-84436346D01*
X156295193Y-84436348D01*
X156260162Y-84452683D01*
X156212374Y-84454769D01*
X156189557Y-84440232D01*
X155908568Y-84159243D01*
X155906231Y-84156628D01*
X155881094Y-84125107D01*
X155832571Y-84092024D01*
X155785284Y-84057125D01*
X155785030Y-84057036D01*
X155770470Y-84049685D01*
X155770259Y-84049541D01*
X155770258Y-84049540D01*
X155770257Y-84049540D01*
X155714130Y-84032227D01*
X155681653Y-84020863D01*
X155658665Y-84012819D01*
X155658663Y-84012818D01*
X155658661Y-84012818D01*
X155658392Y-84012808D01*
X155642336Y-84010081D01*
X155642077Y-84010001D01*
X155642075Y-84010000D01*
X155642073Y-84010000D01*
X155642069Y-84010000D01*
X155583314Y-84010000D01*
X155524616Y-84007804D01*
X155524615Y-84007804D01*
X155524614Y-84007804D01*
X155524612Y-84007804D01*
X155524608Y-84007805D01*
X155524366Y-84007870D01*
X155508189Y-84010000D01*
X154719010Y-84010000D01*
X154674816Y-83991694D01*
X154656510Y-83947500D01*
X154674816Y-83903306D01*
X154689548Y-83892380D01*
X154723412Y-83874279D01*
X154723423Y-83874271D01*
X154872184Y-83752187D01*
X154872187Y-83752184D01*
X154994271Y-83603423D01*
X154994279Y-83603412D01*
X155084995Y-83433692D01*
X155140863Y-83249523D01*
X155147218Y-83185000D01*
X155748782Y-83185000D01*
X155755136Y-83249523D01*
X155811004Y-83433692D01*
X155901720Y-83603412D01*
X155901728Y-83603423D01*
X156023812Y-83752184D01*
X156023815Y-83752187D01*
X156172576Y-83874271D01*
X156172587Y-83874279D01*
X156342307Y-83964995D01*
X156526476Y-84020863D01*
X156591000Y-84027217D01*
X156591000Y-83544881D01*
X156682237Y-83558000D01*
X156753763Y-83558000D01*
X156845000Y-83544881D01*
X156845000Y-84027217D01*
X156909523Y-84020863D01*
X157093692Y-83964995D01*
X157263412Y-83874279D01*
X157263423Y-83874271D01*
X157412184Y-83752187D01*
X157412187Y-83752184D01*
X157534271Y-83603423D01*
X157534279Y-83603412D01*
X157624995Y-83433692D01*
X157680863Y-83249523D01*
X157687218Y-83185000D01*
X157201818Y-83185000D01*
X157218000Y-83129889D01*
X157218000Y-82986111D01*
X157201818Y-82931000D01*
X157687217Y-82931000D01*
X157680863Y-82866476D01*
X157624995Y-82682307D01*
X157534279Y-82512587D01*
X157534271Y-82512576D01*
X157412187Y-82363815D01*
X157412184Y-82363812D01*
X157263423Y-82241728D01*
X157263412Y-82241720D01*
X157093692Y-82151004D01*
X156909524Y-82095136D01*
X156845000Y-82088780D01*
X156845000Y-82571118D01*
X156753763Y-82558000D01*
X156682237Y-82558000D01*
X156591000Y-82571118D01*
X156591000Y-82088780D01*
X156590999Y-82088780D01*
X156526475Y-82095136D01*
X156342307Y-82151004D01*
X156172587Y-82241720D01*
X156172576Y-82241728D01*
X156023815Y-82363812D01*
X156023812Y-82363815D01*
X155901728Y-82512576D01*
X155901720Y-82512587D01*
X155811004Y-82682307D01*
X155755136Y-82866476D01*
X155748782Y-82931000D01*
X156234182Y-82931000D01*
X156218000Y-82986111D01*
X156218000Y-83129889D01*
X156234182Y-83185000D01*
X155748782Y-83185000D01*
X155147218Y-83185000D01*
X154661818Y-83185000D01*
X154678000Y-83129889D01*
X154678000Y-82986111D01*
X154661818Y-82931000D01*
X155147217Y-82931000D01*
X155140863Y-82866476D01*
X155084995Y-82682307D01*
X154994279Y-82512587D01*
X154994271Y-82512576D01*
X154872187Y-82363815D01*
X154872184Y-82363812D01*
X154723423Y-82241728D01*
X154723412Y-82241720D01*
X154553692Y-82151004D01*
X154369524Y-82095136D01*
X154305000Y-82088780D01*
X154305000Y-82571118D01*
X154213763Y-82558000D01*
X154142237Y-82558000D01*
X154051000Y-82571118D01*
X154051000Y-82088781D01*
X154050999Y-82088780D01*
X153986475Y-82095136D01*
X153802307Y-82151004D01*
X153632587Y-82241720D01*
X153632576Y-82241728D01*
X153483815Y-82363812D01*
X153483812Y-82363815D01*
X153361728Y-82512576D01*
X153361720Y-82512587D01*
X153271004Y-82682307D01*
X153215136Y-82866476D01*
X153208782Y-82931000D01*
X153694182Y-82931000D01*
X153678000Y-82986111D01*
X153678000Y-83129889D01*
X153694182Y-83185000D01*
X153208782Y-83185000D01*
X153215136Y-83249523D01*
X153271004Y-83433692D01*
X153361720Y-83603412D01*
X153361728Y-83603423D01*
X153483812Y-83752184D01*
X153483815Y-83752187D01*
X153632576Y-83874271D01*
X153632587Y-83874279D01*
X153666452Y-83892380D01*
X153696799Y-83929357D01*
X153692110Y-83976962D01*
X153655133Y-84007309D01*
X153636990Y-84010000D01*
X150902742Y-84010000D01*
X150899240Y-84009803D01*
X150859173Y-84005289D01*
X150801456Y-84016209D01*
X150743351Y-84024967D01*
X150743109Y-84025084D01*
X150727632Y-84030177D01*
X150727369Y-84030226D01*
X150675426Y-84057678D01*
X150622495Y-84083167D01*
X150622487Y-84083173D01*
X150622292Y-84083355D01*
X150609007Y-84092782D01*
X150608766Y-84092909D01*
X150608763Y-84092911D01*
X150567216Y-84134458D01*
X150524157Y-84174412D01*
X150524149Y-84174421D01*
X150524019Y-84174648D01*
X150514095Y-84187578D01*
X150352579Y-84349095D01*
X150329958Y-84371716D01*
X150307337Y-84394337D01*
X150295494Y-84406179D01*
X150283546Y-84418128D01*
X150282374Y-84419389D01*
X150257249Y-84444514D01*
X150178458Y-84562425D01*
X150143826Y-84646020D01*
X150109999Y-84679842D01*
X150062163Y-84679839D01*
X150041891Y-84666292D01*
X149953708Y-84578109D01*
X149953707Y-84578107D01*
X149908465Y-84532866D01*
X149899368Y-84523769D01*
X149884083Y-84508483D01*
X149884053Y-84508455D01*
X149858321Y-84482723D01*
X149858320Y-84482722D01*
X149740397Y-84403929D01*
X149740394Y-84403928D01*
X149609366Y-84349655D01*
X149470263Y-84321986D01*
X149328437Y-84321986D01*
X149189334Y-84349655D01*
X149189332Y-84349655D01*
X149058305Y-84403928D01*
X149058302Y-84403929D01*
X148940376Y-84482724D01*
X148940374Y-84482726D01*
X148914660Y-84508441D01*
X148899332Y-84523769D01*
X148896137Y-84526963D01*
X148896136Y-84526964D01*
X148853051Y-84566941D01*
X148853048Y-84566944D01*
X148852911Y-84567183D01*
X148847145Y-84574698D01*
X148847410Y-84574900D01*
X148846097Y-84576622D01*
X148843343Y-84579771D01*
X148840148Y-84582965D01*
X148840140Y-84582975D01*
X148761327Y-84700891D01*
X148761325Y-84700896D01*
X148707028Y-84831939D01*
X148679349Y-84971045D01*
X148679348Y-84971049D01*
X148679345Y-85037326D01*
X148661037Y-85081519D01*
X148616841Y-85099822D01*
X148550655Y-85099818D01*
X148550643Y-85099818D01*
X148550642Y-85099818D01*
X148550641Y-85099818D01*
X148411541Y-85127476D01*
X148411538Y-85127477D01*
X148280508Y-85181741D01*
X148280502Y-85181744D01*
X148162587Y-85260520D01*
X148162568Y-85260536D01*
X148161674Y-85261430D01*
X148161642Y-85261458D01*
X148124324Y-85298775D01*
X148062285Y-85360804D01*
X148062284Y-85360805D01*
X147983480Y-85478731D01*
X147983476Y-85478739D01*
X147929195Y-85609769D01*
X147929195Y-85609771D01*
X147901522Y-85748885D01*
X147901522Y-85815123D01*
X147883216Y-85859317D01*
X147839022Y-85877623D01*
X147839021Y-85877623D01*
X147772806Y-85877622D01*
X147772803Y-85877622D01*
X147633698Y-85905289D01*
X147502665Y-85959564D01*
X147502657Y-85959568D01*
X147384735Y-86038363D01*
X147384733Y-86038364D01*
X147384733Y-86038365D01*
X147357796Y-86065304D01*
X147352917Y-86070183D01*
X147352847Y-86070211D01*
X147284426Y-86138635D01*
X147205630Y-86256569D01*
X147151357Y-86387608D01*
X147123692Y-86526719D01*
X147123695Y-86593002D01*
X147105391Y-86637197D01*
X147061198Y-86655505D01*
X147061190Y-86655505D01*
X146995090Y-86655500D01*
X146995055Y-86655500D01*
X146995054Y-86655500D01*
X146995049Y-86655500D01*
X146855964Y-86683151D01*
X146855963Y-86683152D01*
X146724939Y-86737405D01*
X146724931Y-86737409D01*
X146607012Y-86816178D01*
X146607003Y-86816185D01*
X146575742Y-86847435D01*
X146573133Y-86849767D01*
X146541588Y-86874925D01*
X146541584Y-86874930D01*
X146530635Y-86890988D01*
X146523188Y-86899975D01*
X146510223Y-86912937D01*
X146509898Y-86913311D01*
X146506738Y-86916470D01*
X146506733Y-86916477D01*
X146506732Y-86916478D01*
X146427918Y-87034400D01*
X146427916Y-87034402D01*
X146427916Y-87034404D01*
X146373626Y-87165433D01*
X146345946Y-87304540D01*
X146345945Y-87304543D01*
X146345941Y-87370838D01*
X146327632Y-87415030D01*
X146283436Y-87433333D01*
X146217285Y-87433328D01*
X146217251Y-87433328D01*
X146217250Y-87433328D01*
X146217248Y-87433328D01*
X146078147Y-87460984D01*
X146078143Y-87460986D01*
X145947109Y-87515251D01*
X145829181Y-87594038D01*
X145797940Y-87625275D01*
X145795328Y-87627610D01*
X145763789Y-87652762D01*
X145763785Y-87652767D01*
X145752878Y-87668764D01*
X145745433Y-87677749D01*
X145728870Y-87694310D01*
X145728867Y-87694314D01*
X145650066Y-87812242D01*
X145650061Y-87812252D01*
X145595783Y-87943288D01*
X145595782Y-87943293D01*
X145568113Y-88082403D01*
X145568113Y-88082405D01*
X145568117Y-88224247D01*
X145568118Y-88224249D01*
X145595797Y-88363357D01*
X145595798Y-88363360D01*
X145616534Y-88413409D01*
X145650089Y-88494401D01*
X145650090Y-88494402D01*
X145728903Y-88612327D01*
X145772933Y-88656346D01*
X145864935Y-88748348D01*
X145883241Y-88792542D01*
X145864935Y-88836736D01*
X145193445Y-89508228D01*
X145149251Y-89526534D01*
X145121802Y-89520184D01*
X145057493Y-89488746D01*
X145023861Y-89472304D01*
X144949706Y-89461500D01*
X143977294Y-89461500D01*
X143903138Y-89472304D01*
X143903137Y-89472304D01*
X143788757Y-89528221D01*
X143788754Y-89528223D01*
X143698723Y-89618254D01*
X143698721Y-89618257D01*
X143669649Y-89677726D01*
X143633794Y-89709390D01*
X143586050Y-89706425D01*
X143557351Y-89677726D01*
X143528278Y-89618257D01*
X143528276Y-89618254D01*
X143438245Y-89528223D01*
X143438242Y-89528221D01*
X143323861Y-89472304D01*
X143249706Y-89461500D01*
X142277294Y-89461500D01*
X142203138Y-89472304D01*
X142203137Y-89472304D01*
X142088757Y-89528221D01*
X142088754Y-89528223D01*
X142037284Y-89579694D01*
X141993090Y-89598000D01*
X141227242Y-89598000D01*
X141223740Y-89597803D01*
X141183673Y-89593289D01*
X141125956Y-89604209D01*
X141067851Y-89612967D01*
X141067609Y-89613084D01*
X141052132Y-89618177D01*
X141051868Y-89618226D01*
X141051866Y-89618227D01*
X140999916Y-89645682D01*
X140946990Y-89671171D01*
X140946988Y-89671172D01*
X140946793Y-89671354D01*
X140933503Y-89680783D01*
X140933266Y-89680907D01*
X140891702Y-89722471D01*
X140848653Y-89762415D01*
X140848523Y-89762642D01*
X140838596Y-89775576D01*
X139036481Y-91577694D01*
X138992287Y-91596000D01*
X138967903Y-91596000D01*
X138930448Y-91583534D01*
X138929971Y-91583177D01*
X138837631Y-91514052D01*
X138837630Y-91514051D01*
X138837628Y-91514050D01*
X138707904Y-91465666D01*
X138650551Y-91459500D01*
X137283457Y-91459500D01*
X137283440Y-91459501D01*
X137226097Y-91465666D01*
X137226092Y-91465667D01*
X137096371Y-91514050D01*
X137096367Y-91514053D01*
X136985527Y-91597027D01*
X136902553Y-91707867D01*
X136902550Y-91707871D01*
X136854166Y-91837595D01*
X136848000Y-91894941D01*
X136848000Y-92187042D01*
X136848001Y-92187059D01*
X136854166Y-92244402D01*
X136854167Y-92244409D01*
X136891372Y-92344159D01*
X136891372Y-92387841D01*
X136854166Y-92487593D01*
X136848000Y-92544941D01*
X136848000Y-92837042D01*
X136848001Y-92837059D01*
X136854166Y-92894402D01*
X136854167Y-92894409D01*
X136891372Y-92994159D01*
X136891372Y-93037841D01*
X136854166Y-93137593D01*
X136848000Y-93194941D01*
X136848000Y-93487042D01*
X136848001Y-93487059D01*
X136854166Y-93544402D01*
X136854167Y-93544409D01*
X136891372Y-93644159D01*
X136891372Y-93687841D01*
X136854166Y-93787593D01*
X136848000Y-93844941D01*
X136848000Y-94137042D01*
X136848001Y-94137059D01*
X136854166Y-94194402D01*
X136854167Y-94194409D01*
X136891372Y-94294159D01*
X136891372Y-94337841D01*
X136854166Y-94437593D01*
X136848000Y-94494941D01*
X136848000Y-94787042D01*
X136848001Y-94787059D01*
X136854166Y-94844402D01*
X136854167Y-94844409D01*
X136891372Y-94944159D01*
X136891372Y-94987841D01*
X136854166Y-95087593D01*
X136848000Y-95144941D01*
X136848000Y-95437042D01*
X136848001Y-95437059D01*
X136854166Y-95494402D01*
X136854167Y-95494409D01*
X136891372Y-95594159D01*
X136891372Y-95637841D01*
X136854166Y-95737593D01*
X136848000Y-95794941D01*
X136848000Y-96087042D01*
X136848001Y-96087059D01*
X136854166Y-96144402D01*
X136854167Y-96144409D01*
X136891372Y-96244159D01*
X136891372Y-96287841D01*
X136854166Y-96387593D01*
X136848000Y-96444941D01*
X136848000Y-96737042D01*
X136848001Y-96737059D01*
X136854166Y-96794402D01*
X136854167Y-96794409D01*
X136891372Y-96894159D01*
X136891372Y-96937841D01*
X136854166Y-97037593D01*
X136848000Y-97094941D01*
X136848000Y-97387042D01*
X136848001Y-97387059D01*
X136854166Y-97444402D01*
X136854167Y-97444409D01*
X136891372Y-97544159D01*
X136891372Y-97587841D01*
X136854166Y-97687593D01*
X136848000Y-97744941D01*
X136848000Y-98037042D01*
X136848001Y-98037059D01*
X136851682Y-98071297D01*
X136853907Y-98091998D01*
X136854166Y-98094402D01*
X136854167Y-98094409D01*
X136891372Y-98194159D01*
X136891372Y-98237841D01*
X136854166Y-98337593D01*
X136848000Y-98394941D01*
X136848000Y-98687042D01*
X136848001Y-98687059D01*
X136854166Y-98744402D01*
X136854167Y-98744409D01*
X136891372Y-98844159D01*
X136891372Y-98887841D01*
X136854166Y-98987593D01*
X136848000Y-99044941D01*
X136848000Y-99337042D01*
X136848001Y-99337059D01*
X136854166Y-99394402D01*
X136854167Y-99394409D01*
X136891372Y-99494159D01*
X136891372Y-99537841D01*
X136854166Y-99637593D01*
X136848000Y-99694941D01*
X136848000Y-99987042D01*
X136848001Y-99987059D01*
X136854166Y-100044402D01*
X136854167Y-100044409D01*
X136891372Y-100144159D01*
X136891372Y-100187841D01*
X136854166Y-100287593D01*
X136848000Y-100344941D01*
X136848000Y-100637042D01*
X136848001Y-100637059D01*
X136854166Y-100694402D01*
X136854167Y-100694407D01*
X136902550Y-100824128D01*
X136902551Y-100824130D01*
X136902552Y-100824131D01*
X136985527Y-100934973D01*
X137096369Y-101017948D01*
X137096370Y-101017948D01*
X137096371Y-101017949D01*
X137161233Y-101042140D01*
X137226097Y-101066334D01*
X137283449Y-101072500D01*
X138650550Y-101072499D01*
X138707903Y-101066334D01*
X138726656Y-101059339D01*
X138774461Y-101061044D01*
X138807058Y-101096053D01*
X138811000Y-101117897D01*
X138811000Y-101472344D01*
X138792694Y-101516538D01*
X138764688Y-101532711D01*
X138760377Y-101533867D01*
X138744189Y-101536000D01*
X135338213Y-101536000D01*
X135294019Y-101517694D01*
X135109639Y-101333314D01*
X135091333Y-101289120D01*
X135109639Y-101244926D01*
X135146834Y-101227013D01*
X135176000Y-101223727D01*
X135342226Y-101165562D01*
X135491340Y-101071867D01*
X135615867Y-100947340D01*
X135709562Y-100798226D01*
X135767727Y-100632000D01*
X135787445Y-100457000D01*
X135767727Y-100282000D01*
X135709562Y-100115774D01*
X135709559Y-100115770D01*
X135709559Y-100115768D01*
X135709558Y-100115767D01*
X135615868Y-99966661D01*
X135491338Y-99842131D01*
X135342232Y-99748441D01*
X135342231Y-99748440D01*
X135342226Y-99748438D01*
X135266623Y-99721983D01*
X135175998Y-99690272D01*
X135048071Y-99675858D01*
X135010875Y-99657945D01*
X134817428Y-99464498D01*
X134814730Y-99461422D01*
X134792955Y-99433044D01*
X134761890Y-99409208D01*
X134673468Y-99341359D01*
X134673465Y-99341357D01*
X134535284Y-99284121D01*
X134534434Y-99283736D01*
X134421710Y-99268897D01*
X134421699Y-99268896D01*
X134385002Y-99264065D01*
X134384998Y-99264065D01*
X134349550Y-99268732D01*
X134345466Y-99269000D01*
X133003119Y-99269000D01*
X132986828Y-99266061D01*
X132986710Y-99266565D01*
X132982907Y-99265666D01*
X132925551Y-99259500D01*
X131558457Y-99259500D01*
X131558440Y-99259501D01*
X131501097Y-99265666D01*
X131501092Y-99265667D01*
X131371371Y-99314050D01*
X131371367Y-99314053D01*
X131260527Y-99397027D01*
X131177553Y-99507867D01*
X131177550Y-99507871D01*
X131129166Y-99637595D01*
X131123000Y-99694941D01*
X131123000Y-99987042D01*
X131123001Y-99987059D01*
X131129166Y-100044402D01*
X131129167Y-100044409D01*
X131166372Y-100144159D01*
X131166372Y-100187841D01*
X131129166Y-100287593D01*
X131123000Y-100344941D01*
X131123000Y-100637042D01*
X131123001Y-100637059D01*
X131129166Y-100694402D01*
X131129167Y-100694407D01*
X131177550Y-100824128D01*
X131177551Y-100824130D01*
X131177552Y-100824131D01*
X131260527Y-100934973D01*
X131371369Y-101017948D01*
X131371370Y-101017948D01*
X131371371Y-101017949D01*
X131436232Y-101042140D01*
X131501097Y-101066334D01*
X131558449Y-101072500D01*
X132925550Y-101072499D01*
X132982903Y-101066334D01*
X133112631Y-101017948D01*
X133223473Y-100934973D01*
X133229407Y-100927045D01*
X133270545Y-100902636D01*
X133279441Y-100902000D01*
X133393787Y-100902000D01*
X133437981Y-100920306D01*
X134794430Y-102276755D01*
X134796767Y-102279370D01*
X134821902Y-102310889D01*
X134821904Y-102310891D01*
X134821905Y-102310892D01*
X134870431Y-102343976D01*
X134890940Y-102359113D01*
X134917712Y-102378873D01*
X134917713Y-102378874D01*
X134917959Y-102378960D01*
X134932529Y-102386314D01*
X134932741Y-102386459D01*
X134987352Y-102403304D01*
X134988882Y-102403776D01*
X135040983Y-102422007D01*
X135076652Y-102453882D01*
X135079334Y-102501642D01*
X135047459Y-102537311D01*
X135020341Y-102543500D01*
X134164794Y-102543500D01*
X134090638Y-102554304D01*
X134090637Y-102554304D01*
X133976257Y-102610221D01*
X133976254Y-102610223D01*
X133886223Y-102700254D01*
X133886221Y-102700257D01*
X133830304Y-102814637D01*
X133830304Y-102814638D01*
X133819500Y-102888794D01*
X133819500Y-104461205D01*
X133830304Y-104535361D01*
X133830304Y-104535362D01*
X133886221Y-104649742D01*
X133886223Y-104649745D01*
X133976254Y-104739776D01*
X133976257Y-104739778D01*
X134026715Y-104764445D01*
X134090639Y-104795696D01*
X134164794Y-104806500D01*
X135837206Y-104806500D01*
X135911361Y-104795696D01*
X136025746Y-104739776D01*
X136115776Y-104649746D01*
X136171696Y-104535361D01*
X136182500Y-104461206D01*
X136182500Y-104246000D01*
X136200806Y-104201806D01*
X136245000Y-104183500D01*
X137188213Y-104183500D01*
X137232407Y-104201806D01*
X137266095Y-104235494D01*
X137400711Y-104315105D01*
X137400713Y-104315105D01*
X137400714Y-104315106D01*
X137408435Y-104317349D01*
X137445768Y-104347257D01*
X137453500Y-104377368D01*
X137453500Y-104978758D01*
X137453303Y-104982260D01*
X137449655Y-105014637D01*
X137448789Y-105022327D01*
X137454365Y-105051796D01*
X137459709Y-105080043D01*
X137468466Y-105138147D01*
X137468580Y-105138382D01*
X137473678Y-105153872D01*
X137473728Y-105154134D01*
X137473728Y-105154135D01*
X137473729Y-105154136D01*
X137473729Y-105154137D01*
X137501178Y-105206073D01*
X137526670Y-105259007D01*
X137526673Y-105259012D01*
X137526851Y-105259204D01*
X137536285Y-105272498D01*
X137536411Y-105272737D01*
X137577957Y-105314283D01*
X137617913Y-105357344D01*
X137618132Y-105357471D01*
X137631081Y-105367406D01*
X138858434Y-106594760D01*
X138860771Y-106597375D01*
X138885902Y-106628889D01*
X138885906Y-106628893D01*
X138893548Y-106634103D01*
X138910706Y-106645801D01*
X138936910Y-106685820D01*
X138938000Y-106697441D01*
X138938000Y-107508989D01*
X138919694Y-107553183D01*
X138911820Y-107559853D01*
X138900394Y-107568011D01*
X138728194Y-107740211D01*
X138684000Y-107758517D01*
X138639806Y-107740211D01*
X138467604Y-107568009D01*
X138450147Y-107551604D01*
X138450144Y-107551601D01*
X138433420Y-107541161D01*
X138342216Y-107484227D01*
X138298021Y-107465921D01*
X138275613Y-107457443D01*
X138275608Y-107457442D01*
X138150112Y-107436500D01*
X130200888Y-107436500D01*
X130176939Y-107437242D01*
X130052974Y-107465922D01*
X130008785Y-107484227D01*
X129986946Y-107494077D01*
X129986940Y-107494080D01*
X129883397Y-107568008D01*
X129666009Y-107785396D01*
X129649604Y-107802852D01*
X129649599Y-107802858D01*
X129582227Y-107910783D01*
X129563921Y-107954979D01*
X129555443Y-107977386D01*
X129534499Y-108102891D01*
X129534500Y-112623112D01*
X129535242Y-112647060D01*
X129563922Y-112771025D01*
X129582227Y-112815215D01*
X129592077Y-112837053D01*
X129592080Y-112837059D01*
X129659013Y-112930805D01*
X129666009Y-112940603D01*
X129774711Y-113049305D01*
X129793017Y-113093498D01*
X129774711Y-113137692D01*
X129666008Y-113246396D01*
X129649599Y-113263855D01*
X129649596Y-113263859D01*
X129627090Y-113299915D01*
X129582225Y-113371789D01*
X129571976Y-113396534D01*
X129563920Y-113415983D01*
X129555442Y-113438388D01*
X129534500Y-113563885D01*
X129534500Y-117068112D01*
X129535242Y-117092060D01*
X129563922Y-117216025D01*
X129582227Y-117260215D01*
X129592077Y-117282053D01*
X129592080Y-117282059D01*
X129666008Y-117385602D01*
X129883396Y-117602991D01*
X129897291Y-117616049D01*
X129900856Y-117619399D01*
X129900859Y-117619400D01*
X129900858Y-117619400D01*
X130008783Y-117686772D01*
X130052979Y-117705079D01*
X130075386Y-117713556D01*
X130075387Y-117713556D01*
X130075392Y-117713558D01*
X130200888Y-117734500D01*
X130200894Y-117734500D01*
X138150112Y-117734500D01*
X138174063Y-117733757D01*
X138298021Y-117705079D01*
X138342215Y-117686773D01*
X138364055Y-117676922D01*
X138467603Y-117602991D01*
X138639806Y-117430786D01*
X138684000Y-117412481D01*
X138728194Y-117430787D01*
X138900397Y-117602990D01*
X138917856Y-117619399D01*
X138917859Y-117619400D01*
X138917858Y-117619400D01*
X139025783Y-117686772D01*
X139069979Y-117705079D01*
X139092386Y-117713556D01*
X139092387Y-117713556D01*
X139092392Y-117713558D01*
X139217888Y-117734500D01*
X139217894Y-117734500D01*
X159740112Y-117734500D01*
X159764063Y-117733757D01*
X159888021Y-117705079D01*
X159913582Y-117694490D01*
X159961416Y-117694490D01*
X159995242Y-117728313D01*
X160000000Y-117752233D01*
X160000000Y-118220112D01*
X159981694Y-118264306D01*
X159764306Y-118481694D01*
X159720112Y-118500000D01*
X111279888Y-118500000D01*
X111235694Y-118481694D01*
X111018306Y-118264306D01*
X111000000Y-118220112D01*
X111000000Y-115316000D01*
X125088001Y-115316000D01*
X125088001Y-116249777D01*
X125098676Y-116323056D01*
X125098678Y-116323060D01*
X125153936Y-116436095D01*
X125242904Y-116525063D01*
X125355941Y-116580322D01*
X125429221Y-116590999D01*
X126212998Y-116590999D01*
X126212999Y-116590998D01*
X126213000Y-115316000D01*
X126467000Y-115316000D01*
X126467000Y-116590999D01*
X127250778Y-116590999D01*
X127324056Y-116580323D01*
X127324060Y-116580321D01*
X127437095Y-116525063D01*
X127526063Y-116436095D01*
X127581322Y-116323058D01*
X127592000Y-116249778D01*
X127592000Y-115316000D01*
X126467000Y-115316000D01*
X126213000Y-115316000D01*
X125088001Y-115316000D01*
X111000000Y-115316000D01*
X111000000Y-115062000D01*
X125088000Y-115062000D01*
X126212999Y-115062000D01*
X126212999Y-113787000D01*
X126467000Y-113787000D01*
X126467000Y-115062000D01*
X127591999Y-115062000D01*
X127591999Y-114128222D01*
X127581323Y-114054943D01*
X127581321Y-114054939D01*
X127526063Y-113941904D01*
X127437095Y-113852936D01*
X127324058Y-113797677D01*
X127250778Y-113787000D01*
X126467000Y-113787000D01*
X126212999Y-113787000D01*
X125429222Y-113787000D01*
X125355943Y-113797676D01*
X125355939Y-113797678D01*
X125242904Y-113852936D01*
X125153936Y-113941904D01*
X125098677Y-114054941D01*
X125088000Y-114128221D01*
X125088000Y-115062000D01*
X111000000Y-115062000D01*
X111000000Y-110236000D01*
X125088001Y-110236000D01*
X125088001Y-111169777D01*
X125098676Y-111243056D01*
X125098678Y-111243060D01*
X125153936Y-111356095D01*
X125242904Y-111445063D01*
X125355941Y-111500322D01*
X125429221Y-111510999D01*
X126212998Y-111510999D01*
X126212999Y-111510998D01*
X126213000Y-110236000D01*
X126467000Y-110236000D01*
X126467000Y-111510999D01*
X127250778Y-111510999D01*
X127324056Y-111500323D01*
X127324060Y-111500321D01*
X127437095Y-111445063D01*
X127526063Y-111356095D01*
X127581322Y-111243058D01*
X127592000Y-111169778D01*
X127592000Y-110236000D01*
X126467000Y-110236000D01*
X126213000Y-110236000D01*
X125088001Y-110236000D01*
X111000000Y-110236000D01*
X111000000Y-109982000D01*
X125088000Y-109982000D01*
X126212999Y-109982000D01*
X126212999Y-108707000D01*
X126467000Y-108707000D01*
X126467000Y-109982000D01*
X127591999Y-109982000D01*
X127591999Y-109048222D01*
X127581323Y-108974943D01*
X127581321Y-108974939D01*
X127526063Y-108861904D01*
X127437095Y-108772936D01*
X127324058Y-108717677D01*
X127250778Y-108707000D01*
X126467000Y-108707000D01*
X126212999Y-108707000D01*
X125429222Y-108707000D01*
X125355943Y-108717676D01*
X125355939Y-108717678D01*
X125242904Y-108772936D01*
X125153936Y-108861904D01*
X125098677Y-108974941D01*
X125088000Y-109048221D01*
X125088000Y-109982000D01*
X111000000Y-109982000D01*
X111000000Y-106526507D01*
X113322999Y-106526507D01*
X113330369Y-106563553D01*
X113330369Y-106563554D01*
X113358438Y-106605561D01*
X113400446Y-106633630D01*
X113437493Y-106641000D01*
X114173000Y-106641000D01*
X114173000Y-106150881D01*
X114264237Y-106164000D01*
X114335763Y-106164000D01*
X114426999Y-106150881D01*
X114427000Y-106641000D01*
X115162507Y-106641000D01*
X115199553Y-106633630D01*
X115199554Y-106633630D01*
X115241561Y-106605561D01*
X115269630Y-106563554D01*
X115269630Y-106563553D01*
X115277000Y-106526507D01*
X115277000Y-105891500D01*
X126779000Y-105891500D01*
X126779000Y-106099091D01*
X126789323Y-106169942D01*
X126842750Y-106279231D01*
X126928768Y-106365249D01*
X127038057Y-106418676D01*
X127108909Y-106429000D01*
X127253999Y-106429000D01*
X127254000Y-105891500D01*
X127508000Y-105891500D01*
X127508000Y-106429000D01*
X127653091Y-106429000D01*
X127723942Y-106418676D01*
X127833231Y-106365249D01*
X127919249Y-106279231D01*
X127972676Y-106169942D01*
X127983000Y-106099091D01*
X127983000Y-105891500D01*
X127508000Y-105891500D01*
X127254000Y-105891500D01*
X126779000Y-105891500D01*
X115277000Y-105891500D01*
X115277000Y-105791000D01*
X114783818Y-105791000D01*
X114800000Y-105735889D01*
X114800000Y-105637500D01*
X126779000Y-105637500D01*
X127253999Y-105637500D01*
X127254000Y-105100000D01*
X127508000Y-105100000D01*
X127508000Y-105637500D01*
X127983000Y-105637500D01*
X127983000Y-105429908D01*
X127972676Y-105359057D01*
X127919249Y-105249768D01*
X127833231Y-105163750D01*
X127723942Y-105110323D01*
X127653091Y-105100000D01*
X127508000Y-105100000D01*
X127254000Y-105100000D01*
X127108909Y-105100000D01*
X127038057Y-105110323D01*
X126928768Y-105163750D01*
X126842750Y-105249768D01*
X126789323Y-105359057D01*
X126779000Y-105429908D01*
X126779000Y-105637500D01*
X114800000Y-105637500D01*
X114800000Y-105592111D01*
X114783818Y-105537000D01*
X115277000Y-105537000D01*
X115277000Y-104801492D01*
X115269630Y-104764446D01*
X115269630Y-104764445D01*
X115241561Y-104722438D01*
X115199553Y-104694369D01*
X115162507Y-104687000D01*
X114427000Y-104687000D01*
X114426999Y-105177118D01*
X114335763Y-105164000D01*
X114264237Y-105164000D01*
X114173000Y-105177118D01*
X114173000Y-104687000D01*
X113437493Y-104687000D01*
X113400446Y-104694369D01*
X113400445Y-104694369D01*
X113358438Y-104722438D01*
X113330369Y-104764445D01*
X113330369Y-104764446D01*
X113323000Y-104801492D01*
X113323000Y-105537000D01*
X113816182Y-105537000D01*
X113800000Y-105592111D01*
X113800000Y-105735889D01*
X113816182Y-105791000D01*
X113323000Y-105791000D01*
X113323000Y-106526507D01*
X113322999Y-106526507D01*
X111000000Y-106526507D01*
X111000000Y-92326205D01*
X113068499Y-92326205D01*
X113079304Y-92400361D01*
X113079304Y-92400362D01*
X113135221Y-92514742D01*
X113135223Y-92514745D01*
X113225254Y-92604776D01*
X113225257Y-92604778D01*
X113279110Y-92631105D01*
X113339639Y-92660696D01*
X113413794Y-92671500D01*
X113729000Y-92671500D01*
X113773194Y-92689806D01*
X113791500Y-92734000D01*
X113791500Y-94172610D01*
X113790072Y-94185894D01*
X113787580Y-94197349D01*
X113787580Y-94197351D01*
X113791420Y-94251050D01*
X113791500Y-94253280D01*
X113791500Y-94270373D01*
X113793930Y-94287278D01*
X113794168Y-94289494D01*
X113798011Y-94343202D01*
X113798011Y-94343203D01*
X113802109Y-94354191D01*
X113805412Y-94367132D01*
X113807080Y-94378729D01*
X113807082Y-94378737D01*
X113829441Y-94427697D01*
X113830294Y-94429757D01*
X113849110Y-94480202D01*
X113849111Y-94480204D01*
X113856136Y-94489588D01*
X113862953Y-94501077D01*
X113867822Y-94511740D01*
X113867823Y-94511741D01*
X113867824Y-94511743D01*
X113903083Y-94552434D01*
X113904472Y-94554158D01*
X113914720Y-94567848D01*
X113926821Y-94579949D01*
X113928329Y-94581570D01*
X113958581Y-94616482D01*
X113963579Y-94622250D01*
X113973437Y-94628585D01*
X113983842Y-94636970D01*
X115167029Y-95820157D01*
X115175415Y-95830563D01*
X115181749Y-95840420D01*
X115222428Y-95875669D01*
X115224048Y-95877176D01*
X115230107Y-95883235D01*
X115236151Y-95889280D01*
X115249844Y-95899530D01*
X115251573Y-95900922D01*
X115268780Y-95915832D01*
X115292255Y-95936175D01*
X115292256Y-95936175D01*
X115292257Y-95936176D01*
X115302919Y-95941045D01*
X115314410Y-95947863D01*
X115323796Y-95954889D01*
X115374242Y-95973703D01*
X115376300Y-95974556D01*
X115425266Y-95996919D01*
X115436865Y-95998586D01*
X115449814Y-96001890D01*
X115460799Y-96005988D01*
X115514503Y-96009829D01*
X115516680Y-96010062D01*
X115533632Y-96012500D01*
X115550723Y-96012500D01*
X115552953Y-96012580D01*
X115575189Y-96014169D01*
X115606648Y-96016420D01*
X115618104Y-96013927D01*
X115631388Y-96012500D01*
X118043390Y-96012500D01*
X118087584Y-96030806D01*
X118090138Y-96033360D01*
X118090139Y-96033361D01*
X118105366Y-96044908D01*
X118163773Y-96089200D01*
X118187926Y-96130490D01*
X118175808Y-96176765D01*
X118163773Y-96188800D01*
X118090139Y-96244639D01*
X118001858Y-96361054D01*
X118001855Y-96361059D01*
X117948257Y-96496975D01*
X117938001Y-96582378D01*
X117938000Y-96582395D01*
X117938000Y-96965603D01*
X117938002Y-96965620D01*
X117948257Y-97051025D01*
X117948257Y-97051026D01*
X118001857Y-97186943D01*
X118001858Y-97186945D01*
X118025408Y-97218000D01*
X118090139Y-97303361D01*
X118154131Y-97351887D01*
X118163773Y-97359199D01*
X118187926Y-97400488D01*
X118175808Y-97446764D01*
X118163773Y-97458799D01*
X118090139Y-97514638D01*
X118001858Y-97631054D01*
X118001855Y-97631059D01*
X117948257Y-97766975D01*
X117938001Y-97852378D01*
X117938000Y-97852395D01*
X117938000Y-98235603D01*
X117938002Y-98235620D01*
X117948257Y-98321025D01*
X117948257Y-98321026D01*
X118001857Y-98456943D01*
X118001858Y-98456945D01*
X118037631Y-98504118D01*
X118090139Y-98573361D01*
X118158973Y-98625559D01*
X118206554Y-98661641D01*
X118206559Y-98661644D01*
X118223889Y-98668478D01*
X118342477Y-98715243D01*
X118427889Y-98725500D01*
X120161110Y-98725499D01*
X120246523Y-98715243D01*
X120263071Y-98708717D01*
X120310900Y-98709533D01*
X120344142Y-98743930D01*
X120348500Y-98766859D01*
X120348500Y-98982579D01*
X120330194Y-99026773D01*
X120317815Y-99036375D01*
X120224595Y-99091504D01*
X120114007Y-99202092D01*
X120034394Y-99336713D01*
X119990760Y-99486897D01*
X119990760Y-99486901D01*
X119988000Y-99521976D01*
X119988001Y-100122022D01*
X119990760Y-100157100D01*
X120032047Y-100299206D01*
X120034395Y-100307289D01*
X120087218Y-100396609D01*
X120114007Y-100441907D01*
X120224592Y-100552492D01*
X120224594Y-100552493D01*
X120224595Y-100552494D01*
X120359211Y-100632105D01*
X120509397Y-100675739D01*
X120519420Y-100676527D01*
X120544476Y-100678500D01*
X120544480Y-100678499D01*
X120544481Y-100678500D01*
X120892074Y-100678499D01*
X121169522Y-100678499D01*
X121189566Y-100676921D01*
X121204603Y-100675739D01*
X121354789Y-100632105D01*
X121489405Y-100552494D01*
X121599994Y-100441905D01*
X121679605Y-100307289D01*
X121709482Y-100204452D01*
X121739391Y-100167121D01*
X121786937Y-100161872D01*
X121824269Y-100191781D01*
X121829517Y-100204450D01*
X121859395Y-100307289D01*
X121912218Y-100396609D01*
X121939007Y-100441907D01*
X122049592Y-100552492D01*
X122049594Y-100552493D01*
X122049595Y-100552494D01*
X122184211Y-100632105D01*
X122334397Y-100675739D01*
X122344421Y-100676527D01*
X122369476Y-100678500D01*
X122369480Y-100678499D01*
X122369481Y-100678500D01*
X122717070Y-100678499D01*
X122994522Y-100678499D01*
X123014566Y-100676921D01*
X123029603Y-100675739D01*
X123179789Y-100632105D01*
X123314405Y-100552494D01*
X123424994Y-100441905D01*
X123504605Y-100307289D01*
X123548239Y-100157103D01*
X123551000Y-100122019D01*
X123550999Y-99521982D01*
X123550528Y-99516000D01*
X123548239Y-99486899D01*
X123548239Y-99486897D01*
X123504605Y-99336711D01*
X123424994Y-99202095D01*
X123424993Y-99202094D01*
X123424992Y-99202092D01*
X123314404Y-99091504D01*
X123197684Y-99022477D01*
X123168963Y-98984224D01*
X123166999Y-98968688D01*
X123166999Y-98806000D01*
X126719500Y-98806000D01*
X126719500Y-98951091D01*
X126729823Y-99021942D01*
X126783250Y-99131231D01*
X126869268Y-99217249D01*
X126978557Y-99270676D01*
X127049409Y-99281000D01*
X127206999Y-99281000D01*
X127207000Y-98806000D01*
X127461000Y-98806000D01*
X127461000Y-99281000D01*
X127618591Y-99281000D01*
X127689442Y-99270676D01*
X127798731Y-99217249D01*
X127884749Y-99131231D01*
X127938176Y-99021942D01*
X127948500Y-98951091D01*
X127948500Y-98806000D01*
X127461000Y-98806000D01*
X127207000Y-98806000D01*
X126719500Y-98806000D01*
X123166999Y-98806000D01*
X123166999Y-98757590D01*
X123185305Y-98713397D01*
X123229499Y-98695091D01*
X123252424Y-98699448D01*
X123292477Y-98715243D01*
X123377889Y-98725500D01*
X125111110Y-98725499D01*
X125196523Y-98715243D01*
X125196529Y-98715241D01*
X125225391Y-98703859D01*
X125332443Y-98661643D01*
X125448861Y-98573361D01*
X125465059Y-98552000D01*
X126719500Y-98552000D01*
X127206999Y-98552000D01*
X127207000Y-98077000D01*
X127461000Y-98077000D01*
X127461000Y-98552000D01*
X127948500Y-98552000D01*
X127948500Y-98406908D01*
X127938176Y-98336057D01*
X127884749Y-98226768D01*
X127798731Y-98140750D01*
X127689442Y-98087323D01*
X127618591Y-98077000D01*
X127461000Y-98077000D01*
X127207000Y-98077000D01*
X127049409Y-98077000D01*
X126978557Y-98087323D01*
X126869268Y-98140750D01*
X126783250Y-98226768D01*
X126729823Y-98336057D01*
X126719500Y-98406908D01*
X126719500Y-98552000D01*
X125465059Y-98552000D01*
X125537143Y-98456943D01*
X125590743Y-98321023D01*
X125601000Y-98235611D01*
X125600999Y-97852390D01*
X125590743Y-97766977D01*
X125590742Y-97766974D01*
X125590742Y-97766973D01*
X125561165Y-97691972D01*
X125537143Y-97631057D01*
X125448861Y-97514639D01*
X125388073Y-97468542D01*
X125375226Y-97458800D01*
X125351073Y-97417510D01*
X125363191Y-97371235D01*
X125375226Y-97359200D01*
X125406716Y-97335320D01*
X125448861Y-97303361D01*
X125448864Y-97303356D01*
X125451416Y-97300806D01*
X125495610Y-97282500D01*
X126434315Y-97282500D01*
X126478509Y-97300806D01*
X126494333Y-97327563D01*
X126496587Y-97335320D01*
X126511395Y-97386289D01*
X126577950Y-97498829D01*
X126591007Y-97520907D01*
X126701592Y-97631492D01*
X126701594Y-97631493D01*
X126701595Y-97631494D01*
X126836211Y-97711105D01*
X126986397Y-97754739D01*
X126996421Y-97755527D01*
X127021476Y-97757500D01*
X127021480Y-97757499D01*
X127021481Y-97757500D01*
X127368305Y-97757499D01*
X127646522Y-97757499D01*
X127666566Y-97755921D01*
X127681603Y-97754739D01*
X127831789Y-97711105D01*
X127966405Y-97631494D01*
X128076994Y-97520905D01*
X128156605Y-97386289D01*
X128186482Y-97283452D01*
X128216391Y-97246121D01*
X128263937Y-97240872D01*
X128301269Y-97270781D01*
X128306517Y-97283450D01*
X128319003Y-97326425D01*
X128333148Y-97375115D01*
X128336395Y-97386289D01*
X128400800Y-97495193D01*
X128416007Y-97520907D01*
X128526593Y-97631493D01*
X128619815Y-97686624D01*
X128648536Y-97724877D01*
X128650500Y-97740420D01*
X128650500Y-97839579D01*
X128632194Y-97883773D01*
X128619815Y-97893375D01*
X128526595Y-97948504D01*
X128526594Y-97948506D01*
X128416007Y-98059092D01*
X128336394Y-98193713D01*
X128292760Y-98343897D01*
X128292760Y-98343901D01*
X128290000Y-98378976D01*
X128290001Y-98979022D01*
X128292760Y-99014100D01*
X128326791Y-99131231D01*
X128336395Y-99164289D01*
X128398320Y-99269000D01*
X128416007Y-99298907D01*
X128526592Y-99409492D01*
X128526594Y-99409493D01*
X128526595Y-99409494D01*
X128661211Y-99489105D01*
X128811397Y-99532739D01*
X128821420Y-99533527D01*
X128846476Y-99535500D01*
X128846480Y-99535499D01*
X128846481Y-99535500D01*
X129337483Y-99535499D01*
X129381677Y-99553805D01*
X129399983Y-99597999D01*
X129381677Y-99642193D01*
X129314676Y-99709194D01*
X129270482Y-99727500D01*
X128869978Y-99727501D01*
X128834899Y-99730260D01*
X128684713Y-99773894D01*
X128550092Y-99853507D01*
X128439507Y-99964092D01*
X128359894Y-100098713D01*
X128330018Y-100201546D01*
X128300109Y-100238878D01*
X128252563Y-100244127D01*
X128215231Y-100214218D01*
X128209982Y-100201546D01*
X128199980Y-100167121D01*
X128180105Y-100098711D01*
X128100494Y-99964095D01*
X128100493Y-99964094D01*
X128100492Y-99964092D01*
X127989907Y-99853507D01*
X127935197Y-99821152D01*
X127855289Y-99773895D01*
X127828126Y-99766003D01*
X127705100Y-99730260D01*
X127670024Y-99727500D01*
X127670019Y-99727500D01*
X127322794Y-99727500D01*
X127044978Y-99727501D01*
X127009899Y-99730260D01*
X126859713Y-99773894D01*
X126859710Y-99773895D01*
X126767010Y-99828716D01*
X126719652Y-99835455D01*
X126714555Y-99833912D01*
X126667004Y-99817274D01*
X126666996Y-99817272D01*
X126492000Y-99797555D01*
X126317001Y-99817272D01*
X126150768Y-99875440D01*
X126150767Y-99875441D01*
X126001661Y-99969131D01*
X125877131Y-100093661D01*
X125783441Y-100242767D01*
X125783440Y-100242768D01*
X125725272Y-100409001D01*
X125705555Y-100584000D01*
X125725272Y-100758998D01*
X125739001Y-100798232D01*
X125783158Y-100924427D01*
X125783440Y-100925231D01*
X125783441Y-100925232D01*
X125877131Y-101074338D01*
X126001661Y-101198868D01*
X126150767Y-101292558D01*
X126150768Y-101292559D01*
X126150770Y-101292559D01*
X126150774Y-101292562D01*
X126317000Y-101350727D01*
X126492000Y-101370445D01*
X126667000Y-101350727D01*
X126667005Y-101350725D01*
X126669088Y-101350250D01*
X126669943Y-101350395D01*
X126670488Y-101350334D01*
X126670505Y-101350490D01*
X126716248Y-101358259D01*
X126743932Y-101397270D01*
X126745500Y-101411182D01*
X126745500Y-103236212D01*
X126727194Y-103280406D01*
X126650507Y-103357093D01*
X126650505Y-103357095D01*
X126650506Y-103357095D01*
X126570895Y-103491711D01*
X126570894Y-103491713D01*
X126570894Y-103491714D01*
X126527260Y-103641897D01*
X126527260Y-103641901D01*
X126524500Y-103676976D01*
X126524501Y-104402021D01*
X126527260Y-104437100D01*
X126564208Y-104564271D01*
X126570895Y-104587289D01*
X126607831Y-104649745D01*
X126650507Y-104721907D01*
X126761092Y-104832492D01*
X126761094Y-104832493D01*
X126761095Y-104832494D01*
X126895711Y-104912105D01*
X127045897Y-104955739D01*
X127055921Y-104956527D01*
X127080976Y-104958500D01*
X127080980Y-104958499D01*
X127080981Y-104958500D01*
X127414727Y-104958499D01*
X127681022Y-104958499D01*
X127701066Y-104956921D01*
X127716103Y-104955739D01*
X127866289Y-104912105D01*
X128000905Y-104832494D01*
X128111494Y-104721905D01*
X128121086Y-104705684D01*
X128159340Y-104676963D01*
X128174883Y-104675000D01*
X128582713Y-104675000D01*
X128626907Y-104693306D01*
X128666095Y-104732494D01*
X128800711Y-104812105D01*
X128870889Y-104832494D01*
X128903546Y-104841982D01*
X128940878Y-104871891D01*
X128946127Y-104919437D01*
X128916218Y-104956769D01*
X128903546Y-104962018D01*
X128800713Y-104991894D01*
X128666092Y-105071507D01*
X128555507Y-105182092D01*
X128475894Y-105316713D01*
X128432260Y-105466897D01*
X128432260Y-105466901D01*
X128429500Y-105501976D01*
X128429501Y-106127022D01*
X128432260Y-106162100D01*
X128466291Y-106279231D01*
X128475895Y-106312289D01*
X128538812Y-106418676D01*
X128555507Y-106446907D01*
X128666092Y-106557492D01*
X128666094Y-106557493D01*
X128666095Y-106557494D01*
X128800711Y-106637105D01*
X128950897Y-106680739D01*
X128959957Y-106681452D01*
X128985976Y-106683500D01*
X128985980Y-106683499D01*
X128985981Y-106683500D01*
X129318912Y-106683499D01*
X129586022Y-106683499D01*
X129606066Y-106681921D01*
X129621103Y-106680739D01*
X129771289Y-106637105D01*
X129905905Y-106557494D01*
X129998092Y-106465305D01*
X130042287Y-106447000D01*
X131217000Y-106447000D01*
X131261194Y-106465306D01*
X131279500Y-106509500D01*
X131279500Y-106661206D01*
X131281445Y-106674553D01*
X131290304Y-106735361D01*
X131290304Y-106735362D01*
X131346221Y-106849742D01*
X131346223Y-106849745D01*
X131436254Y-106939776D01*
X131436257Y-106939778D01*
X131487754Y-106964953D01*
X131550639Y-106995696D01*
X131624794Y-107006500D01*
X133297206Y-107006500D01*
X133371361Y-106995696D01*
X133485746Y-106939776D01*
X133575776Y-106849746D01*
X133631696Y-106735361D01*
X133642500Y-106661206D01*
X133642500Y-106637507D01*
X134073999Y-106637507D01*
X134081369Y-106674553D01*
X134081369Y-106674554D01*
X134109438Y-106716561D01*
X134151446Y-106744630D01*
X134188493Y-106752000D01*
X134874000Y-106752000D01*
X134874000Y-106002000D01*
X135128000Y-106002000D01*
X135128000Y-106752000D01*
X135813507Y-106752000D01*
X135850553Y-106744630D01*
X135850554Y-106744630D01*
X135892561Y-106716561D01*
X135920630Y-106674554D01*
X135920630Y-106674553D01*
X135928000Y-106637507D01*
X135928000Y-106002000D01*
X135128000Y-106002000D01*
X134874000Y-106002000D01*
X134074000Y-106002000D01*
X134074000Y-106637507D01*
X134073999Y-106637507D01*
X133642500Y-106637507D01*
X133642500Y-105747999D01*
X134073999Y-105747999D01*
X134074000Y-105748000D01*
X134874000Y-105748000D01*
X134874000Y-104998000D01*
X135128000Y-104998000D01*
X135128000Y-105748000D01*
X135928000Y-105748000D01*
X135928000Y-105112492D01*
X135920630Y-105075446D01*
X135920630Y-105075445D01*
X135892561Y-105033438D01*
X135850553Y-105005369D01*
X135813507Y-104998000D01*
X135128000Y-104998000D01*
X134874000Y-104998000D01*
X134188493Y-104998000D01*
X134151446Y-105005369D01*
X134151445Y-105005369D01*
X134109438Y-105033438D01*
X134081369Y-105075445D01*
X134081369Y-105075446D01*
X134073999Y-105112492D01*
X134073999Y-105747999D01*
X133642500Y-105747999D01*
X133642500Y-105088794D01*
X133631696Y-105014639D01*
X133603405Y-104956769D01*
X133575778Y-104900257D01*
X133575776Y-104900254D01*
X133494716Y-104819194D01*
X133476410Y-104775000D01*
X133494716Y-104730806D01*
X133532216Y-104693306D01*
X133575776Y-104649746D01*
X133631696Y-104535361D01*
X133642500Y-104461206D01*
X133642500Y-102888794D01*
X133631696Y-102814639D01*
X133618804Y-102788268D01*
X133575778Y-102700257D01*
X133575776Y-102700254D01*
X133485745Y-102610223D01*
X133485742Y-102610221D01*
X133371361Y-102554304D01*
X133297206Y-102543500D01*
X131624794Y-102543500D01*
X131550638Y-102554304D01*
X131550637Y-102554304D01*
X131436257Y-102610221D01*
X131436254Y-102610223D01*
X131346223Y-102700254D01*
X131346221Y-102700257D01*
X131290304Y-102814637D01*
X131290304Y-102814638D01*
X131279499Y-102888794D01*
X131279500Y-103291500D01*
X131261194Y-103335694D01*
X131217000Y-103354000D01*
X130039287Y-103354000D01*
X129995093Y-103335694D01*
X129905907Y-103246507D01*
X129831641Y-103202587D01*
X129771289Y-103166895D01*
X129769930Y-103166500D01*
X129621100Y-103123260D01*
X129586024Y-103120500D01*
X129586019Y-103120500D01*
X129252465Y-103120500D01*
X128985978Y-103120501D01*
X128950899Y-103123260D01*
X128800713Y-103166894D01*
X128800711Y-103166894D01*
X128800711Y-103166895D01*
X128780060Y-103179108D01*
X128666092Y-103246507D01*
X128555508Y-103357091D01*
X128545913Y-103373316D01*
X128507660Y-103402037D01*
X128492117Y-103404000D01*
X128174883Y-103404000D01*
X128130689Y-103385694D01*
X128121087Y-103373316D01*
X128119625Y-103370845D01*
X128111494Y-103357095D01*
X128111492Y-103357093D01*
X128111491Y-103357091D01*
X128034806Y-103280406D01*
X128016500Y-103236212D01*
X128016500Y-101313787D01*
X128034806Y-101269593D01*
X128100492Y-101203907D01*
X128100494Y-101203905D01*
X128180105Y-101069289D01*
X128209982Y-100966452D01*
X128239891Y-100929121D01*
X128287437Y-100923872D01*
X128324769Y-100953781D01*
X128330017Y-100966450D01*
X128344574Y-101016554D01*
X128357499Y-101061044D01*
X128359895Y-101069289D01*
X128416830Y-101165562D01*
X128439507Y-101203907D01*
X128550092Y-101314492D01*
X128550094Y-101314493D01*
X128550095Y-101314494D01*
X128684711Y-101394105D01*
X128834897Y-101437739D01*
X128844920Y-101438527D01*
X128869976Y-101440500D01*
X128869980Y-101440499D01*
X128869981Y-101440500D01*
X129216967Y-101440499D01*
X129495022Y-101440499D01*
X129515066Y-101438921D01*
X129530103Y-101437739D01*
X129680289Y-101394105D01*
X129814905Y-101314494D01*
X129925494Y-101203905D01*
X130005105Y-101069289D01*
X130048739Y-100919103D01*
X130050119Y-100901560D01*
X130051500Y-100884024D01*
X130051499Y-100436515D01*
X130069804Y-100392322D01*
X131359581Y-99102545D01*
X131403774Y-99084240D01*
X131425616Y-99088181D01*
X131471660Y-99105354D01*
X131501097Y-99116334D01*
X131558449Y-99122500D01*
X132925550Y-99122499D01*
X132982903Y-99116334D01*
X133112631Y-99067948D01*
X133223473Y-98984973D01*
X133306448Y-98874131D01*
X133354834Y-98744403D01*
X133360982Y-98687212D01*
X133383907Y-98645229D01*
X133429804Y-98631752D01*
X133443756Y-98634898D01*
X133583300Y-98683727D01*
X133758300Y-98703445D01*
X133933300Y-98683727D01*
X134099526Y-98625562D01*
X134248640Y-98531867D01*
X134373167Y-98407340D01*
X134466862Y-98258226D01*
X134525027Y-98092000D01*
X134544745Y-97917000D01*
X134525027Y-97742000D01*
X134466862Y-97575774D01*
X134466859Y-97575770D01*
X134466859Y-97575768D01*
X134466858Y-97575767D01*
X134373168Y-97426661D01*
X134248638Y-97302131D01*
X134099532Y-97208441D01*
X134099531Y-97208440D01*
X134099526Y-97208438D01*
X133966814Y-97162000D01*
X133933298Y-97150272D01*
X133758300Y-97130555D01*
X133583301Y-97150272D01*
X133519204Y-97172701D01*
X133444140Y-97198966D01*
X133396381Y-97196285D01*
X133364506Y-97160617D01*
X133360999Y-97139974D01*
X133360999Y-97094957D01*
X133360998Y-97094940D01*
X133356962Y-97057397D01*
X133354834Y-97037597D01*
X133317625Y-96937839D01*
X133317626Y-96894159D01*
X133354834Y-96794403D01*
X133361000Y-96737051D01*
X133360999Y-96444950D01*
X133354834Y-96387597D01*
X133317626Y-96287839D01*
X133317626Y-96244159D01*
X133354834Y-96144403D01*
X133361000Y-96087051D01*
X133360999Y-95794950D01*
X133354834Y-95737597D01*
X133306448Y-95607869D01*
X133223473Y-95497027D01*
X133112631Y-95414052D01*
X133112630Y-95414051D01*
X133112628Y-95414050D01*
X132982904Y-95365666D01*
X132925558Y-95359500D01*
X132177500Y-95359500D01*
X132133306Y-95341194D01*
X132115000Y-95297000D01*
X132115000Y-95284999D01*
X132133306Y-95240805D01*
X132177498Y-95222499D01*
X132925550Y-95222499D01*
X132982903Y-95216334D01*
X133112631Y-95167948D01*
X133223473Y-95084973D01*
X133306448Y-94974131D01*
X133354834Y-94844403D01*
X133361000Y-94787051D01*
X133360999Y-94561999D01*
X133379305Y-94517806D01*
X133423499Y-94499500D01*
X134420611Y-94499500D01*
X134433894Y-94500927D01*
X134445351Y-94503420D01*
X134445351Y-94503419D01*
X134445352Y-94503420D01*
X134499052Y-94499580D01*
X134501282Y-94499500D01*
X134518362Y-94499500D01*
X134518368Y-94499500D01*
X134535305Y-94497064D01*
X134537493Y-94496829D01*
X134591201Y-94492989D01*
X134602190Y-94488889D01*
X134615134Y-94485586D01*
X134626734Y-94483919D01*
X134675706Y-94461554D01*
X134677741Y-94460710D01*
X134728204Y-94441889D01*
X134733937Y-94437597D01*
X134737588Y-94434864D01*
X134749084Y-94428042D01*
X134759743Y-94423176D01*
X134800428Y-94387920D01*
X134802167Y-94386520D01*
X134804700Y-94384624D01*
X134815848Y-94376280D01*
X134827961Y-94364165D01*
X134829548Y-94362688D01*
X134870250Y-94327421D01*
X134876584Y-94317563D01*
X134884966Y-94307160D01*
X135413660Y-93778466D01*
X135424064Y-93770084D01*
X135433919Y-93763751D01*
X135433918Y-93763751D01*
X135433921Y-93763750D01*
X135469188Y-93723048D01*
X135470665Y-93721461D01*
X135482780Y-93709348D01*
X135493036Y-93695645D01*
X135494407Y-93693943D01*
X135529676Y-93653243D01*
X135534546Y-93642577D01*
X135541365Y-93631085D01*
X135548388Y-93621704D01*
X135567199Y-93571269D01*
X135568053Y-93569207D01*
X135575682Y-93552502D01*
X135590419Y-93520234D01*
X135592087Y-93508622D01*
X135595391Y-93495681D01*
X135599488Y-93484701D01*
X135603327Y-93431007D01*
X135603562Y-93428819D01*
X135606000Y-93411868D01*
X135606000Y-93394765D01*
X135606080Y-93392535D01*
X135609919Y-93338852D01*
X135607428Y-93327399D01*
X135606000Y-93314115D01*
X135606000Y-88780000D01*
X135624306Y-88735806D01*
X135668500Y-88717500D01*
X135783706Y-88717500D01*
X135857861Y-88706696D01*
X135972246Y-88650776D01*
X136062276Y-88560746D01*
X136118196Y-88446361D01*
X136129000Y-88372206D01*
X136129000Y-88348507D01*
X136620499Y-88348507D01*
X136627869Y-88385553D01*
X136627869Y-88385554D01*
X136655938Y-88427561D01*
X136697946Y-88455630D01*
X136734993Y-88463000D01*
X137270500Y-88463000D01*
X137270500Y-87513000D01*
X137524500Y-87513000D01*
X137524500Y-88463000D01*
X138060007Y-88463000D01*
X138097053Y-88455630D01*
X138097054Y-88455630D01*
X138139061Y-88427561D01*
X138167130Y-88385554D01*
X138167130Y-88385553D01*
X138174500Y-88348507D01*
X138174500Y-87513000D01*
X137524500Y-87513000D01*
X137270500Y-87513000D01*
X136620500Y-87513000D01*
X136620500Y-88348507D01*
X136620499Y-88348507D01*
X136129000Y-88348507D01*
X136129000Y-87259000D01*
X136620500Y-87259000D01*
X137270500Y-87259000D01*
X137270500Y-86309000D01*
X137524500Y-86309000D01*
X137524500Y-87259000D01*
X138174500Y-87259000D01*
X138174500Y-86423492D01*
X138167130Y-86386446D01*
X138167130Y-86386445D01*
X138139061Y-86344438D01*
X138097053Y-86316369D01*
X138060007Y-86309000D01*
X137524500Y-86309000D01*
X137270500Y-86309000D01*
X136734993Y-86309000D01*
X136697946Y-86316369D01*
X136697945Y-86316369D01*
X136655938Y-86344438D01*
X136627869Y-86386445D01*
X136627869Y-86386446D01*
X136620500Y-86423492D01*
X136620500Y-87259000D01*
X136129000Y-87259000D01*
X136129000Y-86399794D01*
X136118196Y-86325639D01*
X136084430Y-86256570D01*
X136062278Y-86211257D01*
X136062276Y-86211254D01*
X135972245Y-86121223D01*
X135972242Y-86121221D01*
X135857861Y-86065304D01*
X135783706Y-86054500D01*
X134411294Y-86054500D01*
X134337138Y-86065304D01*
X134337137Y-86065304D01*
X134222757Y-86121221D01*
X134222754Y-86121223D01*
X134132723Y-86211254D01*
X134132721Y-86211257D01*
X134076804Y-86325637D01*
X134076804Y-86325638D01*
X134066000Y-86399794D01*
X134066000Y-86812957D01*
X134047694Y-86857151D01*
X134003500Y-86875457D01*
X133990222Y-86874030D01*
X133988154Y-86873580D01*
X133988146Y-86873580D01*
X133934453Y-86877420D01*
X133932223Y-86877500D01*
X133915128Y-86877500D01*
X133898215Y-86879931D01*
X133895999Y-86880169D01*
X133842298Y-86884012D01*
X133831317Y-86888108D01*
X133818372Y-86891412D01*
X133806767Y-86893080D01*
X133757789Y-86915447D01*
X133755729Y-86916300D01*
X133705293Y-86935113D01*
X133695906Y-86942139D01*
X133684424Y-86948951D01*
X133673757Y-86953822D01*
X133673756Y-86953824D01*
X133633071Y-86989076D01*
X133631337Y-86990473D01*
X133617651Y-87000720D01*
X133605562Y-87012809D01*
X133603930Y-87014329D01*
X133563250Y-87049578D01*
X133563249Y-87049579D01*
X133556912Y-87059440D01*
X133548529Y-87069841D01*
X133237678Y-87380694D01*
X133193484Y-87399000D01*
X132768920Y-87399000D01*
X132724726Y-87380694D01*
X132715127Y-87368320D01*
X132659994Y-87275095D01*
X132659993Y-87275094D01*
X132659992Y-87275092D01*
X132549407Y-87164507D01*
X132523693Y-87149300D01*
X132414789Y-87084895D01*
X132354628Y-87067416D01*
X132264600Y-87041260D01*
X132229524Y-87038500D01*
X132229519Y-87038500D01*
X131896206Y-87038500D01*
X131629478Y-87038501D01*
X131594399Y-87041260D01*
X131444213Y-87084894D01*
X131309592Y-87164507D01*
X131199007Y-87275092D01*
X131143876Y-87368315D01*
X131125730Y-87399000D01*
X131119394Y-87409713D01*
X131075760Y-87559897D01*
X131075760Y-87559901D01*
X131073000Y-87594976D01*
X131073001Y-88220022D01*
X131075760Y-88255100D01*
X131099717Y-88337557D01*
X131119395Y-88405289D01*
X131153525Y-88463000D01*
X131199007Y-88539907D01*
X131309592Y-88650492D01*
X131309594Y-88650493D01*
X131309595Y-88650494D01*
X131444211Y-88730105D01*
X131594397Y-88773739D01*
X131604421Y-88774527D01*
X131629476Y-88776500D01*
X131629480Y-88776499D01*
X131629481Y-88776500D01*
X131962652Y-88776499D01*
X132229522Y-88776499D01*
X132249566Y-88774921D01*
X132264603Y-88773739D01*
X132414789Y-88730105D01*
X132549405Y-88650494D01*
X132659994Y-88539905D01*
X132715124Y-88446683D01*
X132753376Y-88417964D01*
X132768920Y-88416000D01*
X133368611Y-88416000D01*
X133381894Y-88417427D01*
X133393351Y-88419920D01*
X133393351Y-88419919D01*
X133393352Y-88419920D01*
X133447052Y-88416080D01*
X133449282Y-88416000D01*
X133466362Y-88416000D01*
X133466368Y-88416000D01*
X133483305Y-88413564D01*
X133485493Y-88413329D01*
X133539201Y-88409489D01*
X133550190Y-88405389D01*
X133563134Y-88402086D01*
X133574734Y-88400419D01*
X133623706Y-88378054D01*
X133625741Y-88377210D01*
X133676204Y-88358389D01*
X133685588Y-88351364D01*
X133697084Y-88344542D01*
X133707743Y-88339676D01*
X133748428Y-88304420D01*
X133750167Y-88303020D01*
X133763848Y-88292780D01*
X133775961Y-88280665D01*
X133777548Y-88279188D01*
X133818250Y-88243921D01*
X133824584Y-88234063D01*
X133832966Y-88223660D01*
X133959305Y-88097320D01*
X134003500Y-88079015D01*
X134047694Y-88097321D01*
X134066000Y-88141515D01*
X134066000Y-88372206D01*
X134070353Y-88402086D01*
X134076804Y-88446361D01*
X134076804Y-88446362D01*
X134132721Y-88560742D01*
X134132723Y-88560745D01*
X134222754Y-88650776D01*
X134222757Y-88650778D01*
X134234147Y-88656346D01*
X134337139Y-88706696D01*
X134411294Y-88717500D01*
X134526500Y-88717500D01*
X134570694Y-88735806D01*
X134589000Y-88780000D01*
X134589000Y-93138983D01*
X134570694Y-93183177D01*
X134289678Y-93464194D01*
X134245484Y-93482500D01*
X134143490Y-93482500D01*
X134099296Y-93464194D01*
X134080990Y-93420000D01*
X134081446Y-93412466D01*
X134081520Y-93411862D01*
X134089638Y-93345000D01*
X134088891Y-93338852D01*
X134071154Y-93192769D01*
X134071153Y-93192766D01*
X134071153Y-93192762D01*
X134016772Y-93049372D01*
X133929656Y-92923162D01*
X133927002Y-92920811D01*
X133814867Y-92821468D01*
X133679080Y-92750202D01*
X133679079Y-92750201D01*
X133679078Y-92750201D01*
X133545997Y-92717399D01*
X133530179Y-92713500D01*
X133530178Y-92713500D01*
X133423499Y-92713500D01*
X133379305Y-92695194D01*
X133360999Y-92651000D01*
X133360999Y-92544957D01*
X133360998Y-92544940D01*
X133358172Y-92518651D01*
X133354834Y-92487597D01*
X133317625Y-92387839D01*
X133317626Y-92344159D01*
X133354834Y-92244403D01*
X133361000Y-92187051D01*
X133360999Y-91894950D01*
X133354834Y-91837597D01*
X133317434Y-91737323D01*
X133306449Y-91707871D01*
X133306448Y-91707870D01*
X133306448Y-91707869D01*
X133223473Y-91597027D01*
X133112631Y-91514052D01*
X133112630Y-91514051D01*
X133112628Y-91514050D01*
X132982904Y-91465666D01*
X132925551Y-91459500D01*
X131558457Y-91459500D01*
X131558440Y-91459501D01*
X131501097Y-91465666D01*
X131501092Y-91465667D01*
X131371371Y-91514050D01*
X131371367Y-91514053D01*
X131260527Y-91597027D01*
X131177553Y-91707867D01*
X131177550Y-91707871D01*
X131129166Y-91837595D01*
X131123000Y-91894941D01*
X131123000Y-91894949D01*
X131123000Y-92031597D01*
X131123001Y-92120000D01*
X131104695Y-92164194D01*
X131060501Y-92182500D01*
X131004016Y-92182500D01*
X130959822Y-92164194D01*
X130300470Y-91504842D01*
X130292085Y-91494437D01*
X130285750Y-91484579D01*
X130278223Y-91478057D01*
X130245070Y-91449329D01*
X130243449Y-91447821D01*
X130231348Y-91435720D01*
X130217658Y-91425472D01*
X130215934Y-91424083D01*
X130175243Y-91388824D01*
X130175241Y-91388823D01*
X130175240Y-91388822D01*
X130164577Y-91383953D01*
X130153088Y-91377136D01*
X130143704Y-91370111D01*
X130143702Y-91370110D01*
X130093257Y-91351294D01*
X130091197Y-91350441D01*
X130042237Y-91328082D01*
X130042235Y-91328081D01*
X130042234Y-91328081D01*
X130042231Y-91328080D01*
X130042229Y-91328080D01*
X130030632Y-91326412D01*
X130017691Y-91323109D01*
X130006703Y-91319011D01*
X130006695Y-91319009D01*
X130002845Y-91318734D01*
X129960071Y-91297319D01*
X129953515Y-91288213D01*
X129901994Y-91201095D01*
X129901993Y-91201094D01*
X129901992Y-91201092D01*
X129791407Y-91090507D01*
X129731438Y-91055042D01*
X129656789Y-91010895D01*
X129649971Y-91008914D01*
X129506600Y-90967260D01*
X129471524Y-90964500D01*
X129471519Y-90964500D01*
X129124124Y-90964500D01*
X128846478Y-90964501D01*
X128811399Y-90967260D01*
X128661213Y-91010894D01*
X128661211Y-91010894D01*
X128661211Y-91010895D01*
X128655974Y-91013992D01*
X128526592Y-91090507D01*
X128416007Y-91201092D01*
X128367716Y-91282750D01*
X128346273Y-91319009D01*
X128336394Y-91335713D01*
X128292760Y-91485897D01*
X128292760Y-91485901D01*
X128290000Y-91520976D01*
X128290001Y-92121022D01*
X128292760Y-92156100D01*
X128326791Y-92273231D01*
X128336395Y-92306289D01*
X128384625Y-92387842D01*
X128416007Y-92440907D01*
X128526592Y-92551492D01*
X128526594Y-92551493D01*
X128526595Y-92551494D01*
X128661211Y-92631105D01*
X128714321Y-92646535D01*
X128726184Y-92649982D01*
X128763516Y-92679891D01*
X128768765Y-92727437D01*
X128738856Y-92764769D01*
X128726184Y-92770018D01*
X128661214Y-92788894D01*
X128661211Y-92788895D01*
X128621373Y-92812455D01*
X128526592Y-92868507D01*
X128416007Y-92979092D01*
X128336394Y-93113713D01*
X128292760Y-93263897D01*
X128292760Y-93263901D01*
X128290000Y-93298976D01*
X128290001Y-93899022D01*
X128292760Y-93934100D01*
X128326791Y-94051231D01*
X128336395Y-94084289D01*
X128388805Y-94172910D01*
X128416007Y-94218907D01*
X128526593Y-94329493D01*
X128619815Y-94384624D01*
X128648536Y-94422877D01*
X128650500Y-94438420D01*
X128650500Y-94537579D01*
X128632194Y-94581773D01*
X128619815Y-94591375D01*
X128526595Y-94646504D01*
X128526594Y-94646506D01*
X128416007Y-94757092D01*
X128361843Y-94848680D01*
X128337074Y-94890564D01*
X128336394Y-94891713D01*
X128306518Y-94994546D01*
X128276609Y-95031878D01*
X128229063Y-95037127D01*
X128191731Y-95007218D01*
X128186482Y-94994546D01*
X128180462Y-94973826D01*
X128156605Y-94891711D01*
X128076994Y-94757095D01*
X128076993Y-94757094D01*
X128076992Y-94757092D01*
X127966407Y-94646507D01*
X127915638Y-94616483D01*
X127831789Y-94566895D01*
X127787967Y-94554163D01*
X127681600Y-94523260D01*
X127646524Y-94520500D01*
X127646519Y-94520500D01*
X127299128Y-94520500D01*
X127021478Y-94520501D01*
X126986399Y-94523260D01*
X126836213Y-94566894D01*
X126836211Y-94566894D01*
X126836211Y-94566895D01*
X126825501Y-94573229D01*
X126701592Y-94646507D01*
X126591007Y-94757092D01*
X126553276Y-94820894D01*
X126511395Y-94891711D01*
X126511394Y-94891713D01*
X126511394Y-94891714D01*
X126494333Y-94950437D01*
X126464424Y-94987769D01*
X126434315Y-94995500D01*
X125495610Y-94995500D01*
X125451416Y-94977194D01*
X125448861Y-94974639D01*
X125332445Y-94886358D01*
X125332440Y-94886355D01*
X125196524Y-94832757D01*
X125111121Y-94822501D01*
X125111117Y-94822500D01*
X125111111Y-94822500D01*
X125111104Y-94822500D01*
X123611016Y-94822500D01*
X123566822Y-94804194D01*
X123530321Y-94767693D01*
X123512015Y-94723499D01*
X123530321Y-94679305D01*
X123574515Y-94660999D01*
X124117500Y-94660999D01*
X124117500Y-94361000D01*
X124371500Y-94361000D01*
X124371500Y-94660999D01*
X125110855Y-94660999D01*
X125134021Y-94658312D01*
X125134022Y-94658311D01*
X125228752Y-94616483D01*
X125228753Y-94616482D01*
X125301981Y-94543255D01*
X125343812Y-94448516D01*
X125346500Y-94425355D01*
X125346500Y-94361000D01*
X124371500Y-94361000D01*
X124117500Y-94361000D01*
X124117500Y-94169500D01*
X124135806Y-94125306D01*
X124180000Y-94107000D01*
X125346499Y-94107000D01*
X125346499Y-94042644D01*
X125343812Y-94019478D01*
X125343811Y-94019477D01*
X125301983Y-93924747D01*
X125301982Y-93924746D01*
X125228755Y-93851518D01*
X125134016Y-93809687D01*
X125110856Y-93807000D01*
X124889183Y-93807000D01*
X124844989Y-93788694D01*
X124826683Y-93744500D01*
X124834346Y-93726000D01*
X126719500Y-93726000D01*
X126719500Y-93871091D01*
X126729823Y-93941942D01*
X126783250Y-94051231D01*
X126869268Y-94137249D01*
X126978557Y-94190676D01*
X127049409Y-94201000D01*
X127206999Y-94201000D01*
X127207000Y-93726000D01*
X127461000Y-93726000D01*
X127461000Y-94201000D01*
X127618591Y-94201000D01*
X127689442Y-94190676D01*
X127798731Y-94137249D01*
X127884749Y-94051231D01*
X127938176Y-93941942D01*
X127948500Y-93871091D01*
X127948500Y-93726000D01*
X127461000Y-93726000D01*
X127207000Y-93726000D01*
X126719500Y-93726000D01*
X124834346Y-93726000D01*
X124844989Y-93700306D01*
X124869870Y-93685059D01*
X124875869Y-93683109D01*
X124986733Y-93647088D01*
X125072526Y-93592641D01*
X125074744Y-93591357D01*
X125075368Y-93591031D01*
X125075371Y-93591028D01*
X125078824Y-93588645D01*
X125102860Y-93573392D01*
X125122303Y-93561053D01*
X125186156Y-93493054D01*
X125188203Y-93491067D01*
X125190156Y-93489338D01*
X125190158Y-93489334D01*
X125190160Y-93489333D01*
X125192549Y-93486636D01*
X125194775Y-93483876D01*
X125205928Y-93472000D01*
X126719500Y-93472000D01*
X127206999Y-93472000D01*
X127207000Y-92997000D01*
X127461000Y-92997000D01*
X127461000Y-93472000D01*
X127948500Y-93472000D01*
X127948500Y-93326908D01*
X127938176Y-93256057D01*
X127884749Y-93146768D01*
X127798731Y-93060750D01*
X127689442Y-93007323D01*
X127618591Y-92997000D01*
X127461000Y-92997000D01*
X127207000Y-92997000D01*
X127049409Y-92997000D01*
X126978557Y-93007323D01*
X126869268Y-93060750D01*
X126783250Y-93146768D01*
X126729823Y-93256057D01*
X126719500Y-93326908D01*
X126719500Y-93472000D01*
X125205928Y-93472000D01*
X125232217Y-93444006D01*
X125273608Y-93368714D01*
X125275262Y-93366038D01*
X125277272Y-93363128D01*
X125277806Y-93361718D01*
X125279646Y-93357730D01*
X125309569Y-93303303D01*
X125329211Y-93226801D01*
X125329277Y-93226544D01*
X125330325Y-93223237D01*
X125331653Y-93219738D01*
X125331970Y-93217116D01*
X125332721Y-93213127D01*
X125349500Y-93147782D01*
X125349500Y-93082286D01*
X125367806Y-93038093D01*
X125456992Y-92948907D01*
X125456993Y-92948906D01*
X125456994Y-92948905D01*
X125536605Y-92814289D01*
X125580239Y-92664103D01*
X125583000Y-92629019D01*
X125582999Y-92028982D01*
X125580239Y-91993897D01*
X125566904Y-91948000D01*
X126719500Y-91948000D01*
X126719500Y-92093091D01*
X126729823Y-92163942D01*
X126783250Y-92273231D01*
X126869268Y-92359249D01*
X126978557Y-92412676D01*
X127049409Y-92423000D01*
X127206999Y-92423000D01*
X127207000Y-91948000D01*
X127461000Y-91948000D01*
X127461000Y-92423000D01*
X127618591Y-92423000D01*
X127689442Y-92412676D01*
X127798731Y-92359249D01*
X127884749Y-92273231D01*
X127938176Y-92163942D01*
X127948500Y-92093091D01*
X127948500Y-91948000D01*
X127461000Y-91948000D01*
X127207000Y-91948000D01*
X126719500Y-91948000D01*
X125566904Y-91948000D01*
X125536605Y-91843711D01*
X125456994Y-91709095D01*
X125456993Y-91709094D01*
X125456992Y-91709092D01*
X125441900Y-91694000D01*
X126719500Y-91694000D01*
X127206999Y-91694000D01*
X127207000Y-91219000D01*
X127461000Y-91219000D01*
X127461000Y-91694000D01*
X127948500Y-91694000D01*
X127948500Y-91548908D01*
X127938176Y-91478057D01*
X127884749Y-91368768D01*
X127798731Y-91282750D01*
X127689442Y-91229323D01*
X127618591Y-91219000D01*
X127461000Y-91219000D01*
X127207000Y-91219000D01*
X127049409Y-91219000D01*
X126978557Y-91229323D01*
X126869268Y-91282750D01*
X126783250Y-91368768D01*
X126729823Y-91478057D01*
X126719500Y-91548908D01*
X126719500Y-91694000D01*
X125441900Y-91694000D01*
X125346407Y-91598507D01*
X125318397Y-91581942D01*
X125211789Y-91518895D01*
X125195124Y-91514053D01*
X125061600Y-91475260D01*
X125026524Y-91472500D01*
X125026519Y-91472500D01*
X124679054Y-91472500D01*
X124401478Y-91472501D01*
X124366399Y-91475260D01*
X124216213Y-91518894D01*
X124216211Y-91518894D01*
X124216211Y-91518895D01*
X124212692Y-91520976D01*
X124081592Y-91598507D01*
X123971007Y-91709092D01*
X123954312Y-91737323D01*
X123893796Y-91839652D01*
X123891394Y-91843713D01*
X123861518Y-91946546D01*
X123831609Y-91983878D01*
X123784063Y-91989127D01*
X123746731Y-91959218D01*
X123741482Y-91946546D01*
X123732676Y-91916237D01*
X123711605Y-91843711D01*
X123631994Y-91709095D01*
X123631993Y-91709094D01*
X123631992Y-91709092D01*
X123521407Y-91598507D01*
X123493397Y-91581942D01*
X123386789Y-91518895D01*
X123370124Y-91514053D01*
X123236600Y-91475260D01*
X123201524Y-91472500D01*
X123201519Y-91472500D01*
X122854058Y-91472500D01*
X122576478Y-91472501D01*
X122541399Y-91475260D01*
X122391213Y-91518894D01*
X122391211Y-91518894D01*
X122391211Y-91518895D01*
X122387692Y-91520976D01*
X122256592Y-91598507D01*
X122146006Y-91709093D01*
X122098268Y-91789815D01*
X122060015Y-91818536D01*
X122044472Y-91820500D01*
X121494528Y-91820500D01*
X121450334Y-91802194D01*
X121440732Y-91789815D01*
X121392993Y-91709093D01*
X121282407Y-91598507D01*
X121254397Y-91581942D01*
X121147789Y-91518895D01*
X121131124Y-91514053D01*
X120997600Y-91475260D01*
X120962524Y-91472500D01*
X120962519Y-91472500D01*
X120615367Y-91472500D01*
X120337478Y-91472501D01*
X120302399Y-91475260D01*
X120152213Y-91518894D01*
X120152211Y-91518894D01*
X120152211Y-91518895D01*
X120148692Y-91520976D01*
X120017592Y-91598507D01*
X119907007Y-91709092D01*
X119890312Y-91737323D01*
X119829796Y-91839652D01*
X119827394Y-91843713D01*
X119783760Y-91993897D01*
X119783760Y-91993901D01*
X119781000Y-92028976D01*
X119781001Y-92629022D01*
X119783760Y-92664100D01*
X119817791Y-92781231D01*
X119827395Y-92814289D01*
X119881813Y-92906306D01*
X119907007Y-92948907D01*
X120017592Y-93059492D01*
X120017594Y-93059493D01*
X120017595Y-93059494D01*
X120152211Y-93139105D01*
X120302397Y-93182739D01*
X120312421Y-93183527D01*
X120337476Y-93185500D01*
X120337480Y-93185499D01*
X120337481Y-93185500D01*
X120684999Y-93185499D01*
X120962522Y-93185499D01*
X120982603Y-93183919D01*
X120997603Y-93182739D01*
X121147789Y-93139105D01*
X121282405Y-93059494D01*
X121392994Y-92948905D01*
X121424919Y-92894923D01*
X121440732Y-92868185D01*
X121478985Y-92839464D01*
X121494528Y-92837500D01*
X122044472Y-92837500D01*
X122088666Y-92855806D01*
X122098268Y-92868185D01*
X122146006Y-92948906D01*
X122256593Y-93059493D01*
X122277572Y-93071899D01*
X122373315Y-93128521D01*
X122402036Y-93166773D01*
X122404000Y-93182317D01*
X122404000Y-94807610D01*
X122402572Y-94820894D01*
X122400080Y-94832349D01*
X122400080Y-94832351D01*
X122403920Y-94886050D01*
X122404000Y-94888280D01*
X122404000Y-94905373D01*
X122406430Y-94922278D01*
X122406668Y-94924494D01*
X122410511Y-94978202D01*
X122410511Y-94978203D01*
X122414609Y-94989191D01*
X122417912Y-95002132D01*
X122419580Y-95013729D01*
X122419582Y-95013737D01*
X122441941Y-95062697D01*
X122442794Y-95064757D01*
X122458579Y-95107076D01*
X122461611Y-95115204D01*
X122468636Y-95124588D01*
X122475453Y-95136077D01*
X122480322Y-95146740D01*
X122480323Y-95146741D01*
X122480324Y-95146743D01*
X122515583Y-95187434D01*
X122516972Y-95189158D01*
X122527220Y-95202848D01*
X122539321Y-95214949D01*
X122540829Y-95216570D01*
X122576080Y-95257251D01*
X122585935Y-95263584D01*
X122596342Y-95271970D01*
X122869694Y-95545322D01*
X122888000Y-95589515D01*
X122888000Y-95695602D01*
X122888002Y-95695620D01*
X122898257Y-95781025D01*
X122898257Y-95781026D01*
X122951857Y-95916943D01*
X122951858Y-95916945D01*
X122970132Y-95941043D01*
X123040139Y-96033361D01*
X123110939Y-96087050D01*
X123113773Y-96089199D01*
X123137926Y-96130488D01*
X123125808Y-96176764D01*
X123113773Y-96188799D01*
X123040144Y-96244633D01*
X123037121Y-96247658D01*
X123035314Y-96245851D01*
X123001511Y-96265732D01*
X122986217Y-96267931D01*
X122984000Y-96268169D01*
X122930296Y-96272012D01*
X122930295Y-96272012D01*
X122919313Y-96276108D01*
X122906374Y-96279411D01*
X122894765Y-96281081D01*
X122894762Y-96281081D01*
X122845796Y-96303444D01*
X122843736Y-96304297D01*
X122793293Y-96323112D01*
X122793292Y-96323113D01*
X122783906Y-96330139D01*
X122772420Y-96336954D01*
X122761754Y-96341825D01*
X122721076Y-96377073D01*
X122719340Y-96378471D01*
X122705651Y-96388719D01*
X122693561Y-96400809D01*
X122691929Y-96402328D01*
X122651251Y-96437576D01*
X122651249Y-96437579D01*
X122644912Y-96447440D01*
X122636529Y-96457841D01*
X122342341Y-96752029D01*
X122331940Y-96760412D01*
X122322079Y-96766749D01*
X122322076Y-96766751D01*
X122286828Y-96807429D01*
X122285309Y-96809061D01*
X122273220Y-96821150D01*
X122262971Y-96834841D01*
X122261572Y-96836576D01*
X122235334Y-96866857D01*
X122192559Y-96888269D01*
X122147171Y-96873162D01*
X122125759Y-96830387D01*
X122125600Y-96825928D01*
X122125600Y-96022584D01*
X122127028Y-96009299D01*
X122128639Y-96001891D01*
X122129519Y-95997848D01*
X122129452Y-95996905D01*
X122125680Y-95944161D01*
X122125600Y-95941931D01*
X122125600Y-95924836D01*
X122125600Y-95924832D01*
X122123163Y-95907885D01*
X122122927Y-95905683D01*
X122122587Y-95900930D01*
X122119088Y-95851999D01*
X122114990Y-95841014D01*
X122111686Y-95828064D01*
X122110019Y-95816466D01*
X122087647Y-95767479D01*
X122086804Y-95765445D01*
X122067988Y-95714996D01*
X122060959Y-95705606D01*
X122054147Y-95694122D01*
X122049278Y-95683461D01*
X122049275Y-95683456D01*
X122014020Y-95642768D01*
X122012633Y-95641048D01*
X122002380Y-95627352D01*
X121990276Y-95615248D01*
X121988769Y-95613628D01*
X121953520Y-95572949D01*
X121948737Y-95569875D01*
X121943660Y-95566613D01*
X121933257Y-95558229D01*
X121562870Y-95187842D01*
X121554485Y-95177437D01*
X121548150Y-95167579D01*
X121541295Y-95161639D01*
X121507470Y-95132329D01*
X121505849Y-95130821D01*
X121493748Y-95118720D01*
X121480058Y-95108472D01*
X121478334Y-95107083D01*
X121437643Y-95071824D01*
X121437641Y-95071823D01*
X121437640Y-95071822D01*
X121426977Y-95066953D01*
X121415488Y-95060136D01*
X121406104Y-95053111D01*
X121406102Y-95053110D01*
X121355657Y-95034294D01*
X121353597Y-95033441D01*
X121304637Y-95011082D01*
X121304635Y-95011081D01*
X121304634Y-95011081D01*
X121304631Y-95011080D01*
X121304629Y-95011080D01*
X121293032Y-95009412D01*
X121280091Y-95006109D01*
X121269103Y-95002011D01*
X121215394Y-94998168D01*
X121213178Y-94997930D01*
X121196273Y-94995500D01*
X121196268Y-94995500D01*
X121179182Y-94995500D01*
X121176952Y-94995420D01*
X121123252Y-94991579D01*
X121123251Y-94991580D01*
X121111794Y-94994072D01*
X121098511Y-94995500D01*
X120545610Y-94995500D01*
X120501416Y-94977194D01*
X120498861Y-94974639D01*
X120425226Y-94918800D01*
X120401073Y-94877510D01*
X120413191Y-94831235D01*
X120425226Y-94819200D01*
X120437213Y-94810110D01*
X120498861Y-94763361D01*
X120587143Y-94646943D01*
X120640743Y-94511023D01*
X120651000Y-94425611D01*
X120650999Y-94042390D01*
X120640743Y-93956977D01*
X120640742Y-93956974D01*
X120640742Y-93956973D01*
X120602881Y-93860967D01*
X120587143Y-93821057D01*
X120498861Y-93704639D01*
X120417026Y-93642582D01*
X120382445Y-93616358D01*
X120382440Y-93616355D01*
X120246524Y-93562757D01*
X120161121Y-93552501D01*
X120161117Y-93552500D01*
X120161111Y-93552500D01*
X120161104Y-93552500D01*
X118427896Y-93552500D01*
X118427879Y-93552502D01*
X118342474Y-93562757D01*
X118342473Y-93562757D01*
X118206556Y-93616357D01*
X118206554Y-93616358D01*
X118090139Y-93704639D01*
X118001858Y-93821054D01*
X118001855Y-93821059D01*
X117948257Y-93956975D01*
X117938001Y-94042378D01*
X117938000Y-94042395D01*
X117938000Y-94425603D01*
X117938002Y-94425620D01*
X117948257Y-94511025D01*
X117948257Y-94511026D01*
X118001857Y-94646943D01*
X118001858Y-94646945D01*
X118012516Y-94660999D01*
X118090139Y-94763361D01*
X118121390Y-94787059D01*
X118163773Y-94819200D01*
X118187926Y-94860490D01*
X118175808Y-94906765D01*
X118163773Y-94918800D01*
X118090138Y-94974639D01*
X118087584Y-94977194D01*
X118043390Y-94995500D01*
X115806516Y-94995500D01*
X115762322Y-94977194D01*
X114826805Y-94041678D01*
X114808499Y-93997484D01*
X114808500Y-92734000D01*
X114826806Y-92689806D01*
X114871000Y-92671500D01*
X115186206Y-92671500D01*
X115260361Y-92660696D01*
X115374746Y-92604776D01*
X115464776Y-92514746D01*
X115493495Y-92456000D01*
X118210500Y-92456000D01*
X118210500Y-92601091D01*
X118220823Y-92671942D01*
X118274250Y-92781231D01*
X118360268Y-92867249D01*
X118469557Y-92920676D01*
X118540409Y-92931000D01*
X118698000Y-92931000D01*
X118698000Y-92456000D01*
X118952000Y-92456000D01*
X118952000Y-92931000D01*
X119109591Y-92931000D01*
X119180442Y-92920676D01*
X119289731Y-92867249D01*
X119375749Y-92781231D01*
X119429176Y-92671942D01*
X119439500Y-92601091D01*
X119439500Y-92456000D01*
X118952000Y-92456000D01*
X118698000Y-92456000D01*
X118210500Y-92456000D01*
X115493495Y-92456000D01*
X115520696Y-92400361D01*
X115531500Y-92326206D01*
X115531500Y-92202000D01*
X118210500Y-92202000D01*
X118698000Y-92202000D01*
X118698000Y-91727000D01*
X118952000Y-91727000D01*
X118952000Y-92202000D01*
X119439500Y-92202000D01*
X119439500Y-92056908D01*
X119429176Y-91986057D01*
X119375749Y-91876768D01*
X119289731Y-91790750D01*
X119180442Y-91737323D01*
X119109591Y-91727000D01*
X118952000Y-91727000D01*
X118698000Y-91727000D01*
X118540409Y-91727000D01*
X118469557Y-91737323D01*
X118360268Y-91790750D01*
X118274250Y-91876768D01*
X118220823Y-91986057D01*
X118210500Y-92056908D01*
X118210500Y-92202000D01*
X115531500Y-92202000D01*
X115531500Y-90553794D01*
X115520696Y-90479639D01*
X115502784Y-90442999D01*
X115464778Y-90365257D01*
X115464776Y-90365254D01*
X115374745Y-90275223D01*
X115374742Y-90275221D01*
X115260361Y-90219304D01*
X115186206Y-90208500D01*
X113413794Y-90208500D01*
X113339638Y-90219304D01*
X113339637Y-90219304D01*
X113225257Y-90275221D01*
X113225254Y-90275223D01*
X113135223Y-90365254D01*
X113135221Y-90365257D01*
X113079304Y-90479637D01*
X113079304Y-90479638D01*
X113068499Y-90553794D01*
X113068499Y-92326205D01*
X111000000Y-92326205D01*
X111000000Y-86209500D01*
X131327500Y-86209500D01*
X131327500Y-86367091D01*
X131337823Y-86437942D01*
X131391250Y-86547231D01*
X131477268Y-86633249D01*
X131586557Y-86686676D01*
X131657409Y-86697000D01*
X131802499Y-86697000D01*
X131802500Y-86209500D01*
X132056500Y-86209500D01*
X132056500Y-86697000D01*
X132201591Y-86697000D01*
X132272442Y-86686676D01*
X132381731Y-86633249D01*
X132467749Y-86547231D01*
X132521176Y-86437942D01*
X132531500Y-86367091D01*
X132531500Y-86209500D01*
X132056500Y-86209500D01*
X131802500Y-86209500D01*
X131327500Y-86209500D01*
X111000000Y-86209500D01*
X111000000Y-85955500D01*
X131327500Y-85955500D01*
X131802499Y-85955500D01*
X131802500Y-85468000D01*
X132056500Y-85468000D01*
X132056500Y-85955500D01*
X132531500Y-85955500D01*
X132531500Y-85797908D01*
X132521176Y-85727057D01*
X132467749Y-85617768D01*
X132381731Y-85531750D01*
X132272442Y-85478323D01*
X132201591Y-85468000D01*
X132056500Y-85468000D01*
X131802500Y-85468000D01*
X131657409Y-85468000D01*
X131586557Y-85478323D01*
X131477268Y-85531750D01*
X131391250Y-85617768D01*
X131337823Y-85727057D01*
X131327500Y-85797908D01*
X131327500Y-85955500D01*
X111000000Y-85955500D01*
X111000000Y-83248507D01*
X135120499Y-83248507D01*
X135127869Y-83285553D01*
X135127869Y-83285554D01*
X135155938Y-83327561D01*
X135197946Y-83355630D01*
X135234993Y-83363000D01*
X136120500Y-83363000D01*
X136120500Y-82413000D01*
X136374500Y-82413000D01*
X136374500Y-83363000D01*
X137260007Y-83363000D01*
X137297053Y-83355630D01*
X137297054Y-83355630D01*
X137339061Y-83327561D01*
X137367130Y-83285554D01*
X137367130Y-83285553D01*
X137374500Y-83248507D01*
X137374500Y-82413000D01*
X136374500Y-82413000D01*
X136120500Y-82413000D01*
X135120500Y-82413000D01*
X135120500Y-83248507D01*
X135120499Y-83248507D01*
X111000000Y-83248507D01*
X111000000Y-82159000D01*
X135120500Y-82159000D01*
X136120500Y-82159000D01*
X136120500Y-81209000D01*
X136374500Y-81209000D01*
X136374500Y-82159000D01*
X137374500Y-82159000D01*
X137374500Y-81323492D01*
X137367130Y-81286446D01*
X137367130Y-81286445D01*
X137339061Y-81244438D01*
X137297053Y-81216369D01*
X137260007Y-81209000D01*
X136374500Y-81209000D01*
X136120500Y-81209000D01*
X135234993Y-81209000D01*
X135197946Y-81216369D01*
X135197945Y-81216369D01*
X135155938Y-81244438D01*
X135127869Y-81286445D01*
X135127869Y-81286446D01*
X135120500Y-81323492D01*
X135120500Y-82159000D01*
X111000000Y-82159000D01*
X111000000Y-75779887D01*
X111018305Y-75735694D01*
X111235694Y-75518306D01*
X111279888Y-75500000D01*
X159720112Y-75500000D01*
X159764306Y-75518306D01*
G37*
G04 #@! TD.AperFunction*
G04 #@! TA.AperFunction,Conductor*
G36*
X153770051Y-102766806D02*
G01*
X153788357Y-102811000D01*
X153770051Y-102855194D01*
X153755319Y-102866120D01*
X153632587Y-102931720D01*
X153632576Y-102931728D01*
X153483815Y-103053812D01*
X153483812Y-103053815D01*
X153361728Y-103202576D01*
X153361720Y-103202587D01*
X153271004Y-103372307D01*
X153215136Y-103556476D01*
X153208782Y-103621000D01*
X153694182Y-103621000D01*
X153678000Y-103676111D01*
X153678000Y-103819889D01*
X153694182Y-103875000D01*
X153208782Y-103875000D01*
X153215136Y-103939523D01*
X153271004Y-104123692D01*
X153361720Y-104293412D01*
X153361728Y-104293423D01*
X153483812Y-104442184D01*
X153483815Y-104442187D01*
X153632576Y-104564271D01*
X153632587Y-104564279D01*
X153802307Y-104654995D01*
X153986476Y-104710863D01*
X154051000Y-104717217D01*
X154051000Y-104234881D01*
X154142237Y-104248000D01*
X154213763Y-104248000D01*
X154305000Y-104234881D01*
X154305000Y-104717217D01*
X154369523Y-104710863D01*
X154553692Y-104654995D01*
X154723412Y-104564279D01*
X154723423Y-104564271D01*
X154872184Y-104442187D01*
X154872187Y-104442184D01*
X154994271Y-104293423D01*
X154994279Y-104293412D01*
X155084995Y-104123692D01*
X155140863Y-103939523D01*
X155147218Y-103875000D01*
X154661818Y-103875000D01*
X154678000Y-103819889D01*
X154678000Y-103676111D01*
X154661818Y-103621000D01*
X155147217Y-103621000D01*
X155140863Y-103556476D01*
X155084995Y-103372307D01*
X154994279Y-103202587D01*
X154994271Y-103202576D01*
X154872187Y-103053815D01*
X154872184Y-103053812D01*
X154723423Y-102931728D01*
X154723412Y-102931720D01*
X154600681Y-102866120D01*
X154570334Y-102829143D01*
X154575023Y-102781538D01*
X154612000Y-102751191D01*
X154630143Y-102748500D01*
X156265857Y-102748500D01*
X156310051Y-102766806D01*
X156328357Y-102811000D01*
X156310051Y-102855194D01*
X156295319Y-102866120D01*
X156172587Y-102931720D01*
X156172576Y-102931728D01*
X156023815Y-103053812D01*
X156023812Y-103053815D01*
X155901728Y-103202576D01*
X155901720Y-103202587D01*
X155811004Y-103372307D01*
X155755136Y-103556476D01*
X155748782Y-103621000D01*
X156234182Y-103621000D01*
X156218000Y-103676111D01*
X156218000Y-103819889D01*
X156234182Y-103875000D01*
X155748782Y-103875000D01*
X155755136Y-103939523D01*
X155811004Y-104123692D01*
X155901720Y-104293412D01*
X155901728Y-104293423D01*
X156023812Y-104442184D01*
X156023815Y-104442187D01*
X156172576Y-104564271D01*
X156172587Y-104564279D01*
X156342307Y-104654995D01*
X156526476Y-104710863D01*
X156591000Y-104717217D01*
X156591000Y-104234881D01*
X156682237Y-104248000D01*
X156753763Y-104248000D01*
X156845000Y-104234881D01*
X156845000Y-104717217D01*
X156909523Y-104710863D01*
X157093692Y-104654995D01*
X157263412Y-104564279D01*
X157263423Y-104564271D01*
X157412184Y-104442187D01*
X157412187Y-104442184D01*
X157534271Y-104293423D01*
X157534279Y-104293412D01*
X157624995Y-104123692D01*
X157680863Y-103939523D01*
X157687218Y-103875000D01*
X157201818Y-103875000D01*
X157218000Y-103819889D01*
X157218000Y-103676111D01*
X157201818Y-103621000D01*
X157687217Y-103621000D01*
X157680863Y-103556476D01*
X157624995Y-103372307D01*
X157534279Y-103202587D01*
X157534271Y-103202576D01*
X157412187Y-103053815D01*
X157412184Y-103053812D01*
X157263423Y-102931728D01*
X157263412Y-102931720D01*
X157140681Y-102866120D01*
X157110334Y-102829143D01*
X157115023Y-102781538D01*
X157152000Y-102751191D01*
X157170143Y-102748500D01*
X157793000Y-102748500D01*
X157837194Y-102766806D01*
X157855500Y-102811000D01*
X157855500Y-105567239D01*
X157837194Y-105611433D01*
X157793000Y-105629739D01*
X157748806Y-105611433D01*
X157741803Y-105603087D01*
X157664986Y-105493381D01*
X157512618Y-105341013D01*
X157400318Y-105262380D01*
X157336102Y-105217416D01*
X157336100Y-105217415D01*
X157336102Y-105217415D01*
X157140805Y-105126347D01*
X157140803Y-105126346D01*
X156932677Y-105070579D01*
X156932661Y-105070576D01*
X156718002Y-105051796D01*
X156717998Y-105051796D01*
X156503338Y-105070576D01*
X156503322Y-105070579D01*
X156295196Y-105126346D01*
X156295194Y-105126347D01*
X156099898Y-105217415D01*
X155923381Y-105341013D01*
X155771013Y-105493381D01*
X155647415Y-105669898D01*
X155556347Y-105865194D01*
X155556346Y-105865196D01*
X155508370Y-106044248D01*
X155479250Y-106082199D01*
X155431824Y-106088442D01*
X155393873Y-106059322D01*
X155387630Y-106044248D01*
X155339653Y-105865196D01*
X155339652Y-105865194D01*
X155338101Y-105861868D01*
X155248584Y-105669898D01*
X155213794Y-105620212D01*
X155124986Y-105493381D01*
X154972618Y-105341013D01*
X154860318Y-105262380D01*
X154796102Y-105217416D01*
X154796100Y-105217415D01*
X154796102Y-105217415D01*
X154600805Y-105126347D01*
X154600803Y-105126346D01*
X154392677Y-105070579D01*
X154392661Y-105070576D01*
X154178002Y-105051796D01*
X154177998Y-105051796D01*
X153963338Y-105070576D01*
X153963322Y-105070579D01*
X153755196Y-105126346D01*
X153755194Y-105126347D01*
X153559898Y-105217415D01*
X153383381Y-105341013D01*
X153231013Y-105493381D01*
X153107415Y-105669898D01*
X153043524Y-105806914D01*
X153008256Y-105839231D01*
X152986880Y-105843000D01*
X152980213Y-105843000D01*
X152936019Y-105824694D01*
X152609306Y-105497980D01*
X152591000Y-105453786D01*
X152591000Y-102811000D01*
X152609306Y-102766806D01*
X152653500Y-102748500D01*
X153725857Y-102748500D01*
X153770051Y-102766806D01*
G37*
G04 #@! TD.AperFunction*
G04 #@! TD*
G04 #@! TA.AperFunction,Conductor*
G04 #@! TO.N,+3.3V*
G36*
X159784306Y-78758306D02*
G01*
X160001694Y-78975694D01*
X160020000Y-79019888D01*
X160020000Y-117068111D01*
X160001694Y-117112305D01*
X159784306Y-117329694D01*
X159740112Y-117348000D01*
X139217888Y-117348000D01*
X139173694Y-117329694D01*
X138956306Y-117112305D01*
X138938000Y-117068111D01*
X138938000Y-116002294D01*
X138956306Y-115958100D01*
X139000500Y-115939794D01*
X139029601Y-115949120D01*
X139030252Y-115947789D01*
X139147941Y-116005322D01*
X139221214Y-116015998D01*
X139221228Y-116015999D01*
X139454999Y-116015999D01*
X139455000Y-116015998D01*
X139455000Y-115316000D01*
X139709000Y-115316000D01*
X139709000Y-116015999D01*
X139942778Y-116015999D01*
X140016056Y-116005323D01*
X140016060Y-116005321D01*
X140129095Y-115950063D01*
X140218063Y-115861095D01*
X140273322Y-115748058D01*
X140284000Y-115674778D01*
X140284000Y-115316000D01*
X139709000Y-115316000D01*
X139455000Y-115316000D01*
X139455000Y-114362000D01*
X139709000Y-114362000D01*
X139709000Y-115062000D01*
X140283999Y-115062000D01*
X140283999Y-114703222D01*
X140273323Y-114629943D01*
X140273321Y-114629939D01*
X140218063Y-114516904D01*
X140129095Y-114427936D01*
X140016058Y-114372677D01*
X139942778Y-114362000D01*
X139709000Y-114362000D01*
X139455000Y-114362000D01*
X139221222Y-114362000D01*
X139147942Y-114372677D01*
X139147939Y-114372678D01*
X139030252Y-114430211D01*
X139029321Y-114428306D01*
X138990207Y-114437352D01*
X138949631Y-114412018D01*
X138938000Y-114375705D01*
X138938000Y-112192294D01*
X138956306Y-112148100D01*
X139000500Y-112129794D01*
X139029601Y-112139120D01*
X139030252Y-112137789D01*
X139147941Y-112195322D01*
X139221214Y-112205998D01*
X139221228Y-112205999D01*
X139454999Y-112205999D01*
X139455000Y-112205998D01*
X139455000Y-111506000D01*
X139709000Y-111506000D01*
X139709000Y-112205999D01*
X139942778Y-112205999D01*
X140016056Y-112195323D01*
X140016060Y-112195321D01*
X140129095Y-112140063D01*
X140218063Y-112051095D01*
X140273322Y-111938058D01*
X140284000Y-111864778D01*
X140284000Y-111506000D01*
X139709000Y-111506000D01*
X139455000Y-111506000D01*
X139455000Y-110552000D01*
X139709000Y-110552000D01*
X139709000Y-111252000D01*
X140283999Y-111252000D01*
X140283999Y-110893222D01*
X140273323Y-110819943D01*
X140273321Y-110819939D01*
X140218063Y-110706904D01*
X140129095Y-110617936D01*
X140016058Y-110562677D01*
X139942778Y-110552000D01*
X139709000Y-110552000D01*
X139455000Y-110552000D01*
X139221222Y-110552000D01*
X139147942Y-110562677D01*
X139147939Y-110562678D01*
X139030252Y-110620211D01*
X139029321Y-110618306D01*
X138990207Y-110627352D01*
X138949631Y-110602018D01*
X138938000Y-110565705D01*
X138938000Y-108102888D01*
X138956306Y-108058694D01*
X139173694Y-107841306D01*
X139217888Y-107823000D01*
X142341112Y-107823000D01*
X142385306Y-107841306D01*
X142602694Y-108058694D01*
X142621000Y-108102888D01*
X142621000Y-115570000D01*
X157988000Y-115570000D01*
X158242000Y-115570000D01*
X158242000Y-102362000D01*
X157988000Y-102362000D01*
X152552888Y-102362000D01*
X152508694Y-102343694D01*
X152508693Y-102343693D01*
X152482305Y-102317304D01*
X152464000Y-102273111D01*
X152464000Y-102070507D01*
X153200999Y-102070507D01*
X153208369Y-102107553D01*
X153208369Y-102107554D01*
X153236438Y-102149561D01*
X153278446Y-102177630D01*
X153315493Y-102185000D01*
X154051000Y-102185000D01*
X154051000Y-101694881D01*
X154142237Y-101708000D01*
X154213763Y-101708000D01*
X154304999Y-101694882D01*
X154304999Y-102184999D01*
X154305000Y-102185000D01*
X155040507Y-102185000D01*
X155077553Y-102177630D01*
X155077554Y-102177630D01*
X155119561Y-102149561D01*
X155147630Y-102107554D01*
X155147630Y-102107553D01*
X155155000Y-102070507D01*
X155155000Y-101335000D01*
X155748782Y-101335000D01*
X155755136Y-101399523D01*
X155811004Y-101583692D01*
X155901720Y-101753412D01*
X155901728Y-101753423D01*
X156023812Y-101902184D01*
X156023815Y-101902187D01*
X156172576Y-102024271D01*
X156172587Y-102024279D01*
X156342307Y-102114995D01*
X156526476Y-102170863D01*
X156591000Y-102177217D01*
X156591000Y-101694881D01*
X156682237Y-101708000D01*
X156753763Y-101708000D01*
X156845000Y-101694881D01*
X156845000Y-102177217D01*
X156909523Y-102170863D01*
X157093692Y-102114995D01*
X157263412Y-102024279D01*
X157263423Y-102024271D01*
X157412184Y-101902187D01*
X157412187Y-101902184D01*
X157534271Y-101753423D01*
X157534279Y-101753412D01*
X157624995Y-101583692D01*
X157680863Y-101399523D01*
X157687218Y-101335000D01*
X157201818Y-101335000D01*
X157218000Y-101279889D01*
X157218000Y-101136111D01*
X157201818Y-101081000D01*
X157687217Y-101081000D01*
X157680863Y-101016476D01*
X157624995Y-100832307D01*
X157534279Y-100662587D01*
X157534271Y-100662576D01*
X157412187Y-100513815D01*
X157412184Y-100513812D01*
X157263423Y-100391728D01*
X157263412Y-100391720D01*
X157093692Y-100301004D01*
X156909524Y-100245136D01*
X156845000Y-100238780D01*
X156845000Y-100721118D01*
X156753763Y-100708000D01*
X156682237Y-100708000D01*
X156591000Y-100721118D01*
X156591000Y-100238780D01*
X156590999Y-100238780D01*
X156526475Y-100245136D01*
X156342307Y-100301004D01*
X156172587Y-100391720D01*
X156172576Y-100391728D01*
X156023815Y-100513812D01*
X156023812Y-100513815D01*
X155901728Y-100662576D01*
X155901720Y-100662587D01*
X155811004Y-100832307D01*
X155755136Y-101016476D01*
X155748782Y-101081000D01*
X156234182Y-101081000D01*
X156218000Y-101136111D01*
X156218000Y-101279889D01*
X156234182Y-101335000D01*
X155748782Y-101335000D01*
X155155000Y-101335000D01*
X154661818Y-101335000D01*
X154678000Y-101279889D01*
X154678000Y-101136111D01*
X154661818Y-101081000D01*
X155155000Y-101081000D01*
X155155000Y-100345492D01*
X155147630Y-100308446D01*
X155147630Y-100308445D01*
X155119561Y-100266438D01*
X155077553Y-100238369D01*
X155040507Y-100231000D01*
X154305000Y-100231000D01*
X154304999Y-100721117D01*
X154213763Y-100708000D01*
X154142237Y-100708000D01*
X154051000Y-100721118D01*
X154051000Y-100231000D01*
X153315493Y-100231000D01*
X153278446Y-100238369D01*
X153278445Y-100238369D01*
X153236438Y-100266438D01*
X153208369Y-100308445D01*
X153208369Y-100308446D01*
X153201000Y-100345492D01*
X153201000Y-101081000D01*
X153694182Y-101081000D01*
X153678000Y-101136111D01*
X153678000Y-101279889D01*
X153694182Y-101335000D01*
X153201000Y-101335000D01*
X153201000Y-102070507D01*
X153200999Y-102070507D01*
X152464000Y-102070507D01*
X152464000Y-100980251D01*
X152464119Y-100977526D01*
X152467677Y-100936859D01*
X152467676Y-100936858D01*
X152467677Y-100936857D01*
X152457107Y-100897412D01*
X152456522Y-100894777D01*
X152449432Y-100854560D01*
X152446441Y-100849379D01*
X152440199Y-100834309D01*
X152438652Y-100828534D01*
X152429779Y-100815862D01*
X152415233Y-100795087D01*
X152413775Y-100792800D01*
X152393360Y-100757440D01*
X152362083Y-100731195D01*
X152360072Y-100729352D01*
X152291306Y-100660586D01*
X152273000Y-100616392D01*
X152273000Y-99466888D01*
X152291306Y-99422694D01*
X152508694Y-99205306D01*
X152552888Y-99187000D01*
X157988000Y-99187000D01*
X158242000Y-99187000D01*
X158242000Y-81534000D01*
X157988000Y-81534000D01*
X157139274Y-81534000D01*
X157095080Y-81515694D01*
X157076774Y-81471500D01*
X157095080Y-81427306D01*
X157109812Y-81416380D01*
X157263412Y-81334279D01*
X157263423Y-81334271D01*
X157412184Y-81212187D01*
X157412187Y-81212184D01*
X157534271Y-81063423D01*
X157534279Y-81063412D01*
X157624995Y-80893692D01*
X157680863Y-80709523D01*
X157687218Y-80645000D01*
X157201818Y-80645000D01*
X157218000Y-80589889D01*
X157218000Y-80446111D01*
X157201818Y-80391000D01*
X157687217Y-80391000D01*
X157680863Y-80326476D01*
X157624995Y-80142307D01*
X157534279Y-79972587D01*
X157534271Y-79972576D01*
X157412187Y-79823815D01*
X157412184Y-79823812D01*
X157263423Y-79701728D01*
X157263412Y-79701720D01*
X157093692Y-79611004D01*
X156909524Y-79555136D01*
X156845000Y-79548780D01*
X156845000Y-80031118D01*
X156753763Y-80018000D01*
X156682237Y-80018000D01*
X156591000Y-80031118D01*
X156591000Y-79548780D01*
X156590999Y-79548780D01*
X156526475Y-79555136D01*
X156342307Y-79611004D01*
X156172587Y-79701720D01*
X156172576Y-79701728D01*
X156023815Y-79823812D01*
X156023812Y-79823815D01*
X155901728Y-79972576D01*
X155901720Y-79972587D01*
X155811004Y-80142307D01*
X155755136Y-80326476D01*
X155748782Y-80391000D01*
X156234182Y-80391000D01*
X156218000Y-80446111D01*
X156218000Y-80589889D01*
X156234182Y-80645000D01*
X155748782Y-80645000D01*
X155755136Y-80709523D01*
X155811004Y-80893692D01*
X155901720Y-81063412D01*
X155901728Y-81063423D01*
X156023812Y-81212184D01*
X156023815Y-81212187D01*
X156172576Y-81334271D01*
X156172587Y-81334279D01*
X156326188Y-81416380D01*
X156356535Y-81453357D01*
X156351846Y-81500962D01*
X156314869Y-81531309D01*
X156296726Y-81534000D01*
X155186753Y-81534000D01*
X155142559Y-81515694D01*
X155124253Y-81471500D01*
X155134786Y-81436777D01*
X155147630Y-81417554D01*
X155147630Y-81417553D01*
X155155000Y-81380507D01*
X155155000Y-80645000D01*
X154661818Y-80645000D01*
X154678000Y-80589889D01*
X154678000Y-80446111D01*
X154661818Y-80391000D01*
X155155000Y-80391000D01*
X155155000Y-79655492D01*
X155147630Y-79618446D01*
X155147630Y-79618445D01*
X155119561Y-79576438D01*
X155077553Y-79548369D01*
X155040507Y-79541000D01*
X154305000Y-79541000D01*
X154304999Y-80031117D01*
X154213763Y-80018000D01*
X154142237Y-80018000D01*
X154051000Y-80031118D01*
X154051000Y-79541000D01*
X153315493Y-79541000D01*
X153278446Y-79548369D01*
X153278445Y-79548369D01*
X153236438Y-79576438D01*
X153208369Y-79618445D01*
X153208369Y-79618446D01*
X153201000Y-79655492D01*
X153201000Y-80391000D01*
X153694182Y-80391000D01*
X153678000Y-80446111D01*
X153678000Y-80589889D01*
X153694182Y-80645000D01*
X153201000Y-80645000D01*
X153201000Y-81380507D01*
X153200999Y-81380507D01*
X153208369Y-81417553D01*
X153208369Y-81417554D01*
X153221214Y-81436777D01*
X153230546Y-81483693D01*
X153203970Y-81523467D01*
X153169247Y-81534000D01*
X152679888Y-81534000D01*
X152635694Y-81515694D01*
X152418306Y-81298306D01*
X152400000Y-81254112D01*
X152400000Y-79019887D01*
X152418305Y-78975694D01*
X152635694Y-78758306D01*
X152679888Y-78740000D01*
X159740112Y-78740000D01*
X159784306Y-78758306D01*
G37*
G04 #@! TD.AperFunction*
G04 #@! TD*
G04 #@! TA.AperFunction,Conductor*
G04 #@! TO.N,/D3V3*
G36*
X138194306Y-107841306D02*
G01*
X138411694Y-108058694D01*
X138430000Y-108102888D01*
X138430000Y-112623112D01*
X138411694Y-112667306D01*
X138194306Y-112884694D01*
X138150112Y-112903000D01*
X130200888Y-112903000D01*
X130156694Y-112884694D01*
X129939306Y-112667306D01*
X129921000Y-112623112D01*
X129921000Y-110236000D01*
X131488001Y-110236000D01*
X131488001Y-111169777D01*
X131498676Y-111243056D01*
X131498678Y-111243060D01*
X131553936Y-111356095D01*
X131642904Y-111445063D01*
X131755941Y-111500322D01*
X131829221Y-111510999D01*
X132612999Y-111510999D01*
X132613000Y-111510998D01*
X132613000Y-110236000D01*
X132867000Y-110236000D01*
X132867000Y-111510999D01*
X133650778Y-111510999D01*
X133685090Y-111506000D01*
X136830001Y-111506000D01*
X136830001Y-111864777D01*
X136840676Y-111938056D01*
X136840678Y-111938060D01*
X136895936Y-112051095D01*
X136984904Y-112140063D01*
X137097941Y-112195322D01*
X137171214Y-112205998D01*
X137171228Y-112205999D01*
X137404999Y-112205999D01*
X137405000Y-112205998D01*
X137405000Y-111506000D01*
X137659000Y-111506000D01*
X137659000Y-112205999D01*
X137892778Y-112205999D01*
X137966056Y-112195323D01*
X137966060Y-112195321D01*
X138079095Y-112140063D01*
X138168063Y-112051095D01*
X138223322Y-111938058D01*
X138234000Y-111864778D01*
X138234000Y-111506000D01*
X137659000Y-111506000D01*
X137405000Y-111506000D01*
X136830001Y-111506000D01*
X133685090Y-111506000D01*
X133724056Y-111500323D01*
X133724060Y-111500321D01*
X133837095Y-111445063D01*
X133926063Y-111356095D01*
X133976951Y-111252000D01*
X136830000Y-111252000D01*
X137405000Y-111252000D01*
X137405000Y-110552000D01*
X137659000Y-110552000D01*
X137659000Y-111252000D01*
X138233999Y-111252000D01*
X138233999Y-110893222D01*
X138223323Y-110819943D01*
X138223321Y-110819939D01*
X138168063Y-110706904D01*
X138079095Y-110617936D01*
X137966058Y-110562677D01*
X137892778Y-110552000D01*
X137659000Y-110552000D01*
X137405000Y-110552000D01*
X137171222Y-110552000D01*
X137097942Y-110562677D01*
X137097939Y-110562678D01*
X136984904Y-110617936D01*
X136895936Y-110706904D01*
X136840677Y-110819941D01*
X136830000Y-110893221D01*
X136830000Y-111252000D01*
X133976951Y-111252000D01*
X133981322Y-111243058D01*
X133992000Y-111169778D01*
X133992000Y-110236000D01*
X132867000Y-110236000D01*
X132613000Y-110236000D01*
X131488001Y-110236000D01*
X129921000Y-110236000D01*
X129921000Y-109982000D01*
X131488000Y-109982000D01*
X132613000Y-109982000D01*
X132613000Y-108707000D01*
X132867000Y-108707000D01*
X132867000Y-109982000D01*
X133991999Y-109982000D01*
X133991999Y-109048222D01*
X133981323Y-108974943D01*
X133981321Y-108974939D01*
X133926063Y-108861904D01*
X133837095Y-108772936D01*
X133724058Y-108717677D01*
X133650778Y-108707000D01*
X132867000Y-108707000D01*
X132613000Y-108707000D01*
X131829222Y-108707000D01*
X131755943Y-108717676D01*
X131755939Y-108717678D01*
X131642904Y-108772936D01*
X131553936Y-108861904D01*
X131498677Y-108974941D01*
X131488000Y-109048221D01*
X131488000Y-109982000D01*
X129921000Y-109982000D01*
X129921000Y-108102888D01*
X129939306Y-108058694D01*
X130156694Y-107841306D01*
X130200888Y-107823000D01*
X138150112Y-107823000D01*
X138194306Y-107841306D01*
G37*
G04 #@! TD.AperFunction*
G04 #@! TD*
G04 #@! TA.AperFunction,Conductor*
G04 #@! TO.N,VDD*
G36*
X138194306Y-113302306D02*
G01*
X138411694Y-113519694D01*
X138430000Y-113563888D01*
X138430000Y-117068112D01*
X138411694Y-117112306D01*
X138194306Y-117329694D01*
X138150112Y-117348000D01*
X130200888Y-117348000D01*
X130156694Y-117329694D01*
X129939306Y-117112306D01*
X129921000Y-117068112D01*
X129921000Y-115316000D01*
X131488001Y-115316000D01*
X131488001Y-116249777D01*
X131498676Y-116323056D01*
X131498678Y-116323060D01*
X131553936Y-116436095D01*
X131642904Y-116525063D01*
X131755941Y-116580322D01*
X131829221Y-116590999D01*
X132612999Y-116590999D01*
X132613000Y-116590998D01*
X132613000Y-115316000D01*
X132867000Y-115316000D01*
X132867000Y-116590999D01*
X133650778Y-116590999D01*
X133724056Y-116580323D01*
X133724060Y-116580321D01*
X133837095Y-116525063D01*
X133926063Y-116436095D01*
X133981322Y-116323058D01*
X133992000Y-116249778D01*
X133992000Y-115316000D01*
X136830001Y-115316000D01*
X136830001Y-115674777D01*
X136840676Y-115748056D01*
X136840678Y-115748060D01*
X136895936Y-115861095D01*
X136984904Y-115950063D01*
X137097941Y-116005322D01*
X137171214Y-116015998D01*
X137171228Y-116015999D01*
X137404999Y-116015999D01*
X137405000Y-116015998D01*
X137405000Y-115316000D01*
X137659000Y-115316000D01*
X137659000Y-116015999D01*
X137892778Y-116015999D01*
X137966056Y-116005323D01*
X137966060Y-116005321D01*
X138079095Y-115950063D01*
X138168063Y-115861095D01*
X138223322Y-115748058D01*
X138234000Y-115674778D01*
X138234000Y-115316000D01*
X137659000Y-115316000D01*
X137405000Y-115316000D01*
X136830001Y-115316000D01*
X133992000Y-115316000D01*
X132867000Y-115316000D01*
X132613000Y-115316000D01*
X131488001Y-115316000D01*
X129921000Y-115316000D01*
X129921000Y-115062000D01*
X131488000Y-115062000D01*
X132613000Y-115062000D01*
X132613000Y-113787000D01*
X132867000Y-113787000D01*
X132867000Y-115062000D01*
X133991999Y-115062000D01*
X136830000Y-115062000D01*
X137405000Y-115062000D01*
X137405000Y-114362000D01*
X137659000Y-114362000D01*
X137659000Y-115062000D01*
X138233999Y-115062000D01*
X138233999Y-114703222D01*
X138223323Y-114629943D01*
X138223321Y-114629939D01*
X138168063Y-114516904D01*
X138079095Y-114427936D01*
X137966058Y-114372677D01*
X137892778Y-114362000D01*
X137659000Y-114362000D01*
X137405000Y-114362000D01*
X137171222Y-114362000D01*
X137097942Y-114372677D01*
X137097939Y-114372678D01*
X136984904Y-114427936D01*
X136895936Y-114516904D01*
X136840677Y-114629941D01*
X136830000Y-114703221D01*
X136830000Y-115062000D01*
X133991999Y-115062000D01*
X133991999Y-114128222D01*
X133981323Y-114054943D01*
X133981321Y-114054939D01*
X133926063Y-113941904D01*
X133837095Y-113852936D01*
X133724058Y-113797677D01*
X133650778Y-113787000D01*
X132867000Y-113787000D01*
X132613000Y-113787000D01*
X131829222Y-113787000D01*
X131755943Y-113797676D01*
X131755939Y-113797678D01*
X131642904Y-113852936D01*
X131553936Y-113941904D01*
X131498677Y-114054941D01*
X131488000Y-114128221D01*
X131488000Y-115062000D01*
X129921000Y-115062000D01*
X129921000Y-113563887D01*
X129939305Y-113519694D01*
X130156693Y-113302306D01*
X130200888Y-113284000D01*
X138150112Y-113284000D01*
X138194306Y-113302306D01*
G37*
G04 #@! TD.AperFunction*
G04 #@! TD*
M02*
