G04 #@! TF.GenerationSoftware,KiCad,Pcbnew,7.0.6*
G04 #@! TF.CreationDate,2023-08-06T21:35:15+02:00*
G04 #@! TF.ProjectId,AD9744_Test,41443937-3434-45f5-9465-73742e6b6963,rev?*
G04 #@! TF.SameCoordinates,Original*
G04 #@! TF.FileFunction,Soldermask,Top*
G04 #@! TF.FilePolarity,Negative*
%FSLAX46Y46*%
G04 Gerber Fmt 4.6, Leading zero omitted, Abs format (unit mm)*
G04 Created by KiCad (PCBNEW 7.0.6) date 2023-08-06 21:35:15*
%MOMM*%
%LPD*%
G01*
G04 APERTURE LIST*
G04 Aperture macros list*
%AMRoundRect*
0 Rectangle with rounded corners*
0 $1 Rounding radius*
0 $2 $3 $4 $5 $6 $7 $8 $9 X,Y pos of 4 corners*
0 Add a 4 corners polygon primitive as box body*
4,1,4,$2,$3,$4,$5,$6,$7,$8,$9,$2,$3,0*
0 Add four circle primitives for the rounded corners*
1,1,$1+$1,$2,$3*
1,1,$1+$1,$4,$5*
1,1,$1+$1,$6,$7*
1,1,$1+$1,$8,$9*
0 Add four rect primitives between the rounded corners*
20,1,$1+$1,$2,$3,$4,$5,0*
20,1,$1+$1,$4,$5,$6,$7,0*
20,1,$1+$1,$6,$7,$8,$9,0*
20,1,$1+$1,$8,$9,$2,$3,0*%
G04 Aperture macros list end*
%ADD10R,1.700000X1.700000*%
%ADD11RoundRect,0.250000X0.325000X0.450000X-0.325000X0.450000X-0.325000X-0.450000X0.325000X-0.450000X0*%
%ADD12RoundRect,0.237500X-0.250000X-0.237500X0.250000X-0.237500X0.250000X0.237500X-0.250000X0.237500X0*%
%ADD13R,0.900000X0.400000*%
%ADD14R,1.600000X1.500000*%
%ADD15RoundRect,0.237500X-0.237500X0.250000X-0.237500X-0.250000X0.237500X-0.250000X0.237500X0.250000X0*%
%ADD16RoundRect,0.237500X-0.237500X0.300000X-0.237500X-0.300000X0.237500X-0.300000X0.237500X0.300000X0*%
%ADD17RoundRect,0.237500X0.250000X0.237500X-0.250000X0.237500X-0.250000X-0.237500X0.250000X-0.237500X0*%
%ADD18RoundRect,0.250000X0.875000X1.025000X-0.875000X1.025000X-0.875000X-1.025000X0.875000X-1.025000X0*%
%ADD19O,1.700000X1.700000*%
%ADD20R,1.300000X1.900000*%
%ADD21R,2.000000X1.900000*%
%ADD22RoundRect,0.150000X0.825000X0.150000X-0.825000X0.150000X-0.825000X-0.150000X0.825000X-0.150000X0*%
%ADD23RoundRect,0.100000X0.637500X0.100000X-0.637500X0.100000X-0.637500X-0.100000X0.637500X-0.100000X0*%
G04 APERTURE END LIST*
D10*
G04 #@! TO.C,J3*
X114300000Y-91440000D03*
G04 #@! TD*
D11*
G04 #@! TO.C,FB2*
X139582000Y-115189000D03*
X137532000Y-115189000D03*
G04 #@! TD*
D12*
G04 #@! TO.C,R7*
X127334000Y-98679000D03*
X129159000Y-98679000D03*
G04 #@! TD*
D13*
G04 #@! TO.C,RN4*
X142763500Y-101473000D03*
X142763500Y-102273000D03*
X142763500Y-103073000D03*
X142763500Y-103873000D03*
X144463500Y-103873000D03*
X144463500Y-103073000D03*
X144463500Y-102273000D03*
X144463500Y-101473000D03*
G04 #@! TD*
D14*
G04 #@! TO.C,X1*
X132461000Y-105875000D03*
X135001000Y-105875000D03*
X135001000Y-103675000D03*
X132461000Y-103675000D03*
G04 #@! TD*
D10*
G04 #@! TO.C,J4*
X114300000Y-105664000D03*
G04 #@! TD*
D12*
G04 #@! TO.C,R4*
X127334000Y-91821000D03*
X129159000Y-91821000D03*
G04 #@! TD*
D15*
G04 #@! TO.C,R6*
X131929500Y-86082500D03*
X131929500Y-87907500D03*
G04 #@! TD*
D16*
G04 #@! TO.C,C3*
X127381000Y-104039500D03*
X127381000Y-105764500D03*
G04 #@! TD*
D13*
G04 #@! TO.C,RN3*
X142763500Y-97663000D03*
X142763500Y-98463000D03*
X142763500Y-99263000D03*
X142763500Y-100063000D03*
X144463500Y-100063000D03*
X144463500Y-99263000D03*
X144463500Y-98463000D03*
X144463500Y-97663000D03*
G04 #@! TD*
D17*
G04 #@! TO.C,R8*
X129159000Y-93599000D03*
X127334000Y-93599000D03*
G04 #@! TD*
G04 #@! TO.C,R5*
X129182500Y-100584000D03*
X127357500Y-100584000D03*
G04 #@! TD*
G04 #@! TO.C,R11*
X120650000Y-92329000D03*
X118825000Y-92329000D03*
G04 #@! TD*
G04 #@! TO.C,R2*
X144549500Y-106299000D03*
X142724500Y-106299000D03*
G04 #@! TD*
D18*
G04 #@! TO.C,C4*
X132740000Y-110109000D03*
X126340000Y-110109000D03*
G04 #@! TD*
D10*
G04 #@! TO.C,J1*
X154178000Y-80518000D03*
D19*
X156718000Y-80518000D03*
X154178000Y-83058000D03*
X156718000Y-83058000D03*
X154178000Y-85598000D03*
X156718000Y-85598000D03*
X154178000Y-88138000D03*
X156718000Y-88138000D03*
X154178000Y-90678000D03*
X156718000Y-90678000D03*
X154178000Y-93218000D03*
X156718000Y-93218000D03*
G04 #@! TD*
D13*
G04 #@! TO.C,RN2*
X142763500Y-93872000D03*
X142763500Y-94672000D03*
X142763500Y-95472000D03*
X142763500Y-96272000D03*
X144463500Y-96272000D03*
X144463500Y-95472000D03*
X144463500Y-94672000D03*
X144463500Y-93872000D03*
G04 #@! TD*
D20*
G04 #@! TO.C,RV1*
X135097500Y-87386000D03*
D21*
X136247500Y-82286000D03*
D20*
X137397500Y-87386000D03*
G04 #@! TD*
D11*
G04 #@! TO.C,FB1*
X139582000Y-111379000D03*
X137532000Y-111379000D03*
G04 #@! TD*
D10*
G04 #@! TO.C,J2*
X154178000Y-101208000D03*
D19*
X156718000Y-101208000D03*
X154178000Y-103748000D03*
X156718000Y-103748000D03*
X154178000Y-106288000D03*
X156718000Y-106288000D03*
X154178000Y-108828000D03*
X156718000Y-108828000D03*
X154178000Y-111368000D03*
X156718000Y-111368000D03*
X154178000Y-113908000D03*
X156718000Y-113908000D03*
G04 #@! TD*
D15*
G04 #@! TO.C,R1*
X129286000Y-103989500D03*
X129286000Y-105814500D03*
G04 #@! TD*
D17*
G04 #@! TO.C,R10*
X129159000Y-95377000D03*
X127334000Y-95377000D03*
G04 #@! TD*
G04 #@! TO.C,R9*
X129159000Y-96901000D03*
X127334000Y-96901000D03*
G04 #@! TD*
G04 #@! TO.C,R3*
X139723500Y-103505000D03*
X137898500Y-103505000D03*
G04 #@! TD*
D22*
G04 #@! TO.C,U2*
X124244500Y-98044000D03*
X124244500Y-96774000D03*
X124244500Y-95504000D03*
X124244500Y-94234000D03*
X119294500Y-94234000D03*
X119294500Y-95504000D03*
X119294500Y-96774000D03*
X119294500Y-98044000D03*
G04 #@! TD*
D12*
G04 #@! TO.C,R12*
X122889000Y-92329000D03*
X124714000Y-92329000D03*
G04 #@! TD*
D13*
G04 #@! TO.C,RN1*
X142763500Y-90043000D03*
X142763500Y-90843000D03*
X142763500Y-91643000D03*
X142763500Y-92443000D03*
X144463500Y-92443000D03*
X144463500Y-91643000D03*
X144463500Y-90843000D03*
X144463500Y-90043000D03*
G04 #@! TD*
D23*
G04 #@! TO.C,U1*
X137967000Y-100491000D03*
X137967000Y-99841000D03*
X137967000Y-99191000D03*
X137967000Y-98541000D03*
X137967000Y-97891000D03*
X137967000Y-97241000D03*
X137967000Y-96591000D03*
X137967000Y-95941000D03*
X137967000Y-95291000D03*
X137967000Y-94641000D03*
X137967000Y-93991000D03*
X137967000Y-93341000D03*
X137967000Y-92691000D03*
X137967000Y-92041000D03*
X132242000Y-92041000D03*
X132242000Y-92691000D03*
X132242000Y-93341000D03*
X132242000Y-93991000D03*
X132242000Y-94641000D03*
X132242000Y-95291000D03*
X132242000Y-95941000D03*
X132242000Y-96591000D03*
X132242000Y-97241000D03*
X132242000Y-97891000D03*
X132242000Y-98541000D03*
X132242000Y-99191000D03*
X132242000Y-99841000D03*
X132242000Y-100491000D03*
G04 #@! TD*
D17*
G04 #@! TO.C,R13*
X122682000Y-99822000D03*
X120857000Y-99822000D03*
G04 #@! TD*
D18*
G04 #@! TO.C,C6*
X132740000Y-115189000D03*
X126340000Y-115189000D03*
G04 #@! TD*
M02*
